<svg xmlns="http://www.w3.org/2000/svg" viewBox="0 0 321.943 84.728" height="320.23" width="1216.794"><path d="M99.615 0c-.464 0-.252 2.195-.688 2.641-.382.393-1.215-.19-1.225.222.4.925 1.222 1.067 1.496 2.083.053.227.128.53.166.673-.846.07-1.179-1.833-1.605-1.421-.06.465-.2.374-.564.195-1.397-.607-1.44-.211-.247.576-.275.225-.571.447-.898.571-.25 0-.162.338.11.423 1.727.198 1.728-.18.83.671-.37.407-.414.51-.257.609.413.139.878-.003 1.194.262.346.297.715.204.599-.15.73-.764.787.876.785 1.117-.036.359.122 2.009-.353 1.768-.505-.26-1.606-1.324-1.708-1.651-.157-.5-.75-1.355-.941-1.355-.27.103-.362.302-.511.536-.395-.324-.86-.92-1.332-.98-.31.536.207.82.505 1.346-.34.106-.695.038-1.02.189.237.562 1.51 1.438.675 1.45a.86.86 0 00-.518.193c-.21.203-.15.534.098.534.29 0 .822.308.907.525.064.164.155.202.343.141.523-.168.738-.13.794.141-.052.55-1.82.31-1.39.814.092.103.35.251.574.33.3.105.395.2.364.361-.031.158.073.267.376.396.242.102.33.18.21.187-.114.005-.45-.104-.744-.242-.432-.202-.599-.226-.861-.124-.334.13-.407.304-.184.436.07.041.13.12.133.177.008.13-.652.368-1.021.368-.532.081-.728.617-1.21.786-.477.154-.187.472.693.758.625.204.899.243 1.064.152.35-.194.455-.15.566.24.07.243.178.363.328.363.292 0 .924-.566 1.04-.93.377-.471.575.1.437.506-.047.139.028.182.32.182.394 0 .945-.444.934-.751-.004-.086.084.02.192.236.258.513.602.513.898 0 .242-.42.326-.371.12.07-.206.44-.457.558-1.191.562-.788.004-.985.207-.592.61.22.226.216.24-.091.359-.688.267-1.623.024-2.364-.616-.29-.25-.43-.196-.406.155.017.252-.08.271-.532.104-.272-.1-.317-.085-.304.108-.034.257-.254.345-.328.55.016.243-.093.235-.749-.053-.665-.292-1.34-.324-1.323-.063.008.129-.12.181-.443.183-.665.002-.994.12-.978.35.022.34.295.495.877.5.51.003.535.016.33.18-.265.21-.26.214.424.407.503.14.526.165.358.364-.099.117-.177.25-.174.294.328.075.656-.221 1.14-.152.269-.034.33-.369.56-.493.07 0-.06.207-.291.46-.532.58-.536.809-.015.703.647-.179 1.436-1.099 1.445-.128.072.813 2.87-.268 2.881-.182.028.422-1.167 1.143-2.503 1.51-.845.232-1.066.17-2.23-.62-1.605-1.023.482 1.362-1.443.303-.488-.265-.687-.325-.68-.206.274.56-.16.46-.552.46-2.313.033.716.681.555 1.182.097.87 1.884-.472 1.296.249-.232.276-.23.384.01.384.317.296-.087.67.558.489.352-.103.376-.09.402.215.154.597.751.864 1.151.727.326-.101.55-.515.748-.27.52.228.733-.116 1.254-.418.038.471.101.798.452.524.879-.151 1.568.149-.74.965-.94.791-2.955-.266-3.41-.14-.135.236-.078.538.142.743.077.457-1.001.103-1.415-.065-.701-.292-1.063-.243-.847.115.076.358-.536.143-.857.3-.138.07-.331.146-.504.202.04-.077.088-.16.155-.26.106-.175-.455-.334-.31-.515.352-.27 1.104-.544 1.135-.644.132-.43-2.156.4-2.434-.105-.336-1.749 2.758.42 1.977-.65-.764-.204-1.24-.437-1.062-.617.447-.45 3.079-.78 1.443-1.032-1.044-.138-2.5.177-2.485-.92.798-.286 1.23-.47-.585-.997-.073-.051-.419-.295-.345-.438.487-.936.549-1.154.07-.795-.439.33-.058-1.693-.39-1.11-.307.543.25 1.052-.342 1.898-.28.401-.679.168-1.35.369-.43.166 1.397.392 1.371.45-.143.318-2.332 1.804-2.74 1.826-.28.015-.129.454.326.534.525.487 2.114-.698.881.567-.727.754-1.706 1.023-1.989 1.433-.253.367.245.073.652.438 1.667.431-.714.333.36 1.454-.239.571-2.104-.433-2.729.631-2.594.828 1.931.487 1.573 1.06-.212.72 1.663-.448 1.82.811 0 0 .16 1.495-.634.338-1.2 1.377-1.218-.745-2.729.16.91 1.335-.677.314-1.612.665-2.385.553 2.01.629 1.514 1.142-2.022.528-.55 1.122.622.586-.103.608.123 1.014 1.014.41.342-.554 1.463.94.915 1.008-1.653.147-2.574.022-3.368-.384-.338-.182-.163.34.069.56.903.857-1.46-.463-2.755-.19-.13.101-.225.312.082.4.834.24-.282.555.531.887.538.15-.193.502.227.575.296.714-1.989-1.16-2.275-.442-.498-.023-.788.019-.932.096-.112-.27-.123-.268.18-.268.216 0 .284-.062.285-.26.003-.341.136-.54.474-.709.28-.14.558-.702.417-.843-.115-.115-.984.303-1.586.762-.633.452-1.07.44-1.798.498.44-.502.746-1.01 1.265-1.307.705-.398.935-.622.823-.804.166-.804 1.053-1.44 1.1-2.323 0-.181-.228-.133-.591.126-.185.132-.337.335-.337.451-.261.493-1.095.491-1.3.056-.108-.24-.19-.283-.42-.225-.282.07-.28.065.074-.339.636-.725.637-1.642 0-1.77-.532-.082-.626-.837-1.1-.847-.503-.325.566-.562.638-1.076-.15-.806-1.003.594-1.022-.139 0-.077 1.08-1.65.482-1.434-.555.199-.157-2.638-.575-1.959-.3.425.155 2.684-1.385 2.139-.526-.115-.184.975.23 1.167.454.16.368.523.595.804.25.146.352.604.152.68-.869-.115-3.035-1.848-3.185-1.201-.024.126.106.269.368.404.456.383.837.792 1.266 1.06.199.164.365.62.484 1.33.047.487 1.097 1.426.64 1.328-.158-.035-.55-.17-.869-.3-.682-.245-1.39-.551-1.924-.969-.652-.516-.915-.563-.915-.166-.134.53 1.83 1.85 1.854 2.215 0 .245-.231.217-.945-.115-.643-.299-1.141-.375-1.141-.175.108.161.412.096.255.255-.368.369-.002.779.848.949l.684.137c.016 1.046-1.247 1.307 1.134 1.505.524 1.283-1.827-.113-2.497-.401-.673.65 1.148 3.111.265 2.798a3.73 3.73 0 01-.719-.257c-.315-.15-.887.056-.836-.287.183-.344-.166-.39-.817-.11-.384.16-1.39.499-1.346.062a.567.567 0 00.089-.712c-.443-.12-2.3.892-3.248.134-2.254-.782-1.615-1.069-.767-.924.353.262.393-.05.399-.502.517.289.741.618 1.223.4.175-.235.413.162.731.26.39.13.944-.126 1.053-.697.006-.293.028-.305.371-.206.627.173.217-.185.5-.469.23 0 .226-.103-.014-.368-.606-.69 1.185.596 1.222-.238-.185-.48 2.666-1.1.454-1.132-.374 0-.78.097-.556-.44 0-.115-.186-.057-.636.197-1.77 1.014.072-1.27-1.395-.29-1.062.757-1.27.815-2.09.593-1.299-.351-2.485-1.042-2.485-1.446.005-.082 2.744.953 2.761.175-.053-.93.76-.049 1.388.122.505.101.485-.117-.058-.674-.237-.242-.375-.44-.308-.44.227.119.307.44.566.472.458-.066.79.218 1.098.146 0-.043-.083-.17-.184-.282-.173-.19-.152-.213.318-.349.641-.184.645-.188.379-.39-.206-.156-.183-.168.304-.172.555-.004.806-.153.806-.478 0-.22-.321-.333-.956-.336-.309 0-.435-.052-.435-.175 0-.25-.642-.22-1.259.06-.608.276-.712.284-.712.052-.083-.197-.298-.282-.347-.528 0-.184-.044-.2-.297-.103-.422.16-.515.142-.515-.1 0-.335-.137-.386-.397-.148-.667.613-1.545.846-2.218.59-.301-.115-.306-.127-.11-.344.35-.386.15-.58-.603-.584-.701-.004-.948-.117-1.173-.54-.225-.42-.148-.467.11-.065.315.491.644.491.857 0 .09-.207.166-.309.168-.226.01.294.564.719.94.719.278 0 .348-.042.294-.174-.158-.39-.004-.936.386-.485.132.349.772.89 1.05.89.144 0 .24-.114.29-.347.082-.373.18-.415.526-.23.163.088.423.05 1.007-.145.822-.275 1.078-.578.613-.726-.47-.162-.692-.676-1.205-.754-.352 0-.998-.228-.998-.352 0-.054.052-.13.115-.17.205-.126.125-.292-.202-.417-.257-.098-.415-.075-.815.12-.272.131-.585.235-.695.23-.115-.006-.035-.08.189-.179.282-.123.374-.227.334-.378-.04-.154.046-.245.325-.346.208-.076.445-.218.527-.316.378-.482-1.294-.253-1.379-.78.037-.26.24-.296.749-.135.184.058.268.022.319-.135.067-.208.556-.503.833-.503.237 0 .274-.317.06-.51a.872.872 0 00-.507-.186c-.799-.012.362-.85.553-1.389-.32-.144-.656-.08-.986-.181.251-.505.727-.776.397-1.289-.448.057-.853.628-1.21.939-.157-.225-.257-.415-.521-.514-.183 0-.695.82-.813 1.298-.077.313-1.06 1.332-1.526 1.58-.438.232-.392-1.349-.45-1.692-.016-.23.12-2.765.864-2.034-.089.34.27.43.58.145.657-.54-.633-.72.592-1.467 1.087-.753 1.022-1.133-.273-.55-.336.17-.464.257-.551-.188-.433-.395-.63 1.429-1.442 1.361.027-.137.079-.427.115-.644.198-.973 1.789-1.84 2.112-2.726-.716-.35-1.748.879-2.024.932-.3-.615.242-3.062-.685-3.613-.516 1.191-.053 2.12-.31 2.636-.392.785-1.752.487-1.242 1.303.518.658 1.43 1.833 1.185 2.781-.073.046-.13.007-.13-.086a.458.458 0 00-.159-.299c-.087-.072-.185-.396-.216-.718-.028-.26-.529-1.482-.784-.514 0 .366-.057.365-.599-.01-.86-.597-1.053-.07-.328.897 1.036 1.384-.82 1.124.191 1.573.607.083.904-.482.79.615-.374-.142-.638-.352-1.025-.381-.174.174-.042.55.322.914.33.33.358.394.17.394-.123 0-.254.078-.29.174-.106.275-.368.208-1.164-.294-.985-.622-1.258-.722-1.427-.518-.15.202 1.132 1.43-.002 1.554.026.413.881.23 1.005.77l.366.494c-.512.129-1.304.175-.927.84.209.17.319.183.656.08.334-.103.442-.091.618.068.231.21.832.266.832.078.22-.169.764-.187.24.165-.145.155-.23.337-.187.405.094.153.473.163.741.019.166-.089.199-.055.195.202-.002.418.693.328 1.011.013.243-.3.291-.275.386.202.088.438-.08.496-1.428.499-.753 0-1.746-.418-2.706-.81-.305 0-.29.419.02.585.133.071.217.153.188.183-.095.095-1.05-.333-1.757-.788-.38-.244-.751-.444-.826-.444-.225 0-.394.28-.28.465.252.558-1.416-.03-1.6.74.045.322 1.005.67 1.683.608.38-.035.64-.114.203.18-.324.256-.377.614-.107.717.237.091.863-.178 1.142-.491.524-.297-.294.37.01.605.58.606.437.606 1.172.238.6-.304.637-.184.045.459 0 .259.344.324.72.136.308-.154.338-.154.279.002-.13.336.288.33.558-.01.255-.314.925-.289 1.379-.456.437-.063.657-.18 1.014-.536 1.052-1.038-.684 1.399-1.79 1.53-.731.35-.853.514-1.68.028-.933-.425-1.273-.441-1.064-.052.066.124.12.249.12.276-.563.086-1.36-.68-1.622 0 0 .21-.054.223-.651.153-.704-.083-.972.03-.972.406 0 .147.083.218.255.218.466.003-.467.486.372.58.338 0 .386.033.334.231-.089.358.574.057.662.46 0 .19.071.224.419.203.464-.028.715.21.582.554-.075.197-.088.197-.306 0-.184-.167-.353-.193-.883-.139-.822.085-.937.196-.567.544.3.281.36.526.193.788-.073.115-.24.053-.705-.26-.336-.226-.66-.38-.721-.342-.245.86.316.787-1.112.56-.515-.067-.61-.05-.61.107 0 .194.78.655 1.105.655.138 0 .166.065.108.246-.145.506.744.274.99.624 0 .095.1.173.223.173.375 0 .589.13.589.36.01.412.412-.038.572-.286 1.247 1.415 3.036 2.64-.168 2.707-.532-.009-.938-.401-1.46-.463-.2 0-.232.05-.175.278.129.582-.965.117-1.418.293-.344.184-.314.296.157.573.226.44.837.585 1.08 1.015a5.206 5.206 0 00-.543-.002c-1.244-.597-2.328 1.272-2.129-.643-1.023-.143-1.625.817-2.156-.147-.57.112-1.195-.37-1.84-.054-.528-1.236-.435 1.333-1.144-.066-.99-2.273.203-1.168.299-1.086.953.455 4.948.422 2.134-.732-2.016-1.411 4.006 1.652 1.783-.377 1.035.444 2.26 1.088 2.02.583-.16-.336-.31-.258.266-.15 1.937.63.71-.417-.295-.891 1.43-.672-2.518-.534-.455-.952.396-.089-.488-.376.14-.428.573-.046 1.137-.582-.582-.811-1.07-.235-.772.204-1.683-.6-1.256-1.106.67-.144 1.85-.335.474-.077-.35-.445.255-.603.918-.348.647-.919 1.588-1.17.346-.093.238-.314.092-.42-1.46-.286-5.112 1.337-4.094.439.261-.23.459-.779.077-.587-.894.426-1.933.556-3.797.402-.617-.071.646-1.638 1.032-1.057 1.004.634 1.26.207 1.143-.43 1.32.562 2.982-.061.702-.616-.56-.537 4.396-.617 1.707-1.197-1.055-.368-2.844.704-1.818-.696-1.704-.95-1.724 1.275-3.077-.169-.894 1.214-.715-.354-.715-.354.177-1.321 2.292-.096 2.052-.85-.404-.602 4.699-.244 1.773-1.113-.704-1.117-2.807-.063-3.076-.662 1.21-1.176-1.473-1.073.406-1.525.973-.81.673-.834-.637-.781-1.39-1.326.81-.363 1.401-.874.513-.084.684-.544.367-.56-.46-.023-2.073.08-2.234-.253-.03-.06 1.052-.46.567-.635-1.421-.48-1.756.398-2.157-1.912-.172-1.264-.146-2.808-.574-2.056-.687 1.342-.32 4.16-.987 3.106-.028-.04-.136-.14-.205-.235-.31-.432-.624-.151-.63.032-.024.579.764 1.364.442 1.392-.618.054-1.985-.782-3.162-.638-1.844.265 1.123.61 1.627 1.083.2.188-.336.433-1.197.647-.88 1.122 2.607-1.153 2.228.682-.313.53-2.893-.341-2.744.11.035.105.883.392 1.28.675.164.19-.47.357-.35.542.139.214.395.306 1.109.003-.56 1.499 1.847-.383 1.412 1.47-.252 1.621-2.827-1.733-2.823.1 1.723 1.511-3.28-.773-3.553.368.114.75 2.768.12 1.121 1.032-1.597.504 2.814.347.157 1.423.052 1.327 2.403 1.283.007 1.47-1.401-.166-5.253 1.206-2.306 1.14.77-.582 1.857-.52 1.126.44-.107.129.14.143.234.162.812.159 1.19 1.818-.403.776-.905.387.837 1.227-.877 1.318-1.28 2.096-6.653 1.436-4.743-.107.671-.511-1.305-.853-1.112-1.305 1.867-.316-.405-1.42 1.246-1.556 1.13-.409-1.597-.649-1.71-1.095-1.876-.51 1.005.356.408-1.272 1.007-.914-1.12-.853-.6-1.053.468-.195.792-.064 1.065-.221.214-.124.314-.318.192-.396-.339-.218-.51-.007-1.152-.035-1.044-.045-3.575.275-1.817-1.299.492-.173.602-1.163.057-.699-.382.327-.012-.94-.498-.328-.69 2.024-.674.541-.147-.345-.174-.59-.813.253-1.238-3.158-.734-1.465.07 1.932-.06 3.785.266 2.042-.734.39-1.166-.237-1.34-1.669.15 1.479.383 2.136-1.178.915-3.42.83-4.851 1.033-.391.056-.025.463.282.463 1.418-.216.438.931 1.342 1.142 1.72-2.203-.288 1.727 1.17-.128 1.273.938-2.51 1.033-1.523 1.63-1.467.067-1.25.52.063.736-.739 1.502.846 1.78 1.447 1.57-1.953 1.302-3.716 3.918-4.91 2.43.056-.147.01-.153-.392-.05-.345.087-1.096.379-.636-.075.276-.287.235-.415-.085-.269-.326.148-.394.12-.247-.105.211-.323.024-.318-.45.011-.536.374-1.058.44-1.916.239-.76-.18-1.205-1.04-.318-.685.58.055.612.049.612-.116.13-.425.917.402.93-.06.317-.353.945.063 1.431-.195.22-.143-.395-.397.075-.518.385-.143-.028-.422.442-.605.22-.132 1.092-.555.626-.693-.344-.156-1.144-.265-1.132-.396.133-.25-.12-.285-.595-.08-.28.117-1.013.364-.98.045a.414.414 0 00.064-.519c-.322-.088-1.675.65-2.365.098-1.642-.57-1.176-.779-.559-.673.257.191.286-.037.29-.366.377.21.54.45.891.292.127-.171.302.118.533.188.285.096.687-.09.767-.507.004-.213.02-.221.27-.15.457.126.158-.135.365-.34.167 0 .164-.076-.01-.27-.443-.502.862.435.889-.173-.135-.349 1.941-.801.33-.824-.272 0-.568.07-.404-.32 0-.084-.136-.042-.463.143-1.29.739.052-.925-1.017-.212-.773.552-.924.595-1.522.433-.946-.256-1.81-.76-1.81-1.054.004-.06 1.999.695 2.012.128-.04-.678.552-.036 1.01.089.368.073.354-.086-.042-.491-.172-.176-.273-.32-.225-.32.166.086.225.32.413.344.333-.049.575.158.8.105 0-.03-.06-.123-.135-.205-.126-.139-.11-.155.232-.254.467-.134.47-.137.277-.284-.15-.114-.134-.123.22-.126.405-.003.587-.11.587-.347 0-.161-.233-.243-.696-.245-.224-.001-.316-.038-.316-.128 0-.182-.468-.16-.917.044-.443.201-.519.207-.519.038-.06-.144-.217-.206-.253-.385 0-.134-.032-.145-.216-.075-.307.117-.375.104-.375-.072 0-.245-.1-.282-.29-.108-.485.446-1.124.616-1.615.43-.22-.084-.222-.093-.08-.25.255-.282.109-.423-.44-.427-.51-.003-.69-.085-.853-.392-.164-.308-.108-.34.08-.048.229.358.469.358.624 0 .066-.15.12-.226.123-.165.006.214.41.524.683.524.203 0 .254-.03.215-.127-.115-.284-.003-.682.281-.353.097.254.562.648.765.648.105 0 .174-.083.212-.253.06-.271.13-.302.382-.167.12.063.308.036.733-.106.6-.2.786-.421.447-.529-.343-.118-.504-.492-.877-.549-.257 0-.728-.166-.728-.256 0-.04.038-.095.085-.124.149-.092.09-.212-.148-.303-.187-.072-.302-.055-.593.086-.199.097-.427.172-.507.168-.083-.004-.025-.059.138-.13.205-.09.272-.166.244-.276-.03-.112.033-.178.236-.252.152-.054.324-.158.384-.23.275-.351-.943-.184-1.005-.567.027-.19.175-.216.546-.1.134.043.195.017.232-.097.05-.152.405-.367.607-.367.173 0 .2-.23.043-.372a.635.635 0 00-.369-.134c-.581-.01.264-.62.403-1.012-.233-.105-.478-.058-.718-.132.183-.368.53-.566.29-.939-.327.041-.622.457-.882.684-.115-.164-.188-.302-.38-.374-.133 0-.506.596-.592.945-.056.228-.772.97-1.111 1.151-.32.169-.286-.983-.327-1.232-.013-.169-.048-1.313.494-.78-.064.247.197.312.423.105.208-.186.538-.086.818-.183.105-.07.07-.141-.207-.425-.663-.593-.645-.33.547-.468.186-.059.231-.295.057-.295-.233-.086-.45-.242-.65-.399.792-.549.745-.825-.199-.401-.244.124-.338.188-.401-.136-.316-.288-.459 1.04-1.05.99.019-.1.057-.31.084-.468.144-.71.825-1.101 1.06-1.747 0-.317-.733.014-.858.387-.021.065-.083.088-.139.053-.218-.448.147-1.17-.529-1.571-.014.049-.023.098-.033.147v8.502l.005.02c.018.087.02.154-.005.204v.987c.036-.02.032.008 0 .063v63.572h321.943v-34.48c-1.283.266-3.076-.046-3.784.462a5.892 5.892 0 01-.021-.537c-.862.402-.99-.075-1.577-.13.336-.599 1.557-.663 1.286-1.42-2.047-.203 1.097-1.16-.331-1.681-1.503.492 1.448-2.345-2.858-2.367-1.049-1.233 1.563.593.707-.867.338-.64.139-1.505-.67-1.998-.865-.175-.605-.49-.636-.979.397-.293.585-.974-.327-1.119.137-.842-1.903-.127-1.844-.855.911.387 2.135-.461.833-.89.11-.708.973-2.667-.723-1.636.407-.82-1.325-.303-.881-.8 1 .441 1.818-1.64.4-1.389-1.371.57-.072-.744-.93-1.08-.4-1.08-2.127-1.034-2.241.351.996 1.468-1.197-.072-.64 1.199 1.26 1.103-.887-.095-.107 1.157-.819-.38-1.89 2.237-.127 2.213-.04 1.251-.622-.202-1.258-.163-.09 1.088-1.057 2.217.006 3.052-.86.3-.792 1.646-1.964 1.397-.626.381-1.673 1.458-.331 1.758 1.57.057.046.292.306 1.241.65 2.385-1.491-2.44-1.367.196-.612-.827-1.703.045-.894.678 1.18.673.643.63-.155.661-.488-.548-.168-1.838-.09-2.6-.168-.858-.937-.367-1.315-.787.411-.576-.37-.753-.366-1.286-1.366.104-.218-.94.08-1.642.356-1.84-1.92.48-1.132-.502.58-.43 1.514-2.217.097-1.842-.416-.107-1.643.48-1.29-.396-.709-1.17-1.132.748-.957 1.633-.408-.748-2.146.002-.928 1.055.69 1.09.122.166-.507.015-.084.577-.61.989-.865 1.534-.72.252-.178-.453.208-.928.236-.932-1.505-.053-.481-.815.198-.177.568-.74-.045-.914-.12-.01-1.47.553-.785-.37.23-.122 1.1-.782 1.417-1.075.17-.16.274-.613-.154-.652-.788.084-3.232.884-1.556-.354.06-.458-.786-.712-1.101-.782.092-.312.348-.515.506-.788.12-.266-.015-.716-.216-.716-.359-.118 1.09-1.222 1.107-1.742-.217-.875-1.647.55-1.157-.11.246-.267.532-.773.532-.94 0-.214-.248-.469-.457-.469a.644.644 0 00-.347.15c-.121.102.7-.833.16-1.06-.117-.127-.214-.314-.214-.415-.024-.618-2.172 1.383-.76-1.164.12-.4.636-1.204-.133-1.272l-.265.03c-.012-1.042.326-1.832-.479-2.363-.33 0-.354.17-.32 2.253.014.932.007 1.694-.016 1.693-.192-.254-.558-.921-.845-.348-.028.198.237.847.458 1.123.112.17.327.525-.012.263-.254-.2-.503-.23-.6-.072-.136.22.084 1.204.301 1.35.202.354.253.799.385 1.188.126.452-.042.385-.152-.088-.073-.454-.18-.582-.49-.582-.407.006-.017.712-.552.617-.502-.058-.242.643.218.848.165.118 1.546 1.525.603.682-.534-.55-1.353-.197-.68.55.19.15.473.587.531.822.143.574-.6-1.088-1.152-.479-.147.324-.036.56.566 1.203.033.035.833.917.312.484-.334-.333-.767-.14-.658.293.116.481-.674-.213-.832-.347-.34-.317-.696-.267-.732.103-.02.216.041.34.31.623.265.278.327.402.292.58-.049.279.466.65-.223.461-.34-.126-.707-.22-.627.273.054.4.428.789.84.87.192.04.216.08.183.307-.065.455.89.051.85.8-.029.295 1.458.528.578.824-.181-.181-.589-.212-.744-.056-.114.107-1.06-.73-1.062-1.022-.624-.683-.703.245-.671.59-.2-.266-.721-.546-.758-.288-.108.988 1.959 2.613-.133 1.411-.3-.175-.563-.133-.654.107-.166.479 1.394 1.408-.205 1.16-.339-.08-1.015-.02-.714.687.115.145.823.443.916.386.024.162 3.081.64 1.114 1.706-.142-.057-.314.008-.506.133-.655.043-1.314-.324-1.314-.324-.28.628-.494 2.036-1.232 1.667-.272-.735-.108-2.658-1.79-1.215.09-.928-1.053-2.73.813-2.823-.122-1.277 2.696-.697 2.025-2.352-.23-.766 2.547-3.327.358-2.197-1.595.057-2.957 1.79-4.808 1.67-1.71.066 1.678-1.977.684-2.872-1.116 1.131-2.555 1.828-4.232 2.072-1.423.778-.792-.454.228-.65 1.398-.969 4.614-2.169 4.34-3.799-.912.535-4.833 2.54-3.38-.01-.846-1.049-.024-1.299.901-.806-.183-1.063 1.009-1.726 1.739-2.668-.707-1.705-2.912 1.469-4.239 1.429-.705.98-3.662 1.375-2.248-.332.622-.59 3.24-.156 1.266-1.21.767-.643 2.757-.878 2.969-2.467-1.25.267-2.951.916-4.225.694-1.893-.07 1.168-1.225.509-2.162.402-.168 2.518-2.11.356-1.288-1.205 1.046-.596-.557-1.464-.331-1.16 1.418-.91-1.23.197-1.08 1.406-.548.693-2.111-.508-.75-1.916 1.49-.846-1.117-.045-1.898.278-1.115-2.034.135-2.73-.905-1.826.095 1.376 1.348.702 2.36-1.065.545-1.116-.22-2.135-.942-1.11.55.493 2.52.023 3.72 1.396 1.138-.077.558-.863.324.15 2.084-3.04-1.616-2.347.848 1.224.474.031.512.05 1.221 1.326.169 1.757.554 1.668 1.88-2.098.068-.234 2.057 1.374 1.672.256 1.06 1.277-.054 2.124.531.188 1.952-2.203.221-3.046-.207-1.792-1.068-.744.901-.35 1.576-1.516.07-3.384-1.502-4.939-2.035-.254.91.411 1.925 1.45 2.303 1.293.823-1.107.784-.104 1.513 1.396.217 4.15.281 3.018 2.39.76.723 3.706-.268 2.078.934a9.173 9.173 0 01-4.6-.916c-1.362.02-3.567-3.955-3.742-1.967-.444 1.142.905 1.108 1.218 1.713.669 1.179-.07 3.92 2.306 3.336.25 1.05 2.45-.692 1.932.452-.404.97-.104 1.742.993 1.864 1.376-.533 1.487 1.298.119.98-2.117.447-3.64-.955-5.039-2.136-1.519 1.117.95 2.31.064 3.74-.778.324-2.244-.03-3.207-.325-1.43 1.052 2.237 1.016.97 2.02 2.048 1.954-1.434.672-1.147.328.153-.656.09-1.736-.9-1.642.813-.384 1.87-1.542.84-2.048.394-1.055-1.874-.436-2.202.585-.769.05.81-1.357-.12-1.982-.315-.83-1.547-.388-1.951-.109-.405-1.072 2.17-1.517 1.607-2.548.336-1.445-2.775-1.485-1.827-2.81-.403-.715-.954.378-.873-.832-.132-.446-.436-4.222-.634-3.795-.557 1.2-.335 3.004-.41 3.534-1.515-.913-.543.52-.245 2.282.055.322-.783.235-1.169.072-1.924-.527-.21 1.752-1.42 1.682-.69.997 1.364 3.2.072 3.762-.416-.486-1.175-1.295-1.82-1.034-.654.035-.74.961-.391 1.492-.641.544-1.204 1.046-1.337.271 1.74-1.147-.991-1.349-2.05-.897-.141-.668 2.589-1.427 3.323-2.191-.966-.632.832-1.025-.15-1.71-1.339.194-2.721 1.196-3.98.457-.781.95-.745-.848.344-.47.829-.685-.316-1.156 1.033-2.13 1.268-1.874-2.726.618-.667-.637 1.298-1.339-.453-.934-.93-1.975 1.412-.362-.742-1.784-1.107-.37-1.365-.373-.067-.519.603-1.563 1.304-.587 1.325-3.47-.288-1.997-.92 1.147-1.609 1.69-2.716 2.301-1.325.218.803-1.285.265-1.727-1.67.255-.753-.048.139-.701-1.387-.611 1.06-1.16.107-2.138-.719.666-1.316.36-2.09.814-3.151 1.584 1.405-1.043-.353-3.039-1.329.499-.487-.125-1.225-.455-.99.052-1.064-2.627-1.702-3.728-.418-.72.37 2.145-1.023 2.238-.255.017-.02.387.744.642.251 1.96-1.863-.117-1.444 1.503-1.06-.332-1.775.839-.231 1.539.537 1.185-.26 1.28-1.133.09-2.08-.502.516 1.49-.069 2.021.576.679.862 1.17-.236.14-1.322-2.398-2.42 1.352-.585 1.447-.802 1.711-1.843-1.548-2.653-2.167-2.125-.48.136 2.493.757 3.298.93.911.549.68.028.665 1.267-.233-1.41-.483-2.16-.556-.766-.564.683-.33-.141-1.133 1.666.362.654-.569-.285-.524-1.04-.01-3.294-.977-1.44-.872 1.14-.006-.232-1.54 1.127-1.28-.44-.743-1.984-.462-2.114-1.07.546.19 1.986-.062 1.315-1.427 1.192-.196 1.39-.608.056-.67.898-.542-3.226-.884-2.07-1.736 1.034.866.856-1.101 2.283-.922.28 0 .612-.37.256-.42-.644-.092-2.523.14-2.764-.22-.152-.227.899-.142 1.277-.236.593-.149-1.87-.703-2.098-.86 1.051-1.255 1.032-2.432.213-1.308-.393.57-1.15 1.595-1.156 1.186.552-1.244.595-2.165.387-2.028-.325-.793-.025-1.21-.59-1.758-.38.827.233 1.015-.083 1.774-1.075-1.141-.484.434.04 1.07-.17.246-.382.14-1.5-.787-.495-.422-.318 1.278.128 1.435.589.478-.432.477-.561.617-1.081 1.172-2.708 1.64.099 1.122-.123.334-2.815 1.601-1.874 1.485.68-.084 1.927.303.606.662-.103.405-2.58.623-1.554.995 1.501.123-.564 1.127 1.133 1.414.174.41-1.621.722-1.011 1.186.572.436.763 1.305.71 1.136-.696.031-3.997.747-1.916.757 1.08-.392-.135 1.31.73 1.54.487.955-2.98.341-1.166 1.002 1.033-.089-.85 1.716.674.73-.82.724-1.043 1.742.152.77 1.498.082-1.833 1.081-.26 1.698-.298.399-.098.96.597.84-.513.143-3.927.33-2.355.718 1.374-.688-.14 1.764 1.293 1.754 1.25-1.354.527.664-.621.184-.45 1.009-.391 2.645.881 1.925 1.122-.333-.337 1.996 1.268.987-4.735 4.24-8.253-.826-9.61-.74-.338.075-.54-.122-.277-.27.278-.273.202-.671.524-.305.313.363.424.22.224-.288l-.161-.41c.549.434.69.73 1 .035.259-.582.481-.84.725-.84.433-.245.394-.584.394-1.014-.02-.334-1.737.945-1.457-.837l.055-.378c.263.138.557.294.851.299.268 0 .272-.009.213-.507-.05-.427-.03-.522.13-.607.245-.19.08-.467.206-.712.2-.376.028-.353-.463.06-.78.657-1.484 1.155-2.1 1.483-.375.2-.584.376-.584.492 0 .336-1.448.474-1.678.16-.61.052-.554-.15.148-.369.517-.22 1.094-.363 1.585-.62.221-.118.44-.568.608-.606.585-.34.565-.743.048-.788-.711-.116-3.096 1.087-3.027.36.026-.261.114-.369.463-.56.453-.25.543-.455.268-.609-.133-.074-.142-.132-.048-.308.224-.418.991-.43 1.195-.017.193.39 1.127.689 1.296.415.28-.07.544.125.783.016.177-.177-.122-.468-.706-.688-.618-.276-2.103-.854-2.13-1.193.179.141 2.74.016 2.79-.136.021-.063-.17-.166-.432-.232-.868-.219-1.19-.604-1.087-1.304.065-.44-.183-.442-.617-.006-.27.272-.414.33-.905.367-.804.072-.642-.555-.98-1.3h.248c.19 0 .25-.055.25-.23.004-.298.12-.472.415-.62.246-.122.49-.615.366-.739-.1-.1-.862.266-1.39.668-.554.396-.937.386-1.575.437.213-.216.434-.45.559-.715 0-.066.247-.26.55-.43.617-.349.819-.546.72-.705.146-.704.923-1.262.964-2.035 0-.158-.2-.116-.518.111-.162.115-.295.293-.295.395-.229.432-.958.43-1.138.049-.095-.21-.167-.248-.369-.198-.246.062-.245.058.065-.296.305-.347 1.036-1.392 1.007-1.699-.024-.254-.754.2-1.007.15-.433-.35-.413-.835-.525-1.37-.19-.908-.11-2.858-.598-2.846-.372.009-.138 3.98-.615 3.633-.76-.102-2.191-1.332-2.323-.766-.021.11.092.236.322.354.4.336.267.407.643.64.174.146.319.544.423 1.166.042.427.961 1.25.562 1.163-.14-.03-.482-.149-.762-.263-.597-.214-1.217-.482-1.685-.848-.572-.451-.802-.493-.802-.145-.117.465 1.604 1.62 1.625 1.94 0 .215-.204.19-.828-.1-.564-.263-1-.33-1-.154.094.141.36.084.223.224-.322.322-.002.681.743.83l.6.12c.013.917-1.093 1.145.993 1.319.459 1.124-1.6-.099-2.188-.351-.382-.168-.618-.1-.65-.068-.183.183.897 1.48 1.452 1.743.41.194 1.162.984 1.162 1.22 0 .43-1.998-.354-2.974-1.168-.57-.475-.838-.581-1.041-.413-.19.159-.188.3.005.3.57.342.552 1.879 1.152 2.068.489.078.885.382.976.749.55.61.485.957-1.011-.29-.853-.785-1.362-1.206-1.455-1.206-.153.462-.012 1.044.203 1.421.488.837.494 1.32.018 1.32-.369 0-.255.214.252.473.645.414 1.293.98 1.887 1.071.551.083-.092.612-.736.605-1.021-.011-1.336-.093-1.792-.467-.4-.347-1.038-.519-1.25-.958-.228-.484-.535-.533-.822-.13-.214.338.08 1.22.139 1.27.393.303.28.786.551 1.142.15.19.186.31.114.382-.272.272.085.786.636.917.927.43-1.509.123-1.736.276.058.178.585.336 1.838.552.954.165.984.178.76.331-.293.2-.38.327-.382.553-.002.213.561.582.889.582.405.633-.627 1.53-1.387 1.373-1.018-.214-1.852-.578-2.58-1.126-.691-.522-1.253-.825-1.349-.729-.115.116.071.669.315.931.149.161.352.262.526.262.546.048-.455.408-.173.605.383.138.751.468.67.869-.068.267-.048.283.472.397.61.365.769 1.185 1.415 1.538.856.87-.226.686-.627.51-.607-.158-4.259-2.817-4.316-1.944.089.334.707.28.56.56-.47 1.24 1.183 1.913 1.54 2.5.113.19.308.353.468.39 3.484 2.592.029 1.396-1.737.236a5.562 5.562 0 00-.488-.29.746.746 0 01.24-.334c.056-.046.333-.877.131-1.195-.27-.379-.558-.333-.772.123-.2.413-.8.575-1.177.901-.43.352-.726.43-1.687.44-.606.006-1.211-.491-.692-.57.558-.086 1.169-.619 1.776-1.008.476-.243.584-.445.237-.445-.448 0-.442-.454.016-1.242.203-.354.336-.902.192-1.337-.087 0-.566.397-1.369 1.134-1.408 1.175-1.47.848-.952.274.086-.345.459-.631.918-.705.565-.178.549-1.624 1.085-1.945.182 0 .184-.134.005-.283-.191-.159-.444-.059-.98.388-.919.766-2.799 1.504-2.799 1.1 0-.222.709-.966 1.094-1.149.522-.247 1.539-1.468 1.367-1.64-.03-.03-.253-.093-.613.064-.552.238-2.49 1.388-2.058.33 1.963-.163.922-.378.935-1.24l.564-.113c.7-.14 1.002-.478.699-.781-.13-.132.121-.078.21-.21 0-.166-.411-.103-.941.143-.588.274-.779.297-.779.095.02-.301 1.64-1.388 1.529-1.826 0-.327-.217-.288-.754.137-.441.345-1.025.597-1.587.798a6.032 6.032 0 01-.716.248c-.376.081.489-.693.528-1.095.098-.585.235-.96.399-1.096.354-.22.667-.557 1.043-.873.217-.112.324-.23.304-.333-.124-.533-1.91.894-2.625.99-.165-.064-.081-.44.124-.561.188-.232.117-.53.492-.662.34-.159.786-.677.786-.915-.021-.312-1.141.38-1.362.514-.356.185-.454.286-.454.472-.015.605-.717-.549-.842.115.06.424.94.619.525.887-.39.008-.467.63-.905.698-.525.105-.525.86 0 1.459-.78 1.558-.276.081-.537-.604-.092-.092-.574.154-1.196.588-.238-.15-.388-.172-.388-.041.102.988-2.346 1.451-2.901 1.572-.868.18-2.045-.845-1.583-1.568.374 0 1.017-.422 1.015-.665-.003-.257-.103-.402-.438-.631-.255-.174-.22-.19.87-.377 1.43-.247 2.031-.428 2.097-.63-.259-.175-3.04.175-1.981-.316.629-.15 1.036-.736.726-1.046-.082-.082-.042-.22.13-.436.31-.407.18-.96.63-1.306.067-.055.402-1.063.158-1.449-.328-.46-.678-.404-.938.15-.243.5-.97.697-1.428 1.093-.52.427-.88.52-2.046.533-.735.008-1.47-.595-.84-.69.678-.105 1.418-.752 2.155-1.224.578-.295.708-.54.287-.54-.544 0-.536-.55.02-1.507.246-.43.407-1.095.232-1.622-.106 0-.687.481-1.66 1.376-1.71 1.425-1.783 1.03-1.156.332.105-.419.557-.766 1.115-.855.685-.216.665-1.97 1.315-2.36.221 0 .224-.162.005-.343-.232-.193-.538-.072-1.188.471-1.115.929-3.396 1.825-3.396 1.333 0-.269.86-1.17 1.328-1.393.633-.3 1.866-1.781 1.657-1.99-.036-.036-.307-.113-.743.078-.67.288-3.02 1.683-2.497.4 2.381-.198 1.119-.458 1.134-1.504l.684-.138c.85-.17 1.217-.58.848-.948-.156-.16.148-.094.255-.255 0-.2-.498-.124-1.141.175-.713.332-.945.36-.945.115.024-.365 1.988-1.684 1.854-2.215 0-.397-1.16.259-1.813.774-1.255.954-1.43.253-.055-.97.262-.136.392-.28.368-.405-.15-.647-1.882.187-2.75.303-.2-.077.524-2.065.65-3.03.653-3.724-1.466.685-1.42 1.66-.271.722-.038 2.466-1.775.191-.772.236 1.06 2.465.63 3.079-.184-.175-.372-.342-.638-.385-.353 0-.999-.24-.999-.373 0-.056.052-.137.116-.18.205-.133.124-.309-.203-.44-.257-.105-.414-.08-.814.125-.273.14-.586.25-.696.245-.115-.006-.034-.086.19-.19.281-.13.373-.24.334-.4-.04-.163.045-.26.324-.367.208-.08.445-.23.527-.335.378-.51-1.293-.268-1.378-.825.037-.275.24-.314.749-.144.184.062.267.024.318-.142.067-.22.556-.533.834-.533.236 0 .273-.336.059-.54a.843.843 0 00-.507-.197c-.798-.012.362-.9.554-1.47-.32-.154-.657-.085-.987-.193.251-.534.728-.822.398-1.364-.448.06-.854.664-1.21.993-.158-.238-.258-.439-.522-.543-.182 0-.695.867-.813 1.374-.077.331-1.06 1.41-1.526 1.674-.438.245-.392-1.429-.449-1.792-.017-.245-.066-1.909.68-1.135-.09.36.269.455.58.154.285-.27.738-.126 1.123-.267.144-.1.096-.205-.284-.617-.91-.862-.886-.48.75-.68.255-.086.318-.43.079-.43-.32-.125-.617-.35-.893-.579 1.088-.798 1.023-1.2-.273-.584-.336.181-.464.273-.55-.198-.434-.418-.63 1.513-1.443 1.442.027-.146.08-.453.116-.683.198-1.03 1.133-1.6 1.456-2.539-1.652.1-1.276-1.084-2.095-1.645-.45 2.122.423 3.073-1.407 1.718-.19.445.052.894.354 1.311.518.697.972 1.542.728 2.546-.073.048-.13.008-.13-.091a.495.495 0 00-.16-.316c-.087-.077-.184-.42-.215-.761-.029-.275-.53-1.57-.785-.545 0 .388-.056.387-.599-.01-.86-.632-1.053-.073-.328.95 1.036 1.465-.82 1.19.191 1.665.607.089.904-.51.79.651-.374-.15-.638-.372-1.024-.403-.175.185-.043.582.322.968.33.35.358.417.17.417-.123 0-.254.083-.29.184-.106.291-.37.22-1.165-.311-.984-.659-1.258-.764-1.427-.549-.15.215 1.132 1.515-.003 1.647.025.437.88.242 1.004.815l.367.522c-.512.137-1.304.186-.927.891.21.18.319.193.656.084.334-.11.442-.096.618.072.231.222.833.281.833.082.22-.178.763-.198.24.175-.146.164-.23.357-.188.43.094.161.473.17.741.019.166-.094.198-.058.195.215-.003.442.693.347 1.011.012.243-.317.29-.29.386.215.088.464-.079.525-1.427.528-.753 0-1.747-.442-2.707-.858-.304 0-.29.444.02.62.133.075.218.162.188.193-.095.1-1.05-.352-1.757-.834-.38-.258-.75-.47-.826-.47-.225 0-.395.297-.28.492.252.591-1.416-.032-1.6.783.045.342 1.006.71 1.683.645.38-.037.641-.12.203.191-.324.27-.377.65-.106.76.236.096.862-.19 1.14-.521.525-.315-.293.392.011.64.58.642.436.642 1.172.252.6-.321.637-.194.045.486 0 .274.344.343.72.144.307-.163.339-.162.279.002-.13.357.288.349.558-.01.255-.333.925-.306 1.378-.482.438-.068.658-.19 1.015-.568 1.052-1.1-.684 1.48-1.79 1.62-.73.37-.854.544-1.68.03-.933-.45-1.272-.468-1.064-.055.067.131.12.263.12.292-.562.09-1.36-.72-1.622 0 0 .222-.055.235-.652.16-.703-.087-.97.032-.97.432 0 .155.082.23.254.23.465.003-.467.515.372.614.338 0 .386.035.334.245-.089.379.573.06.662.488 0 .2.07.237.418.214.465-.03.715.222.583.587-.075.208-.089.208-.306 0-.184-.177-.353-.205-.884-.147-.821.09-.936.207-.566.575.3.298.36.557.193.835-.073.121-.241.055-.705-.276-.336-.239-.66-.401-.722-.361-.233.868.218.83-.974.618.074-.76.505-1.019 1.487-1.143.017-.634-1.048-.668.045-1.091.62-2.2-2.229 1.103-2.096-.758-.702.21-2.017.727-.77-.288-.42-1.073 1.012-2.832.02-3.323-.91.646-.956 1.328-1.907.841-.601-.903 1.342-3.073-.288-3.158-.137 2.761-1.771.863-1.523 1.86.716.696 1.67 3.025-.04 1.694-1.073-1.215-1.709.18-.453.67.988-.134 1.21 2.23.175.964-.775-.202-.23 1.23-1.307.295-1.93-.733-.042 1.001.318 1.15-.59.838 2.145 1.869.455 1.931-1.138.198-2.657-.38-3.773-.62.188 1.42 1.966 1.63 2.65 2.204-1.763.941.576.555 1.131 1.08 1.263 1.525-1.378 1.172-2.007.297-1.186.036-3.154-2.798-3.786-1.276.653.842 1.717 1.434 1.553 2.382.826-.44 1.561-.216.806.72 1.297 2.277-2.205.487-3.02.01.005 1.357-2.39-.015-.666.046.338.018.404-.011.392-.175.06-.347.72-.088.612-.396-.063-.171-.019-.2.308-.2.807-.08-.127-.497.323-.5.167 0 .243-.06.233-.187-.024-.325-.29-.422-.966-.35-.574.06-.627.05-.64-.131-.297-.587-1.021.073-1.572 0-.463-.47-1.238-1.472-.493-1.188.736.317.597.317 1.12-.205.28-.203-.555-.778-.029-.522.29.27.914.503 1.137.424.255-.09.181-.398-.149-.618-.443-.254-.184-.185.185-.156.66.053 1.568-.245 1.592-.524-.228-.663-1.806-.156-1.597-.637.098-.159-.083-.4-.301-.4-.073 0-.42.172-.772.382-.657.392-1.553.76-1.651.679-.03-.025.046-.096.17-.158.29-.143.277-.504-.018-.504-1.762.282-1.849.05-.936-.666.16-.137.264-.147.595-.059.333.09.438.078.629-.068.322-.574-.447-.613-.95-.724l.322-.426c.085-.466.925-.307.923-.663-1.105-.107.059-1.165-.1-1.34-.176-.175-.436-.09-1.35.446-.738.433-.988.49-1.107.254-.042-.083-.174-.15-.293-.15-.182 0-.159-.055.14-.34.33-.314.433-.637.253-.788-.373.026-.614.207-.967.329 1.299-.99.26-1.121.809-1.886.641-.832.42-1.287-.375-.773-.5.324-.556.325-.58.009-.308-.834-.715.22-.726.443-.01.278-.083.556-.163.62-.08.062-.14.178-.135.257.006.08-.047.113-.12.074-.298-.817.091-1.505.55-2.072.268-.34.475-.705.264-1.067-1.382.7-1.202-.736-1.466-1.398-.256-.938-.487-.274-.77.884-.11.452-1.663-.236-1.16.455.37.764 1.31 1.227 1.564 2.066.05.187.118.437.153.556-.84-1.23-3.463-1.277-2.234-.538-.253.186-.528.37-.83.472-.231 0-.15.28.103.35 1.596.162 1.597-.149.767.553-.343.336-.382.42-.237.503 1.546.519 2.376-.459 2.382 1.015-.037.674-.952.907-1.905.096-.26-.454-.877-1.139-1.054-1.139-.25.085-.15.27-.289.463-.365-.268-.794-.76-1.231-.809-.287.442.192.676.467 1.11-.313.088-.643.033-.944.157-1.022-.154.595 1.295 1.075 2.23.06.136.143.167.318.117.483-.139.681-.107.733.116-.048.454-1.682.257-1.285.672.086.085.325.207.531.272.277.087.366.166.337.298 1.022 1.253.224-.1-.854.157-.217-.195-.788-.421-1.341-.397-1.27-.012-4.019-1.076-1.756-.961 1.39-.006-.284-1.694 1.374-1.407-.537-.819-2.42-.509-2.579-1.179.667.21 2.424-.068 1.605-1.57 1.455-.216 1.696-.669.069-.737 1.095-.597-3.1-.691-1.69-1.63 1.618 1.856-.609-2.075 1.299.128 1.002-.21-.084-1.358 1.488-1.141.341 0 .747-.408.313-.463-1.586-.204-4.072-.118-5.378-1.033.258-.657 1.91-3.805.424-2.136-.48.627-1.589 2.278-1.294.236.675-.412 1.175-2.203.275-1.14.154-2.663-.028-3.469-.412-3.397-.234.7.164 1.183-.221 2.017-1.187-1.555-.361 1.162-.132 2.15-.245.586-.152-.545-.948-.256.584.886.602 2.369-.163.344-.539-.612-.128.655-.553.329-.604-.464-.482.525.063.699 1.95 1.574-.858 1.253-2.015 1.298-.712.027-.901-.182-1.277.035-.135.079-.024.272.213.396.302.157.662.026 1.18.22.577.2-1.78.141-.664 1.054-.662 1.629 2.532.763.452 1.272-.035.126-.31.236-.646.337-.257-.237-.347-.166-.642-.128-1.48.236-.888.313-1.204-.585-.534.132-1.004.631-1.452.63-.193-.275-.147-.53.147-.825.364-.363.235-.478-.63-.567-.56-.057-.735-.03-.917.145-.615.274-.205-.597.252-.578.366.022.437-.014.424-.212.065-.421.78-.107.661-.48-.068-.207-.02-.242.335-.242.872-.098-.138-.603.349-.606.18 0 .262-.073.252-.227-.026-.394-.314-.51-1.046-.424-.62.073-.678.06-.692-.159-.32-.71-1.104.089-1.7 0-.003-.03.046-.159.107-.289.192-.406-.163-.39-1.11.054-.833.508-.973.336-1.763-.029-1.167-.137-3.154-2.681-1.98-1.597.398.372.637.493 1.1.56.485.174 1.186.147 1.475.475.306.354.744.362.585.01-.073-.162-.04-.162.291-.002.408.197.763.129.746-.141-.665-.671-.633-.797.015-.48.796.384.646.385 1.211-.248.303-.245-.6-.942-.03-.632.313.327.988.609 1.23.514.276-.108.195-.483-.162-.749-.48-.308-.199-.225.2-.189.715.064 1.696-.298 1.722-.635-.247-.804-1.954-.19-1.728-.772.107-.192-.09-.485-.325-.485-.079 0-.454.208-.835.463-.71.475-1.68.922-1.786.822-.033-.03.05-.116.185-.19.313-.174.299-.61-.02-.61-.979.41-1.99.844-2.779.845-1.413-.002-1.592-.064-1.53-.522.066-.497.115-.523.39-.21.355.33 1.09.423 1.058-.013-.02-.269.011-.304.19-.212.292.15.687.14.776-.019.04-.071-.062-.262-.224-.423-.573-.368-.003-.349.24-.173.013.196.638.138.866-.08.174-.167.285-.18.643-.072.36.108.474.094.68-.082.35-.696-.483-.744-1.028-.878l.35-.516c.092-.564 1-.373.998-.804-1.196-.13.063-1.411-.109-1.623-.19-.212-.47-.108-1.459.541-.799.525-1.07.594-1.199.307-.045-.1-.187-.182-.316-.182-.197 0-.172-.066.151-.41.357-.381.47-.773.274-.956-.403.031-.665.25-1.046.399-.196-1.146.154-.556.784-.642 1.029-.47-.898-.198.091-1.643.694-1.008.455-1.56-.405-.937-.542.392-.602.393-.627.01-.334-1.01-.775.267-.786.538-.01.337-.09.674-.176.75a.443.443 0 00-.146.312c.006.097-.051.137-.13.09-.322-.99.098-1.823.595-2.51.29-.411 1.098-.947.87-1.386-.241-.159-.96.4-1.164.3-.542-.267-.639-2.713-.986-2.721zm2.046 9.316a.247.247 0 01.1.007c.142.046-.093.315-.765.874-.392.325-.53.2-.27-.242.17-.285.664-.611.935-.64zm-4.602 1.307c.082 0 .352.19.601.423.38.354.54.424.982.424.42 0 .543.047.605.235.098.297.02.382-.242.26a308.02 308.02 0 01-.787-.365c-.595-.277-1.425-.977-1.159-.977zm58.86 6.37c.24-.017.792.34.984.65.277.448.153.574-.242.244-.677-.566-.919-.84-.785-.886a.145.145 0 01.043-.008zM2.247 18.071c.186 0-.36.488-.76.682l-.53.255c-.177.084-.235.025-.18-.182.034-.131.117-.164.41-.164.306 0 .415-.048.662-.295.163-.163.342-.296.398-.296zm51.385 2.14c.26.026.752.338.932.612.277.423.153.542-.242.23-.677-.534-.919-.792-.786-.836a.21.21 0 01.096-.006zm4.475 1.25c.254 0-.494.671-1.045.937l-.728.35c-.242.115-.322.035-.247-.25.047-.18.161-.225.563-.225.422 0 .57-.067.91-.406.223-.223.47-.405.547-.405zm160.443 8.744c-.181 1.482-1.48.193 0 0zm-69.817.26c.247.088.646.081.799.31 0 .102.1.185.222.185.376 0 .59.138.59.381.01.436.412-.04.572-.303.125.15.256.296.386.44-1.117.593-2.306 1.368-3.32 1.32.352-.602 1.288-2.36-.313-1.406-.752.382-2.887 1.928-2.72.185.757-.523 1.668.471 1.898-.475.743.178 1.543-.212 1.886-.638zm68.69 2.269c-.115 1.137-3.22 1.561-1.139.159.635-.348-.097 1.316.81.083.1-.114.197-.191.328-.242zm7.066 1.085c1.348.721.157 1.163 0 0zm3.197 1.195a.657.657 0 00-.254.176.306.306 0 01.127-.16c.05-.005.082-.01.127-.016zm84.167 1.367c-.571.475-.547.016 0 0zm10.09 1.881c-.634.158-2.033.129-1.197.506.265.016.744.006 1.197 0zm0 2.554c-.848.16-.797 1.166-.41 1.61-.32.445-.053.648.41.754zm0 3.933c-.21.567-.212 1.359-.993 1.77-1.802-.171-1.909 2.12-.53 1.935 1.419-1.388-.69 1.247 1.181.395.01.345.15.53.342.625z" opacity=".997" stroke="gold" stroke-width="0.3" fill="#cad2c5" paint-order="markers fill stroke"/></svg>