<svg xmlns="http://www.w3.org/2000/svg" viewBox="0 0 321.945 73.214" height="276.714" width="1216.798"><path d="M212.162 0c.03.357.047.712-.07.997-1.098-.751.32 1.128-.06 1.197-.66-.866-.293.593.203.928.216 1.664-.599.318-.951-.193-1.092-1.359.122 1.205.312 1.74-.96.745-2.786.676-3.951.842-.319.045-.02.377.23.377 1.155-.177.357.758 1.093.93 1.401-1.794-.234 1.407.954-.104 1.036.764-2.045.841-1.24 1.327-1.196.056-1.019.424.05.6-.602 1.223.689 1.45 1.179 1.28-.117.545-1.501.292-1.896.96 1.219-.234-.012 1.14 1.01 1.145 1.662-.093-.358.773-1.29.783-.842-.04-1.75.793-.255.469-.74.72.56.51-.127 1.015-.672.066-3.071.29-1.936.499-.467.014-.81.22.025-.596.556-.722 2.583-3.386.678-2.956-.726.554-1.659 3.476-2.378 1.942 1.646-.085.661-3.447-.524-1.296-.984.923-.728.482-.212-.126-.524-.477 1.802-2.262-.062-1.812-.782 1.067-1.497.982-1.015-.08 1.383-.628.742-1.677-.207-1.38.376-1.452-1.127.375-.902-1.382-1.241-.731-1.082.69-2.168.795-.662.295.093.855-1.099.408-1.575 1.789 2.509 4.144-.315 2.724-.695-.407-1.23-.133-1.874-.73-.854.877 1.339 1.368.096 1.916.8.585 1.62.858.124.63-.482.395 1.425 1.743.238 1.547-.993-.548-1.61-1.035-2.434-2.063-1.447-1.32-1.427 1.264-.259 1.79.6.936 1.764 1.067.54 1.401-.326-1.268-2.257.007-.991.333-.428.933-1.997.57-.834 1.77 1.845 1.125-1.735-1.11-.598.57 1.21.873.183 1.296.926 1.909.976-.338 1.008 1.273.308.422-1.128.662-2.367-.236-3.567-.41-.88.614.731.967-.134 1.533.657.685 3.104 1.365 2.978 1.963-.95-.404-3.398-.223-1.838.805-.12.695-.624.245-1.198-.243.313-.476.236-1.306-.35-1.337-.58-.235-1.26.491-1.632.927-1.159-.505.683-2.479.064-3.373-1.083.063.453-1.98-1.273-1.507-1.3.548-.213-1.222-.734-1.749-.042-1.095-1.532-.77-1.758-.007.072 1.085-.784 1.361-1.145 2.002.85 1.187-1.286-.153-.986 1.143-.504.924 1.804 1.323 1.441 2.284-.363-.251-1.467-.648-1.75.097-.833.56.583 1.821-.106 1.777-.295-.915-2.328-1.47-1.974-.525-.924.454.024 1.492.752 1.836-.887-.084-.943.884-.806 1.472.229.235-.376.547-.756.385.234-.457-3.879-.477-2.905-.915.215-.096.312-.136.193-.244-.589-.605-.903-.075-1.018-.951-.01-.147-.105-.187-.189-.24-1.182-.735-.657-1.734.58-.738 1.35.69-.989-1.671.592-.292.81.898.883.482.669-.217 1.336.672.88.259.903-.124 1.952-.498-2.113-.405-1.987-1.07.953.227 1.59.133.87-.381 1.013-.247 1.763-.866.094-.796-1.036-.477-1.938 1.017-1.773-.513-.851-.115-1.352.652-1.794-.118-.475.09-.995-.296-1.532-.043-.44-.988-.362 1.065-.952-.054-.824-1.817.168-.933.248-.867.793.363 4.12.337 1.777-.585-1.679-1.129 3.335 1.32 1.485-.302.861.355 1.88.87 1.68.466-.132-.268-.258-.206.222-.12 1.612.503.591-.334-.245-.712 1.19-.537-2.097-.428-.379-.761.33-.072-.406-.302.117-.343.477-.037.946-.465-.485-.648-.891-.188-.642.163-1.4-.48-1.046-.884.557-.115 1.54-.268.394-.061-.293-.356.212-.482.763-.279.538-.734 1.321-.936.288-.074.198-.25.077-.335-1.216-.229-4.256 1.069-3.408.35.218-.183.381-.622.064-.469-.745.34-1.61.445-3.161.322-.514-.057.538-1.31.86-.845.835.507 1.047.166.95-.344 1.1.45 2.483-.048.584-.492-.465-.43 3.66-.494 1.422-.958-.878-.294-2.367.563-1.514-.556-1.418-.76-1.434 1.02-2.56-.134-.745.97-.596-.284-.596-.284.147-1.056 1.908-.077 1.709-.68-.337-.481 3.91-.195 1.475-.89-.586-.892-2.337-.05-2.56-.53 1.008-.94-1.227-.857.337-1.218.81-.647.56-.667-.53-.624-1.157-1.06.674-.29 1.167-.7.426-.067.568-.434.305-.447-.383-.018-1.726.065-1.86-.202-.024-.048.876-.369.472-.508-1.183-.383-1.462.318-1.796-1.529-.143-1.01-.121-2.244-.477-1.644-.572 1.073-.267 3.327-.822 2.484-.023-.032-.114-.112-.171-.189-.258-.345-.519-.12-.525.027-.019.462.638 1.09.37 1.113-.515.043-1.654-.626-2.634-.51-1.535.211.935.487 1.355.865.167.151-.28.346-.996.517-.733.897 2.17-.921 1.854.546-.26.423-2.408-.273-2.284.088.03.084.736.313 1.065.54.137.151-.39.285-.29.432.115.172.328.246.923.003-.466 1.199 1.537-.306 1.176 1.175-.21 1.297-2.354-1.385-2.352.08 1.435 1.21-2.73-.617-2.957.295.095.6 2.304.096.933.824-1.33.404 2.343.278.13 1.138.044 1.062 2.001 1.027.007 1.176-1.167-.132-4.373.964-1.92.91.641-.463 1.546-.414.937.353-.089.103.117.114.195.13.676.126.992 1.453-.335.62-.754.31.696.981-.73 1.054-.53.194-2.156.443-.666.68-1.025.238-2.904.886-.683.686 1.747-.087-1.467 1.31.202 1.392-1.101.058-2.814.978-.782.63.461.257-.71 1.182.477.389.168.327 1.357-.242 2.179-.271-1.298 1.288 2.924-.57 1.517 1.245.86.355.176.278.484 1.033.182.853-1.534-1.36-1.996-.246-.636.034-1.287.329-.854.888-.542.866-2.372.334-3.331.837 1.21.03-.964 1.271.58.688 1.63-.787-.997 2.129.848.583.638-.551 1.815-.912.47 0-.74.41-1.968 1.725-.194.895 1.764-1.533.534 2.263-.627 1.103-.74-.483-.455.198.078.636.152.125-.632.1-.586.432.506.266.675.125-.175.73-.319.774 1.887-.475.768.824-.144.3.32-.144.392-.08.203.181.061.858.695.03 1.771-1.285.42 1.323-.39.655-1.326-.645.638 1.68-.736.757.077 1.23-2.159.22-2.875.359-.34-.196-.624-.08-.443-.21.153-.11.224-.117.429-.044.376.136.58.114.58-.062 0-.211.207-.295.634-.256 1.142-.262.306-.917-.076-1.07-.533-.175.092-.493.327-.555 1.037-.772.24-.894-.387-.677-.31.109-.569.153-.719.123-1.125.112 2.044-.707.567-.914-1.079.182-.945-.374-1.654.249-.628.847-2.353-1.682.037-.779.789.305.428-.246.642-.158.374.042 1.054.235 1.305-.048.575-.25.692-.548.073-.747-.364-.116-.366-.119-.246-.302.172-.262.12-.593-.098-.624 0 0-1.648.925-2.173-.495 0 0-.375-.473.37-.478.33-.002.414-.237.607-.137.589.381.505-.01.564-.248.083.051.717-.216.82-.346.27-.633-.336-.688-.64-.616-1.433.222-.035-.61-.184-1.04-.081-.215-.316-.253-.586-.095-1.875 1.076-.022-.38-.119-1.265-.033-.232-.5.02-.68.258.03-.31-.042-1.141-.6-.53-.002.263-.85 1.013-.952.917-.14-.14-.505-.112-.667.05-.79-.265.544-.474.517-.738-.034-.672.821-.31.762-.717-.03-.204-.007-.24.165-.275.368-.074.704-.422.752-.78.072-.442-.257-.358-.562-.245-.618.169-.156-.164-.2-.413-.03-.16.025-.27.262-.52.24-.253.296-.365.278-.559-.033-.33-.35-.376-.657-.093-.14.121-.85.743-.745.312.098-.388-.29-.561-.59-.262-.467.387.25-.403.28-.435.54-.576.64-.787.507-1.077-.495-.547-1.16.943-1.033.428.053-.21.306-.602.476-.737.604-.67-.13-.986-.61-.492-.844.755.394-.506.542-.612.412-.184.645-.811.195-.76-.48.086-.13-.547-.495-.553-.277 0-.373.115-.439.522-.099.424-.25.484-.136.08.118-.35.163-.748.345-1.066.194-.13.392-1.013.27-1.21-.087-.142-.31-.115-.538.065-.304.235-.11-.083-.01-.237.198-.246.435-.829.41-1.006-.257-.514-.585.085-.757.313-.022 0-.028-.683-.014-1.518.03-1.867.007-2.02-.288-2.02-.721.476-.418 1.184-.43 2.118l-.237-.027c-.689.061-.227.781-.119 1.14 1.266 2.283-.66.489-.681 1.043 0 .09-.087.259-.193.373-.483.203.253 1.041.144.95a.577.577 0 00-.31-.135c-.188 0-.41.228-.41.42 0 .15.256.604.477.844.439.59-.843-.686-1.038.098.017.466 1.314 1.455.993 1.561-.18 0-.302.403-.194.641.142.245.371.427.454.707-.283.063-1.041.29-.987.7 1.502 1.11-.69.394-1.395.319-.384.035-.29.441-.138.584.284.263 1.064.854 1.27.963.614.828-.596.323-.703.332-.55.156-.22.661-.04.82.917.683-.644-.105-.432.73.346.425.832 1.058.187.832-.229-.49-.7-.858-.776-1.375-.564.135-1.073.963-.455-.013 1.092-.944-.466-1.616-.831-.945.156-.794-.223-2.513-.858-1.465.316.785-.784.26-1.157.355-1.27-.335-.432 1.265.088 1.652.705.879-1.335-1.2-1.015.45.266.629 1.296 1.565.072 1.472.003.477-.698.635-.33 1.152-.338.377-1.027-.064-1.178.706.07.682.357 1.84-.08 2.33-.715-.027-1.196.01-.139-.592.725-.568-.253-1.35-.801-.608.111-2.362-1.807 1.962-1.226-.176.234-.851-1.134-1.061.274-1.113 1.203-.268.265-1.234-.296-1.576-1.05.223-.99-.983-1.76-1.251.953-.75.087-1.761.005-2.736-.57-.035-1.092 1.268-1.127.146 1.58.022.62-2.324-.115-1.983.7-1.123-1.225-.05-.095-1.038.5-1.139-1.467.241-.574-1.074-.055-.674-.95-.996-1.21-2.836-.174-1.225-.635 2.078-.8 2.52-.767.302.397 1.48-.833.97-1.27-.226-.537 1.64.36 1.243.398.446-1.155-.017-.79.718-1.52-.924-.747.832-.649 1.467-1.167.384-.07 1.145.747.797.053.652-1.776.011-1.653.767-.817.13-.649.74-.293 1.003-.028.438.205.72-.57.877-.713.435-.896 1.191-.613 1.763-.1-.035-.25-.04-.463-.003-.533.342-1.273-.023-1.701.52-.776.283-1.727.072-2.562.13-1.407.242.25-1.084.799-.804.787-.81 1.927-.993 2.886-1.31-.63-.218-.391-1.255.353-1.322.171-1.195-1.137-.197-1.75-.654-.763-.48.253-.421-.071-.9-1.39-.053-.123-.919.38-1.42-.501-.645.116-.745.418-1.268 1.121-.888-.254-.927-.89-.76-1.512.43.458-1.158.267-1.56.504-.116.63-.882 1.177-1.167.48-.964-.947.317-1.25-.125-.383.147-1.459 1.083-.864.073.999-.539-.59-.768.12-1.023.569-.853.465-1.613.595-1.936-.695.162-1.052.25-1.461.958-.59 1.13-.045-.88-.99-.527-.828.692-1.213-1.327.002-1.281.065-.477 1.58-.869.672-1.188-.595.741-1.24-.549-1.65.13-.627.23.005-.714-.295-.935-.99-.148.689-1.322-.352-1.206-1.421.813 1.069-1.138-.375-.75.227-.382.276-1.429-.447-.602-.883 1.05-.234-.511-.561-.953-.07-1.113-.361.43-.449.395-1.219-.727.377 2.268-1.004.988-1.179-.233.257.409-.055.776.325.329.658.934-.041.37-.988.166 1.277 1.52-.126 1.123-.725.587-1.28-.624-1.84-.234.494.492 1.107 1.718.045 1.848.192.86 2.13 1.588.902 2.256-.725.484-.668-.072-.92-.4-.144-.99-.821-.066-1.317-.529-.526-.607-1.429.004-.4.377 0 .355.04 1.03.843.918 1.042.637-.503-.058-.884-.045-1.177.172.888.53.217.816.464.939-.304.089-.815-.008-.18.39-.178 1.475.571 1.5 1.37.257-.465-.141-.392.666.642.089.387.679.98.557.024.41 1.647.352.46.578-.597.191-1.17 1.32-.178 1.46-.223.722-1.423.026-2.161.002-.43-.256-.752-.54-.686-.861 1.417-.575-1.426-1.65-1.944-2.335.589-.492-1.256-.819-.376-1.267-.655-.793-1.362-1.465-1.536-2.424v-.001c-1.046.235-1.197 1.188-2.081 1.36-1.08.419.835.559.164.823.178.852-2.65.862-1.327 1.704-.164.848-2.186 1.377-2.28 2.56-.13 1.37 1.267-.784 1.528.092.226-.308 1.478-.615 1.428.13-.948.59-2.202.866-3.025 1.344-.05-.087-.107-.162.05-.163.126 0 .188-.052.188-.16 0-.28-.198-.362-.718-.301-.44.052-.482.042-.482-.112-.192-.503-.782.063-1.198 0 0-.02.04-.113.089-.205.154-.288-.097-.275-.786.038-.61.36-.701.238-1.242-.02-.817-.097-2.099-1.898-1.321-1.13.263.263.426.35.75.396.334.123.828.104 1.017.336.2.25.508.256.413.007-.044-.115-.021-.115.205-.002.278.139.532.091.532-.1-.437-.475-.409-.563.034-.339.544.272.438.272.865-.176.225-.174-.379-.666.007-.447.206.231.67.43.844.363.2-.076.16-.34-.079-.53-.323-.217-.13-.158.15-.133.5.046 1.21-.21 1.244-.45-.136-.568-1.369-.133-1.182-.546.084-.136-.041-.343-.208-.343-.055 0-.33.147-.61.328-.522.336-1.227.652-1.298.582-.021-.022.04-.082.139-.135.23-.123.24-.432.015-.432-.71.29-1.444.598-2 .598-.996-.002-1.12-.045-1.055-.369.07-.352.106-.37.286-.149.235.233.748.3.747-.009-.003-.19.022-.215.144-.15.198.107.478.1.547-.013.031-.051-.03-.185-.138-.3-.387-.26.015-.246.177-.122 0 .139.444.098.615-.057.13-.118.21-.127.457-.05.249.075.33.066.484-.059.279-.492-.307-.526-.685-.621l.271-.365c.092-.4.723-.264.742-.568-.838-.092.11-1-.002-1.15-.124-.15-.327-.076-1.054.383-.588.372-.782.42-.86.218-.027-.071-.123-.129-.214-.129-.139 0-.119-.046.125-.29.27-.27.367-.547.238-.676-.286.022-.48.176-.757.281-.085-.81.135-.392.583-.454.748-.332-.623-.14.142-1.162.536-.713.393-1.104-.243-.663-.4.278-.442.278-.442.007-.189-.715-.559.189-.58.38-.023.238-.094.477-.159.531a.338.338 0 00-.117.22c0 .07-.043.098-.097.065-.18-.7.155-1.29.538-1.777.223-.29.402-.604.261-.915-.34.233-.546.525-.892.77-.163-.665.05-1.305-.147-1.969-.685.407-.315 1.14-.536 1.595-.058.035-.12.012-.142-.054-.126-.379-.87-.714-.87-.393.24.655.93 1.053 1.076 1.772.027.16.066.375.086.476-.6.05-.746-1.297-1.066-1.005-.064.328-.159.264-.407.137-.957-.43-1.005-.15-.201.408-.204.159-.424.317-.66.404-.177 0-.13.24.058.3 1.209.14 1.227-.128.554.474-.28.288-.316.36-.21.431.285.099.62-.002.83.186.23.21.495.144.43-.108.55-.54.513.622.5.792-.041.254-.006 1.421-.33 1.25-.345-.184-1.072-.936-1.129-1.167-.087-.354-.466-.959-.6-.959-.195.073-.27.213-.385.379-.264-.23-.563-.651-.894-.693-.244.379.108.58.293.952-.244.075-.492.027-.729.133.142.398 1 1.019.41 1.027a.644.644 0 00-.375.137c-.158.143-.13.377.044.377.205 0 .566.218.616.372.037.116.1.142.235.1.377-.12.526-.093.554.1-.063.388-1.298.22-1.019.575.06.073.236.178.39.234.206.074.269.142.24.255-.03.112.038.19.246.28.166.072.225.128.14.132-.081.003-.312-.073-.514-.17-.295-.144-.411-.16-.601-.088-.242.092-.302.215-.15.308.047.03.085.086.085.125 0 .092-.477.26-.738.26-.378.058-.542.437-.89.557-.343.11-.153.334.454.537.431.144.623.172.744.107.255-.137.327-.106.387.17.038.172.11.256.215.256.206 0 .678-.4.776-.657.288-.334.402.07.285.358-.04.098.012.129.218.129.277 0 .687-.315.693-.532.002-.061.058.014.125.167 1.219-.448.963.433-.152.447-.556.003-.704.147-.446.432.145.16.142.17-.08.254-.498.19-1.147.016-1.64-.436-.192-.177-.294-.139-.294.11 0 .178-.067.192-.379.073-.187-.07-.22-.06-.22.077-.036.181-.195.244-.257.39 0 .17-.076.165-.526-.039-.455-.206-.93-.23-.93-.045 0 .091-.092.13-.32.13-.47.002-.707.085-.707.249 0 .24.186.35.595.352.36.003.377.012.225.128-.197.149-.194.152.28.288.348.1.363.117.235.258-.075.083-.136.176-.136.208.228.053.473-.157.811-.108.19-.024.25-.26.418-.348.05 0-.053.146-.227.324-.402.412-.416.573-.043.498.465-.126 1.065-.777 1.025-.09.013.575 2.036-.19 2.04-.13 0 .3-.876.81-1.835 1.07-.607.164-.76.12-1.545-.44-1.084-.723.278.965-1.03.215-.333-.187-.47-.23-.47-.145.166.396-.135.324-.412.325-1.633.023.473.482.337.836.027.616 1.35-.334.902.176-.177.196-.18.272-.01.272.209.21-.094.474.37.346.253-.073.269-.064.273.152.302.797 1.018.395 1.319.324.356.16.522-.082.903-.296.005.334.035.565.295.37.626-.106 1.098.106-.567.684-.7.56-2.072-.189-2.4-.1a.42.42 0 00.066.527c-.282.342-1.81-.396-1.598.034-.27.23-.734.273-1.149.403-.472.14.412.568.636.703.477.185.057.467.448.613.477.122-.148.38.075.526.494.262 1.13-.16 1.453.197 0 .223.151.24.508.06.422-.216.434-.216.434.001.29.164 2.197.293.298.813-.87.203-1.4.137-1.944-.242-.48-.334-.67-.34-.455-.012.15.228.08.258-.25.107-.325-.148-.367-.018-.087.273.467.46-.295.164-.645.075-.407-.104-.454-.097-.397.052-.19.257-.605.23-.885.452-.194.157-.195.163-.038.346 2.632 1.342-1.387.937-3.058-.451-1.066-1.115 2.338.588 2.102-.569.849 1.079 2.196.294 1.39-1.16-.74-.838-2.96.016-3.902-1.132-1.248.257-1.818-1.525-.444-.431 1.439.904.13-1.183 1.137-.885 1.14.645 1.193-.821.79-1.725-1.03.43-1.679-1.38-.557-.166 1.285.01-.073-2.188 1.159-1.571 1.41-.348-1.652-.516-2.112-.645.623.109.803-.395.536-.752 1.41-.553-1.577-1.449-.233-1.522 1.07.871.87-.042.136-.69 1.366.884-.322-.734.604-.655 1.626-.592-1.482-.042-1.045-.897.775-.206-.314-1.733.654-1.38 1.866-.01-1.094-.652-1.717-.68-.047.151.124-.627.637-1.018.547-.416-1.063-.695-.907-1.063 1.521-.258-.33-1.157 1.015-1.267.921-.334-1.3-.53-1.392-.893-1.528-.414.818.29.332-1.036.82-.743-.912-.695-.488-.857.38-.159.645-.052.867-.18.174-.101.256-.26.156-.323-.275-.177-.415-.006-.938-.029-.85-.036-2.912.225-1.48-1.057.4-.141.49-.948.046-.57-.311.266-.01-.766-.405-.268-.562 1.65-.549.442-.12-.28-.585-.235-.84 1.213-.837-.335.471-.57 1.001-1.981.037-.958-.141-.34-.092-.826-.05-1.319h-.278c.03.357.047.713-.07.997-1.098-.75.321 1.129-.06 1.197-.66-.866-.293.593.203.928.216 1.664-.598.319-.95-.192-1.093-1.36.122 1.204.311 1.74-.96.745-2.786.675-3.95.84-.32.046-.021.378.23.378 1.154-.176.356.758 1.092.93 1.401-1.794-.234 1.407.954-.104 1.036.764-2.045.841-1.24 1.327-1.196.056-1.019.425.05.6-.602 1.224.689 1.45 1.179 1.28-.117.545-1.5.292-1.895.96 1.218-.234-.012 1.14 1.01 1.145 1.662-.093-.358.773-1.29.783-.843-.04-1.75.793-.256.47-.74.72.56.51-.126 1.014-.673.066-3.072.29-1.937.5-.467.013-.809.22.025-.597.557-.722 2.584-3.386.678-2.956-.725.554-1.658 3.476-2.378 1.942 1.646-.085.661-3.447-.524-1.296-.984.923-.727.482-.211-.126-.524-.477 1.802-2.262-.062-1.811-.782 1.066-1.497.98-1.016-.081 1.384-.628.742-1.677-.207-1.38.376-1.452-1.127.375-.902-1.382-1.241-.731-1.082.69-2.168.795-.662.295.093.855-1.098.409-1.575 1.788 2.508 4.143-.316 2.724-.695-.408-1.23-.134-1.874-.73-.854.876 1.34 1.368.096 1.916.8.585 1.62.857.125.628-.482.396 1.424 1.744.238 1.548-.994-.548-1.611-1.035-2.435-2.063-1.446-1.32-1.427 1.264-.259 1.79.6.936 1.764 1.067.541 1.402-.327-1.268-2.258.007-.992.332-.428.933-1.997.57-.834 1.77 1.845 1.125-1.734-1.11-.598.57 1.21.874.183 1.296.926 1.909.976-.338 1.009 1.274.309.422-1.129.662-2.368-.236-3.568-.41-.88.614.731.967-.134 1.533.658.685 3.104 1.365 2.978 1.963-.95-.404-3.398-.223-1.837.805-.12.695-.624.245-1.198-.243.312-.475.235-1.305-.351-1.336-.579-.235-1.259.49-1.631.926-1.159-.505.682-2.478.064-3.373-1.084.063.452-1.98-1.273-1.507-1.301.549-.214-1.221-.735-1.748-.042-1.095-1.531-.771-1.758-.007.072 1.084-.783 1.36-1.144 2.001.85 1.187-1.287-.153-.987 1.143-.503.924 1.804 1.323 1.441 2.284-.363-.251-1.466-.648-1.75.097-.832.56.583 1.821-.106 1.777-.294-.915-2.328-1.47-1.973-.524-.925.454.024 1.49.752 1.835-.887-.084-.944.885-.807 1.472.229.236-.376.547-.756.386.234-.457-3.879-.478-2.905-.916.215-.096.312-.136.193-.244-.589-.604-.903-.075-1.018-.95-.01-.148-.105-.188-.188-.24-1.182-.736-.657-1.734.578-.739 1.35.69-.988-1.67.593-.291.81.897.883.481.67-.218 1.335.672.879.259.902-.124 1.952-.498-2.112-.405-1.987-1.07.954.227 1.59.134.87-.381 1.013-.247 1.764-.866.094-.796-1.036-.477-1.938 1.018-1.772-.513-.852-.114-1.353.652-1.795-.118-.474.09-.995-.296-1.531-.043-.44-.988-.363 1.065-.953-.053-.824-1.818.168-.934.248-.868.794.363 4.12.337 1.777-.585-1.678-1.129 3.335 1.32 1.485-.301.862.354 1.88.87 1.681.465-.132-.268-.259-.206.221-.119 1.613.503.591-.334-.245-.713 1.19-.537-2.096-.427-.378-.76.33-.072-.407-.302.116-.343.477-.037.947-.466-.484-.649-.891-.188-.643.163-1.401-.479-1.046-.885.557-.115 1.54-.269.394-.06-.293-.355.212-.482.764-.278.538-.734 1.322-.935.287-.074.198-.25.076-.336-1.215-.228-4.255 1.07-3.408.351.218-.184.382-.622.064-.47-.745.341-1.609.446-3.16.323-.515-.058.537-1.31.858-.845.837.506 1.049.165.952-.345 1.1.45 2.482-.048.584-.491-.465-.43 3.66-.495 1.421-.958-.878-.295-2.367.562-1.513-.557-1.419-.76-1.435 1.02-2.561-.134-.745.97-.595-.284-.595-.284.146-1.056 1.907-.077 1.708-.68-.337-.48 3.91-.195 1.476-.89-.587-.892-2.338-.05-2.561-.529 1.008-.94-1.227-.857.337-1.219.81-.646.56-.666-.53-.624-1.156-1.06.674-.29 1.167-.699.427-.067.569-.435.305-.448-.382-.018-1.726.065-1.86-.202-.024-.048.876-.369.473-.508-1.184-.383-1.463.318-1.797-1.528-.143-1.011-.121-2.245-.477-1.644-.572 1.072-.267 3.326-.822 2.483-.023-.032-.113-.111-.171-.188-.258-.345-.52-.12-.525.026-.019.463.637 1.09.37 1.113-.515.043-1.654-.626-2.634-.51-1.535.211.935.487 1.355.865.167.151-.28.346-.997.517-.733.897 2.17-.92 1.855.546-.26.423-2.408-.272-2.284.088.03.084.735.313 1.065.54.137.152-.39.285-.29.433.115.171.328.245.923.003-.466 1.198 1.537-.306 1.175 1.175-.21 1.297-2.354-1.385-2.35.08 1.434 1.209-2.73-.617-2.958.295.095.6 2.304.096.933.824-1.33.404 2.343.277.131 1.138.044 1.061 2 1.026.006 1.176-1.166-.133-4.372.963-1.919.91.641-.464 1.546-.414.937.352-.089.104.117.115.195.13.676.127.991 1.454-.335.62-.754.31.696.981-.731 1.054-.53.195-2.155.444-.665.68-1.025.239-2.904.886-.683.687 1.747-.087-1.467 1.309.201 1.392-1.1.058-2.813.978-.781.63.461.257-.71 1.182.477.388.167.328 1.357-.241 2.179-.27-1.298 1.288 2.924-.57 1.517 1.244.86.356.175.279.484 1.034.181.853-1.535-1.36-1.996-.246-.636.034-1.288.328-.855.887-2.352-.142-4.13 2.031-2.751 1.526 1.63-.787-.996 2.129.848.582.638-.55 1.816-.911.47 0-.739.411-1.967 1.726-.193.896 1.763-1.533.534 2.263-.627 1.103-.74-.483-.455.198.078.636.151.124-.632.1-.586.432-3.125 1.235-.998-.319-1.409-.39-1.08.182-.945-.375-1.654.248-.628.847-2.353-1.682.037-.778.789.305.428-.247.642-.158.374.042 1.054.234 1.305-.048.575-.25.692-.548.072-.748-.363-.115-.365-.118-.245-.301.171-.262.12-.593-.098-.624 0 0-1.648.925-2.173-.495.025-.793.222-.411.976-.615.59.381.506-.01.564-.248.083.051.718-.216.821-.346.27-.633-.336-.688-.64-.616-1.433.222-.035-.611-.184-1.04-.082-.215-.316-.253-.586-.095-1.875 1.077-.022-.38-.12-1.265-.032-.232-.5.02-.679.258.03-.31-.042-1.141-.6-.53-.002.263-.85 1.013-.953.917-.14-.14-.505-.112-.667.05-.79-.265.544-.474.518-.738-.035-.672.82-.31.762-.717-.03-.204-.007-.24.165-.275.368-.074.704-.423.752-.78.072-.442-.257-.358-.562-.245-.618.168-.156-.164-.2-.413-.03-.16.025-.27.262-.52.24-.253.296-.365.277-.559-.032-.331-.35-.376-.656-.092-.141.12-.85.742-.745.31.097-.388-.291-.56-.59-.262-.467.388.25-.402.28-.434.54-.576.64-.788.507-1.078-.495-.546-1.16.944-1.033.429.052-.21.305-.602.476-.737.603-.67-.13-.986-.61-.493-.845.756.393-.505.541-.61.413-.185.646-.812.195-.761-.479.086-.129-.547-.494-.553-.278 0-.374.114-.439.522-.1.424-.25.484-.136.079.118-.35.163-.748.344-1.065.195-.13.393-1.013.271-1.21-.087-.142-.31-.115-.539.064-.303.235-.11-.083-.01-.236.198-.247.435-.829.41-1.006-.257-.514-.585.084-.757.312-.021.001-.027-.682-.014-1.518.03-1.867.007-2.019-.287-2.019-.722.476-.419 1.184-.43 2.118l-.237-.027c-.69.06-.228.78-.12 1.14 1.266 2.283-.659.489-.68 1.043 0 .091-.087.259-.193.373-.483.203.253 1.041.144.95a.577.577 0 00-.311-.135c-.187 0-.41.228-.41.42 0 .15.257.603.478.843.439.592-.844-.686-1.038.098.016.467 1.314 1.456.993 1.562-.18 0-.303.403-.194.641.141.245.37.428.453.708-.282.062-1.04.29-.987.7 1.502 1.11-.688.392-1.394.317-.384.035-.29.442-.138.585.284.263 1.063.854 1.27.963.613.828-.596.323-.704.332-.55.156-.218.66-.04.82.917.682-.643-.106-.432.73.346.425.832 1.058.187.832-.228-.49-.7-.859-.776-1.376-.563.136-1.072.964-.454-.012 1.092-.944-.466-1.617-.832-.946.157-.793-.222-2.512-.858-1.464.317.785-.783.259-1.156.355-1.27-.336-.432 1.265.087 1.652.706.879-1.334-1.2-1.014.45.266.629 1.296 1.564.071 1.471.002.478-.697.636-.328 1.153-.34.377-1.028-.064-1.179.706.07.682.357 1.839-.08 2.33-.716-.028-1.196.01-.14-.593.725-.568-.252-1.349-.8-.607.11-2.363-1.808 1.962-1.226-.176.233-.851-1.134-1.061.274-1.112 1.203-.27.265-1.235-.297-1.577-1.05.223-.989-.983-1.76-1.252.953-.749.088-1.76.006-2.735-.57-.036-1.092 1.267-1.128.146 1.58.022.62-2.324-.114-1.984.7-1.122-1.225-.049-.095-1.038.259-.591-.146-.504-.47-.467L0 73.214h321.944V15.966l-.142.042c-.327-1.268-2.258.007-.992.332-.428.934-1.997.57-.834 1.77 1.845 1.126-1.734-1.109-.598.57 1.21.874.183 1.296.926 1.91.976-.338 1.009 1.273.308.422-1.128.662-2.367-.236-3.567-.41-.88.614.731.967-.134 1.533.658.685 3.105 1.365 2.978 1.963-.949-.404-3.397-.223-1.837.805-.12.695-.624.245-1.198-.243.312-.476.235-1.306-.351-1.337-.579-.235-1.259.491-1.631.927-1.159-.505.682-2.479.064-3.373-1.084.063.452-1.98-1.273-1.507-1.3.548-.214-1.222-.735-1.749-.042-1.095-1.531-.77-1.758-.007.073 1.085-.783 1.361-1.144 2.002.85 1.187-1.287-.153-.987 1.143-.503.924 1.804 1.323 1.441 2.284-.362-.251-1.466-.648-1.749.097-.833.56.582 1.821-.107 1.777-.294-.915-2.328-1.47-1.973-.525-.924.454.024 1.491.752 1.836-.887-.085-.944.884-.807 1.471.229.236-.376.548-.756.386.234-.457-3.879-.478-2.904-.916.214-.096.312-.135.192-.243-.588-.605-.902-.075-1.017-.951-.011-.147-.106-.188-.19-.24-1.182-.735-.656-1.734.58-.738 1.35.69-.989-1.671.592-.292.81.898.883.482.67-.217 1.335.672.879.258.902-.124 1.952-.498-2.112-.406-1.987-1.07.954.227 1.59.133.87-.381 1.013-.247 1.764-.866.095-.796-1.037-.477-1.939 1.017-1.773-.513-.852-.115-1.352.652-1.795-.118-.474.09-.994-.296-1.531-.043-.44-.988-.363 1.065-.953-.054-.824-1.817.168-.934.248-.867.794.363 4.12.337 1.777-.585-1.678-1.129 3.336 1.32 1.485-.302.862.355 1.88.87 1.681.466-.132-.268-.258-.206.221-.12 1.613.503.592-.334-.245-.712 1.19-.537-2.096-.428-.378-.762.33-.07-.407-.3.116-.342.477-.037.947-.465-.484-.648-.891-.188-.643.163-1.401-.48-1.046-.884.557-.115 1.54-.268.394-.061-.293-.356.212-.482.764-.279.539-.734 1.322-.936.288-.074.198-.25.076-.335-1.215-.229-4.255 1.069-3.408.35.218-.184.382-.622.064-.469-.744.34-1.609.445-3.16.322-.515-.057.538-1.31.858-.845.837.507 1.049.166.953-.344 1.098.45 2.481-.048.583-.492-.465-.43 3.66-.494 1.421-.958-.878-.294-2.367.563-1.513-.556-1.419-.76-1.435 1.02-2.561-.134-.745.97-.595-.285-.595-.285.146-1.056 1.907-.076 1.708-.68-.336-.48 3.911-.194 1.476-.889-.586-.892-2.337-.05-2.561-.53 1.008-.94-1.227-.857.337-1.218.81-.647.56-.667-.53-.624-1.156-1.06.674-.291 1.167-.7.427-.067.569-.435.305-.447-.382-.018-1.726.064-1.86-.202-.024-.048.876-.369.473-.508-1.184-.383-1.463.318-1.797-1.529-.142-1.01-.121-2.244-.477-1.644-.572 1.073-.267 3.327-.822 2.484-.023-.032-.113-.112-.17-.189-.259-.345-.52-.12-.525.027-.02.462.637 1.09.369 1.113-.515.043-1.654-.626-2.633-.51-1.536.211.934.487 1.354.865.168.15-.28.346-.996.517-.733.897 2.17-.921 1.855.546-.261.423-2.408-.273-2.284.088.029.084.735.313 1.064.54.137.151-.39.284-.29.432.115.172.328.246.923.003-.466 1.199 1.538-.306 1.176 1.175-.21 1.297-2.354-1.385-2.351.08 1.434 1.21-2.73-.617-2.958.296.095.599 2.305.096.934.824-1.33.403 2.342.277.13 1.138.044 1.061 2 1.026.007 1.175-1.167-.132-4.373.964-1.92.911.641-.464 1.547-.415.938.352-.09.104.116.115.195.13.675.127.99 1.454-.336.62-.754.31.696.981-.731 1.054-.53.195-2.155.443-.665.68-1.026.238-2.904.886-.683.686 1.747-.087-1.467 1.31.201 1.392-1.1.059-2.813.978-.78.63.46.258-.712 1.183.476.39.167.326 1.357-.242 2.179-.272-1.298 1.289 2.924-.57 1.517 1.245.86.356.175.278.484 1.033.182.853-1.535-1.36-1.996-.245-.636.034-1.287.328-.855.887-.54.866-2.371.334-3.33.837 1.21.03-.964 1.272.579.688 1.63-.787-.996 2.129.849.583.637-.551 1.815-.911.47 0-.74.41-1.968 1.725-.194.895 1.763-1.533.534 2.264-.627 1.103-.74-.482-.455.198.078.636.151.125-.632.1-.586.432.506.266.675.125-.176.73-.318.774 1.888-.474.769.824-.144.3.32-.143.391-.08.204.181.062.858.696.03 1.771-1.285.42 1.323-.39.656-1.327-.645.638 1.679-.736.756-2.965-.477-1.125-1.012-1.752-1.282-.532-.176.093-.494.327-.556 1.038-.772.24-.893-.386-.676-.311.108-.57.152-.719.122-1.126.112 2.043-.707.567-.913-1.08.181-.945-.375-1.654.248-.628.847-2.353-1.682.037-.778.789.305.427-.247.641-.158.375.042 1.055.234 1.306-.048.575-.25.692-.55.073-.748-.364-.116-.366-.118-.246-.302.172-.261.12-.593-.098-.624 0 0-1.647.926-2.173-.494 0 0-.375-.474.37-.48.33-.001.413-.236.606-.136.59.382.506-.009.564-.248.083.051.718-.216.821-.346.27-.633-.336-.688-.64-.615-1.433.222-.035-.611-.184-1.04-.081-.215-.316-.253-.586-.096-1.875 1.077-.022-.38-.12-1.265-.032-.231-.5.02-.678.259.028-.31-.043-1.142-.602-.53-.003.263-.85 1.012-.952.917-.14-.14-.504-.113-.667.05-.789-.265.544-.475.518-.739-.035-.671.82-.309.762-.717-.03-.203-.007-.24.165-.275.368-.073.704-.422.752-.78.072-.442-.257-.357-.562-.245-.617.17-.156-.163-.2-.413-.03-.16.025-.27.262-.52.24-.253.296-.364.277-.558-.032-.331-.35-.377-.656-.093-.141.12-.85.743-.745.312.098-.389-.29-.562-.59-.263-.467.388.25-.403.28-.434.54-.577.64-.788.507-1.078-.495-.547-1.16.943-1.033.428.052-.21.305-.602.476-.737.604-.669-.13-.985-.61-.492-.845.756.394-.506.541-.611.413-.184.646-.812.195-.76-.479.085-.129-.547-.494-.553-.277 0-.374.114-.439.521-.1.425-.25.484-.136.08.118-.35.163-.748.345-1.066.194-.13.392-1.013.27-1.21-.087-.141-.31-.115-.538.065-.304.235-.11-.083-.01-.236.197-.247.435-.83.41-1.006-.258-.514-.586.084-.758.312-.02 0-.027-.682-.014-1.518.03-1.867.007-2.02-.288-2.02-.721.476-.418 1.185-.429 2.119l-.237-.027c-.69.06-.227.78-.119 1.14 1.265 2.282-.66.488-.682 1.042 0 .091-.087.26-.192.374-.483.203.252 1.04.144.95a.577.577 0 00-.311-.135c-.187 0-.41.228-.41.42 0 .15.257.603.477.843.44.591-.843-.686-1.037.098.016.467 1.314 1.455.992 1.562-.18 0-.302.403-.193.64.141.246.37.428.453.708-.283.062-1.04.29-.987.7 1.502 1.11-.689.393-1.394.318-.384.035-.29.441-.138.584.284.263 1.063.855 1.27.964.613.827-.596.322-.704.332-.55.156-.218.66-.04.82.918.682-.643-.106-.431.73.346.425.831 1.057.186.831-.228-.489-.7-.858-.776-1.375-.563.136-1.072.964-.454-.013 1.092-.943-.466-1.616-.832-.945.157-.793-.222-2.512-.858-1.464.317.784-.783.258-1.156.354-1.27-.335-.432 1.266.087 1.652.706.88-1.334-1.199-1.014.45.266.63 1.296 1.565.071 1.472.003.478-.697.636-.328 1.152-.34.377-1.029-.064-1.179.706.07.683.358 1.84-.08 2.33-.715-.027-1.196.011-.139-.592.725-.568-.253-1.35-.801-.608.11-2.362-1.808 1.962-1.226-.176.234-.85-1.133-1.06.274-1.112 1.203-.269.265-1.234-.297-1.576-1.05.223-.989-.983-1.76-1.252.953-.749.088-1.76.005-2.735-.57-.036-1.092 1.267-1.128.145 1.58.022.62-2.324-.114-1.983.7-1.123-1.225-.049-.095-1.038.499-1.139-1.467.241-.574-1.074-.056-.673-.95-.996-1.21-2.835-.175-1.226-.635 2.077-.8 2.52-.768.302.397 1.48-.833.968-1.27-.225-.537 1.64.36 1.245.397.446-1.155-.017-.79.717-.727-.441-.927-.268-.93.1-.84.169-1.914.677-2.137-.047 1.151-.163.486-1.474-.208-1.696-1.378-.263.506-.195.534-.671.69.14.392-.544 1.138-.647.085-.937-2.047-.475-.455-.774.87-.028.87-1.288.663-1.74-.593.112-1.485 1.099-.947.01-.779-.333 1.619-.749.253-.948-.443-.016-2.236.792-1.027.051.933.13.979-.653.978-1.066 1.195-.433.148-1.142-.463-.437-.576.538-1.362-.534-1.529.613-.293.382-.228 1.028-1.07.466-1.425-.776.826-1.622 1.049-2.62-1.233-.151-.521-1.575.052-2.146-.65-.453-1.294.953-2.136.272-1.63.46 1-1.11-.146-1.304-.813.655-.426-.047-.049-.43-.361-.426 1.306-1.17-.063-.9-1.604 1.486.249-1.992-1.167-1.148-.101.04-.44-1.75-.52-.458-.38.513.374 2.325-.651 1.106-.84-.96-.783.255-.52.7-1.676-.452 1.215 1.814-.435.87-1.21-.134.742 1.228-.409 1.4-.349.257.386 1.352-.342 1.086-.477-.788-1.226.71-1.917-.15-1.053.37.706.825.781 1.378 1.41-.053.963 2.29.002 1.487-1.097-.41-.464 1.925-1.15.613-.475-.822-.889-.924-1.696-1.112.151.374.03 1.257.69 2.247.826.296-1.02.562.14 1.188.69 1.173-.559.085-1.004-.085-.35.513-2.008-.974-1.45.146.634.33.78 1.22 1.367 1.354-.222.467 2.065 2.311.308 1.812-.737-.194-2.334-.149-1.031.882.35.607 1.066.723.483 1.471.585.583 2.057 1.589.443 1.651-.304.449.406.49.224.784-.696-.383-1.897-.818-1.78-1.387 1.29-.524-1.3-1.501-1.771-2.126.537-.448-1.144-.745-.342-1.153-.597-.723-1.24-1.334-1.4-2.208-.951.213-1.09 1.08-1.894 1.237-.984.382.76.51.15.75.148.711-2.004.778-1.432 1.376-.372.042-.42.027-.42-.118-.193-.503-.782.063-1.199 0 0-.02.04-.113.09-.204.154-.288-.097-.276-.786.037-.611.36-.702.238-1.242-.02-.817-.097-2.1-1.897-1.322-1.13.263.263.426.35.75.396.335.124.83.104 1.018.336.2.25.508.256.412.007-.044-.115-.02-.115.206-.002.278.139.532.091.532-.1-.437-.475-.41-.563.033-.339.544.272.438.272.866-.176.225-.174-.38-.666.007-.447.206.231.669.43.844.363.2-.076.16-.34-.08-.53-.323-.217-.13-.159.15-.133.501.045 1.21-.21 1.245-.45-.137-.568-1.37-.134-1.182-.546.084-.136-.042-.343-.208-.343-.055 0-.33.147-.61.328-.523.336-1.228.652-1.298.582-.022-.022.04-.082.139-.135.229-.123.24-.432.014-.432-.709.29-1.443.598-2 .598-.996-.002-1.119-.045-1.054-.369.07-.352.106-.37.285-.15.236.234.748.3.747-.008-.003-.19.022-.216.144-.15.199.106.478.099.548-.014.031-.05-.031-.185-.138-.3-.387-.26.014-.246.177-.121 0 .139.444.097.615-.057.13-.118.21-.127.456-.051.25.076.33.067.485-.058.278-.493-.307-.526-.685-.621l.271-.366c.091-.399.723-.263.742-.568-.838-.092.11-1-.002-1.15-.125-.15-.327-.076-1.054.384-.588.37-.782.42-.86.217-.027-.07-.124-.128-.214-.128-.14 0-.12-.047.125-.291.27-.27.366-.547.237-.676-.285.022-.48.177-.756.282-.085-.81.135-.393.583-.454.748-.332-.623-.14.142-1.163.536-.713.393-1.103-.243-.663-.4.278-.443.279-.443.007-.188-.715-.558.189-.58.38-.022.239-.094.477-.158.531a.338.338 0 00-.118.221c0 .069-.043.097-.097.064-.18-.7.156-1.29.539-1.777.223-.29.401-.604.26-.914-.34.233-.545.525-.891.77-.164-.665.05-1.305-.147-1.969-.685.407-.315 1.14-.537 1.594-.057.035-.12.012-.141-.054-.126-.379-.87-.714-.87-.392.238.655.93 1.052 1.076 1.771.027.16.065.375.085.476-.6.05-.745-1.297-1.065-1.005-.064.329-.16.264-.408.138-.956-.43-1.004-.15-.2.407-.205.16-.425.317-.66.405-.177 0-.13.24.057.299 1.21.14 1.228-.127.555.475-.28.287-.317.36-.21.43.284.099.62-.002.83.186.23.21.494.144.429-.107.55-.54.514.621.501.792-.042.253-.007 1.42-.332 1.25-.343-.184-1.07-.937-1.127-1.168-.087-.354-.466-.959-.6-.959-.196.073-.27.213-.386.38-.263-.23-.563-.652-.894-.694-.243.379.108.58.294.952-.244.075-.492.028-.729.134.142.398.999 1.018.41 1.027a.645.645 0 00-.375.136c-.159.144-.131.378.044.378.205 0 .566.217.616.371.037.116.1.143.235.1.377-.119.526-.092.553.1-.062.389-1.298.22-1.018.575.06.073.236.179.39.234.205.075.268.142.239.256-.03.111.039.189.247.28.165.072.225.127.14.132-.081.003-.313-.073-.514-.17-.296-.144-.412-.16-.602-.088-.242.092-.301.214-.15.308.047.029.086.085.086.125 0 .092-.477.26-.738.26-.379.057-.542.437-.89.557-.343.109-.154.333.453.536.432.144.623.172.744.107.256-.137.328-.106.388.17.038.172.109.257.215.257.206 0 .678-.4.776-.658.288-.333.401.07.284.358-.04.098.013.129.219.129.277 0 .687-.314.693-.531.002-.061.058.014.125.167.157.363.4.363.632 0 .19-.297.248-.263.082.048-.166.312-.348.395-.866.398-.556.003-.704.148-.446.433.144.16.141.169-.081.253-.498.19-1.146.017-1.64-.436-.191-.176-.293-.138-.293.11 0 .179-.068.192-.379.074-.187-.072-.22-.06-.22.076-.036.182-.195.244-.257.39 0 .171-.077.165-.526-.038-.455-.207-.93-.23-.93-.045 0 .091-.093.129-.32.13-.47.002-.707.085-.707.248 0 .24.185.35.595.352.36.003.377.013.224.128-.197.15-.193.152.28.289.348.1.363.116.236.257-.075.083-.137.176-.137.208.229.053.474-.157.812-.107.19-.024.25-.262.418-.35.05 0-.053.147-.228.326-.401.411-.415.573-.042.498.464-.126 1.064-.778 1.025-.09.013.574 2.036-.19 2.04-.13 0 .299-.876.81-1.836 1.069-.606.164-.76.12-1.544-.439-1.084-.723.277.964-1.031.215-.332-.188-.47-.23-.47-.146.167.397-.134.325-.411.325-1.634.024.473.482.336.836.028.617 1.35-.333.902.177-.177.195-.18.272-.01.272.21.21-.094.474.37.346.253-.073.27-.064.274.152.08.422.489.611.777.514.235-.071.412-.365.54-.19.357.16.523-.083.905-.296.005.333.034.564.294.37.627-.107 1.098.106-.567.683-.7.56-2.072-.189-2.399-.1a.42.42 0 00.065.527c.033.323-.71.073-.994-.046-.481-.207-.74-.172-.604.081.037.254-.384.102-.618.213-.15.074-.389.16-.53.19-.472.14.412.568.635.703.477.184.057.467.448.612.477.123-.147.381.076.527.493.261 1.13-.161 1.452.197 0 .223.152.24.508.059.422-.215.435-.216.435.002 0 .167.032.174.62.118.901-.36.449.512-.322.695-.87.204-1.4.137-1.944-.242-.48-.334-.67-.34-.455-.012.15.228.08.258-.25.107-.326-.148-.367-.018-.088.273.467.46-.294.164-.644.075-.408-.104-.454-.097-.397.052-.191.257-.606.23-.886.451-.193.157-.194.164-.038.347 2.632 1.342-1.387.937-3.057-.452-1.066-1.114 2.337.589 2.101-.567.85 1.078 2.197.293 1.391-1.162-.74-.838-2.96.017-3.903-1.131-1.247.257-1.817-1.525-.444-.431 1.44.904.131-1.183 1.137-.885 1.14.645 1.194-.821.79-1.726-1.03.43-1.678-1.378-.556-.165 1.284.01-.073-2.188 1.158-1.571 1.41-.348-1.651-.516-2.111-.644.623.108.802-.396.536-.753 1.41-.553-1.577-1.449-.233-1.522 1.07.871.87-.042.136-.69 1.366.884-.323-.734.604-.655 1.626-.592-1.482-.042-1.045-.898.775-.205-.315-1.732.654-1.38 1.865-.01-1.094-.65-1.717-.68-.047.152.123-.626.636-1.017.547-.417-1.063-.695-.906-1.063 1.52-.257-.33-1.158 1.015-1.268.92-.333-1.3-.528-1.392-.892-1.529-.414.818.29.331-1.036.82-.744-.911-.695-.488-.858.381-.158.645-.051.867-.18.175-.1.256-.258.157-.322-.276-.177-.415-.006-.938-.029-.85-.036-2.913.225-1.48-1.057.4-.142.49-.948.046-.57-.312.266-.01-.766-.405-.267-.562 1.649-.55.44-.12-.28-.585-.236-.84 1.213-.837-.335.47-.57 1-1.983.036-.96-.141-.34-.091-.825-.05-1.318zm19.317 10.611a.176.176 0 01.07.005c.1.033-.08.223-.58.619-.291.23-.384.142-.179-.17.133-.203.497-.433.689-.454zm-133.602.432a.177.177 0 01.072.005c.098.032-.081.223-.581.618-.292.23-.384.142-.179-.17.132-.203.496-.433.688-.453zm130.296.493c.057 0 .239.135.404.3.25.25.36.3.672.3.297 0 .381.033.416.166.055.21-.004.27-.183.184l-.537-.258c-.407-.196-.96-.692-.772-.692zm-133.601.431c.057 0 .239.135.404.3.25.25.36.3.672.3.297 0 .381.034.416.166.055.21-.004.27-.183.184l-.538-.258c-.407-.197-.96-.692-.771-.692zm226.287.479c-.737-.054-.547 1.733.403 2.16.202.316.465.535.682.706v-1.996a11.214 11.214 0 01-.423-.5c-.272-.247-.491-.358-.662-.37zm-190.503 3.627c.49.014.511.425 0 0zm128.132.483c.49.014.512.425 0 0z" stoke="gold" stroke-width="0.2" fill="#84a98c" paint-order="markers fill stroke"/></svg>