<svg xmlns="http://www.w3.org/2000/svg" viewBox="0 0 321.945 78.523" height="296.781" width="1216.798"><path d="M304.093 0c.03.357.047.712-.07.997-1.098-.751.32 1.128-.06 1.197-.661-.866-.293.593.202.928.217 1.664-.598.318-.95-.193-1.092-1.359.122 1.205.312 1.74-.96.745-2.787.676-3.951.842-.319.045-.02.377.23.377 1.155-.177.356.758 1.092.93 1.402-1.794-.233 1.407.955-.104 1.036.764-2.046.841-1.241 1.327-1.196.056-1.019.424.05.6-.602 1.223.689 1.45 1.179 1.28-.117.545-1.5.292-1.895.96 1.218-.234-.012 1.14 1.01 1.145 1.662-.093-.358.773-1.29.783-.843-.04-1.75.793-.256.469-.74.72.56.51-.126 1.015-.673.066-3.072.29-1.937.499-.467.014-.809.22.025-.596.557-.722 2.584-3.386.678-2.956-.725.554-1.658 3.476-2.378 1.942 1.646-.085.661-3.447-.524-1.296-.984.923-.727.482-.212-.126-.524-.477 1.803-2.262-.061-1.812-.782 1.067-1.497.982-1.016-.08 1.383-.628.742-1.677-.207-1.38.376-1.452-1.127.375-.902-1.382-1.241-.731-1.082.69-2.168.795-.662.295.093.855-1.098.408-1.575 1.789 2.508 4.144-.316 2.724-.695-.407-1.23-.133-1.874-.73-.854.877 1.34 1.368.096 1.916.8.585 1.62.858.125.63-.482.395 1.424 1.743.237 1.547-.993-.548-1.61-1.035-2.434-2.063-1.446-1.32-1.427 1.264-.259 1.79.6.936 1.764 1.067.541 1.401-.327-1.268-2.258.007-.992.333-.428.933-1.997.57-.834 1.77 1.845 1.125-1.734-1.11-.598.57 1.21.873.183 1.296.926 1.909.976-.338 1.008 1.273.308.422-1.042.611-2.178-.107-3.29-.357-.07-.146-.113-.31.042-.402 2.025.28.298-.577-.795-.6 1.651-.136-1.58-1.416.155-1.386 2.208.126.325-.456-.699-.66 1.47-.282-.15-.475-.682-.651-1.417-.027 0-.739-.757-1.022-1.289.87-1.02-.457-.353-.604.077-.017.28-.035.189-.135-.629-.74.267-.819.918-.379 2.433-.026-.78-1.01-1.933-.841-1.982-.084-.041-.112-.032-1.166-2.22-.782 1.424-.775.093-1.132-1.383-.678.823-.25.898-.847-.255-.897-4.324 1.047-2.941-.197-.044-1.453-2.083 1.275-2.333-.004-.406-1.457 1.628-.03 1.128-1.202.597.22.806.14.914-.033.094-.15-.432-.264-.301-.42.319-.235 1.012-.485 1.038-.57.111-.36-1.995.398-2.267-.013-.36-1.444 2.577.265 1.821-.6-.716-.147-1.166-.326-1.005-.48.404-.389 2.844-.742 1.315-.903-.975-.083-2.081.617-2.593.591-.266-.013.364-.657.33-1.115-.01-.145-.276-.36-.521-.01-.055.078-.142.16-.164.192-.523.854-.293-1.39-.894-2.435-.372-.584-.312.639-.42 1.645-.272 1.842-.571 1.156-1.732 1.574-.396.15.507.44.485.488-.125.268-1.46.23-1.838.26-.26.021-.108.381.317.434.502.39 2.292-.433 1.18.655-1.083-.006-1.33.02-.506.636 1.563.308-.656.298.374 1.198-.207.482-1.97-.296-2.522.607-2.392.768 1.81.347 1.492.835-.178.604 1.536-.424 1.716.618 0 0 .188 1.239-.582.3-1.08 1.181-1.152-.582-2.534.217.882 1.082-.621.28-1.483.6-2.204.532 1.887.462 1.44.904-1.867.5-.48.95.594.468-.079.509.143.84.955.311.304-.47 1.387.737.88.81-1.535.172-2.395.096-3.145-.217-.32-.142-.143.288.079.463.863.685-2.192-.504-3.39-.238-.117.088-.201.266.086.33.783.175.575.634 1.341.885.504.11-.167.423.226.471.98.12 2.544-.694 1.536.217-.732.66-.497.305-1.374.52-1.413.227-.933.637-.46.658.52.024-.202.276.127.336 1.714.276-1.548.273-.35.766-.818.403-1.803 1.266-.221.715.473-.101.346-.158.223.112-.185.407.81-.137 1.652-.517-1.782 1.668 3.109-.921 1.481.252-2.292.99 1.006.908 1.781.523.077-.069 1.032-.976.274.852-.55 1.128-.538-.91-.943.083-.54-.233-1.043.166-1.517.092-.413.778-.934.034-1.775.175.213 1.512-.729.06-1.74.566-1.658-.016-.894.573.12.786-.698.533-.065.605.873.35.146.654-3.887.693-1.935 1.125.035.378-.403.802.9.093-.19.7-.104 1.11.67.194 1.522-1.418-.72.997.596.27 1.193-1.027 1.746-.054.598.714-.082.054-.173.097-.18.243-.086.872-.413.357-.978.975-.114.111-.017.147.199.236.473.208-1.11.796-.466-.272.2-.165.054-.391.153-.6.158-.32.014-.296-.385.063-.634.57-1.21 1.006-1.716 1.297-.308.178-.477.33-.474.427.009.28-1.199.435-1.4.18-.508.06-.467-.11.114-.313.613-.28 1.368-.46 1.8-1.085.481-.3.453-.637.02-.66-.598-.078-2.56.993-2.521.383.014-.22.085-.311.371-.481.372-.22.442-.395.208-.516-.114-.058-.122-.107-.048-.256.176-.356.816-.386.998-.046.172.32.96.545 1.094.312.233-.066.46.089.656-.01.143-.152-.115-.387-.61-.555-.524-.214-1.78-.658-1.812-.94.153.113 2.291-.06 2.329-.19.016-.053-.147-.133-.368-.181-.732-.16-1.011-.473-.944-1.061.042-.37-.164-.365-.516.012-.219.236-.337.288-.747.332-.67.082-.552-.447-.855-1.061l.208-.006c.158-.005.208-.053.203-.198-.006-.25.087-.399.33-.53.202-.11.392-.528.285-.628-.086-.081-.713.245-1.143.596-.453.346-.773.348-1.305.408.172-.186.35-.388.448-.613-.003-.055.2-.224.447-.375.507-.308.67-.478.584-.608.103-.594.737-1.08.75-1.728-.004-.133-.17-.092-.43.107-.132.1-.239.253-.236.338-.18.367-.79.386-.95.072-.085-.172-.147-.203-.314-.155-.204.058-.204.054.047-.25.449-.546.427-1.218-.042-1.296-.392-.048-.478-.598-.825-.594-.377-.226.4-.425.441-.804-.13-.586-.72.46-.752-.077-.005-.166-.094-.253-.416-.407-.2-.113-1.216-.695-1.225-.418.007.212.417.66.724.791.338.106.283.374.457.574.186.101.271.434.126.495-.638-.064-2.266-1.282-2.36-.804-.016.093.083.194.278.287.344.27.632.56.953.746.15.116.281.445.386.963.046.355.837 1.019.5.957a5.354 5.354 0 01-.643-.2c-.505-.162-1.031-.37-1.433-.663-.49-.362-.683-.39-.674-.1-.085.392 1.385 1.312 1.411 1.579.005.18-.164.164-.694-.062-.478-.204-.846-.248-.841-.101.083.115.304.06.193.18-.26.279.017.57.644.675l.504.084c.036.766-.883.987.866 1.076.414.927-1.34-.04-1.838-.235-.324-.13-.52-.067-.546-.039-.148.158.79 1.213 1.262 1.418.348.152.998.792 1.005.989.012.36-1.68-.242-2.519-.896-.49-.382-.716-.464-.882-.317-.155.138-.149.256.013.251.485.27.512 1.556 1.02 1.698.41.052.75.295.836.6.477.495.431.787-.854-.216-.735-.632-1.171-.971-1.249-.968-.115.39.018.873.208 1.182.43.687.45 1.09.051 1.103-.308.01-.207.186.224.389.55.328 1.108.784 1.607.845.463.054-.06.514-.6.526-.854.018-1.119-.042-1.51-.342-.345-.28-.882-.406-1.072-.767-.203-.4-.461-.432-.69-.087-.17.288.1 1.018.15 1.057.337.243.255.65.492.941.13.155.164.255.106.316-.22.235.092.655.556.75.787.334-1.258.144-1.443.278.053.147.498.265 1.551.411.803.112.828.123.646.256-.24.176-.311.284-.306.473.005.178.485.471.759.463.356.518-.483 1.297-1.122 1.186-.856-.157-1.601-.578-2.251-.915-.561-.388-1.01-.61-1.084-.53-.055.058-.018.24.064.424a44.484 44.484 0 00-2.583-.148c-.702-.022-1.344-.063-1.426-.092-.09-.436.714-.171.92-.704-.532.053-1.083-.338-1.61-.334-.27.006-.865-.237-1.025-.419-.061-.262.307-.118.514-.264.855.68.215-.042 1.329.325.148.46 1.118.362 1.124.036-.005-.158.012-.153.2.051.23.25.444.2.344-.083.065-.447.988.124 1.086-.274a.226.226 0 01.216-.173c.2-.006.211-.038.088-.25-.073-.127-.037-.167.235-.258.376-.126.78-.442.708-.552-.424-.145-1.056-.002-1.268-.38-.116-.216-.058-.204-1.579-.332-.52-.046-1.008-.31-1.543-.497-.464-.22.418-.852-.334-.843-.687-.094.222-.297.714.107.46.383.56.425.648.272.153.022.65-.322.837-.58.042-.19.08-.212.298-.172.541-.02.479-.474.857-.659.519-.25.473-.364-.14-.344-.395.012-.51-.012-.512-.111-.005-.163-.374-.158-.502.006-.051.066-.207.147-.347.18-.379.184-1.69-.346-.938-.323.307.01.375-.016.411-.159.195-.324.71-.075.742-.427.016-.093.623-.46.794-.867.338-.214.358-.296.102-.423-.336-.118-1.127.249-1.046-.18.036-.169.012-.205-.135-.2-.381.058-.669.355-1.058.374-2.348.028-1.068-.913-.188-1.978.123.177.43.497.426.195-.005-.168.148-.269.423-.277.09-.003.161-.063.159-.133.172-.262.828-.113.71-.48-.046-.131-.027-.18.074-.183.239-.008.797-.364.792-.506-.004-.115-.072-.125-.448-.064-1.04.2-.628.24-.828-.383-.046-.026-.28.094-.52.267-.332.24-.453.29-.51.207-.128-.188-.09-.368.123-.581.263-.264.175-.342-.428-.385-.63.102-.676-.02-.153-.448.055-.297.548-.093.474-.353-.043-.144-.008-.17.24-.177.611-.089-.083-.42.258-.434.126-.004.185-.057.181-.165-.009-.276-.208-.352-.72-.275-.436.066-.477.058-.482-.096-.207-.492-.773.088-1.188.04 0-.021.036-.114.082-.207.143-.29-.105-.27-.778.064-.594.375-.688.258-1.232.02-.812-.07-2.142-1.814-1.347-1.079.27.253.435.333.757.37.335.11.825.076 1.019.3.206.242.513.237.41-.006-.048-.113-.025-.114.203-.01.28.13.531.074.525-.116-.45-.456-.424-.545.022-.337.548.252.443.255.852-.202.218-.18-.397-.649-.006-.444.212.223.677.406.848.333.196-.082.149-.343-.094-.522-.328-.206-.135-.154.144-.138.498.029 1.192-.247 1.218-.485-.153-.56-1.36-.09-1.189-.504.079-.138-.051-.339-.216-.333-.055.002-.323.156-.595.344-.507.35-1.196.686-1.268.619-.022-.02.038-.083.133-.138.224-.13.224-.436 0-.429-.694.31-1.411.64-1.963.658-.987.03-1.111-.01-1.057-.332.058-.351.093-.371.278-.158.24.224.751.273.74-.033-.008-.188.015-.214.138-.153.2.1.477.084.542-.03.03-.052-.036-.183-.146-.293-.392-.245.006-.245.171-.127.005.138.444.083.608-.076.125-.121.204-.133.451-.065.25.068.33.056.478-.073.26-.497-.32-.512-.698-.594l.257-.371c.077-.399.708-.285.717-.587-.834-.064.076-.994-.039-1.14-.128-.144-.326-.065-1.033.414-.57.387-.761.442-.845.243-.029-.069-.127-.123-.217-.12-.138.005-.119-.042.115-.293.259-.275.346-.553.214-.677-.282.03-.47.19-.741.304-.11-.801.121-.394.564-.47.73-.352-.623-.118.103-1.156.508-.725.354-1.107-.262-.65-.389.289-.43.29-.439.022-.21-.703-.548.205-.562.396-.015.236-.078.475-.14.53a.336.336 0 00-.11.223c.003.069-.039.098-.093.067-.202-.689.111-1.284.475-1.779.212-.295.38-.612.23-.915-.33.242-.524.539-.86.793-.183-.654.007-1.296-.209-1.948-.666.426-.276 1.14-.48 1.598-.056.037-.118.015-.142-.05-.137-.37-.885-.679-.875-.36.258.642.955 1.014 1.123 1.722.032.158.077.369.1.469-.593.068-.78-1.262-1.088-.962-.053.327-.15.266-.4.15-.962-.396-1-.117-.186.41-.197.164-.41.327-.641.422-.175.006-.121.241.067.295 1.203.1 1.213-.166.565.452-.269.295-.302.368-.194.434.285.089.614-.022.829.157.234.201.494.127.421-.12.528-.553.53.6.523.769-.033.253.038 1.41-.288 1.25-.347-.171-1.092-.894-1.156-1.12-.097-.349-.493-.937-.626-.933-.191.079-.26.22-.37.389-.268-.22-.579-.628-.908-.659-.23.384.125.572.321.935-.24.082-.487.043-.718.156.153.39 1.023.977.439 1.004a.639.639 0 00-.367.148c-.152.147-.118.378.056.372.203-.006.568.198.622.349.04.114.103.138.236.091.37-.13.52-.108.552.081-.05.388-1.28.26-.99.604.061.07.238.17.393.22.206.067.271.131.245.245-.025.112.045.186.254.27.166.066.227.119.143.126-.08.006-.312-.063-.515-.153-.297-.132-.413-.145-.599-.067-.236.1-.292.222-.139.31.048.027.088.082.09.121.003.091-.466.273-.724.282-.374.07-.523.45-.864.58-.337.12-.142.336.467.518.432.129.623.15.74.082.25-.144.321-.116.39.156.043.169.116.25.221.247.204-.006.66-.418.749-.677.275-.34.4.057.294.346-.037.099.016.127.22.12.275-.008.67-.333.67-.548 0-.061.058.012.129.162.168.354.408.346.627-.02.18-.301.238-.27.083.045-.154.314-.333.403-.846.422-.551.02-.694.169-.429.443.149.154.146.163-.071.254-.488.203-1.136.054-1.64-.38-.196-.168-.295-.127-.287.119-.192.26-.43.036-.59.168-.03.181-.185.248-.242.394.005.17-.07.167-.522-.02-.458-.19-.93-.198-.924-.015.004.09-.088.131-.314.14-.465.016-.697.106-.692.268.593.232.995.696 1.115.726.348.088.363.105.242.248-.072.085-.13.18-.13.211.229.045.465-.171.802-.133.189-.03.24-.267.403-.359.05-.002-.047.147-.214.33-.385.42-.394.58-.027.495.456-.14 1.03-.805 1.013-.123.032.57 2.013-.254 2.019-.194.01.296-.843.83-1.786 1.119-.596.182-.75.144-1.545-.386-1.098-.682.306.947-1.015.247-.335-.176-.474-.214-.47-.13.177.388-.124.326-.398.335-1.619.076.484.463.36.819.048.61 1.329-.375.9.145-.169.2-.169.276-.003.27.215.201-.076.473.38.331.248-.08.264-.071.275.143.094.416.505.59.788.484.23-.078.396-.375.53-.206.357.148.514-.099.886-.322.015.33.052.558.304.357.617-.126 1.092.07-.54.695-.676.578-2.06-.12-2.382-.02-.1.168-.066.38.082.519.043.319-.702.095-.988-.014-.483-.19-.738-.147-.595.1-.26.232-.718.3-1.125.436-.464.154.427.55.652.676.479.168.071.462.464.594.476.106-.134.382.092.519.035.795 2.352-.617 2.382.18.005.165.038.17.62.097.88-.386.46.492-.298.698-.114.016-2.516-.013-2.631-.06-.327-.136-.365-.007-.078.274.478.44-.287.171-.637.095-.407-.09-.453-.082-.392.063-.18.262-.592.25-.862.477-.188.162-.189.168-.028.345 2.653 1.245-1.344.973-3.045-.35-1.093-1.07 2.336.508 2.065-.63.876 1.041 2.187.22 1.341-1.197-.761-.806-2.935.113-3.905-.995-1.229.295-1.851-1.453-.455-.413 1.456.85.092-1.177 1.1-.914 1.15.603 1.156-.853.727-1.736-1.007.46-1.708-1.313-.557-.146 1.274-.032-.143-2.167 1.098-1.595 1.386-.39-1.654-.458-2.114-.571.62.087.782-.417.507-.763 1.38-.594-1.61-1.386-.28-1.502 1.09.83.861-.069.112-.689 1.383.833-.343-.716.578-.667 1.593-.64-1.47.006-1.065-.857.762-.229-.367-1.707.604-1.39 1.85-.069-1.105-.61-1.723-.617-.043.151.102-.626.598-1.03.528-.43-1.077-.655-.933-1.025 1.499-.304-.365-1.136.966-1.289.902-.36-1.307-.481-1.41-.839-1.528-.362.82.261.296-1.038.79-.764-.926-.66-.512-.834.373-.17.638-.073.854-.207.17-.105.245-.265.145-.325-.28-.167-.411.007-.93.002-.845-.009-2.88.317-1.502-1 .392-.153.455-.955.027-.566-.3.273-.034-.76-.41-.253-.505 1.653-.53.456-.129-.273-.587-.215-.792 1.23-.84-.305.449-.58.93-1.998.006-.952-.302-.665.134-1.932-.227-2.656-.487.503.088 1.635-.179 2.349-1.113-.709.354 1.108-.02 1.189-.684-.838-.273.597.23.913.268 1.643-.583.335-.949-.16-1.126-1.313.16 1.19.365 1.714-.927.77-2.74.76-3.89.962-.314.055-.007.375.241.367 1.14-.213.378.74 1.113.886 1.332-1.824-.187 1.402.942-.134 1.052.724-2 .9-1.187 1.355-1.183.094-.995.454.07.594-.557 1.232.73 1.415 1.21 1.23-.099.545-1.479.339-1.849 1.013 1.2-.271.025 1.131 1.038 1.104 1.645-.147-.329.777-1.253.817-.836-.013-1.709.843-.238.473-.71.738.572.488-.092 1.01-.665.087-3.037.387-1.905.558-.462.028-.795.244.005-.592.529-.734 2.452-3.44.578-2.953-.702.574-1.532 3.5-2.295 2.002 1.629-.137.544-3.438-.561-1.268-.946.947-.706.501-.214-.118-.535-.456 1.714-2.3-.12-1.794-.74 1.082-1.452 1.021-1.009-.047 1.351-.666.682-1.686-.25-1.361.326-1.452-1.104.408-.938-1.34-1.254-.686-1.05.717-2.124.856-.647.315.12.846-1.076.441-1.504 1.824 2.62 4.027-.225 2.71-.702-.38-1.224-.092-1.882-.663-.817.897 1.372 1.313.157 1.896.812.555 1.635.799.144.62-.465.408 1.469 1.682.286 1.527-1.003-.512-1.63-.974-2.48-1.967-1.477-1.262-1.374 1.299-.199 1.783.625.908 1.783 1 .581 1.371-.365-1.246-2.238.08-.973.362-.394.939-1.961.629-.77 1.781 1.866 1.056-1.755-1.044-.574.585 1.227.827.223 1.278.98 1.863.956-.367 1.04 1.23.319.408-1.097.693-2.355-.158-3.55-.291-.852.637.756.934-.083 1.524.674.657 3.121 1.253 3.016 1.85-.955-.37-3.376-.113-1.796.857-.096.692-.61.263-1.196-.203.295-.481.191-1.301-.391-1.314-.581-.213-1.232.528-1.587.972-1.165-.463.597-2.48-.045-3.346-1.072.097.385-1.977-1.31-1.453-1.272.586-.252-1.204-.785-1.71-.077-1.084-1.543-.715-1.743.05.107 1.073-.733 1.374-1.07 2.021.88 1.15-1.28-.11-.941 1.165-.47.932 1.831 1.253 1.502 2.217-.368-.237-1.475-.594-1.731.153-.808.582.635 1.787-.05 1.765-.32-.898-2.354-1.383-1.972-.457-.902.48.071 1.478.804 1.796-.882-.055-.907.907-.752 1.485.235.227-.355.554-.737.407.164-.349-2.126 1.93-2.84 2.86-.527-.414-.792-.002-.925-.81-.016-.145-.11-.181-.195-.23-1.196-.692-.707-1.698.55-.751 1.361.64-1.033-1.625.578-.308.832.863.891.448.656-.238 1.346.624.88.228.891-.151 1.92-.557-2.107-.334-2.004-.997.953.194 1.58.081.85-.406.997-.277 1.72-.915.068-.792-1.042-.44-1.888 1.071-1.773-.452-.848-.086-1.32.69-1.784-.059-.467.104-.995-.261-1.52.006-.467-.965-.324 1.068-.945-.022-.876-1.775.137-.93.218-.868.798.335 4.095.202 1.743-.637-1.7-1.065 3.349 1.201 1.462-.347.866.324 1.892.802 1.681.408-.14-.262-.262-.196.216-.125 1.615.446.575-.35-.266-.7 1.163-.57-2.092-.356-.4-.742.325-.081-.412-.286.105-.343.471-.052.923-.492-.502-.627-.89-.158-.631.182-1.404-.43-1.065-.844.549-.133 1.518-.316.39-.074-.301-.343.195-.485.748-.3.51-.745 1.28-.97.283-.083.189-.254.066-.335-1.213-.187-4.185 1.197-3.368.458.21-.19.358-.63.049-.468-.728.362-1.581.493-3.123.421-.512-.04.49-1.316.824-.866.845.476 1.045.132.933-.37 1.104.41 2.458-.129.562-.507-.475-.412 3.612-.608 1.378-.996-.88-.263-2.328.634-1.518-.503-1.43-.707-1.39 1.057-2.543-.05-.707.985-.6-.263-.6-.263.112-1.052 1.89-.137 1.672-.728-.349-.466 3.872-.32 1.435-.93-.61-.866-2.32.025-2.556-.442.969-.965-1.244-.81.295-1.22.783-.667.535-.678-.545-.601-1.18-1.014.659-.31 1.134-.73.421-.081.55-.45.288-.455-.38-.006-1.708.12-1.85-.14-.026-.047.856-.394.452-.519-1.186-.342-1.44.363-1.83-1.457-.174-.997-.193-2.222-.527-1.615l.001.001c-.532 1.082-.158 3.306-.735 2.488-.024-.03-.116-.107-.176-.182-.267-.333-.518-.102-.519.043-.004.46.667 1.062.402 1.092-.509.06-1.66-.567-2.627-.421-1.515.26.943.453 1.371.814.17.144-.266.353-.971.545-.698.913 2.121-.983 1.856.481-.245.428-2.396-.192-2.261.16.031.083.739.287 1.073.502.14.146-.378.295-.274.438.12.167.333.233.915-.027-.423 1.203 1.514-.353 1.203 1.127-.167 1.293-2.378-1.297-2.328.156 1.461 1.152-2.726-.525-2.922.387.113.591 2.287.021.952.787-1.306.443 2.33.2.166 1.124.077 1.05 2.016.953.044 1.165-1.161-.093-4.304 1.096-1.874.965.62-.481 1.52-.461.94.319-.085.105.12.11.198.122.674.104 1.029 1.41-.313.626-.737.332.722.95-.69 1.069-.52.21-2.123.508-.638.694-1.009.27-2.85.972-.654.703 1.729-.143-1.413 1.345.243 1.373-1.09.094-2.757 1.06-.753.65.465.24-.667 1.195.485.37.176.319 1.337-.283 2.15-.339-1.244 1.32 2.881-.658 1.546 1.186.863.325.182.27.512 1.008.208.84-1.565-1.298-1.987-.179-.63.054-1.265.367-.818.907-.509.876-2.341.408-3.276.937 1.201-.01-.914 1.292.597.664 1.592-.833-.918 2.143.86.55.615-.566 1.77-.962.466-.015-.72.431-1.895 1.774-.163.894 1.699-1.577.602 2.226-.585 1.114-.75-.455-.445.21.097.628.154.119-.624.119-.567.447.51.247.673.101-.15.73-.291.776 1.855-.532.787.791-.133.303.313-.153.386-.092.208.173.089.848.691.007 1.715-1.33.459 1.298-.366.663-.554.632-1.7-.134-2.483-.442-.533-.157.075-.492.306-.56 1.004-.8.21-.895-.404-.66-.305.118-.56.17-.709.145-1.112.148 2.002-.766.532-.923-1.064.214-.949-.342-1.631.299-.596.86-2.387-1.592.012-.773.791.277.416-.258.63-.177.373.03 1.053.198 1.293-.09.562-.266.669-.566.049-.743-.364-.103-.367-.106-.254-.292.162-.264.1-.59-.117-.615 0 0-1.604.97-2.17-.42 0 0-.387-.457.35-.487.329-.013.403-.247.598-.155.597.36.5-.025.551-.264.084.049.704-.237.803-.37.247-.635-.356-.67-.655-.589-1.413.267-.054-.604-.216-1.025-.088-.21-.321-.24-.583-.075-1.824 1.127-.035-.376-.16-1.25-.04-.23-.495.035-.665.278.019-.309-.078-1.131-.612-.506.007.26-.81 1.03-.915.939-.143-.134-.504-.095-.66.071-.79-.237.524-.488.49-.749-.057-.664.804-.333.732-.735-.036-.2-.015-.238.155-.278.363-.085.684-.441.72-.798.058-.44-.266-.346-.565-.224-.607.187-.16-.157-.211-.403-.036-.158.016-.27.243-.524.23-.259.282-.371.257-.563-.043-.327-.36-.362-.654-.07-.136.123-.818.763-.728.332.084-.388-.307-.547-.594-.24-.45.399.235-.408.263-.44.517-.59.61-.802.469-1.085-.509-.526-1.12.972-1.01.458.044-.21.283-.607.447-.746.577-.683-.16-.973-.62-.469-.813.777.374-.513.517-.623.403-.195.613-.826.169-.76-.473.1-.146-.538-.508-.532-.275.01-.367.126-.419.531-.084.424-.231.488-.132.083.106-.35.138-.747.308-1.067.189-.136.356-1.017.229-1.208-.091-.138-.312-.104-.532.08-.293.243-.112-.077-.018-.233.189-.25.405-.836.375-1.01-.272-.502-.577.102-.74.333-.021.002-.05-.675-.064-1.504-.03-1.852-.057-2.002-.35-1.992-.7.494-.377 1.187-.357 2.113l-.236-.02c-.682.083-.201.782-.082 1.135 1.328 2.223-.638.506-.642 1.055.004.09-.078.26-.179.377-.472.216.284 1.024.173.937a.573.573 0 00-.312-.124c-.186.006-.4.24-.393.43.005.148.275.59.5.82.455.572-.857-.653-1.025.13.031.463 1.35 1.401 1.034 1.517-.179.005-.286.41-.171.642.148.238.382.411.472.686-.278.071-1.022.321-.956.726 1.525 1.052-.67.412-1.372.36-.379.047-.273.447-.118.584.29.251 1.082.812 1.29.914.635.8-.58.34-.686.352-.54.172-.196.662-.015.813.932.648-.64-.083-.404.738.357.411.858 1.022.212.819-.243-.477-.722-.828-.813-1.338-.555.152-1.033.99-.452.003 1.053-.97-.513-1.588-.855-.911.13-.792-.3-2.483-.897-1.424.34.768-.768.282-1.135.389-1.27-.292-.388 1.268.14 1.635.728.848-1.362-1.146-.992.478.285.616 1.336 1.51.119 1.457.018.473-.67.653-.288 1.153-.324.384-1.022-.03-1.146.738-.147 1.159-3.01 2.387-6.494 3.434.623-.52 1.104-1.364.017-1.178-.55.354-1.314-.023-1.756.537-.802.293-1.783.075-2.645.135-1.452.249.258-1.12.825-.83.812-.835 1.989-1.025 2.98-1.352-.65-.225-.404-1.296.364-1.365.176-1.234-1.175-.203-1.807-.675-.788-.495.261-.435-.073-.928-1.435-.056-.126-.95.393-1.468-.518-.665.119-.768.43-1.308 1.158-.916-.262-.957-.917-.784-1.562.444.472-1.196.275-1.611.52-.12.65-.91 1.215-1.204.496-.996-.978.327-1.29-.13-.396.152-1.507 1.118-.892.075 1.03-.556-.61-.793.125-1.056.586-.88.478-1.665.613-1.998-.718.167-1.086.258-1.509.99-.609 1.165-.046-.91-1.022-.546-.854.714-1.252-1.368.002-1.322.067-.492 1.63-.896.694-1.226-.614.765-1.28-.566-1.704.135-.647.236.006-.738-.304-.966-1.022-.152.712-1.364-.363-1.245-1.467.84 1.103-1.175-.387-.774.234-.395.285-1.475-.462-.622-.911 1.084-.24-.527-.579-.983-.071-1.15-.373.443-.463.407-1.258-.75.389 2.342-1.037 1.02-1.217-.24.265.422-.056.801.335.34.68.965-.043.382-1.02.172 1.319 1.57-.13 1.16-.748.605-1.321-.645-1.899-.242.51.507 1.142 1.773.046 1.907.199.888 2.2 1.64.932 2.33-.748.5-.69-.074-.951-.414-.148-1.02-.847-.067-1.36-.545-.542-.627-1.473.004-.41.388 0 .367.04 1.063.868.948 1.076.658-.519-.06-.912-.045-.473.069-.435.167-.258.279a46.592 46.592 0 00-1.22-.093c-.766-.526.658-.343-.173-1.103 1.64.3.622-.576-.295-.502-1.018.022-3.252-.852-1.435-.809 1.114-.041-.277-1.498 1.06-1.286-.453-.714-1.955-.389-2.101-.98.54.17 1.94-.124 1.24-1.437 1.16-.23 1.341-.639.035-.657.86-.559-2.504-.533-1.4-1.404 1.349 1.607-.55-1.828 1.043.08.797-.213-.106-1.205 1.16-1.053.273-.01.587-.382.237-.42-1.276-.139-3.267 0-4.34-.778.187-.59 1.422-3.43.278-1.909-.365.57-1.207 2.067-1.03.244.529-.383.878-1.988.188-1.02-.418-.061 1.064-2.162-.107-1.304-.344-.765.207-2.05-.364-2.567-.345.82.224 2.18-.06 2.932-1.088-1.082-.46.44.074 1.045.057 1.69-.272.118-.901.395.493.772.55 2.09-.121.31-.45-.53-.084.586-.433.307-.498-.397-.37.479.071.618 1.608 1.349-.651 1.137-1.577 1.207-.57.043-.728-.139-1.022.065-.106.073-.012.242.181.346.247.132.532.006.953.165.468.163-1.424.171-.502.953-.484 1.465 2.051.612.399 1.119-.087.4-2.505.692-1.488 1.023 1.471.073-.516 1.12 1.152 1.346.184.397-1.562.758-.95 1.193.573.408.787 1.251.73 1.087-.68.053-3.885.858-1.85.803 1.044-.419-.09 1.285.763 1.482.507.918-2.903.428-1.109 1.017 1.008-.12-.776 1.705.683.692-.778.734-.964 1.737.173.748 1.468.033-1.758 1.116-.2 1.669-.278.4-.065.942.61.802-.496.157-3.83.448-2.28.778 1.322-.717-.082 1.728 1.32 1.673 1.18-1.364.537.633-.601.2-.409 1-.298 2.599.923 1.855 1.087-.362-.267 1.962 1.271.925 1.46-1.242.9.721-.47.485-.986 1.286-3.438.433-4.217 1.373-.052.1-.094.199-.128.293-.153-.103-.239-.337-.18-.81l.04-.35c.246.12.52.254.79.25.246-.008.25-.017.18-.472-.058-.39-.043-.479.1-.562.22-.182.06-.43.169-.658.173-.351.015-.326-.423.068-.696.626-1.329 1.104-1.884 1.424-.338.195-.524.362-.52.47.01.307-1.317.477-1.537.195-.558.066-.513-.12.125-.342.468-.218.994-.366 1.437-.617.2-.114.387-.534.54-.574.527-.33.497-.7.02-.725-.656-.085-2.809 1.09-2.767.421.016-.24.093-.342.408-.529.408-.242.485-.433.227-.566-.124-.064-.134-.117-.052-.282.193-.39.897-.423 1.097-.05.188.351 1.054.598 1.201.342.256-.072.503.098.72-.009.157-.167-.127-.426-.67-.61-.575-.235-1.956-.722-1.99-1.031.168.123 2.516-.067 2.558-.208.017-.06-.163-.148-.405-.2-.804-.176-1.11-.52-1.036-1.166.046-.405-.18-.4-.566.014-.241.258-.371.316-.821.364-.736.09-.605-.49-.938-1.165l.228-.007c.174-.005.227-.057.223-.217-.007-.274.095-.438.362-.582.222-.12.43-.579.313-.689-.095-.09-.783.27-1.255.654-.497.38-.85.383-1.433.448.189-.204.385-.426.492-.672-.002-.061.219-.246.492-.412.556-.338.735-.525.64-.668.112-.651.81-1.186.824-1.897-.005-.146-.187-.1-.472.117-.146.111-.262.278-.26.371-.197.404-.866.423-1.042.078-.094-.19-.161-.222-.345-.17-.224.064-.223.06.051-.273.493-.6.47-1.338-.046-1.423-.43-.053-.525-.657-.906-.653-.413-.248.44-.467.485-.882-.143-.644-.791.504-.826-.085-.142-.443-.546-1.707-.696-1.491-.12.356-.037.773-.112 1.361-.075.308-1.077.324.302.723.205.11.299.477.14.544-.702-.07-2.489-1.408-2.592-.883-.017.102.091.213.306.315.377.296.693.615 1.045.818.165.128.31.49.425 1.058.05.39.918 1.118.549 1.05a5.856 5.856 0 01-.707-.218c-.555-.178-1.132-.406-1.573-.728-.538-.398-.75-.43-.74-.11-.093.43 1.521 1.44 1.55 1.733.006.197-.18.18-.763-.067-.525-.224-.928-.273-.923-.111.091.126.334.066.212.198-.286.306.019.626.707.74l.553.093c.04.84-.968 1.084.952 1.18.455 1.019-1.473-.043-2.019-.257-.355-.142-.57-.073-.599-.043-.162.174.868 1.332 1.385 1.557.382.167 1.096.87 1.103 1.086.013.395-1.845-.266-2.765-.984-.537-.419-.786-.508-.968-.348-.17.151-.164.282.013.276.533.296.564 1.708 1.12 1.863.451.058.824.325.919.658.522.545.474.865-.937-.235-.807-.695-1.287-1.067-1.372-1.064-.127.429.02.959.228 1.299.473.754.494 1.197.057 1.21-.339.012-.228.205.245.427.605.36 1.217.86 1.764.927.509.06-.066.565-.657.578-.938.02-1.23-.046-1.659-.376-.378-.306-.969-.445-1.177-.842-.223-.438-.507-.473-.758-.095-.187.317.11 1.118.166 1.161.258.187.294.46.38.718-.446-.048-.927-.035-1.12-.38-.141-.262-.24-.281-2.085-.437-.357-.03-.675-.094-.707-.141-.219-.115-.473-.132-.67-.273-.145-.106-.368-.19-.496-.188-.563-.268.508-1.034-.404-1.023-.833-.114.27-.36.865.13.558.464.68.515.787.33.408.078.48-.42.715-.43.176-.006.26-.083.301-.274.05-.23.097-.257.36-.208.657-.025.582-.576 1.04-.8.63-.304.575-.442-.168-.418-.48.015-.62-.014-.623-.134-.006-.197-.454-.192-.608.007-.062.08-.252.178-.421.218-.46.223-2.05-.419-1.139-.39.373.012.457-.02.5-.194.236-.394.86-.091.899-.519.06-.467.628-.18.62-.565-.007-.189.088-.323.344-.485.41-.26.434-.36.123-.514-.408-.143-1.366.302-1.269-.22.044-.203.014-.247-.164-.241-.462.07-.811.43-1.283.454-2.85.033-1.295-1.108-.228-2.401.15.215.52.604.517.237-.006-.204.18-.325.513-.336.109-.004.196-.076.193-.161.208-.318 1.005-.137.861-.583-.056-.16-.033-.218.09-.222.29-.009 1.137-.407 1.131-.58-.005-.14-.258-.185-.713-.11-1.263.242-.762.291-1.005-.466-.055-.032-.339.114-.63.324-.404.291-.551.351-.619.252-.156-.229-.11-.448.148-.706.319-.32.213-.415-.519-.467-.473-.033-.622-.005-.78.149-.188.181-.2.182-.273.01-.128-.302.088-.521.502-.51.31.01.371-.023.366-.192.067-.36.664-.112.575-.428-.052-.174-.01-.205.29-.215.743-.107-.1-.51.313-.526.153-.005.225-.07.22-.2-.01-.336-.251-.428-.874-.334-.528.08-.578.07-.583-.116-.252-.597-.94.106-1.442.046-.001-.024.044-.136.1-.248.174-.353-.129-.328-.945.076-.72.456-.834.314-1.494.024-.986-.085-2.599-2.2-1.634-1.308.327.306.526.404.917.447.407.136 1.002.094 1.237.365.25.294.622.288.497-.008-.058-.136-.03-.137.247-.01.34.157.644.089.636-.141-.544-.554-.514-.662.027-.41.665.306.538.31 1.035-.244.264-.218-.482-.787-.008-.539.257.27.821.492 1.029.404.237-.1.18-.416-.116-.633-.398-.25-.163-.187.175-.167.604.035 1.447-.301 1.479-.59-.186-.678-1.652-.108-1.443-.61.095-.168-.063-.412-.263-.405-.067.002-.391.19-.721.417-.616.425-1.452.833-1.539.752-.027-.026.046-.1.162-.168.271-.156.271-.53 0-.52-.84.376-1.711.775-2.38.797-1.199.037-1.35-.01-1.284-.402.071-.426.113-.45.337-.19.292.27.912.33.898-.041-.01-.228.018-.26.168-.186.242.12.578.101.658-.037.035-.062-.045-.222-.178-.355-.476-.298.008-.297.208-.154.005.167.538.1.738-.093.152-.146.247-.16.547-.079.302.083.4.068.58-.089.316-.603-.39-.62-.848-.72l.312-.45c.094-.483.86-.345.87-.713-1.01-.077.094-1.205-.046-1.381-.156-.176-.396-.079-1.253.502-.693.47-.925.536-1.026.294-.035-.083-.154-.149-.263-.145-.167.006-.145-.052.14-.355.313-.335.419-.672.259-.822-.343.037-.571.23-.9.368-.133-.971.148-.478.685-.57.886-.427-.756-.143.124-1.403.617-.879.43-1.342-.317-.787-.471.35-.522.352-.532.026-.255-.853-.665.248-.682.48-.018.287-.096.577-.171.644a.407.407 0 00-.133.27c.003.084-.047.119-.113.08-.245-.835.136-1.557.577-2.157.582-.861-.382-.435-.764-.149-.222-.794-.07-2.863-.333-3.654-.808.516-.256 2.674-.504 3.23-.067.045-.143.019-.172-.06-.167-.45-1.666-1.097-1.654-.71.313.778 1.751 1.503 1.955 2.362.039.192.093.447.121.569-.72.083-.947-1.532-1.32-1.168-.065.398-.18.324-.484.181-1.168-.48-1.215-.14-.227.498 1.11.628-.031.825.567 1.286.285.244.601.155.512-.145.641-.67.835 1.577.826 1.782-.04.307.046 1.71-.35 1.518-.42-.208-1.324-1.085-1.401-1.361-.119-.422-.599-1.135-.76-1.13-.232.095-.316.267-.45.471-.325-.266-.702-.761-1.101-.798-.279.464.152.692.39 1.133-.29.1-.591.052-.871.19.185.472 1.241 1.184.532 1.218a.777.777 0 00-.445.18c-.185.178-.143.458.067.451.247-.008.69.24.755.423.05.138.126.168.287.111.449-.157.63-.131.67.098-.06.47-1.553.315-1.203.733.076.085.29.204.478.265.25.082.329.16.298.299-.031.135.054.225.308.326.202.08.275.146.173.154-.098.007-.378-.075-.625-.185-.36-.16-.5-.177-.727-.083-.287.12-.354.27-.168.377.058.033.107.1.108.147.004.11-.564.332-.877.342-.454.085-.636.547-1.05.704-.408.145-.171.408.567.628.524.157.756.182.899.1.302-.175.39-.14.473.189.052.206.14.305.268.3.248-.007.8-.507.908-.82.334-.413.486.068.356.419-.043.12.02.154.268.146.333-.011.814-.404.813-.666 0-.074.07.014.156.196.204.43.497.42.762-.025.217-.365.287-.326.1.055-.188.382-.405.49-1.027.513-.669.026-.84.204-.519.537.18.186.177.198-.087.308-.592.247-1.379.066-1.99-.46-.238-.204-.357-.155-.347.144.007.215-.076.234-.455.103-.228-.078-.266-.063-.26.1-.037.22-.226.302-.295.48.007.205-.085.201-.633-.026-.556-.231-1.128-.24-1.12-.017.003.11-.108.158-.382.168-.565.02-.847.13-.84.326.009.289.236.413.73.4.432-.01.454.001.275.146-.23.187-.227.19.348.335.422.107.44.127.293.301-.087.103-.157.218-.156.256.277.055.564-.207.972-.161.229-.037.29-.324.489-.436.06-.002-.058.178-.26.4-.468.51-.479.705-.033.6.554-.17 1.25-.977 1.23-.148.038.69 2.441-.308 2.449-.235.011.359-1.023 1.007-2.167 1.357-.723.22-.909.174-1.874-.468-1.332-.828.37 1.149-1.232.298-.407-.212-.574-.258-.57-.156.215.47-.15.395-.483.406-1.963.092.588.563.438.994.057.74 1.611-.455 1.092.176-.205.242-.206.334-.003.328.26.243-.094.573.458.401.302-.097.322-.087.336.173.113.505.612.716.956.588.28-.095.48-.455.642-.25.434.18.624-.12 1.075-.392.019.401.063.678.369.434.75-.153 1.325.084-.655.844-.82.7-2.5-.146-2.89-.026a.504.504 0 00.1.63c.052.387-.852.116-1.198-.017-.587-.23-.896-.178-.722.122.054.304-.46.137-.735.28a3.32 3.32 0 01-.631.249c-.563.187.518.668.791.821.581.204.087.56.564.72.578.129-.163.463.111.63.604.295 1.352-.238 1.754.18.01.268.192.283.614.05.5-.275.513-.276.522-.014.006.201.045.207.751.118 1.07-.468.56.597-.36.848-1.039.278-1.679.22-2.348-.215-.59-.383-.819-.381-.548.004.189.268.106.306-.297.138-.397-.165-.442-.008-.094.332.58.535-.348.209-.772.116-.366-.078-.347-.45-.947-.143-.587.275-2.635 1.583-2.207.428 2.11-.244.98-.44.965-1.37l.603-.142c.751-.176 1.065-.55.727-.867-.144-.137.128-.088.22-.234-.006-.178-.448-.095-1.01.19-.624.315-.83.346-.837.128.011-.325 1.719-1.554 1.584-2.022-.011-.353-.243-.303-.808.174-.463.387-1.083.68-1.682.916-.28.125-.624.256-.764.292-.403.1.503-.764.53-1.199.087-.634.22-1.043.393-1.196.374-.25.7-.623 1.094-.977.23-.128.341-.259.316-.37-.152-.57-2.028 1.031-2.796 1.16-.18-.063-.103-.473.115-.61.194-.256.107-.576.507-.731.362-.183.823-.757.815-1.014-.034-.336-1.217.449-1.45.601-.377.212-.48.325-.473.526.004.652-.793-.567-.904.154.079.454 1.036.634.598.937-.42.023-.482.696-.952.785-.563.131-.536.946.051 1.572.327.349.327.353.075.299-.206-.045-.278-.004-.367.212-.17.393-.91.419-1.157-.012-.004-.103-.143-.28-.312-.391-.33-.22-.533-.257-.528-.096.066.783.873 1.323 1.044 2.034-.095.164.116.357.754.69.47.248.756.692 1.162 1.125-.648-.03-1.037-.008-1.612-.39-.549-.391-1.333-.737-1.431-.632-.122.13.141.62.395.737.304.14.429.313.44.616.008.177.07.23.262.223.269-.009.26-.01.167.233-.13-.064-.389-.094-.83-.059-.998-.474-1.8 1.138-1.696-.49-.81-.095-1.258.734-1.703-.07-.446.11-.952-.281-1.452.004-.45-1.034-.306 1.14-.903-.028-.843-1.9.127-.994.205-.926.764.36 3.911.23 1.662-.675-1.628-1.145 3.203 1.297 1.395-.365.828.349 1.81.863 1.608.441-.134-.28-.252-.21.205-.132 1.544.483.548-.373-.257-.748 1.109-.606-2-.388-.384-.795.31-.086-.395-.307.099-.366.45-.054.88-.523-.482-.673-.85-.171-.602.193-1.342-.464-1.02-.906.523-.14 1.448-.332.371-.077-.289-.368.185-.517.713-.319.484-.795 1.219-1.033.27-.087.179-.271.06-.358-1.158-.204-3.992 1.264-3.214.477.2-.202.34-.671.045-.5-.693.384-1.508.522-2.982.44-.488-.046.465-1.405.784-.923.81.511.999.144.89-.394 1.056.443 2.348-.127.535-.539-.455-.441 3.448-.636 1.313-1.058-.841-.285-2.221.669-1.452-.543-1.369-.762-1.323 1.124-2.43-.064-.67 1.05-.573-.283-.573-.283.103-1.123 1.804-.14 1.595-.772-.335-.5 3.696-.327 1.366-.988-.585-.928-2.214.018-2.442-.482.922-1.027-1.192-.872.277-1.303.745-.71.038-.83-.993-.751-1.132-1.088.628-.328 1.08-.776.402-.085.524-.48.274-.484-.363-.007-1.96-1.227-2.096-1.506-.025-.05 1.287-.311.9-.446-1.87-.495-1.613-2.402-2.217-2.622-.378-.138-.167 1.234-.906 1.792-1.305 1.206-.826.981-.108 1.212.044.974-1.259.736-2.183.889-1.446.271.903.488 1.313.875.164.155-.253.376-.926.579-.663.973 2.023-1.043 1.775.521-.232.456-2.289-.215-2.159.163.03.088.707.31 1.026.54.135.156-.36.314-.26.467.792 1.089-.548.597-.773 1.23 2.192 1.757-2.028-.459-2.212.515.11.632 2.185.03.912.844-1.245.469 2.227.222.162 1.202.078 1.123 1.93 1.026.047 1.245-1.11-.104-4.107 1.156-1.786 1.025.59-.512 1.45-.487.9.344-.081.112.113.117.188.13.644.114.988 1.511-.296.669-.703.351.693 1.018-.656 1.139-.495.222-2.025.535-.606.74a9.196 9.196 0 00-.407.132c-.32.025-.69.024-1.135-.003-.402-.04.38-1.217.644-.798.667.444.823.125.732-.34.87.385 1.932-.108.44-.467-.376-.383 2.838-.546 1.08-.915-.694-.248-1.829.576-1.197-.473-1.128-.661-1.088.973-2-.058-.551.91-.472-.246-.472-.246.083-.973 1.484-.118 1.311-.667-.276-.433 3.042-.277 1.124-.854-.484-.804-1.823.013-2.012-.421.758-.889-.981-.757.227-1.129.612-.614.417-.625-.431-.558-.934-.944.515-.284.887-.672.33-.072.431-.414.225-.42-.298-.006-1.343.104-1.455-.137-.02-.044.671-.361.353-.479-.934-.322-1.13.33-1.445-1.357-.142-.925-.162-2.059-.422-1.498-.414 1-.11 3.06-.567 2.3-.019-.028-.091-.1-.138-.168-.212-.31-.409-.097-.409.037 0 .426.53.986.321 1.013-.4.053-1.307-.533-2.067-.402-1.19.233.743.424 1.082.76.135.135-.208.326-.761.5-.545.843 1.663-.9 1.462.454-.191.395-1.885-.189-1.778.14.025.076.582.268.846.468.111.136-.295.272-.213.405.095.154.262.217.719-.02-.328 1.111 1.189-.32.951 1.048-.125 1.197-1.875-1.212-1.83.133 1.154 1.074-2.145-.498-2.296.346.092.547 1.799.03.752.733-1.024.404 1.834.196.136 1.042.066.973 1.59.891.04 1.079-.526-.053-1.562.284-1.986.559-.376.02-.75.024-1.012.355-.801.293-1.783.076-2.645.136-1.452.249.258-1.12.825-.831.812-.835 1.989-1.024 2.98-1.351-.65-.226-.404-1.296.364-1.365.177-1.234-1.175-.203-1.808-.676-.787-.495.262-.435-.073-.928-1.434-.055-.126-.95.394-1.468-.518-.665.118-.768.43-1.308 1.158-.916-.262-.957-.917-.784-1.562.444.472-1.195.274-1.61.521-.12.651-.911 1.215-1.205.496-.996-.978.327-1.29-.13-.395.152-1.505 1.118-.89.076 1.03-.557-.611-.793.123-1.057.586-.88.48-1.664.614-1.997-.718.167-1.087.258-1.51.989-.608 1.166-.045-.91-1.021-.545-.854.714-1.251-1.369.002-1.322.067-.492 1.63-.897.694-1.226-.614.764-1.28-.567-1.704.135-.647.236.007-.738-.303-.966-1.023-.153.711-1.364-.364-1.246-1.467.84 1.103-1.174-.387-.774.233-.394.284-1.474-.462-.62-.911 1.083-.241-.528-.579-.984-.071-1.15-.372.442-.462.407-1.259-.75.388 2.342-1.038 1.02-1.217-.24.266.422-.056.8.335.34.679.965-.043.383-1.02.172 1.319 1.57-.13 1.16-.748.605-1.321-.645-1.899-.242.51.507 1.142 1.773.046 1.907.199.888 2.2 1.64.932 2.33-.748.5-.69-.074-.95-.414-.149-1.02-.848-.068-1.36-.546-.543-.627-1.474.004-.412.389 0 .367.04 1.063.87.948 1.075.658-.52-.06-.913-.046-1.215.178.917.547.224.842.48.97-.313.092-.84-.008-.186.403-.185 1.523.588 1.548 1.415.266-.48-.145-.404.688.663.092.398.7 1.01.575.026.424 1.701.363.476.597-.617.197-1.208 1.363-.184 1.508-.322 1.041-2.623-.787-2.822.438.487.2.525.456.458.733-.526-.29-.956-.613-.88-.987 1.464-.594-1.472-1.702-2.006-2.41.608-.508-1.296-.845-.388-1.307-.677-.82-1.406-1.513-1.586-2.504-1.08.243-1.235 1.226-2.148 1.404-1.115.432.862.577.17.85.183.879-2.736.89-1.371 1.758-.17.876-2.256 1.422-2.352 2.643-.136 1.415 1.307-.81 1.577.095.232-.318 1.525-.635 1.474.134-1.306.811-3.172 1.049-3.795 1.97-1.292.578-.247.822.655.496-.672.646.58.588 1.458.61-.3.24-.832.42-1.361.673-1.32.545-.5.606.033 1.17.144.337-2.474.977-2.903 1.857a2.212 2.212 0 00-.151.343c-.24.043-.312-.02-.023-.348-.038-1.222-1.379 1.06-1.552-.017-.28-1.227 1.083-.015.743-1.003.399.188.537.122.609-.023.061-.126-.29-.225-.204-.355.211-.196.67-.402.688-.473.072-.303-1.325.323-1.509-.024 0 0-.16-.152.498-.66.334-.447 1.096-.513.414-.627-.649-.075-.864.33-1.205.306-.337-.164-.462-2.139-.872-3.03-.351-.639-.254.934-.454 1.65-.17 1.547-.439.707-1.209 1.052-.262.124.59.364.574.405-.08.225-.97.185-1.22.208-.174.016-.07.32.213.366.623.106 1.679-.055.515.51-.72-.012-.884.01-.333.532 1.677.304-.161.295.529 1.057-.135.404-1.312-.26-1.675.496-1.587.631 1.207.302.998.71-.115.507 1.02-.347 1.145.53 0 0 .132 1.042-.385.25-.711.985-.77-.497-1.686.166.594.915-.411.232-.982.496-1.464.435 1.258.4.963.768-1.24.41-.314.796.398.398-.05.427.1.706.637.266.2-.394.927.628.59.687-1.02.135-1.593.067-2.094-.201-.213-.12-.093.24.055.39-5.844-1.82-5.408-1.665-5.34-4.054-.006-.2.088-.341.344-.513.41-.275.434-.38.123-.544-.408-.152-1.367.317-1.27-.235.043-.215.014-.262-.164-.256-.462.073-.81.454-1.282.478-2.85.03-1.298-1.175-.233-2.542.15.228.521.64.517.252-.007-.216.179-.345.513-.356.108-.004.195-.08.192-.17.208-.336 1.005-.143.86-.615-.056-.169-.033-.23.089-.235.29-.009.967-.465.961-.647-.005-.149-.088-.161-.544-.083-1.262.254-.762.307-1.005-.495-.056-.034-.34.12-.63.342-.404.308-.55.37-.619.266-.156-.243-.11-.475.147-.748.318-.338.213-.439-.52-.495-.473-.036-.621-.006-.78.156-.188.192-.2.192-.273.009-.127-.32.087-.552.501-.538.31.01.372-.024.366-.203.066-.382.664-.118.574-.452-.052-.185-.01-.218.29-.228.742-.112-.1-.54.313-.556.153-.005.224-.074.22-.212-.012-.355-.254-.453-.876-.355-.528.083-.577.073-.584-.124-.253-.633-.939.111-1.442.047 0-.026.044-.145.1-.263.173-.373-.129-.348-.944.079-.72.48-.834.33-1.495.022-.02-.002-.04-.007-.06-.01L0 78.524h321.944V7.993c-.585.022-.73-1.293-1.047-1.005-.065.33-.16.265-.408.138-.957-.43-1.005-.15-.201.408-.204.159-.424.317-.66.404-.177 0-.13.24.058.3 1.21.14 1.227-.127.555.474-.281.288-.317.36-.21.43.284.1.619-.001.83.187.23.21.494.144.428-.107.55-.54.514.62.502.791-.043.254-.007 1.421-.332 1.25-.344-.184-1.07-.936-1.127-1.167-.087-.354-.466-.96-.6-.96-.196.074-.27.214-.386.38-.264-.23-.563-.652-.894-.693-.244.378.108.58.293.952-.243.075-.492.027-.728.134.141.397.999 1.017.409 1.026a.644.644 0 00-.375.137c-.158.143-.13.377.044.377.205 0 .567.218.616.372.038.116.1.142.236.1.376-.12.526-.093.553.1-.063.388-1.298.219-1.019.575.06.073.236.178.39.234.206.074.27.142.24.255-.03.112.038.19.246.28.166.072.225.128.14.132-.08.003-.312-.073-.513-.17-.296-.144-.412-.16-.602-.088-.242.092-.302.215-.15.308.047.03.086.085.086.125 0 .092-.478.26-.738.26-.38.058-.542.437-.89.557-.344.11-.154.334.453.537.431.144.623.172.744.107.256-.137.327-.106.388.17.037.172.108.256.214.256.206 0 .678-.4.776-.657.289-.334.402.07.285.358-.04.098.013.128.218.128.278 0 .687-.314.694-.531.003-.061.058.014.124.167.158.363.4.363.633 0 .19-.297.248-.263.082.049-.166.311-.349.395-.867.398-.555.003-.704.147-.446.432.145.16.142.17-.08.254-.498.189-1.146.016-1.64-.436-.192-.177-.293-.138-.293.11 0 .178-.068.192-.38.074-.187-.072-.22-.06-.22.076-.036.182-.195.244-.257.39 0 .17-.076.165-.525-.038-.456-.207-.93-.23-.93-.045 0 .091-.093.129-.321.13-.47.001-.707.085-.707.248 0 .24.186.35.596.352.36.003.377.013.224.128-.197.15-.194.152.28.289.348.1.363.116.236.257-.075.083-.137.176-.137.208.228.053.473-.157.811-.108.191-.023.25-.26.418-.348.05 0-.053.146-.227.325-.402.411-.416.572-.043.498.465-.127 1.065-.778 1.025-.09.014.574 2.036-.19 2.04-.13 0 .299-.876.81-1.835 1.069-.607.164-.76.12-1.544-.439-1.084-.724.277.964-1.031.215-.333-.188-.47-.23-.47-.146.166.397-.135.324-.411.325-1.634.023.472.482.336.836.027.616 1.35-.333.902.177-.177.195-.18.272-.01.272.21.209-.094.473.37.345.253-.072.27-.063.274.153.08.422.489.61.778.514.234-.071.411-.365.54-.19.356.16.522-.083.904-.297.005.334.034.565.294.37.627-.106 1.098.106-.567.684-.7.56-2.072-.189-2.399-.1a.42.42 0 00.065.527c.033.322-.71.073-.995-.047-.48-.206-.739-.172-.603.082.037.253-.385.101-.618.213-.15.074-.39.159-.53.19-.473.139.412.568.635.702.477.185.057.468.448.613.477.123-.148.381.076.526.493.262 1.13-.16 1.452.198 0 .223.152.24.508.059.422-.216.434-.216.434.002 0 .167.032.173.621.118.9-.36.448.511-.322.695-.87.203-1.4.137-1.944-.242-.48-.335-.67-.34-.455-.012.149.227.08.257-.251.106-.325-.148-.366-.018-.087.274.467.46-.295.163-.645.075-.407-.104-.454-.098-.397.051-.19.258-.605.23-.885.452-.194.157-.195.164-.038.347 2.632 1.342-1.387.937-3.057-.452-1.067-1.115 2.337.589 2.1-.568.85 1.078 2.197.293 1.392-1.161-.741-.838-2.961.016-3.903-1.132-1.247.257-1.817-1.524-.444-.43 1.439.904.13-1.184 1.137-.886 1.14.645 1.193-.821.79-1.725-1.03.43-1.678-1.378-.557-.165 1.285.009-.072-2.188 1.16-1.572 1.408-.347-1.653-.515-2.113-.644.623.108.803-.395.537-.753 1.409-.552-1.577-1.448-.234-1.522 1.07.872.87-.041.136-.69 1.367.885-.322-.734.605-.654 1.625-.592-1.483-.043-1.045-.898.774-.206-.315-1.733.654-1.38 1.865-.01-1.094-.651-1.717-.68-.048.152.123-.627.636-1.018.546-.416-1.063-.695-.906-1.063 1.52-.257-.33-1.157 1.015-1.267.92-.334-1.3-.528-1.393-.892-1.528-.415.819.29.332-1.036.82-.744-.911-.695-.488-.858.38-.159.645-.052.867-.18.174-.1.256-.258.157-.322-.276-.177-.415-.006-.939-.03-.85-.036-2.912.225-1.48-1.057.4-.141.49-.947.047-.57-.312.267-.01-.766-.406-.268-.562 1.65-.549.442-.12-.28-.585-.235-.839 1.214-.837-.334.471-.57 1.001-1.982.037-.96-.141-.34-.091-.824-.049-1.317zm17.85 5.132c-.09.362.01.769-.132 1.061-.057.036-.12.012-.141-.054-.126-.378-.87-.714-.87-.392.238.655.93 1.053 1.076 1.772.02.127.047.266.067.378zM.314 7.311C.237 7.306.13 7.343 0 7.418v1.158c.031-.057.063-.113.105-.177.423-.64.466-1.071.21-1.088zM0 9.43v.444c.452-.235.199-.264 0-.444zm.199.666c-.07.008-.136.025-.199.045v.752c.264-.329.348-.648.199-.797zm2.002.48c-.173-.021-.469.151-1.11.611-.692.496-.924.566-1.026.31a.221.221 0 00-.065-.08v2.884c.07.016.144.045.197.086.006.177.538.107.738-.097.151-.155.246-.17.547-.083.303.088.4.072.58-.093.314-.638-.39-.658-.85-.765l.311-.475c.094-.512.86-.364.87-.753-1.012-.084.09-1.277-.05-1.463a.212.212 0 00-.142-.082zm317.902.96c.058 0 .24.134.404.299.25.25.36.3.672.3.297 0 .382.033.416.166.056.21-.004.27-.182.184-.078-.036-.32-.153-.538-.258-.407-.196-.96-.692-.772-.692zm-229.84.19a.198.198 0 01.086.003c.12.036-.088.271-.674.766-.341.289-.456.187-.221-.198.151-.248.58-.54.81-.571zm149.881.074a.176.176 0 01.07.003c.099.03-.072.224-.556.632-.28.238-.375.153-.182-.163.125-.205.712-.285.668-.471zm-3.247 1.024c.057-.002.24.126.41.284.256.24.367.285.676.275.294-.01.379.022.417.152.062.207.005.267-.175.189l-.541-.24c-.41-.18-.974-.654-.787-.66zm-150.573.143c.069-.002.292.153.497.345.311.291.446.346.82.334.357-.011.461.026.508.184.075.251.006.325-.213.229l-.657-.29c-.497-.22-1.181-.795-.955-.802zM3.869 14.487c-.067.002-.391.2-.721.44-.615.45-1.45.88-1.537.793-.027-.027.046-.107.162-.178.27-.165.27-.56 0-.55-.606.285-1.224.578-1.773.73v2.057c.238.044.458.102.58.25.25.312.622.308.497-.005-.058-.145-.03-.146.247-.01.34.165.644.095.636-.149-.546-.588-.516-.702.026-.433.665.324.538.329 1.034-.258.263-.23-.484-.834-.009-.57.257.287.823.522 1.03.43.237-.105.179-.441-.117-.671-.398-.265-.163-.198.175-.177.604.039 1.447-.315 1.478-.62-.188-.72-1.652-.118-1.445-.65.096-.177-.063-.436-.263-.43zM0 14.564v.468c.078-.018.14-.053.168-.106.034-.063-.041-.224-.168-.362zm120.757 2.654c-.13 1.455-1.441.236 0 0zm-1.023 2.508c-.075 1.116-3.099 1.63-1.107.192.278-.142.16.986 1.107-.192zM30.264 20.9c.295.018.649.387 1.029.713.06.074.142.146.26.214l.025.01c.153.11.309.199.466.24.347.3-.07.602-.699.767.038.059.067.111.09.16-.678-.538-1.487-.95-2.12-1.592-.975-.818.45.058.63-.342.095-.129.203-.177.32-.17zm16.43 5.465c.054.094.032.254-.117.49-.066.098.094.103.156.115.53.1.816 1.31-.243.578-.578.303.572.883-.538.986-.407.192-1.666.461-.498.64-.792.246-2.236.888-.511.649.644-.06.426.218.16.527-.813.09-1.729.339-2.442.114-1.575-.581 1.892-.092.927-.912.96-.117.587-1.735 1.704-1.94.455-.006 1.3-.782 1.402-1.247zm53.49 6.488c.093.127.114.216.06.273-.24.257.102.719.612.822.864.367-1.585.306-1.585.306.058.162.546.29 1.703.452.881.122.91.134.709.28-.264.194-.34.313-.336.52.005.195.533.517.834.508.39.569-.53 1.424-1.232 1.302-.88-.156-1.494-1.742-2.145-2.17a.277.277 0 01.214-.113c.242-.008.256-.047.107-.305-.089-.153.074-1.403.404-1.513.24-.08.486-.224.656-.362zm85.47 2.9c.237.399.673.768 1.06.782.983.14 1.434.766.131.687-.62.043-.786.236-.875.53-.64.237-1.153.419-1.301.258 1.096-.792.072-.72.095-1.362.003-.063.156-.134-.025-.316-1.021-1.222.351.549.914-.579z" stroke="gold" stroke-width="0.1" fill="#52796f" paint-order="markers fill stroke"/></svg>