<svg xmlns="http://www.w3.org/2000/svg" viewBox="0 0 321.945 91.647" height="346.383" width="1216.799"><path d="M254.767 0c-.464 0-.252 2.194-.688 2.64-.382.393-1.215-.19-1.225.222.4.926 1.222 1.067 1.496 2.084.054.226.128.53.166.672-.846.071-1.179-1.833-1.605-1.42-.06.464-.2.373-.564.194-1.397-.607-1.439-.211-.247.576-.275.225-.571.448-.898.571-.25 0-.162.339.11.423 1.728.198 1.728-.18.83.671-.37.407-.414.51-.257.609.413.14.878-.003 1.194.262.346.298.716.204.599-.15.73-.764.787.877.785 1.118-.036.358.122 2.008-.353 1.767-.505-.26-1.606-1.324-1.708-1.65-.156-.5-.75-1.355-.941-1.355-.27.103-.362.3-.511.536-.395-.325-.86-.921-1.332-.98-.31.535.207.818.505 1.345-.339.106-.695.038-1.02.19.237.561 1.51 1.437.675 1.45a.86.86 0 00-.518.193c-.21.202-.15.533.098.533.29 0 .822.308.907.525.064.165.155.202.343.141.523-.168.738-.13.795.141-.053.55-1.82.311-1.391.814.092.103.35.251.574.33.3.105.396.201.364.361-.03.158.073.267.376.396.242.102.33.181.21.187-.114.005-.45-.103-.744-.241-.432-.203-.599-.227-.861-.125-.334.13-.407.304-.184.436.07.041.13.12.134.177.008.13-.653.368-1.022.368-.532.082-.728.617-1.21.786-.477.155-.187.472.693.759.625.203.899.242 1.064.15.35-.193.455-.148.566.24.07.244.178.364.328.364.292 0 .925-.566 1.04-.93.377-.471.575.1.437.507-.047.138.028.181.32.181.394 0 .945-.444.934-.751-.004-.086.084.02.192.237.258.513.603.513.898 0 .242-.42.326-.372.12.068-.206.44-.457.56-1.191.563-.788.004-.985.208-.592.61.22.226.216.24-.09.359-.689.267-1.624.024-2.365-.616-.29-.25-.43-.196-.406.155.017.252-.08.272-.532.104-.272-.1-.317-.085-.304.108-.034.257-.254.345-.328.551.016.242-.093.234-.749-.054-.665-.292-1.34-.324-1.323-.063.008.129-.12.182-.443.183-.665.003-.994.12-.978.351.022.34.295.494.877.498.51.004.535.017.33.18-.265.21-.26.215.424.408.503.141.526.165.358.364-.099.117-.177.25-.174.295.328.075.656-.222 1.14-.152.269-.034.331-.37.56-.493.07 0-.06.206-.291.458-.532.582-.536.81-.015.704.647-.178 1.436-1.099 1.445-.127.072.812 2.87-.269 2.881-.183.028.422-1.167 1.143-2.503 1.51-.845.232-1.066.17-2.23-.62-1.605-1.022.482 1.362-1.442.303-.49-.265-.688-.325-.68-.206.273.561-.16.46-.552.46-2.314.033.715.681.554 1.182.097.87 1.884-.471 1.296.249-.232.276-.23.384.01.384.317.296-.087.67.558.49.352-.104.376-.09.402.214.154.597.751.864 1.151.727.326-.1.55-.515.748-.27.52.228.733-.116 1.254-.418.038.472.101.798.452.524.879-.151 1.568.149-.74.965-.939.792-2.955-.266-3.41-.14-.135.236-.077.538.142.744.077.456-1.001.103-1.415-.066-.701-.292-1.063-.243-.847.115.076.358-.536.143-.857.3-.138.071-.331.146-.504.203.04-.078.088-.161.155-.26.106-.176-.455-.335-.31-.516.352-.27 1.104-.543 1.135-.644.132-.43-2.156.4-2.434-.104-.335-1.75 2.758.419 1.977-.651-.763-.203-1.24-.437-1.062-.617.447-.45 3.079-.78 1.443-1.032-1.044-.138-2.5.177-2.485-.92.798-.285 1.23-.47-.585-.996-.073-.052-.419-.296-.344-.44.486-.934.548-1.153.07-.794-.44.33-.06-1.693-.39-1.11-.308.543.248 1.053-.343 1.898-.28.401-.679.168-1.35.369-.43.166 1.397.392 1.371.45-.143.318-2.332 1.804-2.74 1.826-.28.015-.129.454.326.534.525.487 2.114-.697.881.567-.727.754-1.706 1.023-1.989 1.433-.253.367.245.074.653.438 1.666.431-.715.333.359 1.454-.239.571-2.104-.433-2.729.631-2.594.829 1.931.487 1.573 1.061-.212.719 1.664-.45 1.82.81 0 0 .16 1.496-.634.339-1.2 1.376-1.218-.746-2.729.16.91 1.335-.677.313-1.612.664-2.385.553 2.01.629 1.514 1.142-2.022.528-.55 1.122.622.586-.103.608.123 1.014 1.014.41.342-.553 1.463.94.915 1.008-1.653.147-2.574.022-3.368-.383-.338-.183-.163.34.069.56.903.856-1.46-.464-2.755-.191-.13.101-.225.312.082.4.834.24-.282.555.531.888.538.15-.193.501.227.575.296.713-1.989-1.16-2.275-.443-.498-.023-.788.02-.932.097-.112-.27-.123-.269.18-.269.216 0 .284-.061.285-.26.003-.34.136-.54.474-.709.28-.14.558-.702.417-.843-.115-.115-.984.303-1.586.762-.633.452-1.07.441-1.798.498.44-.502.746-1.01 1.265-1.307.705-.397.935-.622.823-.803.166-.805 1.053-1.442 1.1-2.324 0-.181-.228-.132-.591.126-.185.132-.337.335-.337.452-.261.493-1.094.49-1.3.055-.108-.24-.19-.283-.42-.225-.282.07-.28.065.074-.338.636-.726.637-1.643 0-1.77-.532-.082-.626-.837-1.1-.848-.503-.325.566-.562.638-1.075-.15-.806-1.003.594-1.022-.14 0-.076 1.08-1.649.482-1.434-.555.2-.157-2.637-.575-1.958-.3.424.154 2.684-1.385 2.138-.526-.114-.184.975.23 1.168.454.16.368.522.595.803.25.146.352.604.152.68-.869-.115-3.035-1.848-3.185-1.2-.024.125.106.268.368.403.456.384.837.793 1.266 1.06.199.165.365.62.484 1.33.047.487 1.097 1.427.64 1.328-.159-.035-.55-.17-.869-.3-.682-.244-1.39-.55-1.924-.969-.652-.515-.915-.563-.915-.166-.134.531 1.83 1.85 1.854 2.215 0 .246-.231.218-.945-.114-.643-.3-1.141-.376-1.141-.175.108.16.412.095.255.255-.368.368-.003.778.848.948l.684.137c.016 1.046-1.247 1.307 1.134 1.505.524 1.283-1.827-.113-2.497-.4-.674.65 1.147 3.11.265 2.797a3.737 3.737 0 01-.719-.256c-.316-.15-.887.055-.836-.288.183-.343-.166-.39-.817-.11-.384.16-1.39.5-1.346.062a.567.567 0 00.089-.712c-.443-.12-2.3.892-3.248.134-2.254-.782-1.615-1.069-.767-.924.353.263.393-.05.399-.502.517.29.741.619 1.223.4.175-.235.413.163.731.26.39.13.944-.125 1.053-.697.005-.292.028-.304.371-.206.627.173.217-.185.501-.468.23 0 .225-.104-.015-.369-.606-.69 1.185.596 1.222-.238-.185-.48 2.666-1.1.454-1.132-.374 0-.78.097-.556-.44 0-.114-.186-.057-.636.197-1.77 1.014.072-1.27-1.395-.29-1.062.757-1.27.816-2.09.593-1.299-.351-2.485-1.042-2.485-1.446.005-.082 2.744.953 2.762.175-.054-.93.758-.049 1.387.123.505.1.485-.118-.058-.675-.237-.242-.375-.44-.308-.44.227.12.307.44.566.473.458-.067.79.217 1.098.145 0-.042-.083-.17-.184-.282-.173-.19-.152-.213.318-.348.642-.185.645-.189.379-.39-.206-.156-.183-.17.304-.173.555-.004.806-.153.806-.477 0-.221-.321-.334-.956-.337-.309 0-.435-.052-.435-.175 0-.25-.642-.22-1.259.06-.608.276-.711.284-.711.052-.084-.197-.3-.281-.348-.527 0-.185-.044-.2-.297-.104-.422.16-.515.142-.515-.1 0-.335-.137-.386-.397-.148-.667.613-1.545.846-2.218.59-.301-.114-.305-.127-.11-.343.35-.386.15-.58-.603-.585-.701-.004-.948-.117-1.173-.539-.225-.422-.148-.468.11-.066.315.491.644.491.857 0 .09-.207.166-.309.168-.226.01.294.564.72.94.72.278 0 .348-.042.294-.175-.158-.39-.005-.936.386-.485.132.349.772.89 1.05.89.144 0 .24-.114.29-.347.083-.373.18-.415.526-.23.163.088.423.05 1.007-.145.822-.274 1.078-.578.613-.726-.47-.162-.692-.675-1.205-.754-.352 0-.998-.227-.998-.352 0-.053.052-.13.116-.17.204-.126.124-.291-.203-.416-.257-.098-.415-.075-.814.118-.273.133-.586.237-.696.232-.115-.005-.035-.082.189-.18.282-.122.374-.227.334-.378-.04-.154.046-.245.325-.346.208-.075.445-.218.527-.316.378-.482-1.294-.253-1.379-.78.037-.26.24-.295.75-.135.183.058.267.023.318-.135.067-.208.556-.503.833-.503.237 0 .274-.317.06-.51a.872.872 0 00-.507-.185c-.799-.013.362-.851.553-1.39-.32-.144-.656-.08-.986-.181.251-.504.727-.776.397-1.288-.448.056-.853.627-1.21.938-.157-.225-.257-.415-.521-.513-.182 0-.695.819-.813 1.297-.077.313-1.06 1.332-1.526 1.581-.438.231-.392-1.35-.45-1.693-.016-.23.12-2.765.864-2.034-.089.34.27.43.581.145.656-.54-.634-.72.59-1.466 1.089-.754 1.023-1.133-.272-.552-.336.172-.464.258-.55-.187-.434-.395-.63 1.43-1.443 1.362.027-.138.08-.427.116-.645.197-.973 1.788-1.839 2.111-2.726-.716-.349-1.748.879-2.024.932-.3-.615.242-3.061-.685-3.612-.516 1.19-.052 2.12-.31 2.635-.392.786-1.752.487-1.242 1.303.518.659 1.43 1.833 1.185 2.782-.073.045-.13.007-.13-.087a.458.458 0 00-.159-.298c-.087-.073-.185-.396-.216-.719-.028-.259-.529-1.482-.784-.514 0 .367-.057.366-.599-.01-.86-.597-1.053-.069-.328.897 1.036 1.384-.82 1.124.191 1.573.607.083.904-.482.79.615-.374-.142-.638-.352-1.024-.381-.175.175-.043.55.321.914.33.331.358.395.17.395-.123 0-.254.078-.29.173-.106.275-.368.209-1.164-.294-.984-.622-1.258-.721-1.427-.518-.15.203 1.132 1.43-.002 1.555.025.412.88.229 1.004.77l.366.493c-.512.13-1.303.175-.926.841.209.17.318.182.656.079.334-.103.441-.09.618.069.23.21.832.265.832.077.22-.168.764-.187.24.165-.145.155-.23.337-.187.406.094.152.472.162.741.018.165-.089.198-.054.195.202-.003.418.692.329 1.01.013.243-.3.292-.274.387.202.088.438-.08.497-1.428.5-.753-.001-1.746-.418-2.706-.81-.305 0-.29.418.02.584.132.071.217.154.188.183-.095.095-1.05-.333-1.757-.788-.38-.244-.751-.444-.827-.444-.225 0-.394.28-.28.465.253.558-1.416-.03-1.6.74.046.323 1.006.67 1.684.608.379-.035.64-.114.202.181-.324.255-.377.613-.106.717.237.09.863-.18 1.142-.492.524-.297-.294.37.01.605.579.606.436.606 1.172.238.6-.303.637-.184.045.46 0 .258.344.323.72.135.307-.153.338-.153.278.003-.129.337.289.33.56-.01.254-.314.924-.289 1.377-.455.438-.064.658-.18 1.014-.537 1.052-1.038-.683 1.399-1.789 1.53-.731.35-.854.514-1.68.028-.933-.425-1.273-.441-1.064-.052.066.125.12.249.12.277-.563.085-1.361-.68-1.622 0 0 .21-.055.222-.652.152-.703-.083-.97.03-.97.406 0 .147.082.218.254.218.465.004-.467.486.372.58.338 0 .386.033.334.232-.089.357.573.056.662.46 0 .19.07.224.418.202.465-.028.715.21.583.555-.075.196-.089.196-.307-.001-.184-.167-.352-.193-.883-.139-.821.085-.936.196-.566.544.3.281.36.526.192.788-.072.115-.24.053-.704-.26-.336-.226-.66-.38-.722-.342-.244.86.317.787-1.112.56-.514-.067-.608-.05-.608.107 0 .194.778.655 1.104.655.137 0 .166.065.108.246-.145.506.744.274.99.624 0 .095.1.173.222.173.376 0 .59.13.59.36.01.412.412-.038.572-.286 1.247 1.415 3.036 2.64-.169 2.707-.531-.01-.937-.401-1.459-.463-.2 0-.232.05-.175.278.128.582-.965.117-1.418.293-.344.184-.314.296.156.573.227.44.837.585 1.081 1.015a5.29 5.29 0 00-.543-.002c-1.245-.597-2.328 1.272-2.13-.643-1.022-.143-1.624.817-2.155-.147-.57.112-1.195-.37-1.84-.054-.528-1.236-.435 1.333-1.144-.066-.99-2.273.202-1.168.298-1.086.953.455 4.948.422 2.134-.732-2.016-1.411 4.007 1.652 1.784-.377 1.035.444 2.259 1.088 2.02.583-.16-.336-.31-.258.266-.15 1.936.63.71-.417-.295-.891 1.43-.672-2.519-.534-.455-.952.396-.09-.488-.377.14-.428.573-.046 1.137-.582-.582-.811-1.07-.235-.772.204-1.683-.6-1.256-1.106.67-.144 1.85-.335.474-.077-.351-.445.255-.603.917-.349.647-.919 1.588-1.17.345-.093.237-.314.092-.42-1.46-.286-5.112 1.337-4.094.439.261-.23.458-.779.077-.587-.895.426-1.933.556-3.797.402-.618-.071.646-1.638 1.031-1.057 1.005.634 1.26.207 1.144-.43 1.32.562 2.981-.061.701-.616-.558-.538 4.397-.617 1.708-1.197-1.055-.368-2.844.703-1.818-.696-1.704-.95-1.724 1.275-3.077-.169-.894 1.214-.715-.354-.715-.354.176-1.321 2.291-.096 2.052-.85-.404-.602 4.698-.244 1.773-1.113-.704-1.117-2.808-.063-3.076-.662 1.21-1.176-1.474-1.073.405-1.525.973-.81.673-.834-.636-.781-1.39-1.326.809-.363 1.401-.874.512-.084.683-.544.367-.56-.46-.023-2.073.08-2.235-.253-.029-.06 1.052-.461.568-.635-1.422-.48-1.757.398-2.158-1.912-.171-1.264-.146-2.808-.573-2.056-.687 1.342-.321 4.161-.987 3.106-.028-.04-.137-.14-.206-.235-.31-.432-.623-.15-.63.033-.023.578.765 1.363.443 1.392-.619.053-1.986-.783-3.163-.639-1.844.265 1.123.61 1.627 1.083.202.188-.336.434-1.197.647-.88 1.122 2.607-1.153 2.23.682-.314.53-2.894-.341-2.745.11.035.105.883.392 1.279.676.164.19-.469.356-.349.54.138.215.394.307 1.109.005-.56 1.499 1.847-.383 1.412 1.47-.253 1.621-2.827-1.733-2.823.1 1.723 1.512-3.28-.773-3.553.368.114.75 2.767.12 1.12 1.032-1.597.504 2.814.347.158 1.423.052 1.327 2.403 1.283.007 1.47-1.401-.165-5.253 1.206-2.306 1.14.77-.582 1.857-.52 1.125.44-.107.129.14.143.235.162.811.159 1.19 1.819-.404.776-.905.387.837 1.227-.877 1.318-1.28 2.096-6.653 1.436-4.742-.106.67-.512-1.305-.853-1.113-1.306 1.867-.315-.405-1.42 1.247-1.556 1.13-.409-1.598-.649-1.71-1.095-1.877-.51 1.004.356.407-1.272 1.007-.914-1.12-.853-.6-1.053.468-.195.793-.064 1.066-.221.214-.124.313-.318.191-.396-.338-.218-.509-.007-1.151-.035-1.044-.045-3.575.276-1.817-1.299.491-.173.601-1.163.057-.699-.383.327-.013-.94-.498-.328-.69 2.024-.674.542-.148-.344-.174-.59-.813.252-1.238-3.159-.733-1.465.071 1.932-.059 3.785.266 2.042-.734.39-1.166-.237-1.341-1.669.15 1.479.382 2.136-1.178.915-3.42.83-4.85 1.033-.392.056-.026.463.282.463 1.417-.216.438.931 1.342 1.142 1.72-2.203-.288 1.727 1.17-.128 1.272.938-2.51 1.033-1.523 1.63-1.468.067-1.25.52.063.737-.74 1.501.845 1.78 1.447 1.57-4.446 3.474-3 1.835-4.001 3.216-1.143 2.15 2.562.724 1.262 1.705 1.579.954-1.254 1.067-2.459 1.485.733.459.218.96-.215 1.65.758.593-2.56.31-1.373.845.622.037 2.476-.067 2.247.067.149.524-.883 1.319-.563 1.974-1.346-.18-1.348 1.1-.898 1.616-1.089 1.523 4.614.247 1.895 1.718-2.22-.383-1.057 1.627-2.477 2.376-1.802-.172-1.909 2.12-.53 1.935 1.419-1.388-.69 1.247 1.181.395.042 1.483 2.52.018 1.243 1.03-1.13.87-3.786.185-4.685.831a5.823 5.823 0 01-.021-.537c-.863.402-.99-.075-1.577-.13.336-.599 1.557-.663 1.286-1.42-2.047-.203 1.097-1.16-.331-1.68-1.503.491 1.448-2.346-2.858-2.368-1.049-1.233 1.563.593.706-.867.339-.64.14-1.505-.669-1.998-.865-.174-.605-.49-.636-.979.397-.293.585-.974-.327-1.119.137-.842-1.903-.127-1.844-.855.911.388 2.135-.46.833-.89.11-.708.973-2.667-.723-1.636.407-.82-1.326-.303-.882-.8 1 .441 1.819-1.64.402-1.389-1.372.57-.073-.744-.93-1.08-.4-1.08-2.128-1.034-2.242.351.996 1.468-1.197-.072-.64 1.199 1.26 1.103-.887-.095-.107 1.158-.819-.38-1.89 2.236-.127 2.212-.04 1.252-.622-.202-1.258-.163-.091 1.088-1.058 2.217.006 3.052-.86.3-.792 1.646-1.964 1.397-.626.382-1.673 1.458-.331 1.758 1.57.057.045.292.306 1.241.649 2.385-1.491-2.439-1.367.196-.612-.827-1.703.045-.894.678 1.18.673.643.63-.155.661-.488-.547-.168-1.838-.09-2.6-.168-.858-.937-.366-1.315-.787.411-.576-.37-.753-.367-1.285-1.365.103-.217-.94.08-1.643.357-1.839-1.918.48-1.131-.502.58-.43 1.514-2.217.097-1.842-.416-.107-1.643.48-1.29-.396-.709-1.17-1.132.748-.957 1.634-.408-.749-2.146.003-.928 1.054.69 1.09.122.166-.507.015-.084.577-.61.989-.865 1.534-.72.252-.178-.453.208-.928.236-.932-1.505-.053-.481-.815.198-.177.568-.74-.046-.914-.12-.01-1.469.553-.784-.37.23-.122 1.1-.782 1.416-1.075.17-.16.275-.613-.153-.652-.788.084-3.232.884-1.556-.354.06-.458-.786-.712-1.101-.782.092-.312.348-.515.506-.788.12-.266-.015-.716-.216-.716-.359-.118 1.089-1.221 1.107-1.742-.217-.875-1.647.55-1.158-.11.246-.267.533-.773.533-.94 0-.214-.248-.469-.457-.469a.644.644 0 00-.347.15c-.121.102.7-.833.16-1.06-.117-.126-.214-.314-.214-.415-.025-.618-2.172 1.383-.76-1.164.12-.4.636-1.204-.133-1.272l-.265.03c-.012-1.042.326-1.832-.479-2.362-.33 0-.354.17-.32 2.252.014.933.007 1.694-.017 1.694-.192-.255-.557-.922-.844-.349-.028.198.237.847.457 1.123.112.17.328.525-.01.263-.255-.2-.504-.23-.602-.072-.136.22.085 1.204.302 1.35.202.354.253.8.385 1.189.126.451-.042.385-.153-.089-.072-.454-.18-.582-.49-.582-.407.006-.016.713-.55.617-.503-.057-.243.643.217.848.165.118 1.546 1.525.603.682-.534-.55-1.353-.197-.68.55.19.15.473.587.531.822.142.574-.6-1.088-1.152-.479-.148.324-.036.56.566 1.203.033.035.833.917.312.484-.334-.333-.767-.14-.659.293.117.481-.673-.213-.83-.347-.342-.317-.697-.266-.733.103-.02.216.041.341.31.623.264.279.326.402.292.58-.05.279.466.65-.223.461-.34-.125-.708-.22-.627.273.054.4.428.789.839.87.193.04.217.08.184.308-.066.454.89.05.85.8-.029.294 1.458.528.578.823-.181-.18-.589-.211-.745-.056-.113.107-1.06-.73-1.062-1.022-.623-.683-.702.245-.67.59-.2-.266-.721-.546-.758-.288-.108.988 1.958 2.613-.133 1.412-.301-.176-.563-.134-.654.106-.166.479 1.393 1.408-.205 1.16-.339-.08-1.016-.019-.714.687.115.145.823.443.915.386.025.162 3.082.64 1.115 1.706-.142-.057-.314.008-.506.133-.655.044-1.314-.324-1.314-.324-.28.628-.494 2.036-1.232 1.667-.272-.735-.108-2.658-1.79-1.215.09-.928-1.053-2.73.813-2.823-.123-1.277 2.696-.697 2.025-2.352-.23-.765 2.547-3.327.358-2.197-1.596.057-2.957 1.79-4.809 1.67-1.709.067 1.679-1.977.685-2.872-1.116 1.131-2.555 1.828-4.232 2.072-1.424.778-.793-.454.228-.65 1.398-.969 4.613-2.169 4.34-3.799-.912.535-4.833 2.54-3.38-.01-.847-1.048-.024-1.298.901-.806-.183-1.062 1.008-1.725 1.739-2.668-.707-1.704-2.912 1.469-4.24 1.429-.704.98-3.66 1.375-2.247-.332.622-.589 3.24-.156 1.266-1.21.767-.643 2.757-.878 2.968-2.467-1.25.267-2.95.916-4.224.694-1.893-.07 1.168-1.225.509-2.162.402-.167 2.518-2.11.356-1.288-1.205 1.046-.596-.557-1.464-.331-1.16 1.418-.91-1.23.197-1.08 1.406-.548.693-2.111-.508-.75-1.916 1.49-.847-1.117-.045-1.898.278-1.115-2.034.136-2.73-.905-1.826.095 1.375 1.348.702 2.36-1.065.545-1.117-.219-2.135-.942-1.11.55.493 2.52.023 3.72 1.396 1.138-.077.558-.863.324.149 2.084-3.04-1.616-2.347.848 1.224.474.03.512.05 1.221 1.326.17 1.757.554 1.668 1.88-2.099.068-.235 2.057 1.374 1.672.256 1.06 1.276-.054 2.124.532.188 1.951-2.203.22-3.046-.208-1.792-1.068-.744.901-.35 1.576-1.516.07-3.384-1.502-4.94-2.035-.254.91.412 1.925 1.45 2.303 1.294.823-1.107.784-.104 1.513 1.396.217 4.152.281 3.019 2.39.76.723 3.705-.268 2.077.934a9.174 9.174 0 01-4.6-.916c-1.362.02-3.566-3.955-3.741-1.967-.445 1.142.905 1.108 1.218 1.713.668 1.179-.07 3.92 2.305 3.336.25 1.05 2.45-.692 1.933.452-.405.97-.105 1.742.992 1.864 1.376-.533 1.487 1.298.12.98-2.117.447-3.64-.955-5.04-2.136-1.518 1.117.95 2.31.065 3.74-.778.324-2.244-.03-3.207-.325-1.43 1.052 2.236 1.016.97 2.02 2.048 1.955-1.434.672-1.147.328.153-.655.09-1.736-.9-1.642.812-.384 1.87-1.541.839-2.048.395-1.055-1.873-.435-2.202.585-.768.05.81-1.357-.119-1.982-.315-.83-1.547-.388-1.952-.109-.405-1.072 2.17-1.516 1.608-2.548.335-1.445-2.775-1.485-1.827-2.81-.403-.714-.954.378-.873-.832-.132-.446-.437-4.222-.635-3.795-.556 1.2-.334 3.004-.41 3.534-1.514-.913-.543.52-.244 2.282.054.322-.783.235-1.169.073-1.925-.528-.211 1.75-1.42 1.68-.69.998 1.364 3.2.071 3.763-.415-.486-1.174-1.295-1.819-1.034-.654.035-.74.961-.392 1.492-.64.544-1.203 1.046-1.336.271 1.74-1.147-.991-1.349-2.05-.897-.141-.668 2.589-1.427 3.323-2.191-.966-.632.831-1.025-.15-1.71-1.34.194-2.721 1.196-3.98.458-.781.95-.745-.849.344-.472.829-.684-.316-1.155 1.033-2.13 1.268-1.873-2.726.62-.667-.636 1.297-1.339-.453-.934-.93-1.975 1.412-.362-.742-1.784-1.108-.37-1.364-.373-.066-.519.604-1.563 1.303-.587 1.325-3.47-.289-1.997-.919 1.147-1.608 1.69-2.716 2.301-1.324.218.803-1.285.266-1.727-1.67.256-.753-.048.138-.7-1.386-.612 1.06-1.16.108-2.139-.719.666-1.316.36-2.09.814-3.151 1.584 1.404-1.043-.353-3.039-1.33.499-.487-.125-1.225-.455-.99.052-1.064-2.627-1.703-3.728-.417-.72.371 2.145-1.022 2.238-.256.017-.021.387.744.642.25 1.96-1.864-.117-1.444 1.503-1.06-.332-1.775.84-.232 1.54.538 1.184-.26 1.28-1.132.09-2.08-.503.515 1.488-.07 2.02.576.679.862 1.171-.235.14-1.322-2.398-2.421 1.352-.585 1.447-.803 1.712-1.844-1.548-2.653-2.167-2.126-.48.136 2.493.757 3.298.93.911.548.68.028.665 1.266-.233-1.41-.483-2.16-.556-.766-.564.683-.33-.142-1.133 1.667.362.655-.568-.285-.523-1.04-.011-3.293-.978-1.438-.873 1.139-.005-.233-1.54 1.126-1.279-.44-.744-1.984-.463-2.115-1.071.547.19 1.987-.062 1.315-1.427 1.193-.196 1.39-.608.057-.67.898-.542-3.226-.884-2.07-1.736 1.034.866.855-1.101 2.282-.921.28 0 .613-.37.257-.421-.645-.092-2.524.14-2.765-.22-.152-.227.9-.141 1.277-.236.593-.149-1.87-.703-2.098-.86 1.052-1.255 1.032-2.432.213-1.308-.393.57-1.15 1.595-1.155 1.186.551-1.244.595-2.165.387-2.028-.326-.793-.026-1.21-.591-1.758-.38.827.233 1.016-.083 1.774-1.075-1.141-.484.434.041 1.07-.17.246-.382.14-1.5-.787-.496-.422-.32 1.278.127 1.436.589.477-.432.476-.56.616-1.082 1.172-2.708 1.64.098 1.122-.122.334-2.815 1.601-1.873 1.485.68-.084 1.926.303.605.662-.102.406-2.58.623-1.554.995 1.501.123-.564 1.127 1.133 1.414.175.41-1.621.722-1.011 1.186.572.436.763 1.305.71 1.136-.695.031-3.997.747-1.916.758 1.08-.393-.135 1.31.73 1.54.488.954-2.98.34-1.166 1.001 1.034-.089-.85 1.716.674.73-.82.724-1.043 1.742.152.77 1.499.082-1.833 1.081-.26 1.698-.297.399-.097.96.598.84-.513.143-3.928.33-2.356.718 1.374-.688-.14 1.764 1.293 1.754 1.251-1.354.527.664-.62.184-.45 1.009-.392 2.645.88 1.925 1.123-.333-.337 1.996 1.269.987 1.532-1.22.896.768-.496.481-1.05 1.28-3.527.328-4.354 1.262-.899 1.623.605 2.499 1.552 1.296-.055.364-.119.715-.188 1.058-.035-.06-.096-.086-.18-.054-.08.03-.346-.047-.588-.172-.331-.172-.67-.24-1.355-.273-.904-.044-1.27-.139-1.27-.329 0-.054.206-.098.457-.098.506 0 .573-.098.229-.338-.21-.152-.295-.157 0-.164.304-.007.633-.55.634-1.046 0-.345-.026-.381-.27-.381-.873.169-1.427.797-2.296 1.016-.25-.15-.535-.734-.128-.47.28.184.765.222.765.06 0-.058-.07-.212-.156-.343-.303-.406.653-1.022.206-1.213-.083-.032-.152-.112-.152-.176 0-.08.129-.097.407-.053.51.146.33-.297.666-.387.21-.053.254-.117.228-.34-.046-.402-.349-.398-1.197.013l-.726.353c-.428-.167-.96-.529-1.4-.441-.338.074-.54-.123-.276-.27.277-.274.202-.672.523-.306.313.363.424.22.224-.288l-.161-.41c.55.434.69.73 1 .035.258-.582.481-.84.724-.84.434-.245.395-.584.395-1.014-.02-.334-1.737.945-1.457-.837l.056-.378c.263.138.557.294.851.3.268 0 .272-.01.213-.507-.05-.428-.03-.523.13-.608.245-.19.08-.467.205-.712.201-.375.028-.353-.463.06-.779.657-1.484 1.155-2.099 1.483-.376.2-.584.376-.584.492 0 .336-1.448.474-1.678.16-.61.052-.555-.15.148-.369.517-.22 1.093-.363 1.585-.62.221-.117.44-.568.608-.606.585-.34.565-.743.048-.788-.712-.116-3.096 1.087-3.027.36.026-.261.114-.368.463-.56.452-.25.543-.455.268-.609-.133-.074-.142-.132-.048-.308.224-.418.99-.43 1.195-.017.192.39 1.126.689 1.295.415.281-.07.545.125.784.016.177-.177-.122-.468-.707-.688-.617-.275-2.103-.854-2.13-1.193.18.141 2.741.016 2.791-.136.021-.063-.17-.166-.433-.232-.868-.218-1.189-.604-1.086-1.304.065-.44-.183-.442-.617-.005-.271.273-.414.33-.906.367-.804.072-.641-.555-.98-1.3h.25c.189 0 .248-.055.25-.23.002-.298.118-.472.414-.62.246-.122.49-.615.365-.738-.1-.1-.861.265-1.39.667-.553.396-.936.387-1.574.437.213-.215.434-.45.559-.714 0-.067.247-.26.55-.431.617-.349.818-.545.72-.704.145-.705.923-1.263.963-2.036 0-.158-.199-.116-.517.111-.162.116-.295.293-.295.395-.229.432-.958.43-1.138.049-.095-.21-.167-.248-.37-.198-.246.062-.245.058.066-.296.305-.347 1.036-1.392 1.007-1.699-.024-.254-.755.2-1.007.15-.434-.35-.413-.835-.525-1.37-.19-.908-.11-2.858-.598-2.846-.372.009-.139 3.98-.615 3.633-.76-.102-2.192-1.332-2.323-.766-.021.11.092.236.322.354.4.336.266.407.642.64.175.146.32.544.424 1.166.041.427.961 1.25.561 1.163-.14-.03-.482-.149-.76-.263-.598-.214-1.218-.482-1.687-.848-.57-.451-.801-.493-.801-.145-.118.465 1.603 1.62 1.624 1.94 0 .215-.203.19-.828-.1-.563-.263-1-.33-1-.154.095.141.361.084.224.224-.323.322-.002.681.743.83l.599.12c.014.917-1.092 1.145.993 1.319.46 1.124-1.6-.099-2.187-.351-.382-.168-.619-.1-.65-.068-.184.183.897 1.48 1.451 1.743.41.194 1.163.984 1.163 1.22 0 .43-1.998-.354-2.974-1.168-.57-.475-.838-.581-1.041-.413-.191.159-.189.3.004.3.57.342.552 1.879 1.153 2.068.488.078.885.382.976.749.55.61.485.957-1.012-.29-.853-.785-1.362-1.206-1.455-1.206-.153.462-.012 1.044.204 1.421.487.837.494 1.32.018 1.32-.37 0-.255.214.251.473.645.414 1.294.98 1.887 1.071.552.083-.091.613-.735.605-1.022-.011-1.337-.093-1.792-.467-.401-.347-1.039-.519-1.251-.958-.228-.484-.535-.533-.822-.13-.214.338.08 1.22.14 1.27.392.303.28.786.551 1.142.15.19.185.31.114.382-.272.272.084.786.636.917.927.43-1.509.123-1.736.276.058.178.584.336 1.837.552.955.165.985.178.761.331-.293.2-.381.327-.383.553-.002.213.562.582.89.582.404.633-.628 1.53-1.387 1.373-1.019-.214-1.853-.578-2.58-1.126-.692-.522-1.253-.825-1.35-.729-.115.116.072.669.315.931.15.161.352.262.527.262.546.048-.456.408-.173.605.383.138.75.468.669.869-.067.267-.048.283.473.397.609.366.768 1.185 1.414 1.538.857.87-.226.686-.627.51-.607-.158-4.258-2.817-4.315-1.944.088.334.706.28.56.56-.47 1.24 1.183 1.913 1.54 2.5.112.19.307.353.468.39.524.123.833.286.833.44.107.277.873.934.632.937-.398.164-.478.327-.801.212-1.163-.507-1.905-1.087-2.89-1.644a.746.746 0 01.241-.333c.056-.046.332-.877.131-1.195-.27-.379-.559-.333-.773.123-.2.413-.8.575-1.177.901-.429.352-.725.43-1.686.44-.606.006-1.212-.491-.692-.57.558-.086 1.168-.619 1.775-1.008.477-.243.584-.445.237-.445-.448 0-.442-.454.017-1.242.203-.354.335-.902.191-1.337-.087 0-.566.397-1.368 1.135-1.409 1.174-1.47.847-.953.273.086-.345.46-.631.919-.705.565-.178.549-1.624 1.084-1.945.182 0 .184-.134.005-.283-.191-.159-.443-.059-.98.388-.918.766-2.798 1.504-2.798 1.1 0-.222.708-.966 1.094-1.149.521-.247 1.538-1.468 1.366-1.64-.03-.03-.253-.093-.613.064-.552.238-2.49 1.388-2.057.33 1.962-.163.922-.378.935-1.24l.563-.113c.7-.14 1.002-.478.699-.781-.13-.132.122-.078.21-.21 0-.166-.41-.103-.94.143-.588.274-.78.297-.78.095.02-.3 1.64-1.388 1.53-1.826 0-.327-.217-.288-.755.137-.44.345-1.024.597-1.587.798a6.032 6.032 0 01-.716.248c-.376.081.49-.693.528-1.095.099-.585.235-.96.4-1.096.353-.22.667-.557 1.043-.873.216-.112.323-.23.303-.333-.124-.533-1.91.894-2.625.99-.165-.064-.081-.44.125-.561.187-.232.116-.53.491-.662.341-.158.786-.677.786-.915-.02-.312-1.141.38-1.362.514-.356.185-.453.286-.453.472-.016.605-.718-.549-.842.115.059.424.94.619.525.887-.39.008-.467.63-.906.698-.524.105-.525.861 0 1.459.292.332.294.337.062.278-.19-.047-.258-.01-.347.186-.128.272-.552.339-.844.18a1.02 1.02 0 00.234-.184c.278-.3.49-.932.359-1.064-.093-.092-.575.154-1.197.588-.238-.15-.388-.172-.388-.041a1.2 1.2 0 00.05.28c-.002.003-.003.005-.006.006-.83.626-1.782 1.041-2.945 1.286-.867.18-2.045-.845-1.583-1.568.374 0 1.017-.422 1.015-.665-.002-.257-.102-.402-.438-.631-.255-.174-.22-.19.87-.377 1.43-.247 2.032-.428 2.098-.63-.26-.175-3.04.175-1.982-.316.63-.15 1.036-.736.726-1.046-.082-.082-.041-.22.13-.436.31-.407.18-.96.63-1.306.067-.055.402-1.063.158-1.449-.327-.46-.678-.404-.938.15-.243.5-.97.697-1.428 1.093-.52.427-.88.52-2.046.533-.735.008-1.47-.595-.84-.69.678-.105 1.418-.752 2.155-1.224.578-.295.708-.54.287-.54-.543 0-.536-.55.02-1.506.247-.43.407-1.096.232-1.623-.106 0-.686.481-1.66 1.376-1.709 1.425-1.783 1.03-1.155.332.104-.419.557-.766 1.114-.855.686-.216.665-1.97 1.315-2.36.221 0 .224-.162.006-.343-.232-.193-.538-.072-1.189.471-1.114.929-3.395 1.825-3.395 1.333 0-.269.86-1.17 1.328-1.393.632-.3 1.866-1.781 1.657-1.99-.036-.036-.307-.113-.743.078-.67.288-3.021 1.683-2.497.4 2.38-.198 1.118-.458 1.134-1.504l.684-.138c.85-.17 1.216-.58.848-.948-.157-.16.148-.094.255-.255 0-.2-.498-.124-1.141.175-.713.332-.945.36-.945.115.024-.365 1.988-1.684 1.854-2.215 0-.397-1.16.259-1.813.774-1.255.954-1.43.253-.055-.97.262-.136.392-.28.367-.405-.15-.647-1.881.187-2.75.303-.2-.077.525-2.065.651-3.03.653-3.724-1.466.685-1.42 1.66-.271.722-.038 2.466-1.776.191-1.052.322 2.745 4.356-.97 2.934 0-.116-.151-.32-.336-.451-.364-.26-.59-.308-.59-.127.046.883.933 1.52 1.099 2.324-.113.181.118.406.822.804.346.195.628.416.628.492.143.301.395.57.638.815-.728-.057-1.166-.047-1.798-.499-.602-.459-1.472-.876-1.586-.762-.142.142.136.704.417.844.337.168.47.368.473.708.002.199.07.26.286.26h.284c-.386.852-.201 1.568-1.119 1.486-.561-.041-.725-.108-1.034-.42-.496-.498-.778-.495-.705.007.118.8-.249 1.24-1.24 1.489-.299.075-.517.193-.493.265.057.173 2.98.316 3.185.155-.03.386-1.726 1.047-2.431 1.362-.403.151-.683.332-.801.496v.29c.271.119.57-.097.889-.019.193.312 1.259-.03 1.478-.473.233-.472 1.11-.46 1.365.018.107.2.097.267-.055.352-.314.176-.21.41.306.694.398.22.5.342.528.64.08.83-2.643-.544-3.455-.412-.59.052-.614.513.055.9.191.044.441.559.694.693.561.293 1.22.456 1.81.707.8.25.864.48.168.422-.262.358-1.916.2-1.916-.183 0-.132-.237-.333-.666-.562A11.043 11.043 0 010 33.551v58.096h321.944v-57.7c-.422.134-.897.21-.867-.111a.628.628 0 00.09-.755c-.443-.128-2.3.945-3.248.142-2.254-.828-1.615-1.132-.767-.979.352.279.392-.053.399-.53.516.305.74.654 1.223.423.174-.249.413.172.73.274.391.139.945-.132 1.054-.737.005-.31.027-.322.37-.218.628.183.218-.197.502-.497.229 0 .224-.11-.015-.39-.345-.415.087-.157.53-.017v-1.717l-.046.026c-1.77 1.074.072-1.344-1.396-.307-1.061.802-1.269.864-2.09.628-1.298-.372-2.485-1.103-2.485-1.53.005-.088 2.744 1.008 2.762.184-.053-.985.759-.052 1.388.13.504.107.485-.125-.06-.714-.235-.256-.373-.466-.307-.466.227.126.308.466.567.5.457-.07.789.23 1.097.154 0-.045-.083-.18-.184-.298-.173-.202-.152-.226.319-.37.212-.064.349-.107.435-.144v-.223l-.056-.046c-.161-.129-.174-.165.056-.176v-.873c-.232-.013-.337-.066-.337-.18 0-.265-.643-.233-1.26.064-.607.292-.711.3-.711.054-.084-.209-.299-.298-.348-.558 0-.196-.044-.212-.297-.11-.421.17-.514.15-.514-.105 0-.356-.137-.41-.397-.157-.668.649-1.545.896-2.219.624-.3-.12-.305-.135-.11-.363.35-.41.15-.615-.603-.62-.7-.003-.948-.124-1.173-.57-.224-.447-.147-.496.11-.07.315.52.644.52.858 0 .09-.22.166-.327.168-.24.01.312.563.762.939.762.279 0 .348-.044.295-.184-.158-.413-.005-.991.385-.513.133.369.772.942 1.05.942.144 0 .24-.121.291-.368.082-.395.179-.44.525-.243.164.092.423.053 1.007-.154.822-.29 1.079-.613.613-.769-.47-.172-.692-.715-1.204-.798-.353 0-.999-.241-.999-.373 0-.057.052-.138.116-.18.205-.133.124-.309-.203-.44-.257-.105-.414-.08-.814.125-.273.14-.586.25-.696.244-.115-.005-.034-.086.19-.19.281-.13.373-.24.334-.4-.04-.163.045-.26.324-.366.208-.08.445-.23.527-.335.378-.51-1.293-.268-1.378-.825.037-.275.24-.314.749-.144.184.062.267.024.318-.142.067-.22.556-.533.834-.533.236 0 .273-.336.059-.541a.843.843 0 00-.507-.196c-.798-.013.362-.9.554-1.47-.32-.154-.657-.086-.987-.193.251-.534.728-.822.398-1.364-.448.06-.854.664-1.21.993-.158-.238-.258-.439-.522-.543-.182 0-.695.867-.813 1.374-.077.331-1.06 1.41-1.526 1.674-.438.245-.392-1.43-.449-1.792-.017-.245-.066-1.909.68-1.135-.09.36.269.455.58.153.285-.269.738-.125 1.123-.266.144-.1.096-.205-.284-.617-.91-.862-.886-.48.75-.68.255-.086.318-.43.079-.43-.32-.125-.617-.35-.893-.579 1.088-.798 1.023-1.2-.273-.584-.336.181-.464.273-.55-.198-.434-.418-.63 1.513-1.443 1.442.027-.146.08-.453.116-.683.198-1.03 1.133-1.6 1.456-2.539-1.652.1-1.276-1.084-2.095-1.646-.45 2.123.423 3.073-1.407 1.72-.19.444.052.893.354 1.31.518.697.972 1.542.728 2.546-.073.048-.13.008-.13-.091a.494.494 0 00-.16-.316c-.087-.077-.184-.42-.215-.761-.029-.275-.53-1.57-.785-.545 0 .388-.057.387-.599-.01-.86-.632-1.053-.073-.328.95 1.036 1.465-.82 1.19.191 1.665.607.088.904-.51.79.651-.374-.15-.638-.372-1.024-.403-.175.185-.043.582.322.968.33.35.358.417.17.417-.123 0-.254.083-.29.184-.106.291-.37.22-1.165-.311-.984-.659-1.258-.764-1.427-.549-.15.215 1.132 1.515-.003 1.647.025.437.88.242 1.004.815l.367.522c-.512.137-1.304.186-.927.891.21.18.319.193.656.084.334-.11.442-.096.618.072.231.222.833.281.833.082.22-.178.763-.198.24.175-.146.164-.23.357-.188.43.094.161.473.17.741.018.166-.093.198-.057.195.215-.003.443.693.348 1.011.013.243-.317.29-.29.386.215.088.464-.079.525-1.427.528-.753 0-1.747-.442-2.707-.858-.304 0-.29.444.02.62.133.075.218.162.188.193-.095.1-1.05-.352-1.757-.834-.38-.258-.75-.47-.826-.47-.225 0-.395.297-.28.492.252.591-1.416-.032-1.6.783.045.342 1.006.71 1.683.645.38-.037.641-.121.203.191-.324.27-.377.65-.106.76.236.096.862-.19 1.14-.521.525-.315-.293.392.012.64.579.642.436.642 1.172.252.599-.321.637-.194.045.486 0 .274.343.343.72.144.307-.163.338-.162.278.003-.129.357.288.349.559-.01.255-.333.925-.306 1.378-.482.437-.068.658-.19 1.014-.568 1.052-1.1-.683 1.48-1.789 1.62-.731.37-.854.544-1.68.03-.933-.45-1.273-.468-1.064-.055.066.131.12.263.12.292-.563.09-1.361-.72-1.622 0 0 .222-.055.235-.652.16-.703-.087-.971.032-.971.432 0 .155.083.23.255.23.465.004-.467.515.371.614.339 0 .386.035.335.245-.09.379.573.06.662.488 0 .2.07.237.418.214.465-.03.715.222.583.587-.076.208-.09.208-.307 0-.184-.177-.353-.205-.883-.147-.822.09-.937.207-.566.575.299.298.359.557.192.835-.072.121-.24.055-.705-.276-.335-.239-.66-.401-.721-.361-.233.868.217.83-.974.618.074-.76.505-1.019 1.486-1.143.017-.634-1.047-.668.045-1.091.62-2.2-2.229 1.103-2.095-.758-.702.21-2.018.727-.77-.288-.42-1.073 1.011-2.832.02-3.323-.91.646-.956 1.328-1.907.841-.602-.903 1.342-3.073-.289-3.158-.137 2.761-1.77.863-1.522 1.86.715.696 1.67 3.025-.04 1.694-1.073-1.215-1.71.18-.454.67.989-.134 1.211 2.23.176.964-.775-.202-.231 1.23-1.307.295-1.931-.733-.042 1.001.317 1.15-.589.838 2.145 1.869.455 1.931-1.137.199-2.656-.38-3.773-.62.189 1.42 1.966 1.63 2.651 2.204-1.763.941.575.555 1.13 1.08 1.263 1.525-1.377 1.172-2.007.297-1.185.036-3.154-2.798-3.785-1.276.652.842 1.716 1.434 1.553 2.382.826-.44 1.56-.216.805.72 1.297 2.277-2.205.487-3.02.01.006 1.357-2.389-.015-.665.046.337.018.404-.011.392-.175.06-.347.72-.088.611-.396-.063-.171-.018-.2.309-.2.806-.08-.127-.497.323-.5.167 0 .242-.06.233-.187-.024-.325-.291-.422-.967-.35-.573.06-.627.049-.64-.131-.297-.587-1.02.073-1.572 0-.463-.47-1.238-1.472-.493-1.188.736.317.598.317 1.12-.205.28-.203-.555-.778-.028-.522.29.27.913.503 1.137.424.255-.09.18-.398-.15-.618-.442-.254-.184-.185.185-.156.66.053 1.568-.245 1.592-.524-.228-.663-1.806-.156-1.597-.637.099-.159-.083-.4-.3-.4-.074 0-.421.172-.773.382-.656.392-1.553.76-1.65.679-.03-.026.046-.096.17-.158.29-.143.276-.504-.019-.504-1.762.282-1.849.05-.936-.666.16-.137.264-.147.595-.059.333.09.438.078.629-.068.322-.574-.447-.613-.95-.724l.322-.426c.085-.466.925-.307.923-.663-1.105-.107.059-1.165-.1-1.34-.176-.175-.435-.09-1.35.447-.737.433-.988.49-1.107.253-.042-.081-.174-.149-.293-.149-.182 0-.159-.055.14-.34.33-.314.433-.637.253-.788-.373.026-.614.207-.967.33 1.299-.991.26-1.122.81-1.886.64-.833.42-1.288-.376-.774-.5.324-.556.325-.58.01-.308-.835-.715.22-.726.443-.009.277-.083.556-.163.618-.08.063-.14.179-.135.258.006.08-.047.113-.12.074-.298-.817.091-1.505.55-2.072.268-.34.475-.705.264-1.067-1.382.7-1.202-.736-1.466-1.398-.256-.938-.487-.274-.77.884-.11.452-1.663-.236-1.159.455.37.764 1.31 1.227 1.563 2.066.05.187.118.437.154.556-.84-1.23-3.463-1.277-2.234-.537-.254.185-.529.37-.83.471-.232 0-.15.28.102.35 1.597.163 1.597-.149.767.553-.343.336-.382.42-.237.503 1.546.519 2.376-.459 2.382 1.015-.037.675-.952.907-1.905.096-.26-.454-.877-1.139-1.054-1.139-.25.085-.15.27-.289.463-.365-.268-.794-.76-1.231-.808-.287.441.192.675.467 1.11-.313.087-.643.032-.944.156-1.022-.154.595 1.295 1.075 2.23.06.136.143.167.318.117.483-.139.681-.107.734.116-.05.454-1.683.257-1.286.672.086.085.325.208.531.272.277.087.366.166.337.298 1.022 1.253.224-.1-.854.157-.217-.195-.788-.42-1.341-.397-1.27-.012-4.019-1.076-1.756-.961 1.39-.006-.284-1.694 1.375-1.407-.538-.819-2.42-.509-2.58-1.178.667.209 2.424-.07 1.605-1.57 1.455-.217 1.696-.67.069-.738 1.095-.597-3.1-.691-1.69-1.63 1.618 1.856-.609-2.074 1.299.129 1.002-.211-.084-1.359 1.488-1.142.341 0 .747-.408.313-.463-1.586-.203-4.072-.118-5.378-1.033.258-.657 1.91-3.805.424-2.136-.48.627-1.588 2.278-1.294.236.675-.412 1.175-2.203.275-1.14.154-2.663-.028-3.469-.411-3.397-.235.7.163 1.183-.222 2.018-1.187-1.556-.36 1.16-.132 2.149-.245.586-.152-.545-.948-.256.584.886.602 2.369-.163.344-.539-.612-.128.655-.553.329-.604-.464-.481.525.064.699 1.949 1.574-.858 1.253-2.015 1.298-.712.027-.902-.182-1.277.035-.135.079-.024.272.213.396.302.157.662.026 1.18.221.576.2-1.781.14-.665 1.053-.662 1.629 2.533.763.452 1.272-.035.127-.309.236-.645.337 0-.005.004-.011.003-.016-.011-.165-.11-.183-.645-.112-1.48.236-.888.313-1.204-.585-.066-.04-.396.121-.732.357-.464.326-.636.391-.72.272-.193-.274-.147-.53.147-.824.364-.363.236-.478-.63-.567-.56-.057-.735-.03-.916.145-.215.205-.229.206-.321 0-.163-.36.083-.608.572-.578.366.022.437-.014.424-.212.065-.421.78-.107.662-.48-.068-.207-.02-.242.334-.242.872-.098-.138-.603.349-.606.18 0 .262-.073.252-.227-.026-.394-.314-.51-1.045-.424-.62.073-.679.06-.693-.159-.32-.71-1.104.09-1.7 0-.003-.03.046-.159.107-.289.192-.407-.163-.39-1.11.054-.833.508-.973.336-1.763-.029-1.167-.137-3.154-2.681-1.98-1.597.398.372.637.493 1.1.56.486.174 1.186.147 1.475.475.306.354.744.362.585.01-.073-.162-.04-.162.291-.003.408.196.764.129.746-.141-.665-.671-.633-.797.015-.48.797.384.647.385 1.211-.248.303-.246-.6-.942-.03-.632.313.327.988.609 1.23.514.276-.108.195-.483-.161-.749-.48-.308-.2-.225.2-.189.714.064 1.695-.298 1.721-.635-.247-.804-1.954-.19-1.727-.772.106-.192-.09-.485-.326-.485-.079 0-.454.208-.835.463-.71.475-1.68.922-1.786.822-.033-.03.05-.116.185-.19.313-.174.299-.61-.02-.61-.979.409-1.99.844-2.779.845-1.413-.003-1.592-.064-1.53-.522.067-.497.115-.523.39-.21.356.33 1.09.423 1.058-.013-.02-.269.011-.304.19-.212.292.15.688.14.776-.019.04-.071-.061-.262-.224-.424-.573-.367-.003-.348.24-.172.013.196.638.138.866-.08.174-.167.285-.18.643-.072.36.108.474.094.681-.082.349-.696-.484-.744-1.029-.878l.35-.516c.092-.564 1-.373.999-.803-1.196-.13.062-1.412-.11-1.624-.19-.212-.47-.108-1.459.541-.798.525-1.069.594-1.198.307-.045-.1-.188-.181-.317-.181-.196 0-.172-.066.151-.412.357-.38.47-.772.274-.955-.403.031-.664.25-1.046.399-.196-1.146.155-.556.784-.642 1.03-.469-.897-.197.092-1.643.693-1.008.454-1.56-.406-.937-.542.393-.602.394-.627.01-.334-1.01-.774.267-.786.538-.01.337-.09.674-.176.75a.443.443 0 00-.146.312c.006.097-.05.137-.13.09-.322-.99.098-1.823.596-2.51.289-.411 1.097-.947.868-1.385-.24-.16-.96.4-1.163.3-.541-.268-.638-2.714-.986-2.722zm2.046 9.315a.248.248 0 01.1.007c.143.046-.093.315-.765.874-.392.325-.53.2-.27-.241.17-.286.664-.612.935-.64zm-4.602 1.307c.082 0 .352.19.601.423.38.354.54.424.982.424.42 0 .543.048.605.235.098.298.02.382-.242.261l-.787-.366c-.595-.277-1.425-.977-1.159-.977zm58.86 6.37c.24-.017.791.34.984.65.277.448.152.574-.242.244-.677-.566-.919-.84-.786-.886a.146.146 0 01.043-.008zm4.527 1.326c.254 0-.494.71-1.044.992-.296.15-.624.318-.729.37-.242.123-.321.037-.247-.265.047-.19.161-.238.563-.238.422 0 .57-.07.91-.43.223-.236.47-.429.547-.429zM208.784 20.21c.26.028.753.34.932.613.277.424.153.543-.242.231-.677-.535-.919-.792-.786-.837a.208.208 0 01.096-.006zm4.475 1.252c.254 0-.494.67-1.045.936l-.728.35c-.242.116-.322.035-.247-.25.047-.18.161-.225.563-.225.422 0 .57-.066.91-.406.223-.223.47-.405.547-.405zm52.157.628c1.808.14-.694 1.24 1.371 1.555.214.452-1.977.794-1.233 1.306.467.32.722.848.823 1.11-.538-.034-1.372.266-1.29-.264.044-.237.008-.29-.202-.29-.543.064-.94.474-1.497.483-3.361-.069-1.572-1.348-.364-2.826.185.259.638.729.62.299-.016-.24.198-.376.592-.376.128 0 .227-.082.22-.182.234-.365 1.182-.122.995-.65a.399.399 0 01-.035-.165zM59.954 30.205c-.18 1.482-1.48.194 0 0zm243.931.26c.247.088.646.081.799.311 0 .101.1.184.222.184.376 0 .59.138.59.381.01.437.412-.04.572-.302.125.15.256.295.386.44-1.117.592-2.306 1.367-3.32 1.32.352-.603 1.288-2.36-.313-1.407-.752.382-2.887 1.928-2.72.185.757-.523 1.668.471 1.898-.475.743.178 1.543-.212 1.886-.638zM180.156 32.37a.438.438 0 01.09 0c.638.062-.377 1.625.274 1.684-.117.006-.24.023-.365.045-.751-.105-1.629-.187-1.88-.257.764.133.984-.485.657-.924.616-.37.996-.529 1.225-.548zm-121.33.363c-.114 1.137-3.22 1.561-1.137.159.634-.347-.098 1.317.81.083.098-.114.196-.19.327-.242zm7.067 1.085c1.348.721.157 1.163 0 0zm116.88 1.17c-1.56 1.612 3.512-.711 1.822 1.558 1.032.445.21.348.581 1.292.218 1.067-1.843-1.7-2.398-.307-.764.043-1.546.41-1.026 1.11-1.111 1.719-3.785-.08-2.594.243 1.4.792 1.465-1.01.97-2.12-1.264.53-2.06-1.692-.684-.202.77.005.767-.633.738-1.2.272.326 1.636-.338 2.59-.373zm-113.683.026a.656.656 0 00-.254.175.305.305 0 01.127-.16l.127-.015zm84.167 1.367c-.571.474-.547.015 0 0zM19.194 40.45c.064.124.119.25.146.382-.092.15.097.335.678.662.285.161.517.344.517.406.041.086.096.169.155.249-.18.089-.367.187-.563.295a1.936 1.936 0 01-.548-.283c-.342-.26-.783-.5-1.059-.597a1.036 1.036 0 00-.028-.149c-.089-.435.288-.796.702-.965zm-.918 1.342c.062.17.2.367.34.436.278.139.388.303.39.584 0 .128.037.186.137.206-.55.33-1.06.642-1.46.872-.397-.394-.623-.388-.563.02.014.095.017.183.014.266-.027.01-.06.026-.08.032-.46.2-1.695.41-.717-.583.738-.403.92-1.339 1.615-1.756.14-.03.242-.054.324-.077zm33.448 6.655a1 1 0 01.379.066c1.005 1.333-2.913 2.087-3.786 2.13-.406-.036.371-.287-.112-.45-.35-.208.13-.226.266-.166.144.066.328.12.41.12.24 0 .167-.37-.107-.55-.066-.05-.062-.154-.076-.235.594.523.858.143 1.39.136.092.036.182-.007.219-.102.042-.11.187-.163.437-.163.43 0 .619-.145.619-.476 0-.185.147-.297.36-.31zm-22.05 3.362c.34.788 1.76.515 1.137 1.03-.344.275-.334.691.018.741.007 0 .012.004.018.005l-.424.238a18.06 18.06 0 01-1.011-.9c-.936-.789-1.895-1.387.263-1.114z" opacity=".997" stroke="gold" stroke-width="0.05" fill="#354f52" paint-order="markers fill stroke"/></svg>