<svg xmlns="http://www.w3.org/2000/svg" viewBox="0 0 321.943 76.876" height="290.556" width="1216.793"><path d="M309.879 0c-.267.952.021 1.87-.2 2.824-.468-.352-.745-.771-1.207-1.105-.19.445.052.894.354 1.31.518.698.972 1.543.728 2.547-.073.048-.13.008-.13-.091a.495.495 0 00-.16-.317c-.088-.077-.185-.419-.216-.76-.028-.275-.53-1.57-.784-.545 0 .388-.057.387-.6-.01-.86-.632-1.053-.073-.327.95 1.036 1.465-.821 1.19.19 1.665.607.088.905-.51.79.651-.374-.15-.637-.372-1.024-.403-.174.184-.042.582.322.968.331.35.358.417.17.417-.123 0-.253.083-.29.184-.105.291-.369.22-1.164-.311-.985-.659-1.259-.764-1.427-.549-.15.215 1.131 1.515-.003 1.647.025.437.88.242 1.004.815l.367.522c-.512.137-1.304.186-.927.891.209.18.318.193.655.084.335-.11.442-.096.618.072.232.222.833.281.833.082.22-.178.763-.198.24.175-.146.164-.23.357-.187.43.094.161.472.17.74.018.166-.093.199-.057.196.215-.003.443.692.348 1.01.013.243-.317.292-.29.387.214.088.465-.08.526-1.428.529-.753 0-1.747-.442-2.707-.858-.304 0-.29.444.02.62.133.075.218.162.188.193-.095.1-1.049-.352-1.757-.834-.379-.258-.75-.47-.826-.47-.225 0-.394.297-.28.492.253.59-1.416-.032-1.6.783.046.342 1.006.71 1.684.645.379-.037.64-.121.203.191-.324.27-.378.65-.107.76.236.095.863-.19 1.141-.522.524-.314-.293.392.011.642.58.641.437.64 1.172.251.6-.321.637-.194.045.486 0 .274.344.343.72.144.307-.163.339-.162.279.003-.13.356.288.349.558-.01.255-.333.925-.306 1.379-.483.437-.067.657-.19 1.014-.567 1.052-1.1-.684 1.48-1.789 1.62-.732.37-.855.544-1.681.029-.933-.45-1.272-.467-1.064-.055.067.132.121.264.121.293-.563.09-1.362-.72-1.623 0 0 .222-.055.235-.652.16-.703-.087-.97.032-.97.432 0 .155.082.23.254.23.465.004-.467.515.372.614.338 0 .386.035.334.245-.089.379.573.06.662.488 0 .2.07.237.418.214.465-.03.715.222.583.587-.075.208-.088.208-.306 0-.184-.177-.353-.205-.884-.147-.821.09-.936.207-.566.575.3.298.36.557.193.835-.073.121-.24.055-.705-.276-.336-.239-.66-.402-.722-.361-.244.91.317.832-1.112.592-.514-.07-.608-.053-.608.114 0 .205.778.693 1.104.693.138 0 .166.069.109.26-.145.537.743.29.99.66 0 .102.1.185.222.185.375 0 .589.138.589.381.01.436.412-.04.572-.303 1.247 1.498 3.036 2.796-.169 2.866-.531-.01-.937-.425-1.459-.49-.2 0-.232.054-.175.295.13.616-.965.124-1.418.31-.344.194-.313.313.157.607.294.183.405.339.405.564.004.46.633.094.717.648.059.508.75.124 1.03.584.055.204.15.24.568.21 1.024-.069-.74.758-1.265.509-.192-.04-.409-.15-.482-.243-.18-.23-.684-.22-.684.015 0 .143-.154.184-.695.184-.836 0-.893.166-.174.503.523.25.459.91 1.198.912.294-.068.348-.037.413.235.053.226.15.313.349.313.263.004.363.594.818.486.127.216.263.15.873-.424.652-.607 1.901-.356.969-.188-1.026.022.205.893-.418 1.234-.144.002-.391.11-.55.243-.217.175-.502.205-.744.35-.034.058-.389.146-.79.196-2.067.256-1.99.236-2.139.554-.271.555-1.14.379-1.712.608-.095.163.472.6.99.764.375.12.426.175.332.36-.158.313-.14.359.132.359.143 0 .267.098.302.24.15.57 1.384-.298 1.493.344-.124.413.17.477.474.104.246-.304.27-.311.27-.084.022.472 1.35.568 1.531-.104.178-.377 1.239.292 1.564-.224.101-.253.207-.391.235-.307.288.202.784-.025.712.357-.21.27-1.012.65-1.38.653-.72.019-1.453.61-2.181.558.304.76 1.389.34 1.287.974-.112.045-.985.135-1.942.2-1.197.08-2.47.182-3.957.389.289-.234.262-.472-.557-.429-.77-.448-1.439.954-1.316-.482-.632-.107-1.004.612-1.332-.11-.352.083-.738-.278-1.137-.04-.326-.928-.269.999-.707-.05-.611-1.705.125-.877.184-.815.59.34 3.058.317 1.32-.548-1.246-1.06 2.474 1.238 1.101-.283.64.332 1.396.816 1.248.437-.098-.252-.192-.193.164-.112 1.197.472.439-.314-.182-.67.883-.503-1.556-.4-.28-.713.244-.067-.303-.282.085-.32.354-.036.703-.438-.36-.61-.66-.176-.476.153-1.039-.449-.776-.83.414-.108 1.143-.252.293-.057-.217-.334.158-.452.566-.261.4-.688.98-.877.214-.07.148-.235.058-.315-.903-.215-3.159 1.003-2.53.33.162-.174.284-.585.048-.441-.553.32-1.194.417-2.346.302-.382-.054.4-1.229.637-.793.621.475.779.155.707-.323.816.422 1.842-.045.433-.461-.345-.404 2.716-.464 1.055-.899-.652-.276-1.757.528-1.123-.522-1.053-.712-1.065.957-1.901-.126-.553.91-.442-.266-.442-.266.11-.99 1.416-.072 1.268-.637-.25-.452 2.903-.183 1.095-.835-.434-.837-1.734-.047-1.9-.497.748-.881-1.318-.804.556-1.208.6-.607.416-.625-.393-.585-1.33-.593-.137-.45.56-.591.317-.063.422-.409.226-.42-.283-.017-1.28.06-1.38-.19-.018-.045.93-.346.63-.476-.878-.36-1.149.594-1.396-1.139-.25-.797-.2-2.568-.57-1.837-.43 1.016-.498 3.241-.871 3.437-.382.04-.639-.408-1.366-.3-.762.153.096.199.489.69.758.546.583.724.583.724-.193.396-1.787-.256-1.695.082.022.08.546.294.79.507.102.142-.289.267-.215.406.085.16.243.23.685.004-.346 1.124 1.14-.288.872 1.101-.156 1.217-1.747-1.299-1.744.075 1.064 1.134-2.026-.579-2.195.277.07.562 1.71.09.692.773-.986.379 1.739.26.098 1.068.032.995 1.483.962.005 1.102-.866-.124-3.246.905-1.425.855.476-.436 1.147-.39.695.33-.066.097.087.108.145.121.502.12.735 1.365-.25.583-.558.29.518.92-.54.989-.394.182-1.6.415-.495.636-.76.224-2.154.832-.506.645 1.296-.082-1.09 1.228.149 1.306-.817.055-2.088.917-.58.59.343.242-.527 1.11.354.365.124.307 1.007-.226 1.617-.254-.963 1.209 2.17-.534 1.126 1.168.638.333.13.26.359.969.135.8-1.139-1.276-1.481-.23-.472.031-.955.307-.634.832-.402.812-1.761.314-2.473.786.899.027-.715 1.192.43.645 1.21-.739-.739 1.997.63.547.474-.517 1.348-.856.35-.002-.55.385-1.461 1.619-.145.84 1.31-1.438.531 2.01-.33.922-1.277-.756.483.697-.682.39.32.128.292.248.16.352-.707-.956-4.042-.077-5.399-1.02-1.416-1.01 1.332.456 1.379-1.028 2.074.852-.263-1.783 1.31-.395 1.528.184 1.41-2.107-.588-1.935-1.575-.75-.286-2.76-2.747-2.376-3.014-1.471 3.309-.195 2.1-1.718.5-.516.499-1.796-.994-1.616.355-.655-.79-1.45-.625-1.974-.253-.134 1.802-.03 2.492-.067 1.315-.535-2.363-.252-1.523-.844-.48-.692-1.05-1.192-.238-1.652-1.336-.418-4.477-.53-2.726-1.484-1.442-.982 2.666.445 1.4-1.705-.69-.719 2.659-.398.68-.983-1.12.628-3.627-1.014-1.438-.074 1.37-.33.556-1.784 1.106-2.074 2.987-.277-.945-.607-1.961-.696-.934-.62.834-.362-.172-1.246 2.034.398.799-.626-.348-.576-1.27-.012-4.018-1.076-1.755-.961 1.39-.006-.284-1.694 1.374-1.407-.537-.82-2.42-.509-2.58-1.179.667.21 2.424-.068 1.605-1.57 1.455-.216 1.696-.67.069-.737 1.095-.597-3.1-.691-1.69-1.63 1.618 1.856-.609-2.075 1.3.128 1.001-.21-.085-1.358 1.487-1.141.341 0 .747-.408.313-.464-1.585-.203-4.072-.118-5.378-1.032.258-.658 1.91-3.805.424-2.136-.48.627-1.588 2.278-1.294.236.675-.412 1.175-2.203.275-1.14-.517-.084 1.414-2.39-.08-1.47-.398-.872.34-2.295-.35-2.899-.464.91.192 2.46-.193 3.294-1.312-1.256-.592.478.05 1.178.002 1.9-.344.122-1.14.41.584.887.602 2.37-.163.345-.539-.612-.128.655-.553.329-.604-.465-.48.525.065.699 1.949 1.574-.858 1.253-2.015 1.298-.713.027-.902-.182-1.277.035-.135.078-.025.272.213.396.302.157.662.026 1.18.22.576.2-1.781.14-.665 1.054-.662 1.629 2.533.763.452 1.272-.124.447-3.149.686-1.896 1.095 1.832.136-.688 1.24 1.382 1.556.214.453-1.977.794-1.233 1.306.698.48.93 1.435.866 1.249-.848.035-4.876.823-2.337.835 1.318-.432-.165 1.441.89 1.694.595 1.05-3.636.375-1.423 1.102 1.262-.097-1.036 1.89.823.803-1 .797-1.272 1.917.185.848 1.829.09-2.236 1.19-.317 1.868-.362.44-.118 1.057.73.925-.626.158-4.793.364-2.875.79 1.676-.757-.172 1.941 1.577 1.93 1.527-1.49.644.731-.757.203-.55 1.11-.477 2.91 1.075 2.118 1.37-.366-.411 2.197 1.548 1.087 1.869-1.343 1.093.844-.605.529-1.282 1.41-4.304.36-5.313 1.389-.267.436-.36.823-.33 1.14-.166-.15-.445-.235-.722-.252-.404-1.151-1.91 1.136-1.75.254.27-.78-.33-.7.423-1.068-1.233-1.874 2.47.046 1.332-1.285.72.03 1.764.617 1.91.28 1.042.82.014-.136.419-.402 1.782.36.28-.591-.685-.652 1.463-.085-1.356-1.527.176-1.438 1.948.207.3-.463-.599-.71 1.307-.244-.118-.5-.583-.701-1.252-.075.02-.77-.64-1.09-1.164.862-.888-.51-.295-.64.069-.016.249-.027.17-.134-.533-.792.26-.844.823-.364 2.151.055-.66-1.078-1.684-.941-1.749-.154-.033-.118.005-1.215-1.94-.889 1.28-.758.115-1.175-1.202-.753.735-.233.818-.852-.2-.943-3.852.944-2.594-.305.003-1.514-1.877 1.257-2.061-.082-.317-1.531 1.44.024 1.031-1.215.522.25.708.174.81-.004.087-.152-.375-.29-.255-.447.288-.234.908-.471.933-.558.11-.372-1.774.346-2.003-.09-.276-1.517 2.27.363 1.627-.564-.628-.177-1.02-.379-.874-.535.368-.39 2.535-.675 1.188-.894-.859-.12-1.857.572-2.309.527-.235-.023.34-.672.324-1.15-.005-.151-.234-.384-.46-.027-.05.08-.13.162-.15.195-.487.871-.22-1.458-.721-2.566-.312-.621-.294.655-.42 1.699-.292 1.908-.536 1.183-1.574 1.579-.354.144.435.475.414.525-.118.275-1.296.19-1.631.209-.231.013-.106.393.268.462.432.422 2.037-.373 1.022.723-.956-.044-1.175-.024-.464.644 1.372.374-.588.289.296 1.26-.196.495-1.732-.375-2.246.547-2.136.718 1.59.422 1.295.92-.175.622 1.369-.39 1.497.702 0 0 .132 1.295-.521.293-.988 1.192-1.002-.646-2.246.139.748 1.156-.558.27-1.328.575-1.963.48 1.655.545 1.247.99-1.665.457-.452.972.511.508-.084.526.102.878.835.355.282-.48 1.204.814.754.873-.499.047-.915.06-1.276.044-.162-.05-.32-.096-.463-.133 1.588-.282-.144-.578-.708-.81-1.52-.087.024-.887-.779-1.257-1.413.994-1.077-.588-.357-.74.084-.017.302-.03.207-.154-.648-.914.316-.974 1-.42 2.613.063-.803-1.244-2.046-1.086-2.124-.178-.04-.136.006-1.402-2.357-1.026 1.556-.875.139-1.357-1.46-.868.893-.268.994-.982-.242-1.088-4.905 1.557-2.506-.497-.275-.705-1.764-.103-.913-1.355.106-.177-.456-.335-.31-.516.351-.27 1.103-.544 1.134-.644.132-.43-2.155.4-2.433-.105-.336-1.75 2.758.419 1.977-.65-.764-.204-1.24-.438-1.062-.617.447-.451 3.079-.78 1.443-1.032-1.044-.138-2.5.176-2.486-.92.799-.286 1.345-.051-.166-1.359-.851-.6-.663-2.15-1.083-1.981-.672.27-.312 2.404-2.397 3.028-.43.166 1.054.412 1.028.47-.143.317-1.894 1.746-2.301 1.768-.281.015-.13.454.325.534.525.487 2.475-.43 1.243.834-1.162-.05-1.952.11-1.089.88 1.667.432-.715.334.36 1.454-.24.572-2.105-.433-2.729.632-2.595.828 1.93.487 1.572 1.06-.212.72 1.664-.449 1.82.81 0 0 .16 1.496-.633.34-1.2 1.375-1.218-.746-2.73.16.91 1.334-.676.313-1.612.663-2.385.553 2.01.63 1.515 1.142-2.023.529-.55 1.123.621.586-.102.608.124 1.015 1.014.41.342-.553 1.463.94.916 1.009-1.654.146-2.575.022-3.368-.384-.338-.182-.163.34.068.56.903.856-2.335-.691-3.63-.42-.13.102-.226.313.081.401.834.24.594.784 1.408 1.116.538.15-.194.502.227.575 1.046.183 2.754-.735 1.64.32-.808.765-.543.347-1.493.571-1.524.218-1.024.73-.516.774.558.049-.227.323.124.408 1.83.398-1.67.267-.403.907-.891.452-1.98 1.45-.262.85.512-.103.377-.178.236.142-.212.482.874-.132 1.792-.555-1.972 1.935 3.37-.986 1.582.36-2.496 1.1 1.047 1.13 1.893.697.085-.079 1.142-1.132.264 1.035-.63 1.334-.546-1.115-1.015.064-.572-.302-1.126.157-1.632.05-.47.92-1.004.004-1.911.141.176 1.825-.785.043-1.89.613-.497-.024-.787.018-.931.096-.112-.27-.123-.268.18-.268.216 0 .284-.062.285-.261.003-.34.136-.54.474-.709.28-.14.558-.701.417-.843-.115-.115-.984.303-1.586.762-.633.452-1.07.441-1.798.498.44-.502.746-1.01 1.265-1.307.705-.397.935-.622.823-.803.166-.805 1.053-1.441 1.1-2.324 0-.181-.228-.132-.591.126-.185.132-.337.335-.337.452-.261.493-1.095.49-1.3.055-.108-.239-.19-.283-.42-.225-.282.07-.28.065.074-.338.636-.726.637-1.643 0-1.77-.532-.082-.626-.837-1.1-.848-.503-.324.566-.561.638-1.075-.15-.806-1.003.594-1.022-.14 0-.226-.118-.349-.55-.573-.268-.163-1.627-1.002-1.652-.624 0 .29.54.919.953 1.11.455.16.37.523.596.804.25.146.352.604.152.68-.869-.115-3.035-1.848-3.185-1.2-.024.125.106.268.368.403.456.384.837.793 1.266 1.06.199.165.365.62.484 1.33.047.488 1.097 1.427.64 1.328-.158-.035-.55-.17-.869-.3-.682-.244-1.39-.55-1.924-.969-.652-.515-.915-.563-.915-.166-.134.531 1.83 1.85 1.854 2.215 0 .246-.231.218-.945-.114-.643-.3-1.141-.376-1.141-.175.108.16.412.095.255.255-.368.368-.003.778.848.948l.684.137c.016 1.046-1.247 1.307 1.134 1.505.524 1.283-1.827-.112-2.497-.4-.684-.323-.65.094-1.058.195-.474.12-1.505.52-.873-.102.378-.395.322-.57-.118-.37-.447.204-.54.164-.339-.144.291-.444.034-.437-.616.015-.736.514-1.454.603-2.631.328-1.043-.249-1.655-1.428-.436-.94.797.074.84.066.84-.16 0-.295.016-.294.588-.003.482.245.687.221.687-.08.437-.485 1.298.087 1.966-.268.303-.196-.543-.545.102-.711.53-.197-.038-.58.607-.83.303-.182 1.5-.762.86-.952a3.737 3.737 0 01-.718-.256c-.316-.151-.887.055-.837-.288.184-.344-.165-.39-.816-.11-.384.16-1.391.5-1.346.062a.567.567 0 00.088-.712c-.442-.12-2.3.892-3.247.134-2.254-.782-1.615-1.069-.767-.924.352.263.392-.05.399-.502.516.289.74.618 1.223.4.174-.235.413.163.73.26.391.13.945-.126 1.054-.697.005-.292.028-.305.37-.206.628.173.218-.185.502-.468.229 0 .224-.104-.015-.369-.607-.69 1.184.596 1.222-.238-.185-.48 2.665-1.1.454-1.132-.374 0-.781.097-.556-.44 0-.115-.186-.057-.636.197-1.77 1.014.072-1.27-1.396-.29-1.062.757-1.269.816-2.09.593-1.298-.351-2.485-1.042-2.485-1.446.005-.082 2.744.953 2.762.175-.053-.93.759-.049 1.388.123.504.1.485-.118-.059-.675-.236-.242-.374-.44-.307-.44.227.119.307.44.566.473.457-.067.789.217 1.098.145 0-.042-.083-.17-.185-.282-.172-.19-.152-.213.319-.348.641-.185.645-.189.379-.39-.207-.156-.183-.17.304-.173.555-.004.806-.153.806-.477 0-.222-.321-.334-.957-.337-.308 0-.435-.052-.435-.175 0-.25-.642-.22-1.258.06-.608.276-.712.284-.712.052-.083-.197-.299-.282-.348-.527 0-.185-.043-.2-.297-.104-.421.16-.514.142-.514-.1 0-.335-.137-.386-.397-.148-.668.613-1.545.846-2.219.59-.3-.114-.305-.127-.11-.343.35-.386.15-.58-.603-.585-.7-.004-.948-.117-1.172-.539-.225-.422-.148-.468.11-.066.314.491.644.491.857 0 .09-.207.166-.309.168-.226.009.294.564.72.94.72.278 0 .348-.042.294-.175-.158-.39-.005-.936.385-.485.133.349.772.89 1.051.89.143 0 .24-.114.29-.347.082-.373.18-.415.526-.23.163.088.422.05 1.006-.145.822-.274 1.079-.578.614-.726-.47-.162-.692-.675-1.205-.754-.352 0-.999-.227-.999-.352 0-.054.052-.13.116-.17.205-.126.125-.292-.202-.416-.257-.098-.415-.076-.815.118-.273.133-.585.236-.695.232-.115-.005-.035-.082.188-.18.282-.122.375-.227.335-.378-.04-.154.046-.245.324-.346.209-.075.446-.218.528-.316.378-.482-1.294-.253-1.379-.78.037-.26.239-.296.749-.135.184.058.268.022.318-.135.068-.208.556-.503.834-.503.236 0 .273-.317.06-.51a.872.872 0 00-.508-.185c-.798-.012.362-.851.554-1.39-.32-.144-.656-.08-.986-.181.25-.505.727-.776.397-1.288-.448.056-.854.627-1.21.938-.158-.225-.258-.415-.522-.514-.182 0-.695.82-.813 1.298-.077.313-1.06 1.332-1.525 1.581-.439.231-.392-1.35-.45-1.693-.017-.23.119-2.765.864-2.034-.09.34.27.43.58.145.657-.54-.633-.72.591-1.466 1.088-.754 1.023-1.133-.272-.552-.336.172-.464.258-.551-.187-.433-.395-.63 1.43-1.443 1.362.028-.138.08-.428.116-.645.198-.973 1.788-1.84 2.112-2.726 0-.435-1.663.347-1.834.859-.03.089-.113.121-.19.073-.3-.615.242-3.061-.686-3.612-.266.898-.02 3.22-.24 4.12-.44-.308-1.539-.752-.854.195.518.659.972 1.456.728 2.405-.073.045-.13.007-.13-.087a.458.458 0 00-.16-.298c-.087-.073-.184-.396-.215-.719-.028-.259-.53-1.482-.784-.514 0 .367-.057.366-.6-.01-.86-.597-1.053-.069-.327.897 1.036 1.384-.821 1.124.19 1.573.607.083.905-.482.79.615-.374-.142-.637-.351-1.024-.381-.175.175-.043.55.322.914.33.331.358.395.17.395-.123 0-.254.078-.29.173-.106.275-.369.209-1.164-.294-.985-.622-1.259-.721-1.427-.518-.151.203 1.131 1.43-.002 1.555.025.412.88.229 1.004.77l.366.493c-.512.13-1.303.175-.927.841.21.17.32.182.656.079.335-.103.442-.09.618.07.232.209.833.264.833.076.22-.168.763-.186.24.166-.146.154-.23.337-.188.405.095.153.473.162.742.018.165-.088.198-.054.195.203-.003.417.692.328 1.01.012.243-.3.291-.274.387.202.087.438-.08.497-1.429.5-.752-.001-1.746-.418-2.706-.81-.304 0-.29.418.02.584.133.071.218.154.188.183-.095.095-1.049-.333-1.757-.788-.379-.244-.75-.443-.826-.443-.225 0-.394.28-.28.464.253.558-1.416-.03-1.6.74.045.323 1.006.67 1.683.608.38-.034.641-.114.203.181-.324.255-.377.613-.106.717.236.09.862-.179 1.141-.492.524-.297-.293.37.011.606.579.605.436.605 1.172.237.6-.303.637-.183.045.46 0 .258.344.323.72.135.307-.153.338-.153.278.003-.129.337.289.33.56-.01.254-.314.924-.289 1.377-.455.438-.064.658-.18 1.014-.537 1.052-1.038-.683 1.399-1.789 1.53-.731.35-.854.514-1.68.028-.933-.425-1.273-.441-1.064-.052.066.125.12.249.12.277-.563.085-1.361-.68-1.622 0 0 .21-.055.222-.652.152-.703-.083-.97.03-.97.406 0 .147.082.218.254.218.465.004-.467.486.372.58.338 0 .386.033.334.232-.089.357.573.056.662.46 0 .19.07.224.418.202.465-.028.715.21.583.555-.075.196-.089.196-.307-.001-.184-.167-.352-.193-.883-.139-.821.085-.936.196-.566.544.3.281.36.526.192.788-.072.115-.24.053-.704-.26-.336-.226-.66-.38-.722-.342-.244.86.317.787-1.112.56-.514-.067-.608-.05-.608.107 0 .194.778.655 1.104.655.137 0 .166.065.108.246-.145.506.744.274.99.623 0 .096.1.174.222.174.376 0 .59.13.59.36.01.412.412-.038.572-.286 1.247 1.415 3.036 2.64-.169 2.707-.531-.01-.937-.401-1.459-.463-.2 0-.232.05-.175.278.128.582-.965.117-1.418.293-.344.184-.314.296.156.573.294.173.406.32.406.533.004.434.633.09.717.612.058.48.75.117 1.03.551.055.193.15.227.568.199 1.024-.065-.74.715-1.265.48-.192-.038-.41-.141-.482-.23-.18-.217-.684-.207-.684.015 0 .135-.154.174-.695.174-.836 0-.894.157-.174.475.523.236.458.859 1.198.862.294-.065.348-.036.413.221.053.213.15.296.349.296.263.004.363.56.818.458.127.204.263.142.873-.4.652-.573 1.9-.336.968-.177-1.025.02.206.843-.417 1.165-.144.002-.391.104-.55.23-.217.165-.502.193-.744.33-.034.055-.39.138-.79.185-2.068.242-1.99.223-2.139.524-.271.524-1.14.357-1.712.574-.095.153.472.566.99.721.375.113.426.165.332.34-.158.296-.141.339.132.339.1 0 .187.046.245.118-.716.506-1.531.85-2.514 1.057-.784.163-1.85-.765-1.432-1.419.338 0 .92-.382.919-.601-.002-.233-.093-.364-.397-.571-.23-.158-.2-.172.787-.342 1.294-.223 1.838-.387 1.898-.57-.234-.158-2.751.158-1.793-.286.57-.135.938-.666.657-.947-.074-.074-.037-.198.118-.394.28-.369.163-.868.57-1.182.06-.05.364-.962.143-1.31-.297-.417-.614-.367-.85.134-.219.453-.877.631-1.291.99-.471.386-.796.47-1.851.482-.666.007-1.33-.539-.76-.625.612-.095 1.283-.68 1.95-1.106.523-.268.64-.49.26-.49-.493 0-.486-.498.018-1.363.223-.39.367-.99.21-1.468-.096 0-.622.436-1.503 1.246-1.547 1.289-1.613.93-1.045.3.094-.38.503-.693 1.008-.774.62-.195.602-1.783 1.19-2.136.2 0 .202-.147.006-.31-.21-.174-.487-.065-1.076.426-1.008.84-3.072 1.651-3.072 1.207 0-.244.777-1.06 1.2-1.26.573-.272 1.69-1.613 1.5-1.802-.032-.033-.277-.102-.672.07-.606.261-2.733 1.524-2.26.364 2.155-.18 1.013-.416 1.027-1.362l.619-.124c.769-.154 1.1-.525.767-.858-.141-.145.134-.086.231-.231 0-.182-.451-.113-1.033.158-.645.3-.855.326-.855.104.022-.33 1.8-1.524 1.678-2.005 0-.36-.237-.316-.828.15-.483.379-1.124.656-1.741.877a6.6 6.6 0 01-.787.272c-.413.089.537-.761.58-1.202.108-.643.258-1.055.438-1.204.389-.242.733-.611 1.145-.958.238-.123.355-.252.333-.366-.135-.586-2.095.983-2.881 1.087-.181-.07-.09-.484.137-.616 1.535-.499.41-.48.313-.824-.106-.658-.028-1.13-.176-1.526-.176-.238-.584 1.198-.728 1.702-.017.663-.788-.604-.925.126.065.465 1.033.68.577.973-.428.01-.513.693-.994.767-.576.115-.576.945 0 1.601.32.366.321.37.067.306-.208-.052-.282-.012-.381.204-.185.394-.94.396-1.176-.05 0-.105-.137-.289-.304-.408-.33-.234-.535-.278-.535-.114.042.798.845 1.374.995 2.102-.101.164.106.367.744.727.313.177.569.377.569.445.129.273.357.516.577.738-.659-.052-1.055-.042-1.627-.451-.545-.415-1.332-.793-1.436-.69-.128.128.124.637.378.764.305.152.426.332.428.64.002.18.062.237.258.237H185c-.35.77-.181 1.418-1.012 1.343-.507-.037-.656-.097-.936-.38-.448-.45-.704-.448-.637.006.106.723-.225 1.121-1.122 1.347-.27.068-.469.175-.447.24.051.158 2.698.286 2.882.141-.027.35-1.561.947-2.2 1.231-.603.228-.912.529-.73.711.248.113.52-.087.81-.015.174.282 1.14-.027 1.338-.43.21-.425 1.004-.415 1.235.018.097.181.088.242-.05.318-.284.16-.19.372.277.629.36.198.452.309.478.579.072.75-2.392-.492-3.127-.373-.534.047-.555.464.05.814.173.04.4.506.628.627.508.266 1.104.413 1.638.64.725.227.782.435.152.381-.237.324-1.733.182-1.733-.164 0-.12-.215-.302-.603-.51-.636-.338-1.364-.852-2.17-1.53-.506-.428-.686-.451-.478-.063.13.253-.04.539.214.735.164.088.185.187.133.628-.061.514-.057.523.22.523.303-.005.607-.166.879-.308l.058.39c.083.53-.005.797-.173.918a2.885 2.885 0 00-.155-.325c-.91-1.028-3.635.021-4.792-1.389-1.531.316-2.23-1.871-.545-.528 1.767 1.11.16-1.453 1.396-1.087 1.4.792 1.465-1.009.97-2.119-1.264.529-2.06-1.692-.683-.202 1.577.01-.09-2.687 1.422-1.93 1.73-.427-2.028-.633-2.592-.79.765.132.985-.486.658-.925 1.73-.678-1.936-1.778-.287-1.868 1.315 1.07 1.07-.051.167-.848 1.678 1.086-.395-.9.743-.803 1.996-.727-1.82-.052-1.283-1.102.95-.253-.386-2.127.803-1.695 2.29-.012-1.343-.8-2.108-.834-.059.186.151-.77.78-1.25.672-.511-1.304-.853-1.112-1.305 1.867-.316-.405-1.42 1.247-1.556 1.13-.409-1.598-.649-1.71-1.096-1.877-.509 1.004.357.407-1.272 1.007-.913-1.12-.853-.6-1.052.468-.195.793-.064 1.066-.222.214-.123.313-.317.191-.395-.338-.218-.509-.007-1.151-.035-1.044-.045-3.575.275-1.817-1.3.491-.172.601-1.162.057-.698-.383.327-.013-.94-.498-.329-.69 2.025-.674.542-.148-.344-.718-.288-1.03 1.49-1.027-.41.578-.7 1.228-2.434.045-1.178-.347-.835.243-2.384-.175-3.294-.622.603.043 2.027-.315 2.9-1.348-.923.394 1.385-.073 1.469-.812-1.064-.36.728.248 1.14.266 2.042-.734.39-1.167-.237-1.34-1.67.15 1.479.383 2.136-1.178.915-3.42.83-4.85 1.033-.392.056-.026.463.282.463 1.417-.217.438.931 1.341 1.142 1.721-2.203-.287 1.727 1.171-.128 1.272.938-2.51 1.033-1.523 1.63-1.468.067-1.25.52.063.736-.74 1.502.845 1.78 1.447 1.57-.143.67-1.843.36-2.327 1.18 1.496-.288-.015 1.4 1.24 1.406 2.04-.114-.44.95-1.584.962-1.034-.05-2.148.973-.314.575-.907.885.688.627-.154 1.246-.917.09-4.463.42-1.77.697.497.29-.238 1.744.998 2.073 1.974-.94-.287.702-1.296.074-1.786.585 1.235.265.613.983-1.142 2.15 2.563.724 1.262 1.705 1.58.954-1.253 1.067-2.458 1.485.732.46.217.96-.215 1.651.758.593-2.56.31-1.373.844.622.037 2.475-.067 2.247.067.148.525-.884 1.32-.563 1.975-1.347-.18-1.348 1.1-.898 1.615-1.09 1.523 4.614.247 1.895 1.719-2.22-.383-1.057 1.626-2.478 2.376-.883-.084-1.356.423-1.45.94-.088 0-.19.008-.311.029-.512.328-1.187.097-1.687.363.338-.317.692-.662.014-.91-.647.213-.469-.194-.4-.726.475-.155.955-.279 1.402-.426-.731-.254-.454-1.457.41-1.536.199-1.387-1.32-.228-2.033-.76-.885-.556.294-.488-.082-1.043-1.614-.062-.142-1.068.443-1.65-.583-.749.133-.865.483-1.472 1.303-1.03-.294-1.076-1.032-.882-1.757.5.531-1.345.31-1.812.585-.135.732-1.024 1.366-1.354.558-1.12-1.1.367-1.45-.146-.446.17-1.695 1.257-1.004.085 1.16-.626-.686-.893.14-1.189.66-.99.538-1.872.69-2.247-.808.189-1.222.29-1.697 1.113-.685 1.312-.052-1.023-1.15-.613-.96.803-1.407-1.54.002-1.487.076-.553 1.834-1.008.781-1.38-.69.861-1.44-.636-1.917.153-.727.265.007-.83-.341-1.087-1.15-.171.8-1.534-.41-1.4-1.65.944 1.242-1.322-.434-.871.263-.444.32-1.658-.52-.7-1.025 1.22-.27-.592-.65-1.105-.081-1.293-.42.498-.522.458-1.415-.844.437 2.634-1.166 1.147-1.369-.27.298.475-.064.901.378.382.764 1.085-.048.43-1.146.193 1.483 1.765-.146 1.304-.842.68-1.486-.725-2.135-.272.572.57 1.284 1.994.05 2.145.224.999 2.475 1.845 1.05 2.62-.843.563-.777-.083-1.07-.465-.167-1.147-.953-.076-1.529-.613-.61-.705-1.658.004-.463.437 0 .412.045 1.195.978 1.066 1.21.74-.585-.067-1.027-.051-1.366.2 1.031.615.252.947.539 1.09-.353.103-.946-.01-.208.453-.207 1.712.663 1.74 1.591.3-.54-.163-.455.775.745.103.448.787 1.138.646.028.477 1.912.409.534.672-.694.222-1.36 1.533-.207 1.695-.362 1.172-2.95-.885-3.174.492 1.394.573-.474 1.562.732 2.268.247.085.417.173.53.262-.122.209-.167.418-.064.591a2.334 2.334 0 01-.7.29c.566.88-.334.688-.938.448.01-.073.023-.16.03-.227-.168-.86-.937-.367-1.315-.788.411-.576-.37-.753-.367-1.285-1.365.103-.217-.94.08-1.643.357-1.839-1.918.48-1.131-.501.58-.431 1.514-2.218.097-1.843-.416-.107-1.643.48-1.29-.396-.709-1.169-1.132.749-.957 1.634-.408-.749-2.146.003-.928 1.055.69 1.089.122.165-.507.014-.084.576-.61.988-.865 1.534-.72.252-.178-.453.208-.928.236-.932-1.505-.053-.481-.815.198-.177.568-.74-.046-.914-.12-.01-1.47.553-.784-.37.23-.122 1.1-.782 1.416-1.075.17-.16.274-.613-.154-.652-.787.083-3.231.883-1.555-.355.06-.457-.786-.711-1.102-.78.092-.313.348-.516.506-.79.121-.265-.014-.715-.216-.715-.358-.119 1.09-1.222 1.108-1.742-.217-.875-1.648.55-1.158-.11.246-.267.533-.774.533-.94 0-.214-.249-.469-.457-.469a.644.644 0 00-.348.15c-.12.102.7-.833.161-1.06-.118-.127-.214-.314-.214-.416-.025-.618-2.172 1.384-.76-1.163.12-.4.635-1.204-.134-1.272l-.265.03c-.012-1.041.327-1.832-.478-2.362-.33 0-.354.17-.321 2.252.015.933.008 1.695-.016 1.694-.192-.255-.557-.922-.844-.349-.028.198.236.848.457 1.123.112.171.328.525-.011.263-.254-.2-.504-.23-.601-.071-.136.219.085 1.204.302 1.35.202.354.253.798.384 1.188.127.451-.041.385-.152-.089-.072-.454-.18-.582-.49-.582-.407.006-.016.713-.55.617-.503-.057-.243.643.217.848.165.118 1.546 1.525.603.682-.534-.55-1.353-.197-.68.55.19.15.473.587.531.822.142.574-.6-1.088-1.152-.478-.148.323-.037.56.566 1.202.033.035.833.917.312.485-.334-.334-.767-.14-.659.292.117.482-.673-.213-.83-.347-.342-.316-.697-.266-.733.103-.02.216.041.341.31.624.264.278.326.401.292.58-.05.278.466.649-.223.46-.34-.125-.708-.22-.627.273.053.4.428.789.839.871.192.039.217.08.184.307-.066.455.889.05.85.8-.03.294 1.458.528.577.823-.18-.18-.588-.211-.744-.055-.113.106-1.06-.73-1.062-1.023-.623-.683-.703.245-.67.59-.2-.266-.721-.546-.758-.287-.109.987 1.958 2.612-.133 1.41-.301-.175-.563-.133-.654.107-.166.479 1.393 1.408-.205 1.16-.339-.08-1.016-.019-.715.687.116.145.824.443.916.386.066.266-.028.703.63.277.215-.111.308.15.676.152.831.006.413.534.413.534-.586 1.585-2.425.553-2.425.553-.242.034-.3.404-.11.695.135.205.133.208-.273.337-.69.222-.56.556.081.834.28.315 1.038.1 1.457.054.238-.1-.165.516.715.176 2.666-1.008.742 1.813.042.868-.791-.695-.642-.074-1.846-.277-1.647.23 1.889 1.144.633 1.02-.167.033-.456-.016-.802-.137-.7-.242-1.589-.106-.431.755.262.069.958.423.364.62-.427.17-1.36.9-.085 1.192.476-.043.707.05.707.286 0 .197.228.222.648.07.228-.083.307-.075.478.048.202.146-.115.016-.494.234-.8-.154-3.293.972-3.208-.4-1.533 1.03.66-1.563-.82-.844-.905.745-2.412-2.165-.436-.731.708.923.549.168.776-.034.08-.07.598.425.437.09-1.248-1.449 1.212-.056.857-.92-.948-.675-.76-.517-.196-.814.052-.37-.823-.343-.654-.482.595-.489.913-1.248.087-.71-1.295 1.295-2.666-2.94-.699-1.23 1.98.926.609-.54-.216-1-1.5-1.016-.187-.613.524.001 2.058 1.725-.872-1.528.947-.65 1.722.65-.704-.735.647-.768-1.07-.56-3.113.033-3.716-.934.482-.623-.244-.952-.954-.99-.515-1.243-2.43 1.226-2.227.275.344-.843-.419-.756.54-1.153-1.57-2.024 3.14.048 1.693-1.389.917.033 2.244.667 2.43.302 1.325.885.018-.146.532-.433 2.268.388.357-.638-.87-.704 1.86-.092-1.726-1.65.223-1.552 2.478.222.383-.5-.761-.767 1.662-.263-.151-.54-.742-.757-1.592-.082.025-.83-.815-1.176-1.48.93-1.129-.55-.375-.693.088-.016.317-.029.218-.144-.68-.855.33-.91 1.045-.393 2.737.06-.84-1.163-2.141-1.016-2.225-.166-.042-.127.006-1.311-2.467-.96 1.63-.82.146-1.27-1.53-.812.935-.25 1.04-.92-.253-1.017-4.899 1.02-3.298-.328.004-1.635-2.389 1.357-2.623-.09-.404-1.652 1.831.026 1.311-1.31.664.27.902.187 1.03-.005.111-.165-.476-.313-.323-.482.367-.254 1.155-.509 1.187-.603.138-.402-2.257.374-2.548-.098-.352-1.637 2.887.392 2.07-.609-.8-.19-1.3-.408-1.112-.577.468-.421 3.224-.73 1.51-.965-1.092-.13-2.362.617-2.936.57-.3-.026.432-.726.411-1.242-.006-.164-.297-.415-.585-.03-.064.086-.165.175-.191.21-.619.94-.279-1.573-.917-2.77-.397-.67-.373.706-.533 1.834-.372 2.06-.683 1.278-2.003 1.705-.45.155.554.513.527.567-.15.297-1.648.205-2.075.225-.294.014-.136.425.34.5.55.456 2.592-.403 1.302.78-1.217-.047-1.495-.026-.591.696 1.745.403-.748.311.376 1.36-.25.534-2.203-.405-2.857.59-2.717.776 2.022.456 1.647.993-.223.673 1.742-.42 1.905.758 0 0 .167 1.4-.663.317-1.257 1.287-1.275-.697-2.858.15.953 1.248-.709.293-1.688.62-2.497.518 2.104.59 1.585 1.07-2.117.494-.574 1.05.652.548-.108.569.129.949 1.062.384.358-.518 1.531.879.958.943-1.731.137-2.695.02-3.527-.36-.354-.17-.17.319.072.524.946.801-2.446-.646-3.802-.391-.136.095-.236.291.085.374.874.225.623.733 1.475 1.044.563.14-.203.47.237.538 1.096.17 2.884-.688 1.718.3-.847.716-.57.324-1.563.534-1.597.204-1.073.682-.541.724.584.045-.238.302.13.381 1.917.373-1.75.25-.422.85-.933.422-2.072 1.356-.274.795.536-.097.395-.166.247.133-.222.45.914-.124 1.876-.52-2.065 1.81 3.529-.923 1.656.336-2.613 1.03 1.097 1.058 1.982.653.09-.074 1.197-1.06.278.968-.66 1.248-.572-1.043-1.063.06-.6-.282-1.18.148-1.709.048-.493.86-1.052.004-2.002.131.185 1.708-.822.04-1.978.573-1.862-.078-1.025.612.106.888-.804.574-.094.678.97.425.14.741-4.395.638-2.216 1.194.025.426-.484.888 1.007.138-.24.78-.157 1.244.746.242 1.764-1.538-.845 1.095.661.326 1.38-1.11 1.965.004.646.824-.093.058-.198.103-.21.267-.129.978-.479.386-1.136 1.06-.133.121-.024.165.215.273.841.378-1.71.478-2.788.74-.63-.43-1.19-1.555-.115-.907.115-.769-.637-1.375-.938-1.923.202-.382.185-.768-.304-1.009.067-.177.057-.306-.005-.394a.8.8 0 01.294.156c.55-.132 1.766 1.576 1.2.12-.361-.99-2.564-1.71-2.443-2.088.449-.635 1.138-.703.028-1.316-.446-.285-.894-.488-1.146-.757.74-.025 1.793.04 1.227-.687.76.367 1.64.094.552-.558-.524-1.035-2.095-1.303-3.194-2.215-.043-.865 1.045-.508 1.24-.15.228-1.018 1.442 1.484 1.328-.107-.081-1.373-1.838-1.988-1.98-2.973 1.149-.977-1.308-.99-1.154-1.979-.583-.306 1.082-.469.143-.955-.768-.2-.9-1.305-1.808-1.579-.151 1.115-.765 1.895-1.335 2.816.765.52-.838.9-.326 1.47-.45.797-2.921 2.044-1.69 2.712.187 1.22-3.2 1.962-1.824 2.707.852.832 1.757-1.93 2.275-1.008.152.45 1.35-.534.53.385-.83 1.124-2.021 1.62-2.593 3.004-.198.29-.512.553-.847.814-.755-.595.88-.985-.068-1.645-1.338.192-2.72 1.195-3.98.456-.78.95-.744-.848.344-.471.83-.684-.316-1.155 1.034-2.13 1.268-1.873-2.726.62-.668-.636 1.298-1.34-.452-.933-.93-1.975 1.413-.362-.742-1.785-1.107-.37-1.365-.373-.066-.519.603-1.563 1.304-.587 1.326-3.47-.288-1.997-.919 1.147-1.608 1.69-2.716 2.301-1.324.218.803-1.285.265-1.727-1.669.256-.753-.049.14-.701-1.387-.612 1.059-1.16.107-2.138-.72.666-1.316.36-2.091.815-3.15 1.584 1.405-1.044-.352-3.04-1.33.5-.487-.125-1.225-.455-1.213-.118-1.035-1.702-2.42-.886.251 1.96-1.425-.08-1.005 1.54-1.06-.33-1.775.84-.232 1.54.537 1.185-.26 1.28-1.133.09-2.079-.502.516 1.49-.069 2.02.576.68.862 1.172-.236.141-1.322-2.398-2.42 1.352-.585 1.447-.802 1.711-1.843-1.548-2.653-2.167-2.125-.48.136 2.493.757 3.298.93.911.55.68.028.665 1.267-.233-1.41-.483-2.16-.557-.766-.563.683-.328-.141-1.132 1.666.362.655-.568-.285-.523-1.04-.011-3.294-.978-1.439-.874 1.14-.005-.233-1.539 1.126-1.278-.44-.744-1.984-.462-2.114-1.071.547.19 1.986-.063 1.315-1.427 1.192-.196 1.39-.608.057-.67.897-.542-2.54-.628-1.384-1.48 1.325 1.686-.5-1.886 1.064.116.821-.192-.07-1.234 1.219-1.037.28 0 .612-.37.256-.421-1.3-.185-3.337-.108-4.407-.939.211-.597 1.566-3.458.348-1.941-.393.57-1.302 2.07-1.06.215.552-.374.962-2.002.225-1.035-.425-.077 1.158-2.174-.067-1.336-.326-.793.28-2.087-.286-2.635-.38.827.157 2.235-.159 2.993-1.075-1.14-.485.435.04 1.07.003 1.727-.28.112-.932.374.478.805.493 2.152-.135.312-.44-.556-.104.596-.452.3-.495-.423-.394.477.052.634 1.598 1.431-.703 1.14-1.652 1.18-.583.025-.738-.166-1.046.032-.11.071-.02.248.174.36.248.143.543.024.968.2.472.182-1.46.128-.545.958-.542 1.48 2.076.693.37 1.156-.102.405-2.58.623-1.553.995 1.5.123-.564 1.127 1.132 1.414.175.41-1.62.721-1.01 1.186.572.436.762 1.305.71 1.135-.696.032-3.997.747-1.916.758 1.08-.392-.135 1.31.73 1.54.487.954-2.98.341-1.166 1.002 1.033-.089-.85 1.716.674.73-.82.723-1.043 1.742.151.77 1.5.082-1.832 1.081-.26 1.698-.297.399-.097.96.598.84-.513.143-3.927.33-2.355.718 1.374-.688-.14 1.763 1.293 1.753 1.25-1.353.527.665-.621.185-.45 1.008-.391 2.645.88 1.925 1.123-.333-.336 1.996 1.27.987 1.531-1.22.895.767-.496.48-1.051 1.282-3.528.328-4.354 1.263-.899 1.623.604 2.498 1.551 1.295-.263 1.29 3.534-.61 2.344.634-1.863 1.55-6.346 2.001-3.41.504.175-.204.174-.212-.043-.387-.312-.246-.774-.216-.987-.503.064-.167.011-.174-.443-.058-.39.1-1.24.43-.72-.084.313-.325.266-.469-.097-.304-.368.168-.445.135-.28-.12.24-.365.029-.36-.507.014-.607.423-1.198.496-2.169.27-.86-.205-1.364-1.177-.36-.775.658.061.693.054.693-.132 0-.243.014-.243.485-.004.398.203.566.184.566-.065.36-.399 1.07.072 1.62-.22.25-.162-.446-.45.085-.587.437-.162-.032-.477.5-.684.25-.15 1.236-.628.709-.784a3.067 3.067 0 01-.592-.211c-.26-.125-.73.045-.69-.238.152-.283-.135-.322-.672-.09-.317.132-1.147.411-1.11.051a.468.468 0 00.073-.587c-.364-.1-1.895.735-2.676.11-1.858-.644-1.332-.88-.633-.761.29.216.324-.041.33-.414.425.238.61.51 1.007.33.144-.194.341.134.603.213.322.108.778-.102.868-.573.004-.242.022-.251.305-.17.517.142.18-.153.413-.386.19 0 .186-.086-.012-.304-.5-.568.976.491 1.007-.196-.152-.395 2.197-.907.375-.933-.309-.001-.644.08-.459-.363 0-.094-.153-.047-.524.163-1.46.836.06-1.047-1.15-.24-.875.624-1.046.673-1.723.49-1.07-.29-2.048-.86-2.048-1.192.004-.068 2.261.785 2.276.144-.044-.767.625-.04 1.144.1.415.084.4-.096-.048-.555-.195-.2-.309-.363-.254-.363.187.098.254.363.467.39.377-.056.65.179.905.12 0-.036-.069-.14-.152-.233-.143-.157-.126-.176.262-.287.529-.152.532-.156.313-.322-.17-.128-.151-.14.25-.142.457-.004.664-.126.664-.393 0-.183-.264-.275-.788-.278-.254 0-.358-.043-.358-.144 0-.206-.53-.18-1.037.05-.501.227-.587.233-.587.042-.069-.162-.246-.232-.287-.434 0-.152-.036-.165-.245-.086-.347.132-.423.117-.423-.082 0-.277-.113-.32-.328-.122-.55.505-1.273.697-1.828.486-.248-.094-.252-.105-.09-.283.287-.318.122-.479-.498-.482-.578-.004-.782-.097-.967-.444-.185-.348-.121-.386.091-.054.26.405.53.405.706 0 .075-.171.137-.255.14-.187.006.243.464.593.773.593.23 0 .287-.034.243-.143-.13-.322-.004-.772.318-.4.109.287.636.734.866.734.118 0 .197-.095.24-.287.067-.307.146-.342.432-.19.135.073.348.042.83-.119.677-.226.888-.477.505-.598-.388-.134-.57-.557-.993-.622-.29 0-.823-.187-.823-.29 0-.044.043-.107.096-.14.169-.104.102-.24-.168-.343-.211-.08-.341-.062-.67.098-.225.109-.483.194-.574.19-.095-.005-.028-.067.156-.147.232-.102.308-.188.276-.313-.034-.126.037-.202.267-.285.171-.062.367-.18.435-.26.311-.398-1.067-.209-1.137-.643.03-.214.197-.244.618-.111.151.048.22.018.262-.111.055-.172.458-.415.687-.415.195 0 .225-.26.049-.42a.719.719 0 00-.418-.153c-.658-.01.299-.702.457-1.146-.264-.118-.541-.065-.813-.149.207-.415.599-.64.327-1.062-.37.047-.703.517-.997.774-.13-.186-.213-.342-.43-.423-.15 0-.573.675-.67 1.07-.064.257-.874 1.097-1.258 1.302-.361.19-.323-1.112-.37-1.395-.014-.19-.055-1.485.56-.883-.074.28.222.354.478.12.235-.21.609-.098.926-.208.119-.078.079-.16-.235-.48-.75-.671-.73-.374.62-.53.21-.067.261-.334.064-.334-.263-.097-.509-.273-.736-.45.897-.622.843-.935-.225-.455-.277.14-.382.213-.454-.154-.357-.326-.52 1.177-1.189 1.121.023-.113.066-.352.096-.53.163-.803.934-1.246 1.2-1.977 0-.359-.83.015-.97.437-.025.074-.095.1-.158.06-.247-.507.166-1.324-.599-1.778-.219.74.018 1.455-.164 2.197-.386-.274-.615-.6-.995-.86-.157.347.043.696.291 1.02.428.543.802 1.201.6 1.983-.06.037-.107.005-.107-.072a.378.378 0 00-.131-.246c-.073-.06-.152-.326-.178-.592-.023-.214-.436-1.222-.646-.424 0 .302-.047.301-.494-.008-.71-.492-.869-.057-.27.74.853 1.14-.677.926.157 1.296.5.069.745-.398.65.507-.307-.118-.525-.29-.843-.315-.144.144-.036.454.265.754.272.273.295.325.14.325-.101 0-.21.064-.24.143-.086.226-.303.172-.959-.242-.811-.513-1.037-.595-1.176-.427-.124.167.933 1.179 0 1.282.02.34.725.188.827.633l.302.408c-.422.106-1.074.144-.764.693.172.14.263.15.54.065.276-.085.365-.075.51.057.19.172.686.218.686.064.181-.14.63-.154.198.136-.12.127-.19.277-.154.334.077.126.389.133.61.015.137-.073.164-.045.161.167-.001.344.571.27.834.01.2-.247.24-.226.318.167.072.36-.066.409-1.177.411-.62 0-1.44-.344-2.23-.667-.252 0-.24.345.015.482.11.058.18.126.155.15-.078.078-.864-.274-1.448-.65-.312-.2-.619-.365-.68-.365-.186 0-.326.231-.232.383.209.46-1.166-.025-1.319.61.038.266.83.552 1.388.5.313-.027.529-.092.167.15-.267.21-.31.506-.088.591.195.075.712-.147.942-.405.431-.245-.243.305.008.499.478.499.36.499.966.196.494-.25.526-.152.038.378 0 .213.283.267.593.112.253-.126.279-.126.23.003-.107.277.237.27.46-.008.21-.259.762-.238 1.136-.375.36-.052.542-.148.836-.442.867-.856-.564 1.152-1.475 1.26-.603.289-.704.424-1.385.023-.769-.35-1.049-.363-.877-.042.055.102.1.205.1.228-.465.07-1.123-.561-1.338 0 0 .172-.045.183-.537.125-.58-.068-.8.024-.8.335 0 .121.068.18.21.18.383.002-.385.4.306.477.279 0 .318.028.275.191-.073.295.473.047.546.38.603.462.556.6-.155.509-.677.07-.772.16-.467.448.247.232.296.433.158.65-.06.094-.198.043-.58-.215-.277-.186-.544-.313-.595-.282-.201.71.26.648-.916.462-.425-.056-.502-.042-.502.088 0 .16.641.54.91.54.113 0 .137.053.09.203-.12.417.612.225.815.513 0 .079.083.143.184.143.31 0 .485.108.485.297.008.34.34-.031.472-.235 1.028 1.166 2.502 2.176-.14 2.23-.437-.007-.772-.33-1.202-.38-.165 0-.191.04-.144.228.106.48-.796.097-1.17.241-.283.152-.258.244.13.473.207.45.903.84.925.944.048.395.618.096.849.454.045.159.123.186.468.164.844-.054-.61.59-1.043.396-.158-.032-.337-.117-.397-.19-.149-.18-.563-.17-.563.012 0 .112-.127.144-.573.144-.69 0-.737.13-.144.392.432.194.378.707.988.71.242-.054.287-.03.34.182.22.283.792.652.962.622.104.168.216.116.72-.33.537-.472 1.566-.277.798-.146-.845.017.17.694-.344.96-.595.23-1.134.544-1.717.614-1.705.2-1.64.184-1.764.432-.223.432-.94.294-1.41.473-.079.126.388.467.815.595.31.092.351.135.274.28-.13.243-.117.279.108.279.118 0 .22.076.25.186.123.444 1.14-.231 1.23.269-.102.32.14.37.39.08.203-.236.223-.242.223-.065.018.367 1.112.443 1.262-.08 1.24-.454.546.382 1.483-.414.237.157.645-.02.587.278-.174.21-.835.506-1.137.508-.594.015-1.198.475-1.799.434.251.592 1.145.265 1.061.758-.092.035-.812.106-1.6.156-.885.056-1.83.13-2.899.26.086-.209.121-.415.057-.479-.086-.087-.582.18-1.199.636-.718.402-1.541.903-2.497 1.11-.715.148-1.686-.696-1.305-1.292.308 0 .838-.348.837-.548-.002-.212-.085-.332-.362-.52-.21-.144-.181-.156.717-.311 1.179-.203 1.675-.352 1.73-.52-.215-.144-2.507.145-1.634-.26.518-.123.854-.607.598-.862-.067-.068-.033-.18.107-.36.256-.335.15-.79.519-1.075.056-.046.332-.877.13-1.195-.27-.379-.558-.333-.772.123-.2.413-.8.575-1.177.901-.429.352-.725.429-1.686.44-.606.006-1.212-.491-.693-.57.559-.086 1.17-.619 1.776-1.008.477-.243.584-.445.237-.445-.448 0-.442-.454.017-1.242.203-.354.335-.902.191-1.337-.087 0-.566.397-1.369 1.134-1.408 1.175-1.47.848-.952.274.086-.345.46-.631.919-.705.565-.178.548-1.624 1.084-1.945.182 0 .184-.134.005-.283-.191-.159-.444-.059-.98.388-.919.766-2.799 1.504-2.799 1.1 0-.222.709-.966 1.095-1.149.521-.247 1.538-1.468 1.366-1.64-.03-.03-.253-.093-.613.064-.552.238-2.49 1.388-2.058.33 1.963-.163.922-.378.935-1.24l.564-.113c.7-.14 1.002-.478.699-.781-.13-.132.121-.078.21-.21 0-.166-.411-.103-.941.143-.588.274-.779.297-.779.095.02-.301 1.64-1.388 1.529-1.826 0-.327-.217-.288-.754.137-.44.345-1.024.597-1.587.798a6.032 6.032 0 01-.716.248c-.376.081.489-.693.528-1.095.098-.585.235-.96.4-1.096.353-.22.666-.557 1.042-.873.217-.112.324-.23.304-.333-.124-.534-1.91.894-2.625.99-.165-.064-.081-.44.124-.561.188-.232.117-.53.492-.662.34-.159.786-.677.786-.915-.021-.312-1.141.38-1.362.514-.356.185-.453.286-.453.472-.016.605-.718-.549-.843.115.06.424.94.619.525.887-.39.008-.466.63-.905.698-.525.105-.525.86 0 1.459.292.332.293.337.061.278-.19-.047-.257-.01-.347.186-.169.36-.855.36-1.07-.046 0-.095-.126-.263-.278-.372-.3-.213-.487-.253-.487-.103.038.727.77 1.251.906 1.915-.092.149.097.334.678.662.285.16.518.343.518.405.117.249.325.47.525.672-.6-.047-.96-.038-1.482-.41-.496-.379-1.213-.723-1.307-.628-.117.116.113.58.344.695.278.138.388.303.39.583 0 .164.057.215.235.215h.235c-.319.702-.166 1.292-.923 1.224-.462-.034-.597-.088-.852-.345-.409-.411-.641-.41-.58.005.096.659-.206 1.021-1.023 1.227-.246.062-.426.159-.407.218.047.143 2.457.26 2.626.128-.025.319-1.423.863-2.004 1.122-.55.207-.831.482-.665.648.225.102.473-.08.737-.014.16.257 1.038-.025 1.22-.391.191-.389.913-.379 1.124.015.088.165.08.22-.045.29-.26.145-.174.338.252.573.328.18.411.281.435.527.065.684-2.178-.448-2.848-.34-.486.043-.506.423.045.742.51.687 1.365.861 2.064 1.154.66.206.713.396.14.347-.217.296-1.58.166-1.58-.15 0-.11-.196-.275-.55-.463-.578-.309-1.241-.778-1.975-1.395-.462-.39-.625-.41-.436-.057.119.23-.037.49.195.67.761 1.176-1.039.573-.514.322.24-.108.347-.152.214-.272-.657-.675-1.006-.084-1.135-1.062-.012-.164-.117-.208-.21-.266-1.32-.821-.733-1.935.645-.825 1.507.77-1.102-1.863.662-.325.903 1.001.984.537.745-.242 1.49.75.982.288 1.008-.138 2.178-.556-2.357-.453-2.216-1.194 1.064.253 1.773.149.97-.426 1.13-.275 1.968-.966.105-.887-1.156-.533-2.162 1.134-1.977-.573-.95-.128-1.509.728-2.002-.132-.53.1-1.11-.33-1.709-.048-.49-1.102-.404 1.189-1.063-.06-.919-2.026.188-1.04.277-.967.885.405 4.596.376 1.983-.653-1.873-1.259 3.72 1.474 1.656-.336.961.396 2.098.97 1.876.52-.148-.3-.289-.23.247-.134 1.798.561.66-.373-.274-.795 1.328-.6-2.339-.477-.422-.849.367-.08-.454-.336.13-.382.531-.041 1.056-.52-.541-.724-.994-.21-.717.182-1.563-.534-1.167-.987.622-.129 1.718-.3.44-.068-.326-.397.237-.537.852-.311.6-.82 1.475-1.044.32-.083.22-.28.085-.375-1.357-.255-4.748 1.193-3.802.392.243-.206.425-.694.071-.524-.83.38-1.795.497-3.526.36-.574-.064.6-1.462.958-.943.933.565 1.17.184 1.062-.385 1.226.502 2.77-.054.651-.548-.519-.48 4.083-.551 1.586-1.069-.98-.328-2.64.628-1.688-.62-1.583-.848-1.601 1.137-2.858-.15-.83 1.082-.663-.317-.663-.317.163-1.178 2.127-.086 1.905-.758-.375-.537 4.364-.218 1.647-.993-.654-.995-2.608-.056-2.857-.59 1.124-1.049-1.369-.957.376-1.36.904-.722.626-.744-.59-.697-1.291-1.182.75-.324 1.3-.78.476-.075.635-.485.34-.5-.426-.02-1.924.073-2.074-.225-.027-.053.977-.41.527-.566-1.32-.428-1.631.355-2.004-1.705-.16-1.128-.135-2.506-.532-1.834-.638 1.196-.298 3.71-.917 2.77-.026-.036-.127-.125-.19-.21-.289-.386-.58-.135-.587.029-.021.516.711 1.217.412 1.242-.174.014-.423-.05-.7-.135v1.09c.204.07.312.252.232.627-.04.065-.123.105-.232.129v1.611c.487-.046 1.12-.192.889.756-.085.525-.454.464-.889.254v55.377h321.943V35.401c-2.446.083-3.403.03-3.913-.486.731-.711 1.065.194 2.361-.547.405 0 .341-.294-.158-.73-.89-.776.74.168 1.341-.436a.866.866 0 01.369-.57v-2.18c-.084.003-.227.035-.465.1-.473.126-1.504.551-.872-.109.378-.417.323-.603-.117-.39-.448.215-.541.173-.34-.154.291-.47.034-.462-.616.017-.736.544-1.453.638-2.631.347-1.043-.263-1.656-1.512-.437-.996.797.08.84.07.84-.17 0-.31.017-.31.59-.002.481.26.686.235.686-.085.436-.513 1.298.093 1.966-.282.303-.209-.543-.579.102-.754.53-.209-.039-.614.607-.879.134-.085.44-.254.687-.432v-.624a3.809 3.809 0 01-.545-.223c-.316-.16-.887.058-.837-.305.184-.364-.165-.413-.816-.117-.384.17-1.39.53-1.346.067a.628.628 0 00.088-.755c-.442-.128-2.3.945-3.247.143-2.254-.828-1.615-1.132-.767-.98.353.279.392-.052.399-.53.517.305.74.654 1.223.424.174-.25.413.17.73.273.392.14.945-.132 1.054-.737.005-.31.028-.322.37-.218.628.183.218-.196.502-.496.229 0 .225-.11-.015-.39-.607-.73 1.184.63 1.221-.252-.184-.508 2.666-1.166.455-1.2-.374 0-.781.103-.556-.465 0-.121-.186-.06-.636.209-1.77 1.074.072-1.345-1.395-.308-1.062.802-1.27.864-2.09.629-1.299-.372-2.486-1.104-2.486-1.531.005-.087 2.744 1.008 2.762.185-.053-.985.759-.052 1.388.13.504.106.485-.125-.059-.715-.236-.256-.374-.465-.308-.465.228.125.308.465.567.5.457-.071.789.23 1.098.154 0-.046-.083-.18-.185-.299-.173-.202-.152-.226.319-.37.64-.194.645-.199.379-.412-.206-.166-.183-.18.304-.183.555-.004.805-.162.805-.505 0-.235-.32-.354-.956-.357-.308-.002-.434-.055-.434-.185 0-.265-.642-.232-1.26.064-.607.292-.711.3-.711.054-.084-.208-.299-.298-.348-.558 0-.195-.044-.211-.297-.11-.421.17-.514.151-.514-.105 0-.356-.137-.41-.397-.157-.668.649-1.545.896-2.219.625-.3-.121-.305-.135-.109-.364.35-.409.149-.615-.604-.62-.7-.003-.948-.123-1.173-.57-.224-.447-.147-.495.11-.07.315.52.644.52.858 0 .09-.219.166-.327.168-.24.01.312.564.762.939.762.279 0 .349-.044.295-.184-.158-.413-.005-.991.385-.513.133.37.772.942 1.051.942.143 0 .24-.121.29-.368.082-.395.179-.44.525-.243.164.093.423.053 1.007-.154.822-.29 1.079-.612.613-.769-.47-.171-.691-.715-1.204-.798-.353 0-.999-.24-.999-.372 0-.057.053-.138.116-.18.205-.134.125-.31-.203-.442-.257-.103-.414-.08-.814.126-.273.14-.586.25-.695.245-.116-.005-.035-.086.189-.19.281-.13.373-.24.334-.4-.04-.163.045-.26.324-.367.208-.08.446-.23.527-.335.378-.51-1.293-.267-1.378-.825.037-.275.24-.314.749-.143.184.06.267.024.318-.143.067-.22.557-.533.834-.533.237 0 .273-.335.059-.54a.843.843 0 00-.507-.196c-.798-.013.362-.902.554-1.472-.32-.152-.657-.084-.987-.192.251-.534.728-.821.398-1.364-.448.06-.853.664-1.21.993-.157-.238-.258-.439-.522-.543-.182 0-.695.867-.812 1.374-.077.332-1.061 1.41-1.527 1.674-.438.245-.392-1.429-.449-1.792-.017-.245-.066-1.908.68-1.135-.09.36.27.455.58.154.285-.27.738-.125 1.123-.266.144-.101.096-.205-.284-.618-.91-.862-.886-.48.75-.68.255-.086.318-.43.079-.43-.32-.125-.617-.35-.893-.579 1.088-.798 1.023-1.2-.273-.584-.336.181-.464.274-.55-.198-.434-.418-.63 1.514-1.443 1.442.027-.145.08-.453.116-.683.198-1.03 1.133-1.6 1.456-2.539 0-.46-1.007.02-1.178.562-.03.094-.114.129-.191.078-.3-.652.202-1.702-.726-2.285zm-1.488 8.616c.24-.017.792.34.984.65.277.448.152.575-.242.245-.677-.567-.919-.84-.786-.887a.146.146 0 01.044-.008zm4.527 1.326c.254 0-.494.71-1.045.992-.295.151-.623.318-.728.37-.242.123-.322.038-.247-.264.047-.19.161-.239.563-.239.422 0 .57-.07.91-.43.223-.235.47-.429.547-.429zm-106.814 1.893c.26.027.752.339.932.613.277.423.152.542-.242.23-.677-.535-.919-.792-.786-.837a.22.22 0 01.096-.006zm4.475 1.251c.254 0-.494.67-1.045.936l-.728.35c-.242.116-.322.036-.247-.25.046-.179.161-.225.563-.225.421 0 .57-.066.91-.405.223-.223.469-.406.547-.406zm-38.722 3.182c1.628.213.198 1.63 0 0zm94.578.431c-.22 1.63-1.805.213 0 0zm-93.338 2.351c1.108 1.29.934.025 1.252.176 2.291 1.543-1.126 1.076-1.252-.175zm91.963.432c-.14 1.251-3.929 1.718-1.389.175.775-.382-.119 1.45.988.091a.993.993 0 01.4-.266zm-99.74.763c-.173 1.28-1.483.794 0 0zm108.362.43c1.645.795.192 1.281 0 0zM57.274 21.83c-.181 1.482-1.48.194 0 0zm-19.512.084c.214.023.62.28.768.505.228.35.126.448-.2.19-.557-.44-.757-.653-.647-.69a.197.197 0 01.079-.004zm3.688 1.032c.21 0-.407.553-.861.772l-.6.288c-.2.095-.265.029-.204-.206.039-.148.133-.185.464-.185.348 0 .47-.055.75-.335.184-.184.387-.334.451-.334zm14.696 1.413c-.114 1.137-3.22 1.562-1.138.16.635-.348-.097 1.316.81.082.1-.114.197-.19.328-.242zm7.067 1.085c1.348.722.157 1.163 0 0zm3.197 1.196a.656.656 0 00-.254.175.306.306 0 01.127-.16l.127-.015zm-1.486 4.044c-.04.116-.068.241-.075.363-.42-.317-.257-.355.075-.363zm-.076.367c-.024.426.211.795 1.114.493 1.971.787.524.384-.592.45-.811-.192-1.36-.435-.522-.943zm19.624 3.79c-.45.396-.786.83-.736 1.37-.562-.043-1.241.031-1.66.21-.104-.49 1.331-1.028 2.396-1.58zm94.24.1c.496.631 1.132.742 1.555.491.043.082.086.17.13.27.321.717.466.412 1.034-.037l-.167.425c-.206.525-.091.672.232.297.332-.379.254.032.54.315.273.152.064.356-.285.28-.24-.048-.504.033-.765.145-.44-.044-.936-.049-1.442-.06-.82-.395-1.139-.415-1.212-.07-.963-.118-1.815-.437-2.2-1.359-1.31-1.368 2.87.723 2.58-.697zm-93.378.747c.051.004.1.014.147.03-.25.247-.28.732-.126 1.12a4.003 4.003 0 01-.727.827c-.25.11-.433.053-.502-.347.992-.654.53-1-.245-1.093.453-.224 1.023-.565 1.453-.537zm117.627 1.225c.015-.005.027.003.034.022.289.19.784-.024.713.338-.212.255-1.013.613-1.38.616-.72.018-1.454.576-2.182.527.305.718 1.389.322 1.287.92-.06.023-.359.058-.756.095-.069-.19-.396-.126-.843.066-.123.01-.215.02-.342.027-.89.057-1.831.13-2.86.24.118-.146.25-.277.415-.375.537-.118.558-.135.488-.411-.084-.414.296-.756.691-.898.292-.203-.742-.575-.178-.624.14 0 .296-.064.432-.17.222-.02.402.016.44.23-.123.39.171.45.475.098.246-.287.27-.294.27-.079.022.445 1.35.537 1.531-.098.178-.357 1.238.275 1.563-.212.076-.18.155-.297.202-.312zm-62.664.033c.037.016.075.033.112.045a.693.693 0 000 .174c-.003.161.078.34.286.502 1.18.673.643.63-.155.66-.27-.303-.29-.837-.243-1.381zm19.351 2.722c.184.01-.784 1.473.678.807.042 1.483 2.52.018 1.243 1.029-1.131.87-3.786.186-4.685.832a5.824 5.824 0 01-.021-.537c-.38.177-.615.18-.812.127.181-.476.398-.946.995-1.056.393-.005 1.049-.523 1.383-1 .158.161.396.253.716.21.31-.304.452-.415.503-.412zm136.88.294c.022.005.078.052.172.144-.01.011-.018.02-.027.033-.026.046-.033.089-.026.13-.108-.209-.158-.316-.12-.307zm-.743.246c.161-.01.396.1.683.392.435.28.351.022.216-.255.065.088.208.156.397.205.284.343.394.302.396.068.595.06 1.341-.014 1.654-.249.487-.275-.899 1.215.475.583.56-.165 1.82.079 1.82.36 0 .5.19.544.752.176.559-.395.294.239 1.11.494 3.506.31-.396.993-1.998 1.426-.603.058-1.31-.374-2.067-.366.229.366.105.425-.27.403-.08-.38-2.855-.414-2.162-.807.527-.43-.537-.478-.612-1.12-.18-.363-.977-1.24-.394-1.31zm-194.594 2.216c.015.007-.094.135-.395.521-.197.211-.023.285-.018.356.05.722-1.104.678.157 1.528-.16.186-.742.001-1.471-.244-.111-.325-.306-.536-1.004-.562-.901.084-1.061-.158-.795-.4.304.245.671.414.983-.005.554-.166 2.132 1.44 1.258-.163-.662-1.318 1.05.13.685-.736.283-.075.524-.26.586-.29.007-.005.011-.006.013-.005z" stroke="gold" stroke-width="0" fill="#2f3e46" paint-order="markers fill stroke"/></svg>