<?xml version="1.0" encoding="UTF-8" standalone="no"?>
<svg
   xmlns:dc="http://purl.org/dc/elements/1.1/"
   xmlns:cc="http://creativecommons.org/ns#"
   xmlns:rdf="http://www.w3.org/1999/02/22-rdf-syntax-ns#"
   xmlns:svg="http://www.w3.org/2000/svg"
   xmlns="http://www.w3.org/2000/svg"
   xmlns:sodipodi="http://sodipodi.sourceforge.net/DTD/sodipodi-0.dtd"
   xmlns:inkscape="http://www.inkscape.org/namespaces/inkscape"
   id="svg847"
   version="1.1"
   viewBox="0 0 321.94452 78.523209"
   height="78.523209mm"
   width="321.94452mm"
   inkscape:version="0.91 r13725"
   sodipodi:docname="3.svg">
  <sodipodi:namedview
     pagecolor="#ffffff"
     bordercolor="#666666"
     borderopacity="1"
     objecttolerance="10"
     gridtolerance="10"
     guidetolerance="10"
     inkscape:pageopacity="0"
     inkscape:pageshadow="2"
     inkscape:window-width="640"
     inkscape:window-height="480"
     id="namedview4268"
     showgrid="false"
     fit-margin-top="0"
     fit-margin-left="0"
     fit-margin-right="0"
     fit-margin-bottom="0"
     inkscape:zoom="0.25460634"
     inkscape:cx="570.55234"
     inkscape:cy="153.16012"
     inkscape:window-x="0"
     inkscape:window-y="0"
     inkscape:window-maximized="0"
     inkscape:current-layer="svg847" />
  <defs
     id="defs841">
    <filter
       id="filter1500"
       style="color-interpolation-filters:sRGB">
      <feColorMatrix
         result="fbSourceGraphic"
         id="feColorMatrix1498"
         values="8.42331 0 0 -2.60153 -3.71166 0 8.42331 0 -2.60153 -3.71166 0 0 8.42331 -2.60153 -3.71166 0 0 0 1 0" />
      <feColorMatrix
         id="feColorMatrix1502"
         values="0 0 0 -1 0 0 0 0 -1 0 0 0 0 -1 0 0 0 0 1 0"
         in="fbSourceGraphic"
         result="fbSourceGraphicAlpha" />
      <feColorMatrix
         in="fbSourceGraphic"
         values="8.42331 0 0 -2.60153 -3.71166 0 8.42331 0 -2.60153 -3.71166 0 0 8.42331 -2.60153 -3.71166 0 0 0 1 0"
         id="feColorMatrix1504" />
    </filter>
    <filter
       id="filter1526"
       style="color-interpolation-filters:sRGB">
      <feColorMatrix
         id="feColorMatrix1524"
         values="8.42331 0 0 -2.60153 -3.71166 0 8.42331 0 -2.60153 -3.71166 0 0 8.42331 -2.60153 -3.71166 0 0 0 1 0" />
    </filter>
    <filter
       id="filter1544"
       style="color-interpolation-filters:sRGB">
      <feColorMatrix
         result="fbSourceGraphic"
         id="feColorMatrix1542"
         values="8.42331 0 0 -2.60153 -3.71166 0 8.42331 0 -2.60153 -3.71166 0 0 8.42331 -2.60153 -3.71166 0 0 0 1 0" />
      <feColorMatrix
         id="feColorMatrix1546"
         values="0 0 0 -1 0 0 0 0 -1 0 0 0 0 -1 0 0 0 0 1 0"
         in="fbSourceGraphic"
         result="fbSourceGraphicAlpha" />
      <feColorMatrix
         in="fbSourceGraphic"
         values="8.42331 0 0 -2.60153 -3.71166 0 8.42331 0 -2.60153 -3.71166 0 0 8.42331 -2.60153 -3.71166 0 0 0 1 0"
         id="feColorMatrix1548" />
    </filter>
    <filter
       id="filter1656"
       style="color-interpolation-filters:sRGB">
      <feColorMatrix
         id="feColorMatrix1654"
         values="8.42331 0 0 -2.60153 -3.71166 0 8.42331 0 -2.60153 -3.71166 0 0 8.42331 -2.60153 -3.71166 0 0 0 1 0" />
    </filter>
    <filter
       id="filter1701"
       style="color-interpolation-filters:sRGB">
      <feColorMatrix
         id="feColorMatrix1699"
         values="8.42331 0 0 -2.60153 -3.71166 0 8.42331 0 -2.60153 -3.71166 0 0 8.42331 -2.60153 -3.71166 0 0 0 1 0" />
    </filter>
    <filter
       id="filter1705"
       style="color-interpolation-filters:sRGB">
      <feColorMatrix
         id="feColorMatrix1703"
         values="8.42331 0 0 -2.60153 -3.71166 0 8.42331 0 -2.60153 -3.71166 0 0 8.42331 -2.60153 -3.71166 0 0 0 1 0" />
    </filter>
  </defs>
  <metadata
     id="metadata844">
    <rdf:RDF>
      <cc:Work
         rdf:about="">
        <dc:format>image/svg+xml</dc:format>
        <dc:type
           rdf:resource="http://purl.org/dc/dcmitype/StillImage" />
        <dc:title></dc:title>
      </cc:Work>
    </rdf:RDF>
  </metadata>
  <g
     id="layer1"
     transform="translate(-38.977448,-64.701973)">
    <path
       d="m 343.0707,64.701973 c 0.0297,0.35659 0.0464,0.71222 -0.0704,0.9966 -1.09821,-0.75071 0.32061,1.12871 -0.0596,1.19743 -0.66122,-0.86647 -0.29351,0.59309 0.20209,0.92828 0.21645,1.66365 -0.59833,0.31794 -0.95039,-0.19291 -1.09201,-1.35943 0.12208,1.2046 0.31166,1.73989 -0.9597,0.74512 -2.78612,0.67612 -3.95097,0.84162 -0.31867,0.0453 -0.0201,0.37706 0.23037,0.37706 1.15461,-0.17653 0.35621,0.75815 1.09244,0.92994 1.40144,-1.79439 -0.23395,1.40704 0.95411,-0.10416 1.03598,0.76416 -2.04534,0.84135 -1.24076,1.32742 -1.19566,0.0554 -1.01852,0.42402 0.0504,0.59996 -0.60177,1.22303 0.68855,1.44975 1.17867,1.27909 -0.11682,0.54547 -1.50067,0.29316 -1.89529,0.96036 1.21827,-0.23388 -0.0119,1.14071 1.00951,1.14576 1.66259,-0.0934 -0.3574,0.7727 -1.28992,0.78245 -0.8423,-0.0403 -1.74913,0.79324 -0.2554,0.46914 -0.7389,0.72039 0.55996,0.51048 -0.12623,1.01535 -0.67242,0.0656 -3.07169,0.2899 -1.93654,0.49873 -0.46675,0.0136 -0.80852,0.22077 0.0254,-0.5958 0.55628,-0.72208 2.58315,-3.3866 0.67789,-2.95648 -0.7256,0.55461 -1.6587,3.47635 -2.37781,1.94237 1.64544,-0.0855 0.66095,-3.44672 -0.52412,-1.29659 -0.9839,0.92361 -0.72784,0.48256 -0.21209,-0.12582 -0.52382,-0.47664 1.80256,-2.26188 -0.0613,-1.81155 -0.78195,1.06642 -1.49746,0.98165 -1.01576,-0.0804 1.38326,-0.62742 0.74221,-1.67676 -0.20752,-1.37992 0.37632,-1.45196 -1.12627,0.37524 -0.90159,-1.38158 -1.24132,-0.73145 -1.08167,0.68927 -2.16821,0.79454 -0.66169,0.29563 0.0934,0.85523 -1.09826,0.40831 -1.57501,1.78842 2.50836,4.14379 -0.3158,2.72399 -0.69461,-0.40731 -1.22984,-0.13291 -1.87407,-0.72995 -0.8535,0.87687 1.33948,1.3681 0.0967,1.91613 0.79936,0.58497 1.62047,0.85792 0.12414,0.62913 -0.48204,0.39578 1.42481,1.74316 0.23789,1.54782 -0.99314,-0.54869 -1.6106,-1.03519 -2.43443,-2.0632 -1.44635,-1.32071 -1.4273,1.26397 -0.25871,1.7903 0.60018,0.93594 1.76411,1.06649 0.54078,1.40075 -0.32729,-1.26775 -2.25827,0.007 -0.992,0.33248 -0.42815,0.93325 -1.99718,0.56955 -0.83413,1.76989 1.84523,1.12518 -1.7345,-1.10907 -0.59787,0.57038 1.20935,0.8734 0.18306,1.29571 0.9262,1.90905 0.97583,-0.33821 1.00808,1.27354 0.30789,0.42205 -1.0419,0.61132 -2.17826,-0.10678 -3.29065,-0.35664 -0.0696,-0.1459 -0.11226,-0.30963 0.0421,-0.40247 2.02581,0.27936 0.29869,-0.5773 -0.79454,-0.59997 1.65129,-0.13566 -1.58004,-1.41615 0.15457,-1.38616 2.20819,0.12639 0.32538,-0.45561 -0.69869,-0.65954 1.46942,-0.2823 -0.15001,-0.47552 -0.68167,-0.65122 -1.41708,-0.0265 0,-0.73875 -0.75784,-1.0216 -1.28842,0.86909 -1.01876,-0.45682 -0.35291,-0.60455 0.0774,-0.0172 0.28091,-0.0347 0.18915,-0.13457 -0.62846,-0.74038 0.26753,-0.81884 0.91787,-0.37914 2.43385,-0.0263 -0.78023,-1.0097 -1.93236,-0.8412 -1.98178,-0.0837 -0.0415,-0.11215 -0.0325,-1.16576 -2.22026,-0.78174 1.42419,-0.7747 0.0929,-1.13202 -1.38229,-0.67771 0.82365,-0.25016 0.89826,-0.84703 -0.25495,-0.89733 -4.32435,1.04742 -2.94103,-0.19707 -0.044,-1.45288 -2.08248,1.27508 -2.33278,-0.004 -0.40621,-1.45676 1.62833,-0.0294 1.12787,-1.20242 0.59743,0.2212 0.80574,0.14091 0.91451,-0.0325 0.0939,-0.14984 -0.43247,-0.26439 -0.30166,-0.41914 0.31922,-0.23557 1.01182,-0.48562 1.03786,-0.56996 0.11134,-0.36137 -1.99483,0.39728 -2.26695,-0.0138 -0.35946,-1.44423 2.57704,0.26504 1.82158,-0.6008 -0.71594,-0.1459 -1.16608,-0.32513 -1.00497,-0.47997 0.40391,-0.38821 2.84366,-0.74149 1.31493,-0.90203 -0.9751,-0.0831 -2.08153,0.61693 -2.59316,0.5908 -0.26651,-0.0136 0.36372,-0.65751 0.32996,-1.11535 -0.0103,-0.14529 -0.27646,-0.36011 -0.5212,-0.01 -0.0545,0.078 -0.14166,0.16036 -0.16375,0.19249 -0.52269,0.854 -0.29263,-1.39008 -0.89411,-2.43485 -0.37235,-0.58481 -0.31165,0.63817 -0.42079,1.6449 -0.27152,1.84136 -0.57071,1.15516 -1.73162,1.57323 -0.39542,0.15097 0.50752,0.43974 0.48501,0.48831 -0.12451,0.26859 -1.45897,0.2301 -1.83737,0.26039 -0.26091,0.0209 -0.10795,0.38083 0.31705,0.43372 0.50199,0.38917 2.29179,-0.43285 1.17909,0.65539 -1.0821,-0.006 -1.32906,0.0203 -0.50499,0.63537 1.56226,0.3082 -0.65609,0.29852 0.37333,1.19785 -0.2063,0.48218 -1.96927,-0.29581 -2.52151,0.60788 -2.39199,0.76714 1.80951,0.34687 1.49156,0.83453 -0.17809,0.60409 1.53641,-0.42422 1.71575,0.61829 0,0 0.18806,1.23833 -0.58121,0.3004 -1.07937,1.18037 -1.15279,-0.58246 -2.53445,0.21624 0.88231,1.08196 -0.62132,0.28056 -1.48243,0.60038 -2.20407,0.5319 1.88685,0.46196 1.43955,0.90327 -1.86746,0.50063 -0.48041,0.94996 0.59451,0.46872 -0.0792,0.50848 0.14227,0.8399 0.95494,0.31082 0.30329,-0.47081 1.38644,0.73681 0.87868,0.80995 -1.53432,0.17191 -2.39459,0.096 -3.14394,-0.21748 -0.31951,-0.14143 -0.1429,0.28795 0.0787,0.46372 0.86336,0.68454 -2.19203,-0.5042 -3.38979,-0.23874 -0.11758,0.0884 -0.20144,0.26624 0.0862,0.3304 0.78283,0.17458 0.57474,0.63379 1.34076,0.88536 0.50434,0.10885 -0.1668,0.4226 0.22624,0.4708 0.97898,0.12016 2.54338,-0.6944 1.53532,0.21665 -0.73126,0.66084 -0.49628,0.30496 -1.37366,0.51997 -1.41286,0.22753 -0.93335,0.63717 -0.45957,0.65872 0.51992,0.0237 -0.20279,0.27564 0.12624,0.33581 1.71403,0.27561 -1.54745,0.27235 -0.35038,0.7662 -0.81702,0.4024 -1.80245,1.26526 -0.22043,0.71496 0.47296,-0.10157 0.34592,-0.15882 0.22334,0.11124 -0.18466,0.40681 0.80923,-0.1369 1.65198,-0.51622 -1.7822,1.66773 3.10869,-0.92161 1.48116,0.25124 -2.29269,0.98988 1.00592,0.90849 1.78073,0.52288 0.077,-0.0681 1.03248,-0.97594 0.27413,0.85203 -0.54943,1.12797 -0.53845,-0.91038 -0.94284,0.0833 -0.54026,-0.23339 -1.04376,0.16572 -1.51699,0.0921 -0.41354,0.77823 -0.93475,0.0336 -1.7753,0.17457 0.21336,1.51198 -0.72882,0.0597 -1.74074,0.56622 -1.65705,-0.016 -0.893,0.57367 0.12,0.78579 -0.69769,0.53346 -0.0644,0.60581 0.87369,0.35039 0.14611,0.65439 -3.88687,0.6935 -1.9353,1.12451 0.0352,0.37815 -0.40288,0.80269 0.89996,0.0933 -0.19,0.69972 -0.10408,1.1099 0.66952,0.19415 1.52295,-1.41811 -0.71936,0.99682 0.59704,0.26957 1.19319,-1.02647 1.74558,-0.0533 0.59748,0.71413 -0.0812,0.0542 -0.17315,0.097 -0.17957,0.24332 -0.0857,0.87248 -0.4135,0.35709 -0.97788,0.97536 -0.11456,0.11081 -0.0171,0.14715 0.19876,0.2358 0.47339,0.20793 -1.10928,0.79564 -0.46624,-0.27164 0.20063,-0.1658 0.0546,-0.39181 0.15333,-0.59996 0.15799,-0.31972 0.0139,-0.29652 -0.38537,0.0625 -0.63387,0.57012 -1.20979,1.00587 -1.71533,1.29701 -0.30864,0.17774 -0.47744,0.32975 -0.47455,0.42705 0.009,0.28066 -1.19867,0.43535 -1.39909,0.17915 -0.5086,0.0599 -0.46734,-0.1099 0.11375,-0.31206 0.61219,-0.28052 1.36797,-0.46018 1.80031,-1.08535 0.48033,-0.29962 0.45249,-0.63673 0.0187,-0.66037 -0.59781,-0.0774 -2.55879,0.9932 -2.52067,0.38372 0.0142,-0.21929 0.0847,-0.31128 0.37122,-0.48122 0.37156,-0.22035 0.4418,-0.39449 0.20749,-0.5158 -0.1131,-0.0585 -0.12187,-0.10716 -0.0479,-0.25665 0.17589,-0.35594 0.81686,-0.38536 0.99868,-0.0458 0.1715,0.32013 0.96027,0.54518 1.0941,0.31205 0.23297,-0.0657 0.45883,0.0889 0.65579,-0.009 0.14285,-0.15242 -0.11553,-0.38806 -0.60996,-0.55622 -0.52403,-0.21339 -1.7811,-0.65705 -1.81237,-0.9391 0.15338,0.11275 2.29116,-0.0613 2.329,-0.18957 0.0158,-0.0535 -0.14696,-0.13405 -0.36789,-0.18207 -0.73169,-0.1592 -1.01107,-0.47277 -0.94411,-1.06119 0.0421,-0.36951 -0.1643,-0.36461 -0.51538,0.0125 -0.21934,0.23559 -0.33756,0.28784 -0.74746,0.33165 -0.67032,0.082 -0.55168,-0.4469 -0.85493,-1.06119 l 0.20749,-0.006 c 0.15884,-0.005 0.20803,-0.0521 0.20373,-0.1979 -0.006,-0.24938 0.0864,-0.39869 0.32958,-0.52997 0.20202,-0.10907 0.39227,-0.52728 0.28537,-0.62746 -0.0867,-0.0813 -0.71343,0.24482 -1.14367,0.59538 -0.45231,0.34601 -0.7728,0.34869 -1.30449,0.4079 0.1719,-0.1856 0.35015,-0.38799 0.44745,-0.61205 -0.003,-0.0554 0.19951,-0.2244 0.44788,-0.3754 0.5068,-0.30811 0.67022,-0.47809 0.58373,-0.60829 0.10234,-0.5934 0.73645,-1.08041 0.74953,-1.72781 -0.004,-0.13265 -0.16919,-0.0915 -0.42914,0.10666 -0.13249,0.10097 -0.23909,0.25311 -0.23623,0.33831 -0.17968,0.36724 -0.78995,0.38627 -0.95036,0.0721 -0.0854,-0.17249 -0.14653,-0.20315 -0.31373,-0.1554 -0.20443,0.0584 -0.20381,0.0544 0.0463,-0.24958 0.44913,-0.54631 0.42773,-1.21804 -0.0417,-1.29617 -0.39156,-0.0475 -0.47776,-0.59785 -0.82497,-0.59413 -0.3765,-0.22597 0.4009,-0.42519 0.44124,-0.80328 -0.12951,-0.58653 -0.72028,0.45914 -0.75163,-0.0775 -0.005,-0.16551 -0.0947,-0.25299 -0.41664,-0.40706 -0.19977,-0.11316 -1.21574,-0.69512 -1.22533,-0.41747 0.007,0.21199 0.41755,0.65984 0.72495,0.79078 0.33715,0.10612 0.28304,0.37374 0.45622,0.57413 0.18629,0.10088 0.27145,0.43357 0.12665,0.49456 -0.63868,-0.0641 -2.26661,-1.28154 -2.36109,-0.80412 -0.0148,0.093 0.0837,0.19411 0.27915,0.28706 0.34319,0.26997 0.63175,0.56061 0.95243,0.74579 0.14976,0.11629 0.28144,0.44555 0.38582,0.96286 0.0462,0.35573 0.83734,1.01916 0.5008,0.95785 -0.11754,-0.0219 -0.40678,-0.11181 -0.6433,-0.19957 -0.50546,-0.16242 -1.03122,-0.37031 -1.43284,-0.6637 -0.48999,-0.36211 -0.68355,-0.39085 -0.67411,-0.1 -0.0855,0.39205 1.38492,1.31182 1.41115,1.57865 0.005,0.17968 -0.16435,0.16453 -0.69452,-0.0617 -0.47812,-0.20395 -0.84577,-0.24828 -0.84078,-0.10124 0.0827,0.11527 0.304,0.0602 0.19291,0.18083 -0.26081,0.27833 0.0175,0.57014 0.64412,0.67454 l 0.50371,0.0842 c 0.0365,0.76581 -0.88238,0.98694 0.8662,1.07535 0.41423,0.92712 -1.34037,-0.0394 -1.83781,-0.23457 -0.32395,-0.12936 -0.52032,-0.0668 -0.54621,-0.0392 -0.14795,0.15789 0.79091,1.21334 1.26158,1.41825 0.34801,0.15148 0.99891,0.79172 1.00535,0.98869 0.0117,0.35987 -1.68033,-0.24194 -2.51857,-0.89578 -0.48951,-0.38178 -0.71666,-0.46364 -0.88204,-0.31706 -0.15499,0.13755 -0.14913,0.25625 0.0125,0.25124 0.48537,0.27006 0.51272,1.55557 1.01995,1.69739 0.41043,0.052 0.75018,0.29555 0.8366,0.59955 0.47618,0.49574 0.43074,0.78775 -0.85451,-0.215 -0.73469,-0.63249 -1.17118,-0.97155 -1.24867,-0.96868 -0.11539,0.39069 0.0179,0.87344 0.2083,1.18284 0.43043,0.68697 0.44895,1.08994 0.0509,1.10285 -0.30852,0.01 -0.20738,0.18612 0.22332,0.38873 0.55053,0.3281 1.10822,0.7841 1.60699,0.84494 0.46343,0.0545 -0.0605,0.51405 -0.59914,0.52581 -0.85422,0.0181 -1.11946,-0.0421 -1.51073,-0.34207 -0.3446,-0.27907 -0.88213,-0.40592 -1.07162,-0.76704 -0.20354,-0.39907 -0.46145,-0.43128 -0.69037,-0.0867 -0.16967,0.28834 0.0995,1.01851 0.15042,1.05744 0.33668,0.24308 0.25511,0.64998 0.49204,0.94078 0.13015,0.15483 0.16368,0.25443 0.10583,0.31622 -0.22002,0.2348 0.0918,0.65502 0.55621,0.74912 0.78704,0.33441 -1.25786,0.14456 -1.44364,0.27832 0.0532,0.14732 0.49806,0.26501 1.55156,0.41164 0.80259,0.11171 0.82812,0.1221 0.64538,0.25582 -0.24008,0.17571 -0.31083,0.28413 -0.30582,0.47288 0.005,0.17784 0.48522,0.47101 0.75913,0.46248 0.35582,0.51858 -0.48253,1.29734 -1.12203,1.18617 -0.85576,-0.15638 -1.60084,-0.57799 -2.2511,-0.91452 -0.56097,-0.38781 -1.00945,-0.61003 -1.0841,-0.53039 -0.055,0.0586 -0.0175,0.24053 0.0646,0.42373 -0.95282,-0.0844 -1.79486,-0.12262 -2.58319,-0.14749 -0.70182,-0.0217 -1.34384,-0.0633 -1.42658,-0.0921 -0.0887,-0.43556 0.71497,-0.17108 0.92121,-0.70412 -0.53255,0.0535 -1.08335,-0.33803 -1.61117,-0.33374 -0.26867,0.006 -0.86421,-0.23727 -1.02491,-0.41913 -0.0607,-0.26244 0.30743,-0.11761 0.51412,-0.26374 0.8552,0.68008 0.21509,-0.0424 1.3291,0.32457 0.14837,0.46066 1.11864,0.36245 1.12368,0.0358 -0.005,-0.15746 0.0129,-0.15295 0.20038,0.0513 0.23034,0.25082 0.44435,0.19933 0.34456,-0.0829 0.065,-0.44691 0.98802,0.12385 1.08535,-0.27415 0.0224,-0.0986 0.11094,-0.16933 0.21582,-0.1729 0.19996,-0.006 0.21158,-0.0382 0.0888,-0.25082 -0.073,-0.12624 -0.0371,-0.16591 0.23456,-0.25707 0.37582,-0.12603 0.78093,-0.44201 0.70787,-0.55205 -0.42397,-0.14532 -1.05607,-0.002 -1.26743,-0.37914 -0.1166,-0.21685 -0.0584,-0.20481 -1.57906,-0.3329 -0.52078,-0.0459 -1.00872,-0.3091 -1.54365,-0.49663 -0.46401,-0.2211 0.41807,-0.85238 -0.33374,-0.84329 -0.68652,-0.0939 0.22241,-0.29705 0.71371,0.10708 0.45975,0.38237 0.56108,0.42469 0.64871,0.27206 0.15233,0.0221 0.64872,-0.32251 0.83703,-0.57995 0.0412,-0.18989 0.0801,-0.21236 0.29706,-0.17208 0.54149,-0.0197 0.47954,-0.47411 0.85703,-0.65913 0.51951,-0.25025 0.47356,-0.36442 -0.13874,-0.34456 -0.39615,0.0129 -0.51042,-0.0118 -0.51329,-0.11083 -0.005,-0.16242 -0.37397,-0.15751 -0.50121,0.006 -0.0513,0.0661 -0.20773,0.14682 -0.34751,0.17958 -0.37881,0.18453 -1.68939,-0.34529 -0.93783,-0.32206 0.3073,0.0102 0.37548,-0.0162 0.41121,-0.15875 0.19459,-0.32458 0.71002,-0.0754 0.74163,-0.42789 0.0162,-0.0925 0.6236,-0.46037 0.79454,-0.86619 0.33783,-0.21441 0.35754,-0.29665 0.10123,-0.42331 -0.33592,-0.11769 -1.12614,0.24874 -1.04577,-0.18083 0.0363,-0.16783 0.0118,-0.20375 -0.135,-0.19873 -0.38079,0.0573 -0.66839,0.35424 -1.05742,0.37331 -2.34849,0.0277 -1.06797,-0.91237 -0.18832,-1.97821 0.12325,0.17734 0.42907,0.49779 0.42621,0.19582 -0.005,-0.16823 0.14775,-0.26894 0.42291,-0.2779 0.0896,-0.003 0.16086,-0.0624 0.15874,-0.1325 0.17191,-0.26192 0.82853,-0.11282 0.71037,-0.47997 -0.0465,-0.13145 -0.0273,-0.1796 0.0733,-0.1829 0.23903,-0.008 0.79717,-0.36409 0.79288,-0.5058 -0.004,-0.11554 -0.0729,-0.12552 -0.44829,-0.0642 -1.04084,0.19989 -0.62834,0.24065 -0.82789,-0.38331 -0.0458,-0.0263 -0.27964,0.0942 -0.51996,0.26748 -0.33269,0.2399 -0.4538,0.28893 -0.50956,0.20707 -0.12827,-0.18836 -0.0906,-0.36847 0.12208,-0.58163 0.26294,-0.26361 0.17531,-0.34199 -0.4283,-0.38456 -0.62934,0.10141 -0.67508,-0.0201 -0.1525,-0.44789 0.0553,-0.29755 0.54776,-0.0931 0.47414,-0.3529 -0.0428,-0.14397 -0.008,-0.16987 0.23916,-0.1779 0.61202,-0.0883 -0.0822,-0.42009 0.25831,-0.43331 0.12615,-0.004 0.18528,-0.0577 0.18166,-0.1654 -0.009,-0.27616 -0.20803,-0.35183 -0.72122,-0.27457 -0.43544,0.0655 -0.47581,0.0575 -0.4808,-0.0958 -0.20738,-0.49215 -0.77367,0.0879 -1.18825,0.0388 0,-0.0202 0.036,-0.11323 0.0817,-0.20582 0.1435,-0.29041 -0.10463,-0.27013 -0.77745,0.0633 -0.59386,0.37558 -0.6878,0.25834 -1.232,0.0196 -0.81269,-0.0699 -2.14228,-1.81346 -1.34701,-1.07785 0.2695,0.25255 0.43428,0.33271 0.75622,0.36873 0.33586,0.11131 0.82523,0.0768 1.01951,0.3004 0.20614,0.24196 0.51259,0.23742 0.40997,-0.006 -0.0475,-0.11238 -0.0249,-0.11337 0.20334,-0.009 0.28027,0.12863 0.53096,0.0733 0.52453,-0.11624 -0.44892,-0.45658 -0.42408,-0.54573 0.0221,-0.33748 0.54762,0.25174 0.44281,0.25538 0.85245,-0.20207 0.21753,-0.17963 -0.3973,-0.64877 -0.006,-0.44373 0.21159,0.2225 0.67678,0.40544 0.84786,0.33332 0.19569,-0.0825 0.14865,-0.3436 -0.0946,-0.52247 -0.32797,-0.20552 -0.13425,-0.15412 0.14414,-0.13791 0.49789,0.0289 1.19258,-0.24724 1.21866,-0.48497 -0.15348,-0.55932 -1.36141,-0.0895 -1.18949,-0.50413 0.079,-0.13762 -0.0513,-0.33869 -0.21623,-0.33332 -0.0551,0.002 -0.32258,0.15656 -0.59456,0.34415 -0.50756,0.35013 -1.19637,0.68643 -1.26825,0.61913 -0.0223,-0.0208 0.0377,-0.083 0.13334,-0.13833 0.22329,-0.12897 0.22353,-0.43556 0,-0.42831 -0.69386,0.31034 -1.41142,0.63937 -1.96282,0.65747 -0.98779,0.0299 -1.11162,-0.009 -1.05786,-0.33207 0.0584,-0.35113 0.0936,-0.37108 0.27834,-0.15749 0.24073,0.2237 0.75134,0.27313 0.73994,-0.0329 -0.008,-0.18816 0.0151,-0.21381 0.13833,-0.15291 0.20019,0.0989 0.47661,0.0832 0.54206,-0.0308 0.0294,-0.0511 -0.0367,-0.18266 -0.14667,-0.29248 -0.3919,-0.2453 0.006,-0.24461 0.17166,-0.12666 0.005,0.13768 0.44337,0.0823 0.60788,-0.0767 0.1252,-0.1209 0.20387,-0.13222 0.45121,-0.065 0.24939,0.0678 0.32901,0.0559 0.4779,-0.0729 0.2602,-0.49701 -0.32065,-0.51189 -0.6987,-0.59413 l 0.25704,-0.37081 c 0.0776,-0.39866 0.70844,-0.28437 0.71706,-0.58704 -0.83341,-0.0642 0.0766,-0.99405 -0.0383,-1.13911 -0.12831,-0.14473 -0.32657,-0.0655 -1.03287,0.41331 -0.57074,0.38695 -0.7616,0.44198 -0.84536,0.24332 -0.0291,-0.0692 -0.12691,-0.12377 -0.21708,-0.12082 -0.13756,0.005 -0.11892,-0.042 0.11542,-0.29207 0.25815,-0.27552 0.34582,-0.55366 0.21373,-0.67746 -0.28243,0.0309 -0.47067,0.19075 -0.74119,0.30373 -0.11006,-0.80067 0.12138,-0.39382 0.56372,-0.46914 0.73042,-0.35283 -0.62271,-0.11815 0.1029,-1.15658 0.50853,-0.72457 0.35415,-1.10688 -0.26207,-0.64955 -0.38817,0.28822 -0.42958,0.29021 -0.4383,0.0217 -0.20963,-0.70282 -0.54794,0.20478 -0.56246,0.39539 -0.0149,0.23683 -0.078,0.4759 -0.1404,0.53122 -0.0624,0.0554 -0.11174,0.15543 -0.10958,0.22249 0.003,0.0684 -0.0387,0.0979 -0.0933,0.0667 -0.20161,-0.68864 0.11195,-1.28413 0.47581,-1.77864 0.21168,-0.2953 0.37905,-0.612 0.22955,-0.91537 -0.33066,0.24188 -0.52428,0.53869 -0.85953,0.7933 -0.18308,-0.65453 0.007,-1.29627 -0.20914,-1.94822 -0.66629,0.42561 -0.27611,1.14045 -0.48081,1.59824 -0.0555,0.0369 -0.11748,0.0149 -0.14125,-0.0496 -0.13729,-0.37116 -0.8856,-0.67965 -0.87538,-0.36082 0.25785,0.64168 0.95539,1.01375 1.1233,1.72198 0.0319,0.15808 0.0772,0.3688 0.10041,0.46872 -0.59357,0.0689 -0.78098,-1.26158 -1.0887,-0.96202 -0.0532,0.32796 -0.14916,0.2669 -0.39955,0.14957 -0.9624,-0.39532 -1.00085,-0.11582 -0.18626,0.4104 -0.1969,0.16438 -0.41001,0.32782 -0.64119,0.42205 -0.17507,0.006 -0.12096,0.24186 0.0675,0.29498 1.20315,0.0998 1.21233,-0.16539 0.56496,0.45288 -0.2691,0.29412 -0.30215,0.36743 -0.19457,0.43372 0.28538,0.0884 0.61402,-0.0222 0.82911,0.15708 0.23429,0.20127 0.49445,0.12703 0.42124,-0.11999 0.52841,-0.55297 0.53047,0.59923 0.52329,0.7687 -0.0337,0.25262 0.0379,1.40916 -0.28871,1.25033 -0.34674,-0.17134 -1.09159,-0.89386 -1.15537,-1.12117 -0.0977,-0.34789 -0.49281,-0.93591 -0.6262,-0.93161 -0.19109,0.0785 -0.25999,0.2199 -0.36998,0.3883 -0.26852,-0.21927 -0.57902,-0.62759 -0.90828,-0.65829 -0.2295,0.38304 0.12542,0.57115 0.32125,0.93453 -0.23926,0.0822 -0.48683,0.0426 -0.7179,0.15583 0.1531,0.38977 1.02309,0.9767 0.43874,1.00451 -0.12198,0.004 -0.28679,0.0708 -0.36666,0.14792 -0.15219,0.14705 -0.11789,0.37772 0.0554,0.37206 0.20312,-0.006 0.56825,0.19796 0.62246,0.34872 0.0409,0.11397 0.10294,0.13811 0.23624,0.0912 0.36946,-0.12983 0.51877,-0.10829 0.55205,0.0808 -0.0497,0.38775 -1.27953,0.2597 -0.99119,0.60371 0.0622,0.0703 0.23935,0.16937 0.39372,0.21958 0.20648,0.0672 0.27122,0.13196 0.24541,0.2454 -0.0254,0.11177 0.0445,0.18622 0.25372,0.26956 0.16637,0.0663 0.22744,0.11964 0.14333,0.12667 -0.0804,0.006 -0.31218,-0.0626 -0.51498,-0.15291 -0.29745,-0.13251 -0.41315,-0.14503 -0.59912,-0.0671 -0.23664,0.0992 -0.29183,0.22211 -0.13873,0.30998 0.0476,0.0273 0.0873,0.0819 0.0888,0.12124 0.004,0.0911 -0.46515,0.27327 -0.72327,0.28165 -0.37373,0.0695 -0.52318,0.45043 -0.86372,0.58038 -0.3373,0.11924 -0.14235,0.33584 0.46624,0.51747 0.43218,0.12898 0.62322,0.15051 0.74078,0.0825 0.24937,-0.14403 0.32113,-0.11571 0.38998,0.1554 0.043,0.16946 0.11594,0.25134 0.22081,0.24791 0.20429,-0.006 0.65993,-0.41861 0.74871,-0.67704 0.27492,-0.33996 0.40032,0.0565 0.29373,0.34581 -0.0361,0.0985 0.0162,0.12707 0.22039,0.1204 0.27492,-0.009 0.67052,-0.33336 0.66998,-0.54913 -2.2e-4,-0.0606 0.0579,0.0125 0.12873,0.16208 0.16803,0.35469 0.40878,0.34682 0.62746,-0.0204 0.1791,-0.30065 0.23739,-0.26876 0.0829,0.0454 -0.15449,0.31424 -0.33288,0.40293 -0.84618,0.42247 -0.55091,0.0207 -0.69379,0.16845 -0.42872,0.44289 0.14839,0.15364 0.14599,0.16279 -0.0716,0.25374 -0.48736,0.20362 -1.13552,0.0538 -1.63905,-0.37915 -0.19617,-0.16867 -0.29505,-0.12775 -0.28708,0.11832 -0.19229,0.25941 -0.43064,0.0359 -0.59038,0.16791 -0.0301,0.18119 -0.18516,0.2482 -0.24166,0.39456 0.005,0.16965 -0.0707,0.16668 -0.52248,-0.0208 -0.45829,-0.19025 -0.92938,-0.19732 -0.92368,-0.0142 0.004,0.0903 -0.0879,0.1307 -0.31372,0.13874 -0.46517,0.0172 -0.69748,0.10714 -0.69246,0.26915 0.5926,0.23167 0.99469,0.69575 1.11492,0.72621 0.34793,0.0879 0.36355,0.10407 0.24163,0.2479 -0.0717,0.0846 -0.12936,0.17952 -0.12872,0.21082 0.22797,0.0452 0.46441,-0.17123 0.80122,-0.13333 0.18847,-0.0299 0.23977,-0.26654 0.40329,-0.35872 0.0489,-0.002 -0.0475,0.14647 -0.21456,0.32914 -0.38507,0.42085 -0.39396,0.58123 -0.0271,0.49539 0.4566,-0.14039 1.0306,-0.80502 1.0137,-0.12249 0.0316,0.56939 2.01216,-0.25377 2.01861,-0.19374 0.01,0.29588 -0.84321,0.83002 -1.78572,1.11827 -0.59612,0.18233 -0.74957,0.14398 -1.54532,-0.3854 -1.09785,-0.68231 0.306,0.94696 -1.01494,0.24624 -0.33547,-0.17525 -0.47367,-0.2134 -0.47078,-0.12958 0.17768,0.38788 -0.123,0.32593 -0.39709,0.3354 -1.61867,0.0757 0.48419,0.46307 0.3604,0.8187 0.0471,0.60987 1.328,-0.37464 0.89994,0.14498 -0.16933,0.19958 -0.16945,0.27614 -0.003,0.2704 0.21463,0.20077 -0.0766,0.4726 0.37873,0.33082 0.2489,-0.0802 0.265,-0.0717 0.27625,0.1425 0.0936,0.41587 0.50435,0.5899 0.78745,0.48455 0.23038,-0.0784 0.39587,-0.37486 0.52914,-0.20666 0.35838,0.14815 0.51499,-0.0982 0.8866,-0.32206 0.0156,0.33048 0.0524,0.55874 0.30415,0.3579 0.61759,-0.12606 1.09217,0.0686 -0.53999,0.69495 -0.67579,0.57753 -2.06037,-0.11993 -2.38149,-0.0212 -0.0999,0.16921 -0.0665,0.38034 0.082,0.51956 0.043,0.3189 -0.70244,0.0952 -0.98784,-0.0137 -0.48344,-0.18963 -0.73809,-0.14706 -0.59539,0.1 -0.25948,0.23179 -0.71856,0.29999 -1.12535,0.4358 -0.46387,0.15391 0.42679,0.55044 0.65246,0.67662 0.47877,0.16792 0.0711,0.46181 0.46373,0.59331 0.47651,0.10625 -0.13394,0.38233 0.0925,0.51913 0.0346,0.79547 2.3518,-0.61649 2.38195,0.17915 0.005,0.16584 0.0372,0.17133 0.61914,0.0975 0.88116,-0.38588 0.4607,0.49197 -0.29708,0.6987 -0.11446,0.0155 -2.51683,-0.013 -2.63151,-0.06 -0.32709,-0.13638 -0.36454,-0.007 -0.0783,0.27332 0.47802,0.44123 -0.28635,0.17164 -0.63622,0.095 -0.40718,-0.0901 -0.4539,-0.0821 -0.39248,0.0638 -0.18075,0.26163 -0.59211,0.24877 -0.86243,0.47665 -0.18707,0.16181 -0.18813,0.16827 -0.0271,0.34455 2.65239,1.24564 -1.34486,0.97377 -3.04524,-0.34915 -1.09315,-1.0708 2.33579,0.50799 2.06447,-0.63079 0.87629,1.04152 2.1872,0.22014 1.34158,-1.19618 -0.76141,-0.80649 -2.93489,0.11217 -3.90559,-0.99577 -1.22825,0.29493 -1.85073,-1.45293 -0.45415,-0.41289 1.45577,0.8499 0.0918,-1.17709 1.09869,-0.91369 1.15122,0.60286 1.15644,-0.85267 0.72745,-1.73615 -1.00654,0.45988 -1.70792,-1.31267 -0.55704,-0.14583 1.27403,-0.0326 -0.14238,-2.1672 1.09824,-1.59531 1.38584,-0.39022 -1.65386,-0.45791 -2.11401,-0.5708 0.62108,0.0872 0.78259,-0.41719 0.50704,-0.76329 1.37954,-0.59326 -1.60944,-1.38561 -0.27998,-1.50158 1.08952,0.82927 0.86141,-0.069 0.11249,-0.6887 1.38269,0.83289 -0.34313,-0.71677 0.57789,-0.66788 1.59274,-0.63953 -1.47079,0.006 -1.06494,-0.85619 0.7615,-0.22896 -0.36714,-1.70713 0.60412,-1.3895 1.84893,-0.0697 -1.1051,-0.61035 -1.72364,-0.6183 -0.0424,0.1518 0.10211,-0.62576 0.5979,-1.02951 0.52865,-0.4306 -1.07633,-0.65465 -0.93287,-1.02494 1.49919,-0.30382 -0.3644,-1.13657 0.96577,-1.28908 0.90195,-0.36001 -1.30685,-0.48148 -1.4095,-0.83911 -1.52842,-0.36184 0.82066,0.2615 0.2958,-1.03786 0.78934,-0.76377 -0.92612,-0.65955 -0.51163,-0.83453 0.37228,-0.16943 0.638,-0.0723 0.85412,-0.20666 0.1694,-0.10535 0.24484,-0.26457 0.1446,-0.32456 -0.27918,-0.16691 -0.41146,0.007 -0.93079,0.002 -0.84403,-0.009 -2.87998,0.31664 -1.50158,-1.00077 0.39215,-0.15281 0.45516,-0.95502 0.0275,-0.5658 -0.30056,0.2736 -0.0342,-0.7591 -0.41037,-0.25248 -0.50426,1.65303 -0.52999,0.45549 -0.12834,-0.27374 -0.5871,-0.21413 -0.79267,1.22976 -0.84035,-0.30498 0.44897,-0.5801 0.92918,-1.99723 0.006,-0.95202 -0.30247,-0.66479 0.13399,-1.9313 -0.22747,-2.65525 l 0,-8.1e-4 c -0.48671,0.50341 0.0881,1.63562 -0.17833,2.34944 -1.11289,-0.70886 0.35395,1.1083 -0.0208,1.18868 -0.68337,-0.8377 -0.27207,0.59735 0.22998,0.91369 0.26818,1.64228 -0.58285,0.33427 -0.94826,-0.16083 -1.12639,-1.31251 0.15983,1.19036 0.36498,1.7149 -0.92745,0.76958 -2.73991,0.76005 -3.88936,0.96161 -0.31443,0.0551 -0.008,0.37471 0.24041,0.36664 1.13896,-0.21217 0.37745,0.7396 1.11286,0.8862 1.33154,-1.82398 -0.18707,1.40262 0.94202,-0.13374 1.05165,0.72419 -2.00023,0.89937 -1.187,1.35533 -1.18353,0.0934 -0.99531,0.4537 0.07,0.59371 -0.55715,1.2318 0.72912,1.41489 1.2095,1.22993 -0.0982,0.54452 -1.4785,0.33872 -1.84823,1.01285 1.20021,-0.27108 0.0247,1.13154 1.03744,1.10368 1.64523,-0.14612 -0.32872,0.77776 -1.25283,0.81745 -0.83634,-0.0128 -1.70867,0.84269 -0.23832,0.47331 -0.70932,0.73795 0.57196,0.48777 -0.0921,1.01035 -0.66447,0.0867 -3.03612,0.38657 -1.90405,0.55705 -0.46246,0.0285 -0.79564,0.2443 0.005,-0.59205 0.52828,-0.73374 2.45196,-3.44005 0.57703,-2.95231 -0.70145,0.57316 -1.53182,3.49951 -2.29403,2.00195 1.6284,-0.13772 0.54397,-3.43832 -0.56163,-1.26866 -0.94565,0.94729 -0.70583,0.50179 -0.21416,-0.11792 -0.53463,-0.45566 1.71389,-2.30006 -0.11915,-1.79363 -0.74086,1.08235 -1.45278,1.02133 -1.00952,-0.0471 1.35115,-0.66652 0.68152,-1.68602 -0.25039,-1.36117 0.32629,-1.45151 -1.10402,0.40807 -0.93788,-1.34075 -1.25407,-0.68517 -1.05031,0.7177 -2.12401,0.85703 -0.6465,0.31438 0.11992,0.8455 -1.07578,0.44081 -1.50384,1.82364 2.62004,4.02725 -0.22541,2.71066 -0.70173,-0.38143 -1.22322,-0.0926 -1.88113,-0.6637 -0.81787,0.89676 1.37146,1.31325 0.15707,1.89655 0.81132,0.55417 1.63444,0.79818 0.14373,0.61954 -0.4651,0.40787 1.46835,1.68242 0.2854,1.52699 -1.00217,-0.51196 -1.63003,-0.97396 -2.47984,-1.96655 -1.47632,-1.26271 -1.37411,1.29825 -0.19873,1.7824 0.62516,0.90852 1.78317,1.00041 0.58121,1.37116 -0.36524,-1.24624 -2.23862,0.0801 -0.97285,0.36164 -0.3944,0.93898 -1.96158,0.62905 -0.76995,1.78156 1.8655,1.05603 -1.75499,-1.04378 -0.57413,0.58455 1.22699,0.82692 0.22308,1.27869 0.97952,1.8628 0.95649,-0.3667 1.04071,1.2303 0.31915,0.40872 -1.09737,0.69265 -2.35461,-0.15854 -3.54937,-0.29123 -0.85296,0.63646 0.75558,0.93424 -0.0841,1.52367 0.67422,0.6574 3.12181,1.253 3.01605,1.85029 -0.95431,-0.37046 -3.3755,-0.11258 -1.79571,0.85703 -0.0961,0.69205 -0.61065,0.26248 -1.19577,-0.2029 0.29452,-0.48136 0.19099,-1.30134 -0.39123,-1.31367 -0.58085,-0.21391 -1.23172,0.52778 -1.58697,0.97119 -1.16487,-0.46274 0.59715,-2.47917 -0.045,-3.34563 -1.07197,0.0973 0.38475,-1.97713 -1.31034,-1.45283 -1.27177,0.58548 -0.25133,-1.20434 -0.78494,-1.70989 -0.0764,-1.08409 -1.54271,-0.71505 -1.74282,0.0496 0.10674,1.07269 -0.73248,1.37427 -1.06993,2.02112 0.88054,1.14952 -1.28078,-0.11033 -0.94119,1.16452 -0.46943,0.93267 1.83127,1.25333 1.50241,2.21778 -0.36782,-0.2369 -1.47476,-0.59457 -1.73115,0.15291 -0.80788,0.58225 0.63539,1.78641 -0.0492,1.76447 -0.32126,-0.89741 -2.35487,-1.38229 -1.97322,-0.45622 -0.90153,0.47978 0.0717,1.47735 0.80452,1.79573 -0.88161,-0.0555 -0.90659,0.90694 -0.75161,1.48491 0.2345,0.22655 -0.35523,0.5543 -0.73746,0.40663 0.16446,-0.34837 -2.12583,1.93037 -2.84065,2.86067 -0.52609,-0.41492 -0.79176,-0.002 -0.92453,-0.80953 -0.0158,-0.14559 -0.11039,-0.18237 -0.19499,-0.23124 -1.19552,-0.69138 -0.70688,-1.69769 0.55038,-0.75079 1.36081,0.6403 -1.03341,-1.62464 0.57829,-0.30831 0.83141,0.86362 0.89076,0.44884 0.65582,-0.23708 1.34613,0.62333 0.88058,0.22798 0.89118,-0.15165 1.91947,-0.55671 -2.10737,-0.33412 -2.00404,-0.99661 0.95264,0.19402 1.58035,0.0809 0.84953,-0.40622 0.99712,-0.27739 1.72094,-0.91513 0.0683,-0.79161 -1.04263,-0.43989 -1.8885,1.07057 -1.77365,-0.45206 -0.84793,-0.0859 -1.32006,0.6906 -1.78321,-0.0591 -0.46748,0.10393 -0.99553,-0.26166 -1.5195,0.006 -0.468,-0.96539 -0.32474,1.06789 -0.94619,-0.0221 -0.87533,-1.77491 0.13706,-0.93079 0.21831,-0.86786 0.79825,0.33453 4.0949,0.20159 1.74281,-0.63746 -1.70016,-1.06478 3.34906,1.20152 1.46242,-0.34706 0.86559,0.32382 1.8918,0.80186 1.68116,0.40789 -0.13988,-0.26153 -0.26271,-0.19566 0.21581,-0.12499 1.6144,0.44649 0.57517,-0.35059 -0.26625,-0.69913 1.16254,-0.57048 -2.09204,-0.35623 -0.39954,-0.74246 0.32443,-0.0814 -0.41272,-0.28558 0.10456,-0.34289 0.47137,-0.0523 0.92299,-0.49208 -0.50162,-0.62746 -0.88948,-0.15763 -0.63147,0.18244 -1.40409,-0.42956 -1.06513,-0.84372 0.5487,-0.1328 1.51783,-0.31623 0.38906,-0.0736 -0.3012,-0.34322 0.19498,-0.48456 0.74812,-0.30074 0.51048,-0.74535 1.28035,-0.97035 0.2829,-0.0827 0.18849,-0.25437 0.0654,-0.33498 -1.21243,-0.18719 -4.18485,1.19659 -3.36771,0.45747 0.20984,-0.18977 0.35834,-0.62892 0.0487,-0.46706 -0.72747,0.36145 -1.58079,0.4928 -3.12313,0.42081 -0.5114,-0.04 0.49093,-1.31593 0.82411,-0.86578 0.84526,0.47524 1.04489,0.13104 0.93285,-0.37123 1.10392,0.41048 2.45847,-0.12823 0.56246,-0.50663 -0.475,-0.41137 3.61222,-0.60759 1.37826,-0.99535 -0.88005,-0.2633 -2.32851,0.63404 -1.51824,-0.5029 -1.43054,-0.70737 -1.38952,1.05696 -2.54318,-0.0509 -0.7068,0.98586 -0.59913,-0.26206 -0.59913,-0.26206 0.11133,-1.05194 1.88848,-0.13744 1.67157,-0.7287 -0.34892,-0.46601 3.8712,-0.3192 1.4345,-0.92953 -0.6097,-0.86595 -2.31898,0.0253 -2.55609,-0.44248 0.9689,-0.96422 -1.24354,-0.8106 0.29538,-1.21951 0.78241,-0.66722 0.53439,-0.67856 -0.54497,-0.60162 -1.18096,-1.01376 0.65838,-0.30946 1.1341,-0.73037 0.42067,-0.0804 0.54924,-0.4498 0.28749,-0.45373 -0.37965,-0.006 -1.70817,0.11954 -1.84989,-0.14041 -0.0256,-0.047 0.85604,-0.39373 0.45164,-0.51871 -1.18557,-0.34188 -1.43908,0.36245 -1.82948,-1.45741 -0.17421,-0.99735 -0.19315,-2.22147 -0.52662,-1.61448 l 5.3e-4,5.3e-4 c -0.5322,1.08169 -0.15797,3.30597 -0.73495,2.48776 -0.024,-0.0306 -0.1164,-0.10689 -0.17582,-0.18124 -0.26695,-0.33392 -0.51841,-0.1027 -0.51914,0.0429 -0.004,0.45907 0.66712,1.06112 0.40207,1.09202 -0.5089,0.0593 -1.65933,-0.56784 -2.62693,-0.42165 -1.51511,0.25938 0.94251,0.45336 1.37076,0.81454 0.17079,0.14406 -0.26624,0.35251 -0.9712,0.54455 -0.6977,0.91303 2.1216,-0.98288 1.85656,0.48164 -0.24487,0.42777 -2.3961,-0.19297 -2.26154,0.1604 0.0314,0.0825 0.73898,0.28645 1.07285,0.5008 0.14057,0.14594 -0.37722,0.2953 -0.27373,0.43873 0.11978,0.16627 0.33313,0.23233 0.91495,-0.0271 -0.42329,1.20302 1.51414,-0.35304 1.20326,1.12701 -0.16676,1.29244 -2.37823,-1.29727 -2.32818,0.15541 1.46109,1.15212 -2.7261,-0.52452 -2.92234,0.38748 0.11321,0.59077 2.28752,0.021 0.95203,0.78704 -1.30524,0.44295 2.33109,0.19953 0.16624,1.12367 0.0774,1.05081 2.0158,0.95328 0.0437,1.16535 -1.16064,-0.0934 -4.30403,1.0961 -1.87364,0.96452 0.62052,-0.48096 1.51945,-0.46085 0.94035,0.31873 -0.085,0.1057 0.11914,0.11 0.19751,0.12208 0.67405,0.10423 1.02917,1.41029 -0.31291,0.62662 -0.73704,0.33137 0.72203,0.94997 -0.69037,1.06827 -0.51911,0.20983 -2.12213,0.50818 -0.63746,0.69454 -1.0087,0.26994 -2.84984,0.97227 -0.65456,0.70288 1.72903,-0.14246 -1.41283,1.345 0.24375,1.37325 -1.08948,0.0936 -2.75712,1.06016 -0.7537,0.64996 0.46528,0.24021 -0.66655,1.19454 0.48496,0.36956 0.17657,0.3191 1.33732,-0.2829 2.15112,-0.33831 -1.24469,1.31884 2.88084,-0.6586 1.54491,1.18535 0.86302,0.32518 0.1823,0.27033 0.51245,1.00868 0.20754,0.83995 -1.56538,-1.29847 -1.98693,-0.17916 -0.62947,0.0542 -1.26527,0.3667 -0.81829,0.90703 -0.50854,0.87615 -2.34079,0.40738 -3.27564,0.93703 1.20123,-0.01 -0.914,1.29154 0.59704,0.66371 1.59135,-0.83301 -0.91845,2.14288 0.86037,0.55079 0.61472,-0.56677 1.7698,-0.96235 0.46581,-0.0163 -0.72007,0.43153 -1.89564,1.77426 -0.16376,0.89411 1.69897,-1.57625 0.60285,2.22681 -0.58495,1.11411 -0.74956,-0.45468 -0.44485,0.21084 0.0975,0.62828 0.15399,0.11853 -0.62408,0.11872 -0.56747,0.44706 0.50999,0.24706 0.67291,0.10127 -0.15041,0.729107 -0.29056,0.7768 1.85548,-0.531347 0.78788,0.79206 -0.13318,0.30246 0.31325,-0.15289 0.38623,-0.0921 0.20747,0.17279 0.0884,0.84816 0.69079,0.007 1.71442,-1.330797 0.45883,1.29832 -0.36664,0.66286 -0.55372,0.63225 -1.70023,-0.13403 -2.48235,-0.44164 -0.53337,-0.15698 0.0753,-0.4924 0.30623,-0.56121 1.00367,-0.798647 0.20951,-0.893847 -0.40457,-0.65872 -0.30462,0.11757 -0.5592,0.16987 -0.70868,0.145 -1.11229,0.14724 2.00225,-0.766707 0.53204,-0.923687 -1.06405,0.21467 -0.94913,-0.34144 -1.63156,0.29914 -0.59538,0.859857 -2.38617,-1.59167 0.0121,-0.77288 0.79153,0.277 0.41588,-0.25835 0.6308,-0.17705 0.37288,0.0294 1.05286,0.19804 1.29201,-0.09 0.5624,-0.26583 0.66936,-0.56573 0.0492,-0.74328 -0.36401,-0.10277 -0.3666,-0.10541 -0.25331,-0.29123 0.16147,-0.26482 0.099,-0.59139 -0.11748,-0.61497 0,0 -1.60371,0.96989 -2.17071,-0.4208 0,0 -0.38628,-0.45697 0.35164,-0.48665 0.32772,-0.0127 0.4025,-0.24718 0.59705,-0.15457 0.59665,0.35935 0.50076,-0.0258 0.55121,-0.26415 0.0839,0.0482 0.70402,-0.23751 0.80245,-0.36956 0.24737,-0.6362 -0.3556,-0.67101 -0.65454,-0.58955 -1.41305,0.2664 -0.0545,-0.60462 -0.21581,-1.02534 -0.0879,-0.21024 -0.32143,-0.24035 -0.58373,-0.0753 -1.82392,1.12775 -0.0341,-0.37594 -0.15916,-1.25035 -0.0399,-0.22868 -0.49516,0.0357 -0.66494,0.27831 0.0185,-0.30814 -0.0788,-1.1305 -0.61289,-0.5058 0.007,0.26039 -0.81034,1.03054 -0.91452,0.93911 -0.14295,-0.13395 -0.50393,-0.0948 -0.65955,0.0713 -0.79096,-0.2373 0.5235,-0.48809 0.48872,-0.7487 -0.0559,-0.66464 0.80456,-0.33308 0.7333,-0.73537 -0.0362,-0.20097 -0.015,-0.23812 0.15499,-0.2779 0.36271,-0.0849 0.68382,-0.44115 0.71995,-0.79787 0.0572,-0.44001 -0.26676,-0.34609 -0.56538,-0.22457 -0.60692,0.18727 -0.15927,-0.15679 -0.21123,-0.4029 -0.0355,-0.15772 0.0158,-0.2689 0.24288,-0.52371 0.23065,-0.25873 0.28195,-0.37141 0.25707,-0.56289 -0.0426,-0.3273 -0.35976,-0.36178 -0.65369,-0.0708 -0.13618,0.12397 -0.81808,0.76377 -0.72829,0.33291 0.0841,-0.38821 -0.30702,-0.54718 -0.59372,-0.24124 -0.45053,0.39944 0.23458,-0.40716 0.2629,-0.43956 0.51698,-0.58861 0.60915,-0.80111 0.46873,-1.08452 -0.50867,-0.52553 -1.12004,0.97236 -1.01035,0.45789 0.0451,-0.21038 0.28337,-0.60713 0.44789,-0.7462 0.57694,-0.68281 -0.161,-0.97315 -0.61955,-0.46831 -0.81365,0.77612 0.37292,-0.51369 0.51621,-0.62329 0.40279,-0.19555 0.61353,-0.82566 0.16874,-0.76037 -0.4722,0.10051 -0.14563,-0.53766 -0.50789,-0.53163 -0.27498,0.009 -0.36683,0.12544 -0.41831,0.53121 -0.0847,0.42382 -0.2318,0.48788 -0.13249,0.0829 0.10585,-0.34994 0.13838,-0.74699 0.30791,-1.06743 0.18881,-0.13594 0.35588,-1.01693 0.22915,-1.20785 -0.0914,-0.13767 -0.31151,-0.10421 -0.53164,0.0808 -0.29334,0.2427 -0.11251,-0.078 -0.0179,-0.23332 0.18827,-0.25097 0.40461,-0.83632 0.37413,-1.01119 -0.27151,-0.50132 -0.57672,0.10246 -0.73993,0.33415 -0.0211,0.002 -0.0501,-0.67525 -0.0638,-1.50407 -0.0308,-1.852 -0.0572,-2.00189 -0.34997,-1.99238 -0.69998,0.4945 -0.37641,1.18704 -0.35706,2.1132 l -0.23623,-0.0196 c -0.68131,0.0826 -0.20081,0.78179 -0.0817,1.13452 1.3279,2.2225 -0.63777,0.50552 -0.64205,1.05535 0.004,0.0903 -0.0775,0.25968 -0.17875,0.37622 -0.47214,0.21676 0.28393,1.02415 0.17333,0.93703 -0.0877,-0.0706 -0.22835,-0.12646 -0.3129,-0.12374 -0.18528,0.006 -0.39893,0.23959 -0.39247,0.42956 0.005,0.14835 0.27445,0.59 0.5008,0.82078 0.45414,0.57189 -0.85826,-0.65309 -1.02577,0.1304 0.0312,0.46201 1.34952,1.40082 1.0341,1.51659 -0.17895,0.005 -0.28659,0.40924 -0.17125,0.64204 0.14809,0.23805 0.38185,0.41087 0.47249,0.68579 -0.2782,0.0709 -1.0227,0.3214 -0.95619,0.7262 1.52474,1.05176 -0.66984,0.4115 -1.37201,0.35998 -0.37926,0.0472 -0.27358,0.4466 -0.11791,0.5833 0.28984,0.25162 1.08177,0.81286 1.2895,0.91411 0.63527,0.80081 -0.58,0.33951 -0.6862,0.35206 -0.54032,0.17219 -0.19602,0.66222 -0.0146,0.81369 0.93187,0.64747 -0.64039,-0.083 -0.40373,0.73789 0.35671,0.41091 0.85819,1.02211 0.21123,0.8187 -0.24227,-0.47733 -0.72118,-0.82823 -0.81285,-1.33826 -0.55438,0.15244 -1.03265,0.9902 -0.45124,0.003 1.05214,-0.97042 -0.51381,-1.58773 -0.85494,-0.91078 0.12995,-0.79158 -0.30113,-2.48328 -0.89745,-1.42407 0.33923,0.76786 -0.76848,0.28207 -1.13535,0.38913 -1.2696,-0.29173 -0.38721,1.26831 0.14,1.6345 0.72783,0.84883 -1.3613,-1.14522 -0.99119,0.47872 0.28425,0.61575 1.33507,1.50948 0.11833,1.45657 0.0182,0.47335 -0.6703,0.65289 -0.28832,1.15285 -0.32376,0.38472 -1.0214,-0.0299 -1.14577,0.73828 -0.14715,1.15894 -3.01022,2.38683 -6.49376,3.43437 0.62253,-0.52005 1.10369,-1.36467 0.0171,-1.17784 -0.55029,0.3532 -1.31384,-0.0233 -1.75657,0.53664 -0.80114,0.29248 -1.78218,0.075 -2.64441,0.13498 -1.45247,0.24886 0.25809,-1.11939 0.82493,-0.83036 0.81228,-0.83494 1.98868,-1.02475 2.97942,-1.35159 -0.65011,-0.2253 -0.40383,-1.29579 0.36413,-1.36532 0.17685,-1.23396 -1.17409,-0.20266 -1.80697,-0.67497 -0.7873,-0.49515 0.26142,-0.43476 -0.0729,-0.92827 -1.43493,-0.0553 -0.1261,-0.94921 0.39375,-1.4674 -0.51807,-0.6654 0.11826,-0.76813 0.42997,-1.30826 1.15779,-0.91606 -0.26203,-0.95695 -0.91744,-0.78412 -1.56196,0.44379 0.47197,-1.19591 0.27456,-1.61115 0.52095,-0.11973 0.65133,-0.91018 1.21535,-1.20368 0.49606,-0.99571 -0.97815,0.32662 -1.28993,-0.12958 -0.3955,0.15129 -1.50649,1.11774 -0.89201,0.075 1.03056,-0.55618 -0.61017,-0.79331 0.12456,-1.05659 0.58621,-0.87984 0.47857,-1.66457 0.61328,-1.9978 -0.7182,0.16738 -1.08613,0.25793 -1.50863,0.9891 -0.60895,1.16622 -0.0464,-0.90969 -1.02203,-0.54496 -0.85412,0.71422 -1.25221,-1.36848 0.002,-1.322 0.067,-0.4918 1.6303,-0.89617 0.69413,-1.22576 -0.61441,0.76479 -1.27994,-0.5668 -1.70407,0.13457 -0.64687,0.2363 0.006,-0.73782 -0.30372,-0.96578 -1.02296,-0.15265 0.71135,-1.36428 -0.36374,-1.24534 -1.46676,0.83936 1.10327,-1.17489 -0.38705,-0.77411 0.23393,-0.39443 0.28496,-1.47436 -0.46164,-0.62163 -0.91128,1.08386 -0.24099,-0.52706 -0.57872,-0.98285 -0.0716,-1.14944 -0.37288,0.44263 -0.46289,0.40706 -1.25849,-0.75023 0.38811,2.34177 -1.03743,1.01993 -1.21695,-0.24024 0.26535,0.42188 -0.0562,0.80079 0.33543,0.33978 0.67928,0.96475 -0.0429,0.38205 -1.01909,0.17197 1.31879,1.56936 -0.12999,1.15951 -0.74836,0.60561 -1.32088,-0.64429 -1.89864,-0.24165 0.50918,0.50758 1.14192,1.77308 0.0459,1.90739 0.19841,0.88777 2.19936,1.63973 0.93202,2.32944 -0.7485,0.49995 -0.69015,-0.0742 -0.9512,-0.41373 -0.14815,-1.02033 -0.84726,-0.0672 -1.35908,-0.54497 -0.5433,-0.62685 -1.4739,0.004 -0.41164,0.38832 -1.1e-4,0.36666 0.0399,1.06264 0.86912,0.94744 1.07544,0.65846 -0.519,-0.0592 -0.91245,-0.045 -0.47265,0.0691 -0.43511,0.16724 -0.25791,0.27873 -0.47527,-0.0438 -0.96298,-0.0758 -1.21991,-0.0925 -0.76653,-0.52648 0.65833,-0.34311 -0.17332,-1.10285 1.64108,0.30065 0.62253,-0.5763 -0.29498,-0.50247 -1.01769,0.0224 -3.25206,-0.85129 -1.43492,-0.80828 1.114,-0.0419 -0.27661,-1.49816 1.06078,-1.28617 -0.45416,-0.71391 -1.95519,-0.38898 -2.10197,-0.97994 0.54076,0.16882 1.94055,-0.12444 1.24075,-1.43741 1.15995,-0.22981 1.34053,-0.63859 0.0341,-0.65663 0.86051,-0.55879 -2.50351,-0.53371 -1.40034,-1.40408 1.34964,1.60656 -0.54837,-1.82797 1.04411,0.08 0.79714,-0.21351 -0.10676,-1.20497 1.1591,-1.05327 0.27356,-0.009 0.58715,-0.38148 0.2379,-0.41956 -1.27671,-0.13927 -3.26756,5.3e-4 -4.34099,-0.77828 0.18785,-0.59069 1.42238,-3.43084 0.27915,-1.90905 -0.36597,0.56979 -1.20762,2.06681 -1.03035,0.24415 0.52876,-0.38323 0.87815,-1.98866 0.18748,-1.01994 -0.41721,-0.0615 1.06449,-2.16199 -0.10706,-1.30409 -0.34364,-0.76487 0.20712,-2.04927 -0.36332,-2.56734 -0.34524,0.82083 0.22383,2.18067 -0.0608,2.93232 -1.08781,-1.08194 -0.45999,0.44034 0.0742,1.04535 0.057,1.68884 -0.27134,0.11708 -0.90076,0.39415 0.49313,0.77214 0.55052,2.08972 -0.12124,0.31039 -0.44915,-0.5295 -0.0832,0.58565 -0.43289,0.30665 -0.49739,-0.3969 -0.37046,0.47889 0.0713,0.61871 1.60778,1.34833 -0.65114,1.13678 -1.57739,1.2066 -0.56995,0.0432 -0.72738,-0.13867 -1.02202,0.0646 -0.10587,0.073 -0.0119,0.24262 0.18164,0.34622 0.24693,0.13212 0.53195,0.006 0.95286,0.16541 0.46771,0.16257 -1.42381,0.17087 -0.50245,0.95327 -0.48362,1.46439 2.05177,0.61178 0.39914,1.11827 -0.0872,0.40008 -2.50442,0.69231 -1.48825,1.02327 1.47163,0.0725 -0.51521,1.11956 1.15285,1.34617 0.18397,0.3964 -1.56213,0.7573 -0.95077,1.19243 0.57321,0.40799 0.78703,1.2515 0.72954,1.08785 -0.67871,0.0529 -3.88408,0.85751 -1.84865,0.80203 1.04393,-0.41816 -0.0901,1.28575 0.76246,1.48282 0.50723,0.91757 -2.90346,0.42758 -1.10869,1.01619 1.00796,-0.11946 -0.7761,1.70584 0.68288,0.69246 -0.77817,0.734 -0.96438,1.73676 0.17289,0.74828 1.46828,0.0324 -1.75769,1.11565 -0.20039,1.66865 -0.27786,0.39977 -0.0647,0.94212 0.61121,0.80205 -0.49725,0.15682 -3.83042,0.44829 -2.2807,0.77785 1.32178,-0.71659 -0.0819,1.72843 1.31952,1.67324 1.18051,-1.36356 0.53697,0.63272 -0.60122,0.19957 -0.40802,1.00085 -0.29795,2.59913 0.92327,1.85489 1.08699,-0.36116 -0.26678,1.96263 1.27118,0.92536 1.45943,-1.24186 0.90072,0.72158 -0.46914,0.48538 -0.98686,1.28604 -3.43911,0.43282 -4.21767,1.37283 -0.0517,0.10082 -0.0941,0.19865 -0.12832,0.2929 -0.15283,-0.1026 -0.23862,-0.33745 -0.17998,-0.81078 l 0.04,-0.34873 c 0.24581,0.11882 0.52014,0.25345 0.78995,0.24915 0.24591,-0.008 0.24965,-0.0167 0.18083,-0.47122 -0.0591,-0.39089 -0.0437,-0.47898 0.1,-0.56205 0.22019,-0.18203 0.0599,-0.43017 0.16833,-0.65871 0.17345,-0.35103 0.0148,-0.32541 -0.42332,0.0687 -0.69591,0.62594 -1.3282,1.10402 -1.88321,1.42367 -0.33888,0.19513 -0.52481,0.36232 -0.52123,0.46913 0.01,0.30814 -1.31571,0.4775 -1.53573,0.19623 -0.55839,0.0657 -0.51338,-0.12053 0.12458,-0.34247 0.46802,-0.2178 0.9935,-0.36604 1.43698,-0.61663 0.19959,-0.11454 0.38733,-0.53449 0.53998,-0.57455 0.52738,-0.32895 0.49655,-0.69901 0.0204,-0.72495 -0.65643,-0.085 -2.80918,1.09035 -2.76733,0.42122 0.0155,-0.24076 0.0933,-0.34214 0.40788,-0.52871 0.40796,-0.24194 0.48469,-0.43304 0.22748,-0.56622 -0.12415,-0.0643 -0.13403,-0.11752 -0.0529,-0.28165 0.19308,-0.39077 0.89738,-0.42313 1.09702,-0.0504 0.18824,0.35145 1.05468,0.59799 1.2016,0.34207 0.25579,-0.0722 0.50328,0.0981 0.71952,-0.009 0.15682,-0.16734 -0.12675,-0.42577 -0.66954,-0.61038 -0.57531,-0.23428 -1.95603,-0.72153 -1.99029,-1.03119 0.16836,0.12379 2.51618,-0.067 2.55775,-0.2079 0.0173,-0.059 -0.16237,-0.14758 -0.40495,-0.20042 -0.8033,-0.17476 -1.10886,-0.5189 -1.03536,-1.16492 0.0462,-0.40565 -0.18117,-0.40044 -0.56665,0.0133 -0.24078,0.25865 -0.37075,0.31647 -0.82079,0.36456 -0.73591,0.09 -0.6049,-0.49049 -0.93784,-1.16492 l 0.22789,-0.007 c 0.17427,-0.005 0.22692,-0.0574 0.22332,-0.21749 -0.007,-0.27379 0.0946,-0.43751 0.36165,-0.58163 0.22186,-0.11975 0.43067,-0.57914 0.31331,-0.68913 -0.0952,-0.0892 -0.78297,0.26926 -1.25533,0.65413 -0.49659,0.37988 -0.84912,0.38288 -1.43283,0.4479 0.1887,-0.20377 0.38483,-0.42647 0.49164,-0.67247 -0.002,-0.0608 0.21938,-0.24585 0.49204,-0.41163 0.5564,-0.33828 0.73528,-0.52495 0.64039,-0.66788 0.11232,-0.65148 0.80936,-1.18622 0.8237,-1.89698 -0.005,-0.14563 -0.18665,-0.10046 -0.47208,0.11709 -0.1454,0.11083 -0.26198,0.27769 -0.25913,0.37122 -0.19727,0.40322 -0.86673,0.42287 -1.04285,0.0779 -0.0939,-0.18937 -0.16097,-0.22244 -0.34455,-0.17 -0.22441,0.0642 -0.22327,0.0606 0.0512,-0.27332 0.49306,-0.59978 0.46875,-1.33747 -0.0466,-1.42324 -0.42986,-0.0522 -0.52462,-0.65695 -0.90578,-0.65287 -0.41339,-0.2481 0.44016,-0.46692 0.48453,-0.88203 -0.14225,-0.64393 -0.79103,0.50416 -0.82535,-0.085 -0.1419,-0.44327 -0.54659,-1.70707 -0.69621,-1.49116 -0.11979,0.35594 -0.0369,0.77328 -0.11209,1.36158 -0.0753,0.30756 -1.07643,0.32383 0.30207,0.72287 0.20459,0.11076 0.29857,0.47674 0.13957,0.54372 -0.7012,-0.0703 -2.48821,-1.40744 -2.59191,-0.88328 -0.0162,0.10209 0.0916,0.21335 0.30622,0.3154 0.37679,0.29639 0.69329,0.61497 1.04535,0.81828 0.1644,0.12766 0.30997,0.48992 0.42456,1.05785 0.0507,0.39056 0.91862,1.11808 0.54912,1.05078 -0.12902,-0.024 -0.44692,-0.12238 -0.70659,-0.21874 -0.55497,-0.17832 -1.13193,-0.40619 -1.57283,-0.72829 -0.53798,-0.39756 -0.75036,-0.42893 -0.73994,-0.10958 -0.0939,0.43041 1.52067,1.43984 1.54947,1.73282 0.006,0.19725 -0.18083,0.18077 -0.76286,-0.0675 -0.52489,-0.22392 -0.9279,-0.27229 -0.92286,-0.11083 0.0907,0.12653 0.33358,0.0664 0.21166,0.19874 -0.28638,0.30556 0.019,0.62575 0.70702,0.74037 l 0.55331,0.0921 c 0.04,0.84075 -0.96814,1.08368 0.9516,1.18076 0.45477,1.01787 -1.47244,-0.0432 -2.01863,-0.25749 -0.35565,-0.14198 -0.57074,-0.0732 -0.59913,-0.0429 -0.16246,0.17335 0.86775,1.33203 1.3845,1.55699 0.38208,0.16633 1.09651,0.8691 1.10368,1.08535 0.0129,0.39509 -1.84492,-0.26545 -2.76524,-0.98327 -0.53744,-0.41919 -0.78627,-0.50884 -0.96785,-0.3479 -0.17015,0.15102 -0.16397,0.28113 0.0133,0.2754 0.53287,0.2965 0.56303,1.70793 1.11993,1.86363 0.45057,0.0571 0.82337,0.32413 0.91827,0.65788 0.52275,0.54426 0.47402,0.86509 -0.93703,-0.23582 -0.80661,-0.69441 -1.28694,-1.06654 -1.37199,-1.06368 -0.12669,0.42895 0.0196,0.959 0.22873,1.29867 0.47261,0.75421 0.49329,1.19699 0.0563,1.21117 -0.33871,0.0111 -0.22743,0.20421 0.2454,0.42664 0.60445,0.36022 1.2165,0.8603 1.76405,0.92703 0.50885,0.0599 -0.066,0.5647 -0.65745,0.57746 -0.93784,0.02 -1.22905,-0.0461 -1.65865,-0.3754 -0.37835,-0.30637 -0.96899,-0.44557 -1.17702,-0.84202 -0.22347,-0.43814 -0.50695,-0.47377 -0.75829,-0.0954 -0.18627,0.31658 0.10992,1.11846 0.16584,1.16119 0.25827,0.18645 0.29417,0.46013 0.37996,0.71745 -0.44549,-0.0473 -0.92644,-0.0347 -1.1191,-0.37873 -0.14147,-0.26309 -0.24026,-0.28207 -2.08529,-0.43748 -0.35699,-0.0301 -0.67534,-0.094 -0.70702,-0.14165 -0.21898,-0.11493 -0.4734,-0.1321 -0.66996,-0.2729 -0.14522,-0.10618 -0.36831,-0.19034 -0.49581,-0.18748 -0.56299,-0.26825 0.50761,-1.03481 -0.40455,-1.02369 -0.83293,-0.11395 0.2693,-0.36035 0.86536,0.12999 0.55778,0.46391 0.68075,0.51512 0.78704,0.32997 0.40783,0.0782 0.48036,-0.41991 0.71454,-0.43038 0.17577,-0.005 0.25986,-0.0824 0.30123,-0.27332 0.0499,-0.23045 0.0971,-0.25721 0.36038,-0.20832 0.65699,-0.0242 0.58192,-0.5759 1.03994,-0.80037 0.63028,-0.30363 0.57458,-0.44156 -0.16831,-0.41747 -0.48066,0.0156 -0.61972,-0.014 -0.6233,-0.13416 -0.006,-0.19685 -0.4535,-0.19208 -0.60787,0.007 -0.0622,0.0802 -0.25168,0.17826 -0.42123,0.2179 -0.45962,0.22387 -2.05012,-0.41814 -1.13828,-0.38998 0.37284,0.0124 0.45625,-0.0201 0.49955,-0.19332 0.23609,-0.3938 0.86071,-0.0916 0.89913,-0.51914 0.0592,-0.46747 0.62808,-0.17927 0.61912,-0.56496 -0.006,-0.18906 0.0892,-0.32281 0.3454,-0.48539 0.40988,-0.26012 0.43354,-0.36002 0.1225,-0.51371 -0.40758,-0.14278 -1.36621,0.30161 -1.26869,-0.21957 0.0441,-0.20367 0.0139,-0.24739 -0.16414,-0.24165 -0.462,0.0696 -0.81128,0.43027 -1.28325,0.45372 -2.84937,0.0337 -1.29473,-1.10754 -0.2275,-2.40069 0.14959,0.21518 0.52021,0.60387 0.51663,0.23749 -0.006,-0.20409 0.17906,-0.32581 0.51289,-0.33665 0.10866,-0.004 0.19576,-0.0758 0.1929,-0.16082 0.20861,-0.31777 1.00495,-0.13703 0.86163,-0.58246 -0.0563,-0.15955 -0.0332,-0.21813 0.0888,-0.22207 0.28999,-0.009 1.13774,-0.40762 1.13201,-0.57956 -0.005,-0.14014 -0.25779,-0.18577 -0.71328,-0.11124 -1.26279,0.24252 -0.76241,0.29161 -1.00453,-0.46539 -0.0555,-0.0318 -0.33919,0.11385 -0.63079,0.32415 -0.40362,0.29106 -0.55114,0.35095 -0.61871,0.25165 -0.15561,-0.22855 -0.11007,-0.44759 0.1479,-0.70621 0.31904,-0.31985 0.21363,-0.41499 -0.51871,-0.46663 -0.47283,-0.0334 -0.62198,-0.005 -0.7808,0.14874 -0.18785,0.1814 -0.19981,0.18199 -0.27247,0.01 -0.1274,-0.30227 0.0882,-0.52094 0.50206,-0.50913 0.3095,0.009 0.37153,-0.0239 0.36581,-0.1925 0.0672,-0.361 0.66432,-0.11264 0.57496,-0.42789 -0.0518,-0.17469 -0.0102,-0.20562 0.2904,-0.2154 0.74261,-0.10709 -0.0999,-0.50993 0.3133,-0.52622 0.15299,-0.005 0.22471,-0.0698 0.2204,-0.2004 -0.0109,-0.33505 -0.25231,-0.42706 -0.87493,-0.33331 -0.52838,0.0796 -0.57756,0.0701 -0.58331,-0.11583 -0.2516,-0.59713 -0.93895,0.10592 -1.442,0.0463 -7.9e-4,-0.0247 0.0445,-0.1364 0.10001,-0.24874 0.17409,-0.35232 -0.12823,-0.32781 -0.94451,0.0767 -0.72052,0.45568 -0.83381,0.31355 -1.49409,0.0238 -0.98601,-0.0848 -2.59892,-2.20073 -1.63407,-1.30825 0.32701,0.30641 0.52644,0.40378 0.91702,0.44747 0.40753,0.13504 1.00168,0.0936 1.23743,0.36498 0.25009,0.29358 0.62116,0.28798 0.49663,-0.008 -0.0575,-0.13673 -0.03,-0.13741 0.24707,-0.01 0.34005,0.15606 0.64367,0.0883 0.63623,-0.14166 -0.54461,-0.55395 -0.51436,-0.66179 0.0271,-0.40914 0.66438,0.30543 0.53751,0.31003 1.03451,-0.24499 0.26369,-0.21794 -0.48202,-0.78708 -0.008,-0.5383 0.25673,0.26996 0.82114,0.49119 1.02868,0.40372 0.23742,-0.10007 0.17972,-0.41627 -0.11541,-0.63329 -0.39789,-0.24936 -0.16277,-0.18673 0.17498,-0.16707 0.60406,0.0351 1.44698,-0.3007 1.47868,-0.58914 -0.18624,-0.67861 -1.65185,-0.10814 -1.44327,-0.6112 0.0959,-0.16698 -0.0624,-0.4111 -0.26246,-0.40457 -0.0668,0.002 -0.39128,0.18989 -0.72122,0.41748 -0.61583,0.42481 -1.45147,0.83292 -1.53865,0.75121 -0.0269,-0.0252 0.046,-0.1004 0.16208,-0.16749 0.27087,-0.15649 0.27108,-0.52918 5.3e-4,-0.52039 -0.84178,0.37652 -1.7121,0.77577 -2.3811,0.79787 -1.19847,0.0368 -1.34891,-0.0104 -1.28367,-0.40248 0.0709,-0.42602 0.11293,-0.44995 0.33707,-0.19082 0.29206,0.27142 0.91207,0.33085 0.89786,-0.0404 -0.0103,-0.22819 0.018,-0.25926 0.1675,-0.18541 0.24286,0.12003 0.57891,0.10081 0.65829,-0.0375 0.0356,-0.0621 -0.0444,-0.22174 -0.17792,-0.35497 -0.47551,-0.29763 0.008,-0.29726 0.20834,-0.15416 0.005,0.16709 0.53781,0.10026 0.73743,-0.0925 0.15187,-0.14673 0.24695,-0.16027 0.54707,-0.0788 0.30257,0.0822 0.40015,0.0671 0.58079,-0.0892 0.31569,-0.60301 -0.38962,-0.62018 -0.84828,-0.71996 l 0.31164,-0.44956 c 0.0941,-0.48367 0.85992,-0.34606 0.87037,-0.71329 -1.01071,-0.0779 0.0935,-1.2056 -0.0463,-1.38158 -0.15563,-0.1756 -0.39634,-0.0788 -1.25325,0.50205 -0.69251,0.46948 -0.92419,0.53559 -1.02577,0.29457 -0.0354,-0.0839 -0.15392,-0.14942 -0.26333,-0.14583 -0.1669,0.006 -0.14429,-0.0516 0.14,-0.35497 0.31327,-0.33428 0.41941,-0.67184 0.25915,-0.82204 -0.34271,0.0374 -0.57091,0.23122 -0.89911,0.36831 -0.13351,-0.97143 0.14787,-0.47773 0.68453,-0.56913 0.88623,-0.42809 -0.75659,-0.14375 0.12374,-1.40366 0.61697,-0.87914 0.43057,-1.34233 -0.31705,-0.78745 -0.47098,0.3495 -0.52144,0.35203 -0.53205,0.0263 -0.25433,-0.85272 -0.66449,0.24828 -0.68204,0.47955 -0.0181,0.28732 -0.0955,0.5774 -0.17123,0.64454 -0.0757,0.0672 -0.13538,0.18903 -0.1325,0.2704 0.003,0.0831 -0.0471,0.11803 -0.11334,0.08 -0.24459,-0.83551 0.13602,-1.55738 0.57746,-2.15737 0.58143,-0.86138 -0.38201,-0.43508 -0.76411,-0.14874 -0.22235,-0.79412 -0.0704,-2.86336 -0.33289,-3.65435 -0.80838,0.51638 -0.25577,2.67437 -0.50414,3.22979 -0.0673,0.0447 -0.14312,0.0187 -0.17208,-0.0596 -0.1665,-0.45025 -1.66618,-1.09722 -1.65365,-0.71038 0.3128,0.77854 1.75119,1.50267 1.9549,2.36194 0.0386,0.19183 0.093,0.44752 0.12123,0.56871 -0.72015,0.0836 -0.94738,-1.53126 -1.32076,-1.16784 -0.0645,0.39791 -0.18038,0.32401 -0.48412,0.18166 -1.16767,-0.47963 -1.21457,-0.14057 -0.22625,0.49788 1.10973,0.62733 -0.0314,0.82449 0.56705,1.28576 0.28429,0.24419 0.60095,0.15472 0.51205,-0.14499 0.641,-0.6709 0.83432,1.57678 0.82578,1.78239 -0.0409,0.30651 0.0459,1.71011 -0.3504,1.5174 -0.42068,-0.20787 -1.32372,-1.08493 -1.40114,-1.36074 -0.11851,-0.42207 -0.59814,-1.13517 -0.75996,-1.12994 -0.23186,0.0951 -0.31528,0.2669 -0.44872,0.47122 -0.3258,-0.26603 -0.70252,-0.7614 -1.10204,-0.7987 -0.27842,0.46473 0.15245,0.69239 0.39,1.13326 -0.29029,0.0997 -0.59086,0.0522 -0.8712,0.18958 0.18576,0.4729 1.24144,1.18496 0.53246,1.21868 -0.14795,0.005 -0.34856,0.0856 -0.44538,0.17915 -0.18476,0.17843 -0.14276,0.45886 0.0675,0.45205 0.24643,-0.008 0.68931,0.23998 0.75496,0.4229 0.0496,0.13826 0.12531,0.16764 0.28707,0.11082 0.44825,-0.15752 0.62885,-0.13153 0.66912,0.0979 -0.0603,0.47044 -1.55227,0.3155 -1.20242,0.73287 0.0755,0.0853 0.29056,0.20445 0.47788,0.26541 0.25048,0.0815 0.32915,0.16067 0.2979,0.29831 -0.0308,0.1356 0.0544,0.22551 0.30832,0.32664 0.20186,0.0804 0.27496,0.14541 0.17289,0.15375 -0.0975,0.007 -0.37845,-0.0754 -0.62454,-0.18499 -0.36089,-0.16075 -0.50139,-0.17708 -0.72704,-0.0825 -0.28711,0.12035 -0.35404,0.27003 -0.16833,0.37664 0.0578,0.0331 0.10649,0.0993 0.10792,0.14708 0.004,0.11048 -0.56425,0.33189 -0.87744,0.34206 -0.45337,0.0844 -0.63553,0.54645 -1.04869,0.70412 -0.40928,0.14468 -0.17214,0.40752 0.56622,0.62788 0.52435,0.15649 0.75592,0.18205 0.89869,0.0996 0.30251,-0.17477 0.38976,-0.13977 0.4733,0.18917 0.0522,0.20559 0.14064,0.30497 0.26791,0.30081 0.24781,-0.008 0.80013,-0.50805 0.90787,-0.82162 0.33369,-0.41245 0.4859,0.0686 0.35662,0.41956 -0.0438,0.1194 0.0194,0.15386 0.26708,0.14583 0.33353,-0.0108 0.81425,-0.40401 0.81369,-0.6658 -2.1e-4,-0.0735 0.0698,0.0147 0.15584,0.19624 0.20388,0.43034 0.49667,0.42057 0.76203,-0.025 0.21725,-0.36482 0.28702,-0.32577 0.0996,0.0554 -0.18744,0.38126 -0.40423,0.48907 -1.02702,0.51288 -0.6684,0.0253 -0.84029,0.20365 -0.5187,0.53664 0.18006,0.18641 0.17655,0.19797 -0.0875,0.30831 -0.59132,0.24706 -1.37811,0.0658 -1.98905,-0.45955 -0.23803,-0.20463 -0.35757,-0.15525 -0.3479,0.14333 0.007,0.21476 -0.0752,0.23349 -0.45413,0.10332 -0.22798,-0.0783 -0.26626,-0.0636 -0.26124,0.10041 -0.0364,0.21982 -0.2252,0.30115 -0.29373,0.47872 0.007,0.20582 -0.0856,0.20169 -0.63369,-0.0258 -0.556,-0.23081 -1.12761,-0.23934 -1.12037,-0.0171 0.004,0.10958 -0.10762,0.15871 -0.38163,0.16832 -0.56443,0.0205 -0.84641,0.12967 -0.83996,0.32624 0.009,0.2885 0.23639,0.41322 0.72955,0.4008 0.433,-0.0105 0.45464,2.3e-4 0.27579,0.14499 -0.23089,0.18677 -0.2276,0.19012 0.34748,0.3354 0.42212,0.10664 0.44126,0.1263 0.29332,0.30082 -0.087,0.10267 -0.15725,0.21818 -0.1558,0.25623 0.27657,0.0548 0.56341,-0.20763 0.97201,-0.16166 0.22872,-0.0363 0.29037,-0.32397 0.48872,-0.4358 0.0593,-0.002 -0.0576,0.17792 -0.26041,0.39955 -0.46714,0.51061 -0.47814,0.7054 -0.0329,0.60121 0.554,-0.17033 1.25044,-0.97725 1.22994,-0.14916 0.0384,0.69083 2.44162,-0.30781 2.44901,-0.23497 0.0116,0.35899 -1.02262,1.00726 -2.16612,1.35699 -0.72329,0.22121 -0.90941,0.17481 -1.87488,-0.46747 -1.33195,-0.82782 0.37109,1.14848 -1.2316,0.29831 -0.407,-0.21258 -0.57439,-0.25835 -0.57078,-0.15665 0.21556,0.47062 -0.14909,0.39527 -0.48166,0.40664 -1.96385,0.0919 0.5873,0.56219 0.43708,0.99368 0.0572,0.73995 1.61172,-0.45462 1.09243,0.17583 -0.20508,0.24215 -0.20611,0.33449 -0.003,0.3279 0.26043,0.24359 -0.094,0.57364 0.45833,0.40164 0.30198,-0.0973 0.32191,-0.0873 0.33538,0.17249 0.11359,0.50461 0.61272,0.7161 0.95621,0.5883 0.27949,-0.0952 0.47995,-0.45492 0.64162,-0.25082 0.43481,0.17973 0.6245,-0.11966 1.07535,-0.39122 0.0187,0.40101 0.0635,0.67779 0.36915,0.43414 0.74925,-0.15296 1.32529,0.0839 -0.65496,0.84369 -0.8199,0.70073 -2.49979,-0.14554 -2.88943,-0.0258 -0.12124,0.20528 -0.0807,0.46146 0.0996,0.63037 0.0522,0.38693 -0.8524,0.11515 -1.19866,-0.0171 -0.58653,-0.23006 -0.89519,-0.17806 -0.72204,0.12167 0.0547,0.30348 -0.45869,0.13698 -0.73496,0.27999 -0.17802,0.0951 -0.46203,0.20699 -0.63078,0.24873 -0.56281,0.1867 0.51781,0.66809 0.7916,0.82118 0.58078,0.20373 0.087,0.56002 0.56329,0.71956 0.57815,0.12893 -0.16305,0.46356 0.11168,0.62953 0.60344,0.2956 1.3521,-0.23727 1.75405,0.18042 0.009,0.26835 0.19203,0.28371 0.61329,0.0513 0.49983,-0.27549 0.51361,-0.27639 0.52206,-0.015 0.006,0.20127 0.0456,0.20751 0.75161,0.11789 1.06915,-0.46818 0.55901,0.59707 -0.36038,0.84787 -1.03872,0.27852 -1.67851,0.2203 -2.34778,-0.21458 -0.59021,-0.38329 -0.81898,-0.38151 -0.54787,0.004 0.18823,0.26791 0.10567,0.30644 -0.2975,0.13833 -0.39682,-0.16546 -0.44149,-0.008 -0.0942,0.33164 0.57993,0.53533 -0.34757,0.20882 -0.77202,0.11582 -0.36591,-0.0777 -0.34696,-0.44926 -0.9462,-0.1429 -0.58694,0.27538 -2.63588,1.5834 -2.20736,0.42831 2.1101,-0.2447 0.98065,-0.44029 0.96453,-1.37033 l 0.60369,-0.14166 c 0.75102,-0.17575 1.06432,-0.55059 0.72664,-0.86704 -0.14397,-0.1372 0.12811,-0.0877 0.21914,-0.23373 -0.005,-0.17841 -0.44674,-0.0958 -1.00952,0.18874 -0.62403,0.31555 -0.82902,0.34673 -0.83619,0.12874 0.0108,-0.32515 1.7184,-1.55443 1.58407,-2.02237 -0.0114,-0.35291 -0.24353,-0.30284 -0.80829,0.17415 -0.46312,0.38682 -1.0832,0.67977 -1.68239,0.9162 -0.2795,0.12486 -0.62351,0.2563 -0.76412,0.29206 -0.40261,0.1007 0.50333,-0.76434 0.53122,-1.19867 0.0857,-0.63452 0.21993,-1.04361 0.39206,-1.19618 0.37367,-0.24944 0.69985,-0.62358 1.0941,-0.97745 0.22934,-0.12792 0.34104,-0.25853 0.31581,-0.36997 -0.15197,-0.57059 -2.02743,1.03167 -2.79566,1.15952 -0.18011,-0.0625 -0.10305,-0.47235 0.11457,-0.60913 0.19384,-0.25625 0.10719,-0.57616 0.50706,-0.73121 0.36184,-0.18272 0.82333,-0.75692 0.81495,-1.0141 -0.0335,-0.33541 -1.21655,0.4489 -1.44949,0.60163 -0.37769,0.21186 -0.47933,0.325 -0.47288,0.5258 0.004,0.65218 -0.79343,-0.567 -0.90412,0.15332 0.0787,0.45458 1.03554,0.63423 0.59746,0.93744 -0.42062,0.0228 -0.48174,0.69619 -0.95202,0.78454 -0.56249,0.13153 -0.53556,0.94673 0.0513,1.57281 0.32657,0.34846 0.32715,0.35295 0.075,0.29832 -0.20621,-0.0447 -0.2776,-0.004 -0.36747,0.21207 -0.16951,0.39296 -0.90974,0.41889 -1.15618,-0.0117 -0.004,-0.10335 -0.14375,-0.27942 -0.31207,-0.39123 -0.33035,-0.21943 -0.53373,-0.25635 -0.52872,-0.0954 0.0668,0.78277 0.87351,1.32283 1.0441,2.03321 -0.0944,0.16445 0.11668,0.35723 0.75453,0.69037 0.46995,0.24852 0.7561,0.69155 1.16202,1.12494 -0.64834,-0.0298 -1.03756,-0.008 -1.6124,-0.39082 -0.5485,-0.39054 -1.33256,-0.73643 -1.43116,-0.63122 -0.12155,0.12971 0.14174,0.6209 0.39498,0.73705 0.30478,0.13979 0.42924,0.31337 0.44122,0.6158 0.007,0.17686 0.0686,0.23018 0.26122,0.22373 0.26853,-0.009 0.259,-0.0103 0.16708,0.23291 -0.13051,-0.0644 -0.38908,-0.0943 -0.83035,-0.0591 -0.99747,-0.47387 -1.80024,1.13727 -1.69616,-0.48955 -0.81023,-0.0953 -1.25764,0.73294 -1.7028,-0.07 -0.44612,0.10986 -0.95209,-0.28203 -1.45158,0.003 -0.45058,-1.03344 -0.3061,1.13963 -0.90371,-0.0275 -0.84259,-1.90007 0.12759,-0.99412 0.2054,-0.9266 0.76367,0.36046 3.91123,0.2304 1.66158,-0.67496 -1.62785,-1.14418 3.20306,1.29696 1.39533,-0.36498 0.82795,0.34929 1.81089,0.86346 1.60824,0.44164 -0.13455,-0.28002 -0.25194,-0.20976 0.2054,-0.13249 1.54361,0.48314 0.54789,-0.37272 -0.25707,-0.74829 1.10829,-0.6054 -1.99975,-0.38802 -0.38455,-0.79453 0.30955,-0.0859 -0.39514,-0.30688 0.0987,-0.36623 0.45004,-0.0541 0.88003,-0.5225 -0.48121,-0.67246 -0.85016,-0.17172 -0.6026,0.19234 -1.34282,-0.46456 -1.02046,-0.9056 0.52325,-0.1392 1.44823,-0.33165 0.37132,-0.0772 -0.28841,-0.36824 0.18499,-0.51746 0.71343,-0.31862 0.4846,-0.79482 1.2191,-1.03244 0.26993,-0.0873 0.17865,-0.27131 0.0608,-0.3579 -1.15875,-0.20453 -3.99254,1.26394 -3.21479,0.47707 0.19969,-0.20204 0.34058,-0.67139 0.0454,-0.49956 -0.6935,0.38363 -1.50847,0.52092 -2.9819,0.4383 -0.48861,-0.0447 0.46423,-1.40431 0.78413,-0.92201 0.8091,0.51101 0.9984,0.14345 0.88952,-0.39374 1.0559,0.44275 2.34772,-0.12778 0.53537,-0.53913 -0.45522,-0.44137 3.44803,-0.63603 1.31284,-1.05868 -0.84153,-0.28463 -2.22171,0.66915 -1.45199,-0.54288 -1.36898,-0.76125 -1.32348,1.12447 -2.42944,-0.0638 -0.67147,1.05098 -0.5733,-0.28249 -0.5733,-0.28249 0.10246,-1.12378 1.80345,-0.13977 1.59408,-0.77245 -0.335,-0.49929 3.69624,-0.32661 1.36658,-0.98786 -0.58553,-0.9277 -2.2141,0.0183 -2.44235,-0.48247 0.92191,-1.02688 -1.19133,-0.87112 0.27706,-1.30242 0.74485,-0.71015 0.0378,-0.82949 -0.99283,-0.7512 -1.13175,-1.08773 0.62749,-0.32814 1.08033,-0.7762 0.40149,-0.0843 0.52334,-0.47898 0.27333,-0.48414 -0.36262,-0.007 -1.95941,-1.227 -2.09572,-1.50532 -0.0247,-0.0503 1.28666,-0.31158 0.89995,-0.44664 -1.87037,-0.49443 -1.61254,-2.4014 -2.21735,-2.62192 -0.37758,-0.13769 -0.16637,1.23396 -0.905382,1.79239 -1.305068,1.20544 -0.826357,0.98086 -0.108321,1.212 0.04426,0.97365 -1.258715,0.73605 -2.182372,0.8887 -1.446186,0.2716 0.902089,0.48778 1.312431,0.87536 0.163684,0.15459 -0.253173,0.3761 -0.925786,0.57871 -0.663018,0.97317 2.023017,-1.0429 1.775315,0.52122 -0.23233,0.45626 -2.289291,-0.21523 -2.159444,0.16291 0.03031,0.0883 0.706517,0.30966 1.026178,0.53996 0.134798,0.15649 -0.359338,0.31381 -0.259974,0.46747 0.791972,1.0885 -0.548547,0.59632 -0.77288,1.23035 2.191419,1.75614 -2.02833,-0.45979 -2.212363,0.51414 0.11031,0.63177 2.184757,0.0304 0.912029,0.84411 -1.245043,0.46855 2.226804,0.22197 0.162483,1.20159 0.0774,1.1233 1.928781,1.0264 0.04628,1.24576 -1.108924,-0.10411 -4.10705,1.1557 -1.786123,1.02411 0.590893,-0.51171 1.450169,-0.48687 0.899937,0.34414 -0.08088,0.11258 0.113413,0.11762 0.188313,0.13083 0.64421,0.11388 0.988527,1.51072 -0.296217,0.66828 -0.702806,0.3514 0.693247,1.01789 -0.655383,1.1391 -0.495053,0.22232 -2.024943,0.53531 -0.606211,0.73996 -0.125581,0.0371 -0.264798,0.0822 -0.407058,0.13166 -0.320452,0.0254 -0.69065,0.0246 -1.134927,-0.003 -0.402278,-0.0393 0.380116,-1.21623 0.644122,-0.79787 0.666752,0.44391 0.822365,0.12565 0.732049,-0.33998 0.869767,0.38513 1.932001,-0.10723 0.439544,-0.46622 -0.375355,-0.38306 2.837757,-0.54613 1.079504,-0.91536 -0.693092,-0.24779 -1.828092,0.57624 -1.196168,-0.47288 -1.12799,-0.66153 -1.087784,0.97318 -1.999877,-0.0579 -0.551242,0.90971 -0.472059,-0.24583 -0.472059,-0.24583 0.08277,-0.97359 1.484004,-0.11856 1.310766,-0.66703 -0.276462,-0.4331 3.042351,-0.27787 1.12367,-0.85412 -0.483281,-0.80464 -1.822952,0.0127 -2.011526,-0.42164 0.757414,-0.88847 -0.981488,-0.75661 0.226652,-1.12827 0.612118,-0.61429 0.417039,-0.62507 -0.431223,-0.55871 -0.933194,-0.94411 0.515718,-0.28361 0.887856,-0.67121 0.330386,-0.0725 0.430822,-0.41468 0.224986,-0.41956 -0.298513,-0.007 -1.343162,0.10347 -1.455739,-0.1379 -0.02048,-0.0436 0.671427,-0.36115 0.352876,-0.47873 -0.933697,-0.32197 -1.129658,0.32956 -1.444901,-1.35741 -0.141513,-0.9245 -0.162105,-2.05866 -0.421654,-1.49742 -0.41371,0.99914 -0.109199,3.06022 -0.566615,2.29986 -0.0191,-0.0285 -0.09169,-0.0996 -0.138748,-0.16873 -0.211421,-0.31044 -0.408382,-0.0969 -0.408316,0.0379 -7.93e-4,0.42507 0.529077,0.98501 0.320816,1.01243 -0.399831,0.0526 -1.30682,-0.53302 -2.066944,-0.40206 -1.190112,0.2333 0.743265,0.42441 1.08159,0.7608 0.134978,0.13417 -0.207793,0.32534 -0.76119,0.49996 -0.544433,0.84229 1.663708,-0.90121 1.461992,0.45372 -0.190582,0.39502 -1.884786,-0.18908 -1.777402,0.13874 0.02508,0.0765 0.582338,0.26914 0.845788,0.46915 0.111207,0.13577 -0.295335,0.27127 -0.213317,0.40456 0.0949,0.15454 0.262855,0.21694 0.719127,-0.0204 -0.327361,1.11205 1.188894,-0.32002 0.951195,1.0491 -0.12524,1.19604 -1.875319,-1.21252 -1.829474,0.1329 1.154017,1.07352 -2.145967,-0.49822 -2.296121,0.3454 0.0917,0.54757 1.798606,0.0301 0.752039,0.73329 -1.024253,0.40424 1.833766,0.19568 0.135821,1.0416 0.06539,0.97341 1.588958,0.89168 0.03919,1.0791 -0.525256,-0.0527 -1.560989,0.28402 -1.985285,0.55913 -0.376045,0.0207 -0.750401,0.024 -1.012442,0.3554 -0.801145,0.29247 -1.782209,0.0754 -2.644425,0.13541 -1.452478,0.24886 0.258095,-1.11982 0.824955,-0.83078 0.812255,-0.83496 1.988679,-1.02434 2.979399,-1.35118 -0.650095,-0.2253 -0.403837,-1.29535 0.36414,-1.36492 0.176861,-1.23394 -1.17452,-0.20306 -1.807379,-0.67537 -0.787323,-0.49515 0.261422,-0.43519 -0.07288,-0.92869 -1.434962,-0.0552 -0.126542,-0.94921 0.393296,-1.4674 -0.518047,-0.66541 0.118673,-0.76815 0.4304,-1.30827 1.157777,-0.91606 -0.262022,-0.95693 -0.917448,-0.78411 -1.561954,0.44379 0.471972,-1.19549 0.274561,-1.61074 0.520951,-0.11973 0.650909,-0.91058 1.214921,-1.20409 0.496078,-0.9957 -0.97773,0.32661 -1.289499,-0.12957 -0.395489,0.15128 -1.506083,1.11767 -0.891606,0.075 1.030586,-0.55619 -0.610566,-0.79292 0.124168,-1.05619 0.586201,-0.87984 0.478994,-1.66413 0.613702,-1.99737 -0.718207,0.16739 -1.086565,0.25751 -1.509073,0.98869 -0.60892,1.1662 -0.04636,-0.90928 -1.022011,-0.54455 -0.854117,0.71421 -1.250934,-1.36891 0.0024,-1.32242 0.067,-0.49181 1.630278,-0.89658 0.694127,-1.22618 -0.614429,0.76479 -1.279962,-0.56638 -1.704068,0.13499 -0.646893,0.23631 0.0064,-0.73781 -0.303728,-0.96577 -1.022953,-0.15265 0.711337,-1.3643 -0.363731,-1.24534 -1.466709,0.83936 1.102924,-1.1749 -0.387397,-0.77411 0.233934,-0.39443 0.284954,-1.47394 -0.461642,-0.62121 -0.911305,1.08386 -0.240988,-0.52748 -0.578718,-0.98327 -0.07159,-1.14945 -0.37248,0.44262 -0.462457,0.40705 -1.258507,-0.75022 0.388098,2.3422 -1.037442,1.02036 -1.21697,-0.24024 0.265353,0.42145 -0.05628,0.80036 0.33545,0.33978 0.678871,0.96476 -0.04329,0.38207 -1.019098,0.17196 1.31921,1.56936 -0.129572,1.1595 -0.748352,0.60562 -1.321289,-0.64429 -1.899065,-0.24164 0.509196,0.50758 1.142249,1.77308 0.04628,1.90738 0.198435,0.88776 2.199352,1.64013 0.932042,2.32985 -0.748501,0.49994 -0.69016,-0.0742 -0.951198,-0.41372 -0.148148,-1.02032 -0.847288,-0.068 -1.35908,-0.5458 -0.543332,-0.62685 -1.474324,0.004 -0.412049,0.38872 -1.29e-4,0.36667 0.04015,1.06305 0.869508,0.94786 1.075455,0.65847 -0.519411,-0.0597 -0.91286,-0.0454 -1.214559,0.17759 0.917263,0.54665 0.224589,0.84203 0.478856,0.969 -0.313714,0.092 -0.841211,-0.008 -0.184734,0.40275 -0.184179,1.52242 0.589127,1.54782 1.414719,0.26528 -0.479605,-0.14545 -0.40413,0.68788 0.662461,0.0916 0.398132,0.70014 1.010769,0.57497 0.02524,0.42345 1.700308,0.36295 0.475382,0.59662 -0.616982,0.19745 -1.208479,1.36332 -0.18456,1.50783 -0.321434,1.04158 -2.622625,-0.78667 -2.821501,0.43789 0.486643,0.19981 0.524552,0.4568 0.457893,0.73329 -0.526224,-0.29021 -0.956042,-0.61276 -0.879547,-0.98661 1.463102,-0.59373 -1.472189,-1.70222 -2.006957,-2.41026 0.60818,-0.50798 -1.295965,-0.84471 -0.387879,-1.30701 -0.676499,-0.81922 -1.405971,-1.5128 -1.585741,-2.5036 -1.079308,0.24303 -1.235399,1.22553 -2.148195,1.40325 -1.115131,0.43234 0.86248,0.57706 0.169972,0.84954 0.182949,0.87981 -2.736021,0.89007 -1.370725,1.75906 -0.169313,0.87555 -2.255736,1.42227 -2.352371,2.64316 -0.135694,1.41455 1.307012,-0.80978 1.57699,0.0946 0.23241,-0.31772 1.525198,-0.63521 1.474068,0.13416 -1.305737,0.8111 -3.171948,1.0489 -3.794348,1.96947 -1.292234,0.57886 -0.247092,0.82243 0.654956,0.49621 -0.671815,0.64638 0.578862,0.588 1.457425,0.61039 -0.29923,0.23949 -0.831695,0.41963 -1.360754,0.67329 -1.319549,0.54444 -0.500168,0.60533 0.0333,1.16952 0.143949,0.33657 -2.473962,0.97675 -2.902732,1.85654 -0.07885,0.15177 -0.126347,0.2621 -0.151647,0.34373 -0.238916,0.0428 -0.311576,-0.0202 -0.0229,-0.34831 -0.03757,-1.22155 -1.378582,1.05988 -1.552402,-0.0167 -0.278616,-1.22693 1.082987,-0.0148 0.743298,-1.00369 0.398779,0.18889 0.537333,0.12224 0.60871,-0.0229 0.06168,-0.12543 -0.289459,-0.2248 -0.20332,-0.35414 0.211084,-0.19621 0.670598,-0.40255 0.687449,-0.4733 0.07199,-0.3031 -1.324845,0.32286 -1.508235,-0.0242 0,0 -0.160444,-0.15199 0.497455,-0.65954 0.334579,-0.44765 1.095598,-0.51334 0.414567,-0.62747 -0.649298,-0.0753 -0.864734,0.33076 -1.205343,0.30582 -0.337238,-0.16335 -0.461773,-2.13856 -0.872436,-3.02899 l 0,-5.3e-4 c -0.35117,-0.639 -0.254041,0.93391 -0.453733,1.6499 -0.170143,1.54636 -0.438583,0.70678 -1.208672,1.05161 -0.262258,0.12465 0.588957,0.36433 0.57413,0.40497 -0.08136,0.22508 -0.969539,0.18501 -1.22117,0.20832 -0.173537,0.016 -0.06974,0.31934 0.213317,0.36623 0.623345,0.10604 1.679216,-0.0552 0.514977,0.50955 -0.720038,-0.0119 -0.883916,0.01 -0.33207,0.53164 1.676418,0.30459 -0.161832,0.29559 0.528302,1.05743 -0.134537,0.4042 -1.31217,-0.2603 -1.674476,0.49623 -1.58732,0.63125 1.206222,0.30182 0.997421,0.70995 -0.11506,0.50677 1.019672,-0.3474 1.144931,0.52997 0,0 0.132683,1.04199 -0.384549,0.24915 -0.711508,0.98611 -0.770896,-0.49646 -1.685724,0.16707 0.593288,0.91456 -0.411687,0.23186 -0.982878,0.4958 -1.46358,0.43457 1.258423,0.39987 0.963295,0.76829 -1.239776,0.41025 -0.314235,0.79589 0.398295,0.39747 -0.04983,0.42699 0.09932,0.70636 0.637059,0.26624 0.19911,-0.39407 0.926984,0.62806 0.589529,0.68663 -1.020035,0.13574 -1.593158,0.067 -2.093613,-0.20082 -0.213405,-0.1207 -0.09349,0.24055 0.05498,0.38955 -5.843686,-1.81983 -5.408536,-1.66489 -5.339656,-4.05308 -0.006,-0.2002 0.0878,-0.34166 0.34372,-0.5133 0.40941,-0.27467 0.43385,-0.38081 0.12249,-0.54414 -0.40789,-0.15196 -1.36647,0.31709 -1.26992,-0.23456 0.0437,-0.21556 0.0143,-0.26198 -0.16374,-0.25625 -0.461911,0.0728 -0.81045,0.45361 -1.28242,0.47748 -2.84946,0.0302 -1.2973,-1.1747 -0.2325,-2.54193 0.15003,0.22814 0.52115,0.64044 0.517069,0.25249 -0.007,-0.21611 0.178641,-0.34497 0.512461,-0.35581 0.10865,-0.004 0.195419,-0.0801 0.1925,-0.16999 0.20801,-0.33609 1.00454,-0.14306 0.86036,-0.61496 -0.0567,-0.16907 -0.0336,-0.23105 0.0883,-0.23499 0.29001,-0.009 0.96747,-0.46581 0.96161,-0.64788 -0.005,-0.14841 -0.0887,-0.16096 -0.54414,-0.0829 -1.26238,0.25438 -0.76178,0.30706 -1.00534,-0.49497 -0.0556,-0.0338 -0.33918,0.12036 -0.63038,0.34247 -0.40301,0.3074 -0.55039,0.37064 -0.61822,0.26536 -0.15607,-0.24228 -0.11083,-0.4745 0.14665,-0.74786 0.31846,-0.33806 0.21296,-0.43848 -0.51954,-0.49456 -0.47293,-0.0363 -0.62185,-0.006 -0.78037,0.15583 -0.18751,0.19175 -0.199489,0.1919 -0.272489,0.009 -0.12798,-0.3203 0.087,-0.55154 0.50081,-0.53831 0.30955,0.01 0.3712,-0.024 0.36539,-0.20248 0.0664,-0.38215 0.66452,-0.11851 0.574559,-0.45248 -0.0523,-0.18511 -0.011,-0.21772 0.28956,-0.22748 0.742461,-0.11198 -0.100299,-0.53993 0.3129,-0.55622 0.153011,-0.005 0.22407,-0.0738 0.21957,-0.21207 -0.0115,-0.35481 -0.25292,-0.45307 -0.87536,-0.35498 -0.52827,0.0832 -0.57735,0.0728 -0.58373,-0.12416 -0.25276,-0.63274 -0.9388,0.11126 -1.44198,0.0471 -7.99e-4,-0.026 0.0439,-0.14448 0.0992,-0.26332 0.17343,-0.37274 -0.12811,-0.34755 -0.94368,0.0792 -0.71966,0.48108 -0.83402,0.33051 -1.49491,0.0225 -0.0195,-0.002 -0.04,-0.007 -0.06,-0.0104 l -8.21e-4,59.979387 321.944492,0 -1.2e-4,-70.529357 c -0.58518,0.0217 -0.73121,-1.29332 -1.04786,-1.00452 -0.0642,0.32874 -0.15904,0.26433 -0.40748,0.13791 -0.95684,-0.42984 -1.00484,-0.14944 -0.20122,0.40747 -0.20381,0.15921 -0.42394,0.31717 -0.65998,0.40456 -0.17661,0 -0.12993,0.23946 0.0583,0.29915 1.20909,0.13991 1.22711,-0.12686 0.55457,0.47497 -0.2808,0.28756 -0.31663,0.36007 -0.21042,0.43039 0.28463,0.0984 0.61949,-0.002 0.83042,0.18582 0.2295,0.21047 0.49437,0.14424 0.42867,-0.10708 0.5505,-0.53993 0.51383,0.62109 0.50123,0.79163 -0.0422,0.25345 -0.007,1.42108 -0.33165,1.25034 -0.3438,-0.184 -1.07053,-0.9367 -1.12745,-1.16785 -0.087,-0.35374 -0.46582,-0.95869 -0.60036,-0.95869 -0.19513,0.0727 -0.26906,0.21304 -0.38539,0.37914 -0.26342,-0.22974 -0.56293,-0.65159 -0.89371,-0.69329 -0.24377,0.37847 0.10795,0.57945 0.29337,0.95203 -0.24382,0.075 -0.49218,0.0272 -0.72875,0.13374 0.14156,0.39777 0.99889,1.01772 0.40916,1.0266 -0.12309,0 -0.29163,0.0616 -0.37458,0.13665 -0.15819,0.14322 -0.13081,0.37707 0.0442,0.37707 0.20489,0 0.56615,0.21796 0.61579,0.37164 0.0375,0.11619 0.0995,0.14285 0.23542,0.1 0.37653,-0.11874 0.526,-0.0921 0.5533,0.0996 -0.0628,0.38909 -1.29802,0.21971 -1.0187,0.5758 0.0604,0.0729 0.23598,0.17808 0.38997,0.23373 0.20585,0.0744 0.26884,0.14194 0.23916,0.25541 -0.0292,0.1118 0.0389,0.18914 0.24707,0.27998 0.16541,0.0722 0.22497,0.12774 0.14001,0.13208 -0.0811,0.003 -0.31228,-0.0731 -0.51374,-0.17083 -0.29538,-0.14325 -0.41169,-0.15954 -0.60161,-0.0871 -0.24172,0.0922 -0.30175,0.21435 -0.15041,0.3079 0.0471,0.0291 0.0858,0.0853 0.0858,0.12499 0,0.0918 -0.47749,0.25999 -0.73787,0.25999 -0.37883,0.0578 -0.5421,0.43724 -0.88953,0.55705 -0.3438,0.10912 -0.15438,0.33369 0.45292,0.53663 0.43127,0.14411 0.6229,0.17177 0.74369,0.10708 0.25595,-0.13697 0.32742,-0.10588 0.3879,0.16957 0.0378,0.17216 0.10872,0.25707 0.21455,0.25707 0.20603,0 0.67832,-0.40036 0.77621,-0.65788 0.28819,-0.33357 0.40145,0.0702 0.28456,0.35832 -0.0396,0.098 0.0127,0.12832 0.21833,0.12832 0.27731,0 0.68676,-0.31377 0.69327,-0.53121 0.003,-0.061 0.058,0.014 0.12459,0.16707 0.15772,0.3629 0.40047,0.3629 0.63288,0 0.19029,-0.2971 0.24757,-0.26282 0.0817,0.0488 -0.16599,0.3116 -0.34832,0.395 -0.86621,0.39789 -0.55581,0.003 -0.70435,0.14684 -0.44622,0.43206 0.14446,0.15968 0.14149,0.16922 -0.0808,0.25374 -0.49776,0.18925 -1.14586,0.0169 -1.63907,-0.43581 -0.19216,-0.17638 -0.29374,-0.13824 -0.29374,0.10999 0,0.17856 -0.0679,0.19204 -0.37912,0.0738 -0.18724,-0.0712 -0.22,-0.0597 -0.22,0.0767 -0.0362,0.18158 -0.19537,0.24392 -0.25707,0.38956 0,0.17112 -0.0767,0.1654 -0.5258,-0.0383 -0.45554,-0.2067 -0.92993,-0.22935 -0.92993,-0.0446 0,0.0911 -0.0929,0.12884 -0.32084,0.12957 -0.46929,0.002 -0.70662,0.0853 -0.70662,0.24874 0,0.23986 0.18545,0.34918 0.59539,0.35206 0.35994,0.003 0.37701,0.0126 0.22458,0.12791 -0.19682,0.1489 -0.19376,0.15215 0.27998,0.28832 0.34772,0.1 0.36296,0.11653 0.2354,0.25748 -0.0751,0.0829 -0.13666,0.17633 -0.13666,0.2079 0.22821,0.0531 0.4731,-0.1567 0.81122,-0.10749 0.19092,-0.0239 0.25053,-0.2612 0.41828,-0.34873 0.0494,0 -0.0532,0.14636 -0.22747,0.32498 -0.40182,0.41147 -0.41552,0.57282 -0.0429,0.4983 0.46469,-0.12651 1.06476,-0.77762 1.02534,-0.0904 0.0132,0.57479 2.03589,-0.18985 2.04031,-0.12915 0,0.29847 -0.8766,0.80864 -1.83574,1.06827 -0.60666,0.16422 -0.75996,0.12074 -1.5445,-0.43873 -1.08395,-0.72347 0.27739,0.9639 -1.03077,0.21457 -0.33231,-0.18757 -0.46995,-0.22995 -0.46995,-0.14541 0.16637,0.39668 -0.13475,0.324 -0.41124,0.32457 -1.63359,0.0234 0.4726,0.48229 0.33623,0.83661 0.0275,0.61611 1.35033,-0.33338 0.90202,0.17624 -0.17701,0.19559 -0.1796,0.27207 -0.0103,0.27207 0.20968,0.20933 -0.0931,0.47377 0.37039,0.34581 0.25342,-0.0726 0.26943,-0.0637 0.27371,0.15249 0.0808,0.42217 0.48914,0.61102 0.7779,0.51414 0.23472,-0.0715 0.41162,-0.36468 0.54036,-0.19082 0.35629,0.16101 0.52195,-0.0824 0.90374,-0.29582 0.005,0.33355 0.0342,0.56453 0.29453,0.37039 0.62643,-0.1068 1.09813,0.1056 -0.56705,0.68329 -0.69985,0.55986 -2.07216,-0.1889 -2.399,-0.1 -0.10629,0.16725 -0.0802,0.38147 0.0649,0.52663 0.033,0.32277 -0.71051,0.0728 -0.99452,-0.0463 -0.48093,-0.20691 -0.7394,-0.17235 -0.6037,0.0812 0.0371,0.25348 -0.38465,0.1016 -0.61788,0.21291 -0.15044,0.0742 -0.38904,0.1595 -0.53038,0.18957 -0.47244,0.13989 0.41211,0.56875 0.63537,0.70328 0.47691,0.18486 0.057,0.46752 0.44831,0.61289 0.4767,0.12265 -0.14809,0.38095 0.0754,0.52622 0.49321,0.26179 1.12985,-0.16069 1.45241,0.19707 0,0.22306 0.15171,0.24085 0.50792,0.0591 0.42246,-0.21524 0.43455,-0.21605 0.43455,0.002 0,0.16731 0.032,0.17367 0.62077,0.11833 0.90058,-0.36001 0.44788,0.51143 -0.32251,0.69495 -0.87018,0.2033 -1.39993,0.13716 -1.94402,-0.24207 -0.4799,-0.33443 -0.66971,-0.33979 -0.45495,-0.0121 0.14912,0.22762 0.0795,0.25717 -0.25083,0.10667 -0.32512,-0.14814 -0.36639,-0.0183 -0.087,0.27332 0.46723,0.46024 -0.29448,0.16369 -0.64455,0.075 -0.4073,-0.1041 -0.45416,-0.0973 -0.39704,0.0517 -0.19066,0.25771 -0.60552,0.23043 -0.88535,0.45123 -0.1938,0.15693 -0.19452,0.16414 -0.0379,0.34705 2.63197,1.34197 -1.38719,0.93707 -3.05731,-0.45163 -1.06657,-1.1148 2.33722,0.58851 2.10113,-0.56789 0.84892,1.07818 2.19649,0.29325 1.39073,-1.16159 -0.74081,-0.8376 -2.96079,0.0166 -3.90266,-1.13159 -1.2473,0.25698 -1.81742,-1.52413 -0.44415,-0.4304 1.43907,0.90405 0.13097,-1.18373 1.13702,-0.88536 1.1403,0.64516 1.1933,-0.82144 0.78994,-1.72573 -1.02936,0.43047 -1.67812,-1.37802 -0.55663,-0.16457 1.28487,0.009 -0.0724,-2.18843 1.15911,-1.57157 1.40922,-0.34785 -1.65198,-0.51573 -2.11196,-0.64454 0.62296,0.10817 0.80248,-0.39469 0.53621,-0.75246 1.40946,-0.55267 -1.57676,-1.44864 -0.23331,-1.52199 1.07074,0.87128 0.87058,-0.0414 0.13626,-0.69037 1.36604,0.88452 -0.3224,-0.73355 0.6041,-0.65413 1.62591,-0.59233 -1.48212,-0.0431 -1.04492,-0.89828 0.7748,-0.20579 -0.3142,-1.73218 0.65413,-1.38033 1.86541,-0.01 -1.09398,-0.65045 -1.71699,-0.67871 -0.0476,0.15157 0.12306,-0.62763 0.63577,-1.01827 0.54686,-0.4166 -1.06241,-0.69524 -0.90575,-1.06368 1.52061,-0.2571 -0.33041,-1.15685 1.01491,-1.26701 0.92067,-0.33324 -1.30066,-0.52787 -1.39239,-0.89161 -1.52832,-0.41463 0.81841,0.2903 0.33205,-1.03619 0.82037,-0.7438 -0.91173,-0.6951 -0.48829,-0.85786 0.38063,-0.15855 0.6449,-0.0517 0.86701,-0.17999 0.17428,-0.10062 0.25578,-0.25832 0.15666,-0.32206 -0.2758,-0.17736 -0.41515,-0.006 -0.93826,-0.0292 -0.85021,-0.0364 -2.91238,0.22455 -1.48035,-1.05786 0.40021,-0.14115 0.49017,-0.94734 0.0466,-0.56913 -0.31184,0.26585 -0.0101,-0.76652 -0.40537,-0.26832 -0.56221,1.64922 -0.54901,0.4417 -0.12044,-0.27998 -0.58457,-0.23499 -0.83878,1.21352 -0.83661,-0.33456 0.47101,-0.56987 1.00097,-1.98214 0.0371,-0.95911 -0.14155,-0.33989 -0.0914,-0.82516 -0.0492,-1.31826 z m 17.85014,5.13218 c -0.0912,0.36176 0.01,0.7688 -0.13251,1.06119 -0.0571,0.0353 -0.1193,0.0116 -0.1412,-0.0542 -0.12618,-0.37848 -0.87038,-0.71369 -0.87038,-0.39207 0.23882,0.65505 0.93023,1.05242 1.0762,1.77157 0.0214,0.1275 0.047,0.26653 0.0679,0.37831 z m -321.628988,2.17862 c -0.0774,-0.005 -0.18447,0.0317 -0.31414,0.1075 l 0,1.15783 c 0.031,-0.0567 0.0625,-0.11357 0.10457,-0.17748 0.42301,-0.63917 0.46636,-1.07086 0.20957,-1.08785 z m -0.31414,2.12028 0,0.44414 c 0.4519,-0.23496 0.19839,-0.26373 0,-0.44414 z m 0.19873,0.66621 c -0.0707,0.008 -0.13578,0.0247 -0.19873,0.045 l 0,0.75121 c 0.26392,-0.32835 0.34812,-0.64796 0.19873,-0.7962 z m 2.00237,0.47956 c -0.17358,-0.0211 -0.46928,0.1511 -1.11118,0.61121 -0.69167,0.49579 -0.92329,0.56581 -1.02535,0.3104 -0.0123,-0.0306 -0.0365,-0.0573 -0.0646,-0.0813 l 0,2.88523 c 0.0702,0.016 0.14361,0.0448 0.19707,0.0854 0.006,0.17694 0.53818,0.1071 0.73745,-0.0967 0.1516,-0.15501 0.24674,-0.16984 0.54705,-0.0829 0.30275,0.0876 0.3996,0.0722 0.57996,-0.0929 0.31455,-0.63789 -0.39022,-0.65841 -0.8491,-0.76495 l 0.31081,-0.47498 c 0.0932,-0.51196 0.85895,-0.36404 0.8687,-0.75287 -1.01165,-0.0844 0.0905,-1.27704 -0.0496,-1.46365 -0.039,-0.0465 -0.0834,-0.0751 -0.14124,-0.0821 z m 317.901738,0.95952 c 0.0574,0 0.23929,0.13472 0.40416,0.29957 0.25064,0.25067 0.36049,0.29956 0.67201,0.29956 0.29678,0 0.38164,0.0338 0.41622,0.16624 0.0551,0.21066 -0.004,0.26994 -0.18288,0.18457 -0.0774,-0.0368 -0.31933,-0.15288 -0.53787,-0.25832 -0.40693,-0.19631 -0.95954,-0.69162 -0.77164,-0.69162 z m -229.83922,0.19082 c 0.0329,-0.005 0.0621,-0.004 0.0854,0.003 0.11957,0.0356 -0.0879,0.2712 -0.67414,0.7662 -0.3414,0.28827 -0.45592,0.18632 -0.22164,-0.1979 0.15149,-0.24848 0.58035,-0.53992 0.81035,-0.57163 z m 149.88037,0.0742 c 0.0272,-0.003 0.0507,-0.003 0.07,0.003 0.0985,0.0293 -0.0725,0.22364 -0.55578,0.63163 -0.28142,0.2376 -0.37559,0.15335 -0.1825,-0.16333 0.12489,-0.2048 0.71245,-0.28459 0.6683,-0.4708 z m -3.24771,1.02369 c 0.057,-0.002 0.24127,0.12563 0.40998,0.28373 0.25658,0.24044 0.36735,0.28542 0.6762,0.2754 0.29419,-0.01 0.37881,0.0215 0.41747,0.15166 0.0614,0.20706 0.005,0.26761 -0.17499,0.18874 -0.0779,-0.034 -0.32119,-0.14126 -0.54122,-0.23874 -0.40976,-0.18151 -0.97369,-0.65477 -0.78744,-0.66079 z m -150.57283,0.1429 c 0.0691,-0.002 0.29275,0.15275 0.49747,0.34457 0.31126,0.29172 0.44564,0.34674 0.82035,0.33456 0.35696,-0.0116 0.46059,0.0257 0.50748,0.18374 0.0745,0.25122 0.006,0.32484 -0.2129,0.22915 -0.0945,-0.0414 -0.39006,-0.17171 -0.65705,-0.28998 -0.49712,-0.22022 -1.18132,-0.79469 -0.95535,-0.80204 z m -82.454949,1.51867 c -0.0668,0.002 -0.39123,0.20086 -0.72079,0.44121 -0.61506,0.44864 -1.44961,0.87872 -1.53699,0.79204 -0.027,-0.0268 0.0457,-0.10674 0.16167,-0.17749 0.27058,-0.16516 0.27026,-0.55958 -4.21e-4,-0.55079 -0.60505,0.28562 -1.22301,0.57884 -1.77197,0.73078 l 0,2.05654 c 0.238031,0.0436 0.457851,0.10211 0.579961,0.25082 0.25067,0.31129 0.62174,0.30687 0.49662,-0.006 -0.0577,-0.1445 -0.0302,-0.146 0.24707,-0.0104 0.34038,0.16591 0.64372,0.0952 0.6358,-0.14833 -0.54571,-0.58759 -0.51565,-0.70187 0.0263,-0.4333 0.66501,0.32465 0.53817,0.32924 1.0341,-0.25749 0.26336,-0.23025 -0.48375,-0.83428 -0.009,-0.56997 0.25729,0.28633 0.82254,0.5222 1.02995,0.42998 0.23724,-0.1055 0.17889,-0.44128 -0.11667,-0.67163 -0.39839,-0.26481 -0.16325,-0.19768 0.17459,-0.17623 0.60414,0.0383 1.44671,-0.31586 1.47782,-0.62122 -0.18753,-0.71891 -1.65215,-0.11684 -1.4445,-0.64912 0.0956,-0.17662 -0.0633,-0.43567 -0.26333,-0.42914 z m -3.8685,0.0771 0,0.46872 c 0.0778,-0.0187 0.13919,-0.0539 0.16748,-0.10625 0.0344,-0.0635 -0.0411,-0.22401 -0.16748,-0.36247 z m 120.756309,2.65442 c -0.12967,1.45458 -1.441,0.23602 0,0 z m -1.02242,2.50818 c -0.0753,1.11569 -3.0988,1.62946 -1.10742,0.19207 0.27874,-0.14285 0.16009,0.98515 1.10742,-0.19207 z m -89.469509,1.17367 c 0.294555,0.0178 0.648266,0.38736 1.028274,0.71287 0.05926,0.0739 0.1422,0.14588 0.259564,0.21458 0.0092,0.003 0.01646,0.006 0.0254,0.01 0.153188,0.10943 0.308779,0.19848 0.465805,0.2404 0.347009,0.29822 -0.06998,0.60075 -0.698707,0.76579 0.03789,0.059 0.06668,0.11141 0.09041,0.15999 -0.678273,-0.53784 -1.487041,-0.95041 -2.12113,-1.59199 -0.974127,-0.81753 0.450469,0.0584 0.62998,-0.34206 0.09625,-0.12821 0.203698,-0.17624 0.320379,-0.16916 z m 16.429821,5.46466 c 0.05337,0.094 0.03176,0.25382 -0.117067,0.49081 -0.06643,0.0974 0.09371,0.10255 0.155403,0.11416 0.530439,0.0996 0.815885,1.31006 -0.24289,0.5783 -0.578009,0.30349 0.572105,0.88268 -0.53789,0.98577 -0.407181,0.19194 -1.666066,0.46148 -0.497883,0.64079 -0.79189,0.24539 -2.236472,0.88779 -0.51163,0.64829 0.644186,-0.0589 0.426191,0.21795 0.160822,0.52748 -0.813578,0.0905 -1.729195,0.33841 -2.442364,0.11333 -1.575411,-0.58105 1.892237,-0.0914 0.927026,-0.9112 0.960687,-0.11731 0.587095,-1.73511 1.704494,-1.94113 0.454877,-0.005 1.298988,-0.78176 1.401979,-1.2466 z m 53.490468,6.48837 c 0.0916,0.12692 0.11346,0.21553 0.0599,0.27248 -0.24156,0.25778 0.10137,0.71912 0.61122,0.82245 0.86406,0.36715 -1.58532,0.30581 -1.58532,0.30581 0.0585,0.16174 0.54659,0.29108 1.70323,0.45206 0.88118,0.12263 0.9093,0.13399 0.70871,0.28081 -0.26364,0.19291 -0.34042,0.311907 -0.3354,0.519137 0.005,0.19523 0.53255,0.51706 0.8333,0.50788 0.39062,0.56935 -0.52953,1.42404 -1.23161,1.302 -0.87919,-0.15533 -1.4942,-1.74155 -2.14487,-2.170277 0.049,-0.0657 0.12541,-0.10962 0.21374,-0.11249 0.24261,-0.008 0.25607,-0.0466 0.10707,-0.30456 -0.0885,-0.15317 0.0744,-1.40305 0.40417,-1.51366 0.23923,-0.0802 0.4858,-0.2239 0.65577,-0.36164 z m 85.4685,2.900227 c 0.23805,0.39865 0.67363,0.76771 1.06119,0.78163 0.98219,0.14065 1.43375,0.76644 0.13041,0.68703 -0.61911,0.0434 -0.78611,0.23652 -0.87494,0.52913 -0.64084,0.23835 -1.15306,0.41947 -1.30116,0.25915 1.09589,-0.79198 0.0719,-0.71945 0.0954,-1.36241 0.003,-0.0632 0.15532,-0.13379 -0.0254,-0.31581 -1.02115,-1.222337 0.35151,0.5489 0.91452,-0.57872 z"
       style="opacity:1;fill:#52796f;fill-opacity:1;stroke:none;stroke-width:0.267674;stroke-linecap:square;stroke-miterlimit:4;stroke-dasharray:none;stroke-opacity:1;paint-order:markers fill stroke"
       id="path1799"
       inkscape:connector-curvature="0" />
  </g>
</svg>
