<svg id="svg" version="1.1" viewBox="0 0 365 993" width="365" height="993" xmlns="http://www.w3.org/2000/svg"><path d="M170.836 13.886 C 166.297 14.841,161.742 17.729,162.273 19.314 C 162.840 21.010,173.000 20.988,173.000 19.290 C 173.000 17.741,176.176 17.576,177.648 19.048 C 178.378 19.778,179.498 19.730,181.344 18.889 C 183.567 17.876,184.295 17.957,185.878 19.390 C 187.067 20.465,188.641 20.887,190.132 20.530 C 192.779 19.895,203.539 23.468,209.058 26.814 C 213.939 29.773,217.513 36.173,215.933 39.125 C 214.923 41.012,214.994 41.216,216.465 40.652 C 217.399 40.293,218.585 40.000,219.101 40.000 C 219.616 40.000,219.744 38.827,219.384 37.392 C 218.795 35.048,218.925 34.890,220.670 35.823 C 221.737 36.395,223.476 38.468,224.533 40.431 C 225.590 42.394,226.818 44.000,227.263 44.000 C 229.004 44.000,219.118 30.077,212.218 22.812 C 207.341 17.677,199.949 14.631,194.390 15.464 C 191.923 15.834,189.223 15.655,188.084 15.045 C 185.399 13.608,175.360 12.933,170.836 13.886 M167.000 18.441 C 167.000 18.684,166.550 19.160,166.000 19.500 C 165.450 19.840,165.000 19.641,165.000 19.059 C 165.000 18.477,165.450 18.000,166.000 18.000 C 166.550 18.000,167.000 18.198,167.000 18.441 M204.729 21.604 C 204.397 21.936,203.534 21.972,202.813 21.683 C 202.015 21.364,202.252 21.127,203.417 21.079 C 204.471 21.036,205.061 21.272,204.729 21.604 M162.021 22.500 C 161.883 23.050,161.850 24.288,161.948 25.250 C 162.137 27.115,159.539 27.681,158.500 26.000 C 158.160 25.450,158.434 25.000,159.108 25.000 C 159.782 25.000,160.036 24.703,159.673 24.339 C 158.585 23.252,155.000 27.148,155.000 29.418 C 155.000 30.611,154.058 31.954,152.829 32.513 C 151.635 33.056,149.301 35.194,147.643 37.264 C 145.317 40.167,144.899 41.299,145.814 42.214 C 146.466 42.866,147.000 43.835,147.000 44.367 C 147.000 44.898,146.707 45.040,146.348 44.682 C 145.288 43.621,142.909 49.139,143.553 51.166 C 143.878 52.191,144.562 52.771,145.072 52.456 C 145.582 52.140,146.000 52.359,146.000 52.941 C 146.000 53.523,145.523 54.000,144.941 54.000 C 144.359 54.000,144.148 54.430,144.473 54.956 C 144.798 55.482,145.726 55.659,146.534 55.348 C 148.493 54.597,153.224 55.829,152.552 56.916 C 152.261 57.387,152.917 58.007,154.011 58.293 C 157.895 59.308,155.988 67.097,150.043 74.500 C 148.277 76.700,145.969 78.823,144.915 79.218 C 143.862 79.613,143.000 80.795,143.000 81.845 C 143.000 82.896,142.260 84.369,141.356 85.120 C 139.910 86.319,139.780 86.243,140.281 84.492 C 141.478 80.306,142.205 75.528,141.550 76.150 C 141.174 76.508,140.279 79.208,139.563 82.150 C 138.846 85.093,137.899 88.361,137.460 89.414 C 136.895 90.767,137.003 91.116,137.830 90.605 C 139.291 89.702,139.300 90.922,137.875 96.582 C 136.974 100.161,137.054 102.188,138.280 106.775 C 139.122 109.924,140.095 114.525,140.443 117.000 C 140.854 119.917,142.673 123.910,145.615 128.354 L 150.154 135.207 148.194 137.354 C 147.116 138.534,145.485 140.982,144.569 142.793 C 143.653 144.604,141.913 146.469,140.702 146.937 C 137.095 148.331,134.448 152.159,133.055 158.000 C 132.333 161.025,131.259 164.175,130.669 165.000 C 129.785 166.237,129.841 166.282,130.990 165.258 C 132.622 163.803,135.998 155.321,135.999 152.672 C 136.000 151.180,136.766 151.500,140.173 154.416 C 144.723 158.311,146.700 158.438,143.099 154.605 L 140.856 152.218 143.327 147.359 C 144.686 144.686,147.194 140.751,148.899 138.612 C 152.118 134.577,152.708 133.000,151.000 133.000 C 150.450 133.000,150.000 132.395,150.000 131.655 C 150.000 130.915,149.100 129.495,148.000 128.500 C 146.900 127.505,146.000 126.085,146.000 125.345 C 146.000 124.605,145.550 124.000,145.000 124.000 C 144.450 124.000,143.994 123.213,143.987 122.250 C 143.980 121.287,142.906 117.125,141.601 113.000 C 138.322 102.640,137.511 98.580,138.893 99.434 C 139.502 99.810,140.000 101.216,140.000 102.559 C 140.000 103.902,140.450 105.000,141.000 105.000 C 141.550 105.000,142.000 105.873,142.000 106.941 C 142.000 109.388,143.606 110.470,144.352 108.526 C 144.660 107.722,144.482 106.798,143.956 106.473 C 143.430 106.148,143.000 104.087,143.000 101.893 C 143.000 98.871,143.637 97.314,145.628 95.469 C 147.739 93.513,148.138 92.438,147.653 90.016 C 147.321 88.357,147.286 87.000,147.575 87.000 C 148.556 87.000,154.492 90.235,156.500 91.863 C 158.088 93.151,158.036 92.959,156.250 90.928 C 153.504 87.807,153.452 86.410,155.934 82.341 C 157.056 80.500,157.645 78.204,157.345 76.841 L 156.830 74.500 159.021 77.000 L 161.212 79.500 159.077 75.643 C 157.125 72.118,157.041 71.280,158.101 65.893 C 158.738 62.652,159.624 60.000,160.068 60.000 C 160.513 60.000,160.792 58.766,160.688 57.258 C 160.519 54.800,160.966 54.394,165.000 53.338 C 171.451 51.650,179.337 51.751,183.906 53.579 C 188.251 55.318,192.119 55.180,192.750 53.264 C 192.974 52.585,191.997 51.500,190.579 50.854 C 187.107 49.272,187.325 48.000,191.067 48.000 C 193.648 48.000,194.037 47.692,193.519 46.061 C 193.098 44.732,193.526 43.789,194.880 43.064 C 197.566 41.627,200.000 42.744,200.000 45.416 C 200.000 46.627,200.661 48.491,201.468 49.559 C 202.859 51.398,202.938 51.332,202.968 48.315 C 203.017 43.470,201.330 40.076,198.302 38.925 C 196.097 38.086,195.852 37.701,197.034 36.935 C 198.254 36.144,198.081 35.655,196.000 34.015 C 194.625 32.931,192.986 32.034,192.357 32.022 C 191.728 32.010,190.944 31.296,190.614 30.437 C 190.284 29.577,189.612 29.122,189.120 29.426 C 188.629 29.729,187.703 29.347,187.064 28.577 C 185.231 26.369,176.365 24.697,169.438 25.253 C 163.576 25.723,163.077 25.603,162.690 23.631 C 162.460 22.459,162.159 21.950,162.021 22.500 M193.000 23.000 C 193.000 23.550,193.675 24.000,194.500 24.000 C 195.325 24.000,196.000 23.550,196.000 23.000 C 196.000 22.450,195.325 22.000,194.500 22.000 C 193.675 22.000,193.000 22.450,193.000 23.000 M214.033 26.553 C 215.240 28.507,215.996 30.338,215.712 30.622 C 215.427 30.906,214.399 29.792,213.427 28.146 C 212.455 26.500,210.724 24.700,209.580 24.145 C 207.501 23.136,207.501 23.135,209.668 23.068 C 211.115 23.023,212.568 24.183,214.033 26.553 M199.000 26.755 C 199.000 27.305,199.675 28.315,200.500 29.000 C 201.337 29.694,202.000 29.803,202.000 29.245 C 202.000 28.695,201.325 27.685,200.500 27.000 C 199.663 26.306,199.000 26.197,199.000 26.755 M211.219 36.000 C 211.164 37.926,211.628 39.000,212.515 39.000 C 213.615 39.000,213.683 38.390,212.850 36.000 C 212.275 34.350,211.692 33.000,211.554 33.000 C 211.417 33.000,211.266 34.350,211.219 36.000 M193.000 35.000 C 193.000 35.550,192.523 36.000,191.941 36.000 C 191.359 36.000,191.160 35.550,191.500 35.000 C 191.840 34.450,192.316 34.000,192.559 34.000 C 192.802 34.000,193.000 34.450,193.000 35.000 M194.000 40.000 C 194.000 40.550,193.550 41.000,193.000 41.000 C 192.450 41.000,192.000 40.550,192.000 40.000 C 192.000 39.450,192.450 39.000,193.000 39.000 C 193.550 39.000,194.000 39.450,194.000 40.000 M207.750 43.139 C 205.407 45.631,205.528 47.357,208.000 46.710 C 210.252 46.121,210.592 47.008,208.800 48.800 C 207.893 49.707,207.887 50.000,208.777 50.000 C 209.424 50.000,210.710 48.846,211.634 47.435 C 213.225 45.007,213.213 44.775,211.407 43.074 C 209.571 41.345,209.435 41.347,207.750 43.139 M213.667 46.667 C 213.300 47.033,213.000 47.798,213.000 48.367 C 213.000 48.993,213.466 48.934,214.183 48.217 C 214.834 47.566,215.134 46.801,214.850 46.517 C 214.566 46.233,214.033 46.300,213.667 46.667 M197.015 49.750 C 197.024 50.163,197.467 51.175,198.000 52.000 C 198.784 53.213,198.972 53.069,198.985 51.250 C 198.993 50.013,198.550 49.000,198.000 49.000 C 197.450 49.000,197.007 49.337,197.015 49.750 M229.667 49.667 C 228.681 50.652,228.857 54.000,229.894 54.000 C 230.386 54.000,230.724 52.875,230.644 51.501 C 230.565 50.126,230.463 49.001,230.417 49.001 C 230.371 49.000,230.033 49.300,229.667 49.667 M168.485 56.250 C 165.950 63.262,165.058 66.392,165.476 66.810 C 166.040 67.373,168.402 61.898,169.386 57.750 C 170.035 55.013,169.347 53.867,168.485 56.250 M184.139 56.914 C 185.438 57.967,186.724 58.605,186.998 58.332 C 187.585 57.749,184.037 55.000,182.698 55.000 C 182.192 55.000,182.841 55.861,184.139 56.914 M145.497 61.364 C 144.583 62.760,144.029 64.711,144.267 65.701 C 144.588 67.037,145.138 66.508,146.408 63.642 C 148.420 59.100,147.874 57.736,145.497 61.364 M235.588 62.500 C 237.281 67.002,236.984 72.925,234.618 81.880 C 231.773 92.648,232.770 93.045,235.907 82.392 C 238.434 73.812,238.655 65.186,236.418 62.441 C 234.859 60.528,234.848 60.529,235.588 62.500 M151.015 62.691 C 151.024 63.136,151.467 64.175,152.000 65.000 C 152.835 66.293,152.971 66.266,152.985 64.809 C 152.993 63.879,152.550 62.840,152.000 62.500 C 151.450 62.160,151.007 62.246,151.015 62.691 M188.000 63.000 C 188.000 63.550,188.675 64.000,189.500 64.000 C 190.325 64.000,191.000 63.550,191.000 63.000 C 191.000 62.450,190.325 62.000,189.500 62.000 C 188.675 62.000,188.000 62.450,188.000 63.000 M203.000 64.000 C 201.703 64.838,201.726 64.971,203.168 64.985 C 204.086 64.993,205.661 65.309,206.668 65.687 C 208.281 66.292,208.336 66.172,207.128 64.687 C 205.550 62.748,205.063 62.667,203.000 64.000 M198.500 67.000 C 198.160 67.550,198.359 68.000,198.941 68.000 C 199.523 68.000,200.000 67.550,200.000 67.000 C 200.000 66.450,199.802 66.000,199.559 66.000 C 199.316 66.000,198.840 66.450,198.500 67.000 M203.000 68.000 C 203.000 68.550,204.238 68.968,205.750 68.930 C 208.187 68.867,208.272 68.762,206.500 68.000 C 203.769 66.826,203.000 66.826,203.000 68.000 M229.031 67.500 C 229.031 68.050,229.467 69.175,230.000 70.000 C 230.533 70.825,230.969 71.050,230.969 70.500 C 230.969 69.950,230.533 68.825,230.000 68.000 C 229.467 67.175,229.031 66.950,229.031 67.500 M163.000 75.378 C 163.000 76.685,163.582 78.238,164.293 78.829 C 165.319 79.680,165.504 79.187,165.184 76.451 C 164.730 72.564,163.000 71.714,163.000 75.378 M222.465 74.952 C 220.022 75.942,217.479 78.813,218.310 79.643 C 218.637 79.970,219.633 79.510,220.524 78.619 C 222.096 77.047,224.514 76.504,228.382 76.853 C 229.953 76.995,230.057 76.773,229.010 75.512 C 227.635 73.856,225.599 73.681,222.465 74.952 M189.500 77.000 C 189.160 77.550,189.838 78.000,191.007 78.000 C 192.175 78.000,194.002 78.466,195.066 79.035 C 196.130 79.605,197.000 79.677,197.000 79.196 C 197.000 78.313,192.666 76.000,191.012 76.000 C 190.520 76.000,189.840 76.450,189.500 77.000 M183.045 79.624 C 178.673 82.728,178.413 83.000,179.818 83.000 C 180.451 83.000,182.438 81.663,184.234 80.029 C 188.167 76.452,187.725 76.301,183.045 79.624 M150.047 80.025 C 149.303 83.448,148.515 84.681,146.449 85.656 C 144.303 86.669,144.000 86.576,144.000 84.906 C 144.000 82.723,147.623 78.708,149.137 79.213 C 149.694 79.398,150.104 79.764,150.047 80.025 M192.000 80.000 C 192.000 80.550,192.450 81.000,193.000 81.000 C 193.550 81.000,194.000 80.550,194.000 80.000 C 194.000 79.450,193.550 79.000,193.000 79.000 C 192.450 79.000,192.000 79.450,192.000 80.000 M224.000 79.941 C 224.000 80.459,224.450 81.160,225.000 81.500 C 225.550 81.840,226.000 81.416,226.000 80.559 C 226.000 79.702,225.550 79.000,225.000 79.000 C 224.450 79.000,224.000 79.423,224.000 79.941 M229.647 82.013 C 229.291 83.793,229.000 86.798,229.000 88.691 C 229.000 93.479,227.415 96.000,224.406 96.000 C 222.951 96.000,222.148 95.570,222.510 94.984 C 222.856 94.425,223.521 94.204,223.988 94.493 C 225.183 95.231,228.001 92.197,227.996 90.179 C 227.991 87.876,223.792 81.211,223.282 82.695 C 223.055 83.352,223.365 84.814,223.970 85.945 C 224.840 87.569,224.773 88.000,223.652 88.000 C 222.872 88.000,221.999 88.898,221.712 89.995 C 221.192 91.983,218.398 93.732,217.376 92.709 C 217.080 92.413,217.271 91.345,217.801 90.336 C 218.430 89.135,218.398 87.635,217.708 86.000 L 216.653 83.500 216.231 86.000 C 215.998 87.375,215.445 88.950,215.002 89.500 C 213.751 91.051,213.384 94.705,214.490 94.597 C 215.035 94.544,215.712 95.850,215.995 97.500 C 216.392 99.814,217.100 100.569,219.090 100.801 C 220.525 100.968,222.243 100.413,222.958 99.551 C 223.666 98.698,224.717 98.000,225.294 98.000 C 225.871 98.000,227.242 97.213,228.341 96.250 C 230.246 94.582,230.309 94.583,229.693 96.270 C 228.912 98.410,222.131 108.167,218.065 113.000 C 216.446 114.925,214.809 117.783,214.427 119.351 L 213.733 122.202 222.238 121.493 C 232.220 120.662,235.383 121.736,241.551 128.052 L 245.444 132.039 242.066 131.363 C 239.693 130.889,238.894 131.020,239.380 131.805 C 239.759 132.420,241.634 133.216,243.546 133.575 C 248.704 134.542,248.821 136.074,243.683 135.370 C 241.127 135.020,239.003 135.186,238.645 135.765 C 238.261 136.386,241.342 137.021,246.763 137.440 C 251.569 137.810,257.068 138.383,258.983 138.712 C 261.910 139.215,262.150 139.434,260.483 140.085 C 259.246 140.568,261.256 140.886,265.827 140.930 C 272.516 140.994,273.404 141.250,276.026 143.872 C 277.605 145.451,279.173 148.039,279.509 149.622 C 279.846 151.205,280.544 153.281,281.060 154.236 C 281.577 155.191,282.000 156.204,282.000 156.486 C 282.000 157.609,279.171 156.911,278.000 155.500 C 276.486 153.676,274.983 153.548,275.047 155.250 C 275.073 155.938,277.293 158.067,279.981 159.982 C 285.461 163.887,286.020 165.202,280.863 162.058 C 276.860 159.617,274.474 159.277,278.027 161.653 C 279.387 162.563,281.733 164.442,283.240 165.830 C 286.941 169.240,287.899 167.808,285.335 162.697 C 284.178 160.389,282.720 156.017,282.096 152.982 C 279.810 141.869,277.646 140.290,259.500 136.486 C 251.788 134.869,251.287 134.588,245.569 128.654 C 242.307 125.269,240.225 123.287,240.941 124.250 C 241.660 125.214,241.796 126.000,241.245 126.000 C 240.004 126.000,237.423 123.012,238.628 122.970 C 239.107 122.953,238.671 122.457,237.659 121.869 C 236.646 121.280,232.256 120.554,227.904 120.256 C 218.352 119.601,216.177 118.428,218.015 114.921 C 218.713 113.589,220.992 110.628,223.079 108.340 C 226.326 104.782,232.000 95.326,232.000 93.474 C 232.000 93.148,231.474 93.207,230.830 93.605 C 230.018 94.107,229.879 93.757,230.377 92.459 C 231.739 88.912,232.235 82.242,231.266 80.512 C 230.444 79.043,230.195 79.274,229.647 82.013 M159.593 82.618 C 159.231 83.562,159.369 84.769,159.900 85.300 C 161.345 86.745,164.197 85.261,163.812 83.265 C 163.362 80.924,160.416 80.473,159.593 82.618 M172.762 83.707 C 174.006 83.946,175.806 83.937,176.762 83.687 C 177.718 83.437,176.700 83.241,174.500 83.252 C 172.300 83.263,171.518 83.468,172.762 83.707 M186.670 84.417 C 186.257 85.493,184.792 86.000,182.090 86.000 C 179.906 86.000,177.855 86.426,177.533 86.947 C 177.211 87.468,178.991 89.938,181.489 92.436 C 185.494 96.441,185.886 97.210,184.803 98.944 C 183.291 101.365,184.401 102.742,186.476 101.020 C 187.617 100.073,188.000 100.055,188.000 100.949 C 188.000 101.606,188.644 102.787,189.432 103.574 C 191.053 105.196,191.330 104.674,192.585 97.608 C 193.180 94.255,192.952 93.472,190.937 91.953 C 188.909 90.423,188.780 89.970,189.967 88.540 C 191.145 87.120,191.053 86.609,189.307 84.862 C 187.539 83.095,187.200 83.038,186.670 84.417 M185.000 87.441 C 185.000 87.684,184.550 88.160,184.000 88.500 C 183.450 88.840,183.000 88.641,183.000 88.059 C 183.000 87.477,183.450 87.000,184.000 87.000 C 184.550 87.000,185.000 87.198,185.000 87.441 M226.000 91.000 C 226.000 91.550,225.550 92.000,225.000 92.000 C 224.450 92.000,224.000 91.550,224.000 91.000 C 224.000 90.450,224.450 90.000,225.000 90.000 C 225.550 90.000,226.000 90.450,226.000 91.000 M190.122 97.675 C 189.251 99.174,189.055 99.217,189.030 97.917 C 188.998 96.233,190.050 94.716,190.758 95.425 C 190.992 95.659,190.706 96.671,190.122 97.675 M170.000 103.000 C 170.000 103.550,170.450 104.000,171.000 104.000 C 171.550 104.000,172.000 103.550,172.000 103.000 C 172.000 102.450,171.550 102.000,171.000 102.000 C 170.450 102.000,170.000 102.450,170.000 103.000 M155.667 103.667 C 154.054 105.279,155.333 106.000,159.809 106.000 C 162.489 106.000,165.477 105.350,166.559 104.532 C 168.335 103.188,167.983 103.061,162.417 103.032 C 159.071 103.014,156.033 103.300,155.667 103.667 M176.349 104.051 C 175.771 104.629,172.643 106.234,169.399 107.616 L 163.500 110.130 167.842 109.539 C 172.996 108.836,180.319 105.326,179.476 103.962 C 178.705 102.713,177.657 102.743,176.349 104.051 M149.000 109.500 C 149.000 110.325,149.450 111.000,150.000 111.000 C 150.550 111.000,151.000 110.325,151.000 109.500 C 151.000 108.675,150.550 108.000,150.000 108.000 C 149.450 108.000,149.000 108.675,149.000 109.500 M157.813 110.683 C 158.534 110.972,159.397 110.936,159.729 110.604 C 160.061 110.272,159.471 110.036,158.417 110.079 C 157.252 110.127,157.015 110.364,157.813 110.683 M216.750 124.080 C 214.894 125.161,214.309 129.000,216.000 129.000 C 216.550 129.000,217.000 128.325,217.000 127.500 C 217.000 126.675,217.402 126.000,217.893 126.000 C 218.384 126.000,219.045 125.325,219.362 124.500 C 220.027 122.766,219.227 122.638,216.750 124.080 M203.000 131.417 C 203.000 132.196,202.438 133.034,201.750 133.280 C 201.063 133.525,200.827 134.077,201.226 134.506 C 201.625 134.934,202.638 134.716,203.476 134.020 C 205.190 132.598,205.529 130.000,204.000 130.000 C 203.450 130.000,203.000 130.637,203.000 131.417 M205.211 134.601 C 204.501 135.371,202.378 136.000,200.492 136.000 C 197.855 136.000,197.196 136.346,197.638 137.500 C 197.955 138.325,197.716 139.000,197.107 139.000 C 196.498 139.000,196.000 138.612,196.000 138.139 C 196.000 137.665,194.762 137.505,193.250 137.783 C 189.496 138.474,183.000 143.735,183.000 146.084 C 183.000 148.223,181.408 148.690,180.729 146.750 C 180.418 145.859,179.650 146.070,178.056 147.487 C 175.851 149.446,175.800 149.447,174.410 147.546 C 173.634 146.485,173.000 144.998,173.000 144.241 C 173.000 143.344,172.338 143.075,171.100 143.468 C 169.659 143.926,168.874 143.338,167.857 141.038 C 166.855 138.776,165.877 138.026,164.007 138.089 C 162.628 138.135,160.375 137.831,159.000 137.414 C 157.093 136.835,157.611 137.585,161.186 140.578 C 164.603 143.438,166.035 145.448,166.476 148.000 C 168.143 157.650,171.242 163.205,174.004 161.497 C 174.670 161.086,175.361 161.666,175.686 162.908 C 176.212 164.919,176.414 164.859,179.984 161.633 C 183.167 158.757,187.129 156.217,198.966 149.461 C 199.967 148.889,201.552 147.787,202.488 147.010 C 204.391 145.431,209.993 136.052,209.960 134.500 C 209.949 133.950,209.414 134.400,208.772 135.500 C 207.617 137.477,207.598 137.475,207.052 135.351 C 206.585 133.535,206.301 133.419,205.211 134.601 M202.000 139.441 C 202.000 140.234,201.550 141.160,201.000 141.500 C 200.450 141.840,200.000 141.191,200.000 140.059 C 200.000 138.927,200.450 138.000,201.000 138.000 C 201.550 138.000,202.000 138.648,202.000 139.441 M206.500 140.000 C 206.160 140.550,205.432 141.000,204.882 141.000 C 204.332 141.000,204.160 140.550,204.500 140.000 C 204.840 139.450,205.568 139.000,206.118 139.000 C 206.668 139.000,206.840 139.450,206.500 140.000 M194.200 141.200 C 193.267 142.133,192.733 142.133,191.800 141.200 C 190.867 140.267,191.133 140.000,193.000 140.000 C 194.867 140.000,195.133 140.267,194.200 141.200 M245.500 141.000 C 245.840 141.550,246.541 142.000,247.059 142.000 C 247.577 142.000,248.000 141.550,248.000 141.000 C 248.000 140.450,247.298 140.000,246.441 140.000 C 245.584 140.000,245.160 140.450,245.500 141.000 M252.250 140.689 C 253.213 140.941,254.787 140.941,255.750 140.689 C 256.712 140.438,255.925 140.232,254.000 140.232 C 252.075 140.232,251.287 140.438,252.250 140.689 M141.000 149.441 C 141.000 149.684,140.550 150.160,140.000 150.500 C 139.450 150.840,139.000 150.641,139.000 150.059 C 139.000 149.477,139.450 149.000,140.000 149.000 C 140.550 149.000,141.000 149.198,141.000 149.441 M180.000 150.000 C 180.000 150.550,179.550 151.000,179.000 151.000 C 178.450 151.000,178.000 150.550,178.000 150.000 C 178.000 149.450,178.450 149.000,179.000 149.000 C 179.550 149.000,180.000 149.450,180.000 150.000 M195.000 150.000 C 193.030 151.273,190.713 151.273,191.500 150.000 C 191.840 149.450,193.104 149.007,194.309 149.015 C 196.090 149.028,196.219 149.212,195.000 150.000 M164.070 156.250 C 164.032 157.762,164.450 159.000,165.000 159.000 C 166.174 159.000,166.174 158.231,165.000 155.500 C 164.238 153.728,164.133 153.813,164.070 156.250 M251.819 154.501 C 250.709 155.633,252.081 157.999,253.857 158.015 C 255.290 158.029,255.308 158.164,254.000 159.074 C 252.364 160.211,260.792 159.462,265.807 158.024 L 268.500 157.252 265.500 155.993 C 261.957 154.506,252.795 153.507,251.819 154.501 M265.000 161.000 C 265.000 162.201,269.705 162.201,272.500 161.000 C 274.005 160.353,273.324 160.123,269.750 160.070 C 267.137 160.032,265.000 160.450,265.000 161.000 M165.329 164.094 C 165.683 165.417,165.979 167.738,165.986 169.250 C 165.994 170.762,166.450 172.000,167.000 172.000 C 167.550 172.000,168.000 171.298,168.000 170.441 C 168.000 169.584,168.450 169.160,169.000 169.500 C 169.550 169.840,170.000 169.191,170.000 168.059 C 170.000 166.895,169.348 166.000,168.500 166.000 C 167.675 166.000,167.000 165.352,167.000 164.559 C 167.000 163.766,166.479 162.796,165.842 162.403 C 165.031 161.901,164.877 162.406,165.329 164.094 M263.000 167.000 C 264.970 168.273,267.287 168.273,266.500 167.000 C 266.160 166.450,264.896 166.007,263.691 166.015 C 261.910 166.028,261.781 166.212,263.000 167.000 M270.500 167.000 C 270.840 167.550,271.793 168.000,272.618 168.000 C 273.443 168.000,273.840 167.550,273.500 167.000 C 273.160 166.450,272.207 166.000,271.382 166.000 C 270.557 166.000,270.160 166.450,270.500 167.000 M126.860 171.714 C 122.095 175.246,120.958 176.523,122.326 176.802 C 123.330 177.008,124.812 176.349,125.620 175.338 C 126.944 173.682,127.026 174.020,126.451 178.750 C 125.667 185.192,126.570 185.592,128.109 179.483 C 128.734 176.999,129.641 174.722,130.123 174.424 C 131.343 173.670,131.228 175.029,129.509 181.627 C 127.170 190.606,128.482 189.058,131.896 178.811 C 136.533 164.894,136.370 164.665,126.860 171.714 M132.494 171.006 C 131.496 172.110,130.447 172.780,130.162 172.496 C 129.878 172.212,130.513 171.323,131.573 170.521 C 134.277 168.476,134.621 168.657,132.494 171.006 M117.459 180.067 C 117.096 180.653,117.040 181.373,117.333 181.667 C 118.050 182.383,120.000 181.121,120.000 179.941 C 120.000 178.663,118.274 178.748,117.459 180.067 M125.459 187.067 C 125.096 187.653,125.014 188.348,125.276 188.610 C 125.538 188.872,126.019 188.392,126.345 187.543 C 127.021 185.781,126.445 185.471,125.459 187.067 M164.079 187.583 C 164.127 188.748,164.364 188.985,164.683 188.188 C 164.972 187.466,164.936 186.603,164.604 186.271 C 164.272 185.939,164.036 186.529,164.079 187.583 M111.000 220.000 C 111.000 221.867,111.267 222.133,112.200 221.200 C 113.133 220.267,113.133 219.733,112.200 218.800 C 111.267 217.867,111.000 218.133,111.000 220.000 M106.161 227.563 C 105.116 235.661,101.359 246.451,98.322 250.079 C 96.213 252.598,96.773 255.408,100.000 258.500 C 102.645 261.034,103.016 262.092,103.132 267.437 C 103.246 272.706,103.360 273.042,104.000 270.000 C 104.571 267.286,104.794 268.410,104.994 275.000 C 105.227 282.734,105.323 283.094,106.051 279.000 C 107.594 270.330,107.129 263.782,104.668 259.500 C 102.964 256.535,101.804 255.562,100.185 255.738 C 98.092 255.966,96.979 253.576,98.832 252.833 C 99.290 252.650,100.840 249.912,102.277 246.750 C 103.714 243.588,105.477 240.995,106.195 240.990 C 107.174 240.982,107.558 238.237,107.734 229.990 C 107.863 223.945,107.810 219.000,107.617 219.000 C 107.424 219.000,106.769 222.853,106.161 227.563 M179.000 248.306 C 176.445 249.178,175.406 250.175,175.152 252.000 L 174.804 254.500 176.933 251.803 C 178.258 250.124,180.656 248.748,183.281 248.160 C 185.944 247.563,186.578 247.196,185.000 247.164 C 183.625 247.136,180.925 247.650,179.000 248.306 M188.500 249.000 C 188.840 249.550,189.316 250.000,189.559 250.000 C 189.802 250.000,190.000 249.550,190.000 249.000 C 190.000 248.450,189.523 248.000,188.941 248.000 C 188.359 248.000,188.160 248.450,188.500 249.000 M179.000 252.025 C 179.000 253.172,181.864 254.388,186.788 255.334 C 189.271 255.811,190.225 255.578,190.684 254.382 C 191.018 253.511,190.663 252.400,189.896 251.914 C 187.952 250.683,179.000 250.774,179.000 252.025 M178.584 257.359 C 178.931 258.261,179.702 259.000,180.298 259.000 C 180.894 259.000,180.555 259.605,179.544 260.344 C 178.189 261.335,177.881 262.388,178.372 264.344 C 178.995 266.827,182.000 268.199,182.000 266.000 C 182.000 265.450,181.550 265.000,181.000 265.000 C 180.450 265.000,180.000 264.499,180.000 263.887 C 180.000 263.218,181.199 262.949,183.000 263.213 C 184.650 263.455,186.000 263.527,186.000 263.372 C 186.000 263.001,181.821 258.874,179.659 257.109 C 178.169 255.893,178.034 255.924,178.584 257.359 M182.813 256.683 C 183.534 256.972,184.397 256.936,184.729 256.604 C 185.061 256.272,184.471 256.036,183.417 256.079 C 182.252 256.127,182.015 256.364,182.813 256.683 M187.000 258.893 C 187.000 260.017,189.601 261.066,190.402 260.264 C 191.606 259.061,190.949 258.000,189.000 258.000 C 187.900 258.000,187.000 258.402,187.000 258.893 M100.158 308.000 C 100.158 309.375,100.385 309.938,100.662 309.250 C 100.940 308.563,100.940 307.438,100.662 306.750 C 100.385 306.063,100.158 306.625,100.158 308.000 M98.195 333.500 C 98.215 335.150,98.439 335.704,98.693 334.731 C 98.947 333.758,98.930 332.408,98.656 331.731 C 98.382 331.054,98.175 331.850,98.195 333.500 M95.652 353.500 C 95.215 357.900,94.241 366.900,93.487 373.500 C 91.743 388.771,90.490 415.745,91.573 414.718 C 92.027 414.288,92.679 407.063,93.024 398.664 C 93.568 385.387,93.923 383.007,95.741 380.446 C 97.873 377.441,99.573 373.000,98.591 373.000 C 98.292 373.000,97.116 374.688,95.977 376.750 C 94.391 379.621,94.022 379.914,94.402 378.000 C 95.531 372.311,97.143 353.214,96.808 349.500 C 96.530 346.432,96.261 347.365,95.652 353.500 M103.652 360.750 C 102.883 362.262,101.950 364.625,101.579 366.000 C 101.014 368.093,101.084 368.213,102.007 366.741 C 103.612 364.179,106.109 358.000,105.539 358.000 C 105.271 358.000,104.422 359.238,103.652 360.750 M95.625 407.798 C 95.354 408.237,95.545 409.249,96.051 410.048 C 96.768 411.182,96.973 411.007,96.985 409.250 C 97.000 406.937,96.492 406.394,95.625 407.798 M88.376 419.750 C 80.468 430.623,76.942 440.876,77.135 452.432 L 77.270 460.500 78.106 451.500 C 79.170 440.033,80.605 434.846,84.013 430.140 C 86.378 426.876,91.352 417.000,90.632 417.000 C 90.491 417.000,89.476 418.238,88.376 419.750 M89.980 422.524 C 88.048 424.853,89.426 425.291,91.494 423.006 C 92.493 421.903,92.845 421.000,92.277 421.000 C 91.710 421.000,90.676 421.686,89.980 422.524 M228.602 525.714 C 228.228 529.996,227.253 537.726,226.436 542.892 C 225.619 548.058,225.167 552.501,225.432 552.766 C 226.628 553.961,229.096 551.768,229.645 549.024 C 229.978 547.361,230.591 546.000,231.008 546.000 C 232.217 546.000,232.924 540.571,231.805 539.880 C 231.131 539.463,231.125 538.628,231.786 537.377 C 232.373 536.266,232.467 533.475,232.015 530.535 C 231.521 527.319,231.645 524.940,232.369 523.781 C 233.164 522.508,233.179 521.508,232.421 520.306 C 230.175 516.745,229.274 518.021,228.602 525.714 M236.116 522.500 C 235.929 527.310,239.002 554.099,240.274 558.750 C 241.546 563.400,241.720 563.530,244.178 561.661 C 245.328 560.786,245.569 559.931,244.943 558.942 C 243.630 556.867,243.791 550.609,245.193 549.207 C 246.117 548.283,245.938 547.392,244.397 545.257 C 242.000 541.935,242.332 539.455,245.304 538.497 C 246.943 537.968,247.109 537.680,245.957 537.360 C 244.019 536.824,242.010 531.676,242.704 529.026 C 242.991 527.928,242.926 526.248,242.559 525.293 C 241.989 523.807,241.758 523.769,240.962 525.028 C 240.233 526.180,240.027 525.988,240.015 524.143 C 240.005 522.508,239.560 521.955,238.563 522.338 C 237.728 522.658,236.938 522.179,236.679 521.195 C 236.433 520.263,236.180 520.850,236.116 522.500 M249.500 526.000 C 249.840 526.550,250.316 527.000,250.559 527.000 C 250.802 527.000,251.000 526.550,251.000 526.000 C 251.000 525.450,250.523 525.000,249.941 525.000 C 249.359 525.000,249.160 525.450,249.500 526.000 M254.526 537.950 C 253.687 539.573,253.014 541.936,253.032 543.200 C 253.063 545.471,253.083 545.474,254.602 543.500 C 255.449 542.400,256.512 541.597,256.965 541.715 C 257.419 541.833,257.971 540.371,258.194 538.465 C 258.704 534.093,256.668 533.807,254.526 537.950 M255.272 545.211 C 252.599 546.501,252.296 547.407,251.421 556.750 C 250.443 567.189,253.757 566.373,255.482 555.750 C 255.817 553.688,256.496 552.000,256.992 552.000 C 257.488 552.000,257.822 550.200,257.735 548.000 C 257.647 545.800,257.558 544.030,257.538 544.068 C 257.517 544.105,256.497 544.619,255.272 545.211 M224.423 571.250 C 215.416 581.875,205.794 617.507,210.317 623.487 C 211.816 625.469,211.824 625.469,214.020 623.487 C 221.846 616.422,233.603 578.007,230.215 570.572 C 228.686 567.217,227.748 567.327,224.423 571.250 M274.000 574.861 C 274.000 575.335,275.125 575.508,276.500 575.245 C 277.875 574.982,279.000 574.594,279.000 574.383 C 279.000 574.173,277.875 574.000,276.500 574.000 C 275.125 574.000,274.000 574.388,274.000 574.861 M274.169 577.500 C 275.867 582.476,277.539 586.000,278.201 586.000 C 279.504 586.000,279.084 584.729,276.382 580.500 C 274.977 578.300,273.981 576.950,274.169 577.500 M264.396 597.750 C 264.098 598.712,263.428 600.295,262.908 601.267 C 262.149 602.683,262.475 603.230,264.546 604.017 C 267.780 605.247,269.000 605.261,269.000 604.066 C 269.000 603.553,267.762 602.945,266.250 602.716 L 263.500 602.300 266.281 602.150 C 269.465 601.978,270.804 599.673,268.989 597.487 C 267.323 595.480,265.058 595.609,264.396 597.750 M268.020 598.524 C 268.716 599.362,269.015 600.318,268.686 600.648 C 267.662 601.672,265.000 600.143,265.000 598.531 C 265.000 596.573,266.398 596.569,268.020 598.524 M238.926 604.685 C 235.199 608.053,234.904 608.677,235.512 611.917 C 236.542 617.407,237.709 618.845,242.092 620.025 C 248.764 621.821,250.094 620.670,244.500 617.940 C 240.156 615.820,239.458 615.061,239.180 612.156 C 238.703 607.185,241.393 604.660,246.497 605.287 C 248.699 605.558,251.287 606.102,252.250 606.497 C 253.321 606.936,254.000 606.766,254.000 606.058 C 254.000 604.896,246.581 601.063,244.253 601.022 C 243.567 601.010,241.170 602.658,238.926 604.685 M262.332 606.578 C 261.588 608.516,264.304 611.435,266.152 610.683 C 267.060 610.314,266.766 609.911,265.250 609.451 C 262.128 608.502,262.432 607.003,265.750 606.985 C 267.893 606.973,268.169 606.755,267.000 606.000 C 264.790 604.572,263.017 604.791,262.332 606.578 M243.667 607.667 C 242.340 608.993,243.071 609.705,246.958 610.869 C 253.311 612.773,253.110 614.283,246.612 613.471 C 240.312 612.684,239.394 613.445,244.250 615.431 C 250.848 618.130,251.811 618.189,253.972 616.028 C 256.725 613.275,255.386 610.772,250.009 608.620 C 245.518 606.823,244.642 606.692,243.667 607.667 M260.362 612.500 C 260.045 613.325,260.031 614.638,260.330 615.417 C 260.629 616.197,260.227 617.083,259.437 617.386 C 255.922 618.735,259.258 623.000,263.827 623.000 C 266.343 623.000,267.315 620.507,265.415 618.930 C 264.133 617.866,264.153 617.488,265.573 615.920 C 266.547 614.843,266.874 613.605,266.391 612.823 C 265.813 611.888,265.390 612.223,264.892 614.010 L 264.199 616.500 264.100 613.750 C 263.991 610.760,261.366 609.882,260.362 612.500 M263.000 613.000 C 263.000 613.550,262.550 614.000,262.000 614.000 C 261.450 614.000,261.000 613.550,261.000 613.000 C 261.000 612.450,261.450 612.000,262.000 612.000 C 262.550 612.000,263.000 612.450,263.000 613.000 M262.500 619.000 C 262.840 619.550,262.852 620.430,262.527 620.956 C 261.704 622.287,259.000 621.089,259.000 619.393 C 259.000 617.794,261.576 617.505,262.500 619.000 M255.667 623.667 C 254.431 624.902,254.988 626.219,256.500 625.638 C 257.533 625.242,258.000 625.702,258.000 627.115 C 258.000 629.456,259.839 629.213,261.429 626.662 C 262.242 625.357,262.139 624.713,261.000 623.987 C 259.249 622.871,256.620 622.713,255.667 623.667 M261.000 626.000 C 261.000 626.550,260.550 627.000,260.000 627.000 C 259.450 627.000,259.000 626.550,259.000 626.000 C 259.000 625.450,259.450 625.000,260.000 625.000 C 260.550 625.000,261.000 625.450,261.000 626.000 M253.000 628.000 C 254.958 629.266,256.282 629.266,255.500 628.000 C 255.160 627.450,254.121 627.007,253.191 627.015 C 251.734 627.029,251.707 627.165,253.000 628.000 M99.500 824.000 C 99.160 824.550,99.359 825.000,99.941 825.000 C 100.523 825.000,101.000 824.550,101.000 824.000 C 101.000 823.450,100.802 823.000,100.559 823.000 C 100.316 823.000,99.840 823.450,99.500 824.000 M95.000 827.378 C 95.000 827.585,95.675 828.315,96.500 829.000 C 97.729 830.020,98.000 829.951,98.000 828.622 C 98.000 827.730,97.325 827.000,96.500 827.000 C 95.675 827.000,95.000 827.170,95.000 827.378 M91.000 831.000 C 89.707 831.835,89.734 831.971,91.191 831.985 C 92.121 831.993,93.160 831.550,93.500 831.000 C 94.282 829.734,92.958 829.734,91.000 831.000 M80.049 840.078 C 77.601 841.685,74.761 843.000,73.738 843.000 C 72.385 843.000,73.138 844.090,76.500 847.000 C 81.783 851.572,82.772 851.869,82.613 848.833 C 82.494 846.548,80.000 844.910,80.000 847.117 C 80.000 848.073,79.711 848.111,78.867 847.267 C 76.995 845.395,78.675 843.000,81.862 843.000 C 83.606 843.000,85.031 842.362,85.393 841.418 C 86.332 838.972,86.128 838.649,84.500 840.000 C 82.722 841.476,82.465 839.935,84.200 838.200 C 86.024 836.376,84.941 836.866,80.049 840.078 M69.695 846.353 C 69.409 847.097,69.988 848.402,70.982 849.252 C 71.975 850.103,73.242 851.610,73.797 852.602 C 74.633 854.096,75.070 854.187,76.344 853.130 C 78.050 851.714,77.502 849.000,75.510 849.000 C 74.808 849.000,73.998 848.100,73.710 847.000 C 73.117 844.732,70.480 844.307,69.695 846.353 M66.500 852.000 C 66.840 852.550,67.766 853.000,68.559 853.000 C 69.352 853.000,70.000 853.675,70.000 854.500 C 70.000 856.274,71.581 856.487,72.594 854.848 C 72.985 854.215,72.476 853.090,71.462 852.348 C 69.324 850.785,65.587 850.523,66.500 852.000 M55.000 854.069 C 53.075 855.087,48.237 857.355,44.249 859.109 C 40.261 860.862,36.494 862.905,35.877 863.648 C 34.465 865.349,36.136 865.431,37.947 863.750 C 38.855 862.907,39.077 862.885,38.630 863.681 C 37.653 865.422,38.594 865.679,48.750 866.449 C 56.388 867.028,58.000 866.904,58.000 865.736 C 58.000 864.958,59.171 863.788,60.602 863.136 C 62.747 862.158,62.988 861.691,61.979 860.475 C 60.998 859.293,61.037 859.000,62.178 859.000 C 62.960 859.000,64.140 859.540,64.800 860.200 C 65.733 861.133,66.000 861.049,66.000 859.822 C 66.000 858.955,65.325 857.685,64.500 857.000 C 63.675 856.315,63.000 854.910,63.000 853.878 C 63.000 851.471,59.763 851.548,55.000 854.069 M168.543 862.931 C 168.226 863.443,168.425 864.144,168.984 864.490 C 169.543 864.835,170.000 864.416,170.000 863.559 C 170.000 861.802,169.400 861.544,168.543 862.931 M34.000 874.444 C 34.000 875.522,41.764 878.858,45.547 879.405 C 48.994 879.903,48.796 879.744,44.000 878.161 C 40.975 877.163,37.487 875.803,36.250 875.138 C 35.013 874.473,34.000 874.161,34.000 874.444 M57.750 880.662 C 58.438 880.940,59.563 880.940,60.250 880.662 C 60.938 880.385,60.375 880.158,59.000 880.158 C 57.625 880.158,57.063 880.385,57.750 880.662 M233.027 881.500 C 233.051 882.879,236.751 887.583,237.342 886.985 C 237.605 886.718,236.738 885.150,235.415 883.500 C 234.092 881.850,233.018 880.950,233.027 881.500 M240.556 903.910 C 239.867 905.024,240.918 908.000,242.000 908.000 C 242.805 908.000,244.000 905.562,244.000 903.918 C 244.000 902.730,241.289 902.723,240.556 903.910 M229.701 909.796 C 224.853 914.717,221.907 921.000,224.447 921.000 C 225.167 921.000,226.315 920.325,227.000 919.500 C 227.996 918.300,227.990 918.000,226.967 918.000 C 226.069 918.000,226.180 917.458,227.345 916.171 C 228.255 915.165,229.000 913.838,229.000 913.221 C 229.000 912.604,229.563 911.738,230.250 911.297 C 230.938 910.856,232.591 909.259,233.924 907.747 C 238.023 903.103,234.712 904.708,229.701 909.796 M304.015 908.536 C 304.043 910.257,305.871 912.463,306.636 911.697 C 307.046 911.288,306.620 910.192,305.690 909.262 C 304.761 908.332,304.007 908.005,304.015 908.536 M214.903 933.000 C 213.121 935.750,210.929 938.000,210.032 938.000 C 208.002 938.000,206.000 939.922,206.000 941.871 C 206.000 942.680,205.253 944.168,204.339 945.177 C 203.426 946.187,202.962 947.295,203.308 947.642 C 203.654 947.988,204.739 946.826,205.719 945.061 C 206.698 943.295,208.099 941.096,208.832 940.175 C 210.220 938.428,210.129 939.158,208.426 943.414 C 207.926 944.663,208.026 945.102,208.714 944.677 C 209.294 944.318,212.380 944.508,215.572 945.098 C 220.803 946.065,232.285 945.383,229.250 944.285 C 227.369 943.605,227.747 942.300,229.995 941.712 C 231.092 941.425,232.292 940.402,232.662 939.439 C 233.506 937.240,229.398 933.663,226.807 934.340 C 225.813 934.600,225.000 934.383,225.000 933.858 C 225.000 932.840,219.958 928.085,218.821 928.032 C 218.448 928.014,216.685 930.250,214.903 933.000 " stroke="none" fill="black" fillRule="evenodd"/></svg>