<svg id="svg" version="1.1" width="950" height="950" xmlns="http://www.w3.org/2000/svg"><path d="M458.250 344.075 C 454.064 345.340,453.895 348.000,458.000 348.000 C 459.650 348.000,461.000 347.613,461.000 347.140 C 461.000 345.365,475.904 347.895,481.236 350.575 C 485.064 352.499,487.946 355.781,487.978 358.250 C 487.990 359.212,488.450 360.000,489.000 360.000 C 489.550 360.000,490.000 359.270,490.000 358.378 C 490.000 356.976,490.238 356.942,491.750 358.128 C 492.712 358.882,492.294 357.925,490.821 356.000 C 489.347 354.075,487.604 352.631,486.948 352.791 C 486.239 352.964,485.996 352.454,486.348 351.536 C 487.272 349.128,480.402 345.127,474.488 344.628 C 471.744 344.397,467.700 343.957,465.500 343.650 C 463.300 343.344,460.038 343.535,458.250 344.075 M454.000 351.139 C 454.000 351.490,453.394 351.715,452.653 351.639 C 450.942 351.462,443.802 359.870,444.586 361.139 C 444.908 361.661,444.646 362.721,444.003 363.496 C 442.531 365.270,443.639 369.000,445.639 369.000 C 447.870 369.000,450.000 371.538,450.000 374.196 C 450.000 376.679,445.543 384.000,444.031 384.000 C 443.538 384.000,442.830 384.959,442.458 386.132 C 441.926 387.807,441.594 387.968,440.906 386.882 C 439.917 385.320,440.015 384.779,439.514 394.500 C 439.344 397.800,439.447 399.600,439.743 398.500 C 440.192 396.829,440.492 397.075,441.564 400.000 L 442.848 403.500 442.956 399.500 C 443.015 397.300,443.693 394.669,444.463 393.653 C 445.233 392.637,445.620 391.174,445.324 390.403 C 444.688 388.744,445.443 388.632,448.004 390.002 C 449.501 390.803,449.881 390.653,449.899 389.252 C 449.931 386.849,451.875 377.347,453.315 372.556 C 454.820 367.545,458.799 366.201,466.828 367.991 C 472.613 369.280,473.986 368.893,472.020 366.524 C 470.982 365.273,471.025 365.000,472.261 365.000 C 473.089 365.000,474.002 364.100,474.290 363.000 C 475.031 360.166,476.859 360.522,478.144 363.750 C 478.834 365.485,479.422 366.002,479.735 365.152 C 480.008 364.411,479.280 362.517,478.116 360.943 C 476.952 359.369,475.997 357.725,475.993 357.290 C 475.989 356.856,474.336 355.375,472.319 354.000 C 469.505 352.082,466.947 351.384,461.326 351.000 C 457.297 350.725,454.000 350.788,454.000 351.139 M482.382 362.191 C 481.977 362.846,482.178 363.559,482.829 363.776 C 483.480 363.993,483.698 364.695,483.314 365.335 C 482.845 366.118,483.119 366.093,484.150 365.259 C 484.994 364.576,486.041 364.351,486.477 364.759 C 486.914 365.166,486.744 364.488,486.100 363.250 C 484.803 360.756,483.499 360.384,482.382 362.191 M457.624 371.539 C 457.281 372.432,457.029 373.689,457.063 374.332 C 457.098 374.974,457.558 374.422,458.085 373.105 C 458.612 371.787,458.864 370.531,458.645 370.312 C 458.426 370.093,457.966 370.645,457.624 371.539 M443.667 373.667 C 443.300 374.033,443.000 374.798,443.000 375.367 C 443.000 375.993,443.466 375.934,444.183 375.217 C 444.834 374.566,445.134 373.801,444.850 373.517 C 444.566 373.233,444.033 373.300,443.667 373.667 M480.500 375.000 C 480.840 375.550,481.316 376.000,481.559 376.000 C 481.802 376.000,482.000 375.550,482.000 375.000 C 482.000 374.450,481.523 374.000,480.941 374.000 C 480.359 374.000,480.160 374.450,480.500 375.000 M500.158 382.000 C 500.158 383.375,500.385 383.938,500.662 383.250 C 500.940 382.563,500.940 381.438,500.662 380.750 C 500.385 380.063,500.158 380.625,500.158 382.000 M455.079 382.583 C 455.127 383.748,455.364 383.985,455.683 383.188 C 455.972 382.466,455.936 381.603,455.604 381.271 C 455.272 380.939,455.036 381.529,455.079 382.583 M490.441 382.582 C 488.665 384.029,488.656 384.114,490.332 383.582 C 491.339 383.262,493.053 383.000,494.141 383.000 C 495.228 383.000,495.840 382.550,495.500 382.000 C 494.603 380.549,492.662 380.772,490.441 382.582 M472.756 382.664 C 473.447 382.943,473.715 383.652,473.352 384.240 C 472.958 384.877,473.164 385.017,473.862 384.585 C 475.239 383.735,474.412 381.965,472.691 382.079 C 471.839 382.135,471.857 382.302,472.756 382.664 M446.607 385.582 C 446.273 386.452,446.000 387.352,446.000 387.582 C 446.000 387.812,445.309 388.000,444.465 388.000 C 443.240 388.000,443.146 387.596,444.000 386.000 C 445.263 383.640,447.489 383.283,446.607 385.582 M453.000 386.500 C 453.000 387.325,453.450 388.000,454.000 388.000 C 454.550 388.000,455.000 387.325,455.000 386.500 C 455.000 385.675,454.550 385.000,454.000 385.000 C 453.450 385.000,453.000 385.675,453.000 386.500 M495.960 388.191 L 495.920 391.500 494.428 388.750 C 492.855 385.851,491.775 385.151,492.114 387.250 C 492.392 388.975,490.978 392.000,489.893 392.000 C 489.402 392.000,488.984 390.988,488.965 389.750 C 488.929 387.509,488.924 387.509,487.575 389.945 C 486.551 391.793,486.486 392.972,487.307 394.774 C 488.407 397.188,489.923 397.331,494.449 395.445 C 496.341 394.657,496.338 394.718,494.362 397.567 C 491.650 401.478,490.794 403.000,491.308 403.000 C 491.542 403.000,492.849 401.313,494.212 399.250 C 496.734 395.432,498.475 386.411,496.879 385.425 C 496.396 385.126,495.982 386.371,495.960 388.191 M499.079 386.583 C 499.127 387.748,499.364 387.985,499.683 387.188 C 499.972 386.466,499.936 385.603,499.604 385.271 C 499.272 384.939,499.036 385.529,499.079 386.583 M468.000 387.663 C 467.175 387.935,465.898 388.349,465.163 388.581 C 464.190 388.889,464.520 389.829,466.371 392.029 C 467.771 393.693,468.662 395.717,468.351 396.527 C 468.040 397.337,468.247 398.000,468.811 398.000 C 469.375 398.000,470.548 398.273,471.418 398.607 C 472.672 399.088,473.000 398.500,473.000 395.774 C 473.000 393.881,472.668 392.002,472.263 391.596 C 471.857 391.191,471.520 390.142,471.513 389.266 C 471.499 387.487,470.252 386.918,468.000 387.663 M495.000 393.059 C 495.000 393.577,494.625 394.000,494.167 394.000 C 493.708 394.000,493.333 393.345,493.333 392.544 C 493.333 391.743,493.708 391.320,494.167 391.603 C 494.625 391.886,495.000 392.541,495.000 393.059 M450.500 400.000 C 451.281 401.264,454.044 401.264,456.000 400.000 C 457.113 399.280,456.519 399.027,453.691 399.015 C 451.403 399.006,450.129 399.399,450.500 400.000 M460.000 401.000 C 458.075 402.054,457.085 402.935,457.800 402.958 C 459.244 403.005,465.000 400.220,465.000 399.474 C 465.000 398.615,463.548 399.058,460.000 401.000 M440.059 402.000 C 439.969 404.817,442.184 411.331,444.456 414.931 C 446.522 418.202,446.592 418.728,445.241 420.763 C 444.424 421.993,444.026 423.000,444.355 423.000 C 444.684 423.000,445.681 421.890,446.569 420.534 C 448.090 418.214,448.054 417.884,445.953 414.935 C 444.726 413.211,442.909 409.258,441.915 406.150 C 440.921 403.043,440.086 401.175,440.059 402.000 M487.560 407.217 C 486.347 409.998,487.236 410.535,492.000 409.900 C 496.362 409.319,496.387 409.296,492.823 409.150 C 490.228 409.044,489.024 408.485,488.728 407.250 C 488.335 405.607,488.264 405.605,487.560 407.217 M499.000 411.000 C 500.958 412.266,502.282 412.266,501.500 411.000 C 501.160 410.450,500.121 410.007,499.191 410.015 C 497.734 410.029,497.707 410.165,499.000 411.000 M487.459 413.067 C 486.433 414.727,487.354 414.957,488.789 413.399 C 489.499 412.630,489.638 412.000,489.098 412.000 C 488.559 412.000,487.821 412.480,487.459 413.067 M503.919 414.403 C 504.813 415.480,504.784 415.918,503.792 416.289 C 502.990 416.589,503.448 417.170,505.000 417.823 L 507.500 418.873 505.000 419.034 C 503.625 419.122,507.130 419.968,512.788 420.913 C 523.844 422.761,526.303 424.166,527.573 429.361 C 528.222 432.016,528.101 432.171,525.886 431.528 C 523.667 430.884,523.710 431.021,526.500 433.490 C 528.150 434.950,528.825 435.810,528.000 435.400 C 527.000 434.904,527.136 435.382,528.411 436.834 C 529.461 438.032,530.539 438.794,530.806 438.527 C 531.617 437.716,527.016 424.258,525.497 422.998 C 524.717 422.351,520.855 420.992,516.915 419.978 C 512.422 418.822,508.751 417.178,507.071 415.568 C 504.248 412.863,501.931 412.007,503.919 414.403 M480.000 418.704 C 479.175 418.954,477.825 419.419,477.000 419.738 C 476.175 420.057,475.135 420.237,474.689 420.138 C 473.260 419.823,468.015 423.377,467.496 425.013 C 466.718 427.464,462.469 426.799,459.681 423.790 C 458.300 422.300,455.895 420.777,454.335 420.405 L 451.500 419.729 454.163 422.614 C 455.628 424.201,457.338 427.432,457.964 429.794 C 459.852 436.924,462.320 437.039,472.502 430.470 C 477.176 427.455,481.000 424.541,481.000 423.994 C 481.000 423.447,480.962 422.713,480.915 422.362 C 480.868 422.011,481.426 421.355,482.156 420.903 C 483.852 419.855,482.100 418.068,480.000 418.704 M440.745 426.119 C 437.854 428.276,437.900 429.341,440.958 430.977 C 442.493 431.799,442.721 431.649,442.312 430.085 C 442.041 429.051,442.326 427.258,442.945 426.102 C 444.318 423.537,444.205 423.538,440.745 426.119 M436.624 431.539 C 436.281 432.432,436.029 433.689,436.063 434.332 C 436.098 434.974,436.558 434.422,437.085 433.105 C 437.612 431.787,437.864 430.531,437.645 430.312 C 437.426 430.093,436.966 430.645,436.624 431.539 M510.000 431.893 C 510.000 433.391,513.080 434.076,516.733 433.390 C 519.174 432.932,519.799 432.488,518.849 431.885 C 517.058 430.750,510.000 430.756,510.000 431.893 M519.269 434.693 C 520.242 434.947,521.592 434.930,522.269 434.656 C 522.946 434.382,522.150 434.175,520.500 434.195 C 518.850 434.215,518.296 434.439,519.269 434.693 M456.751 438.477 C 457.115 440.379,457.568 440.832,458.337 440.063 C 459.107 439.293,458.961 438.533,457.828 437.399 C 456.379 435.951,456.286 436.045,456.751 438.477 M432.500 441.469 C 430.336 443.243,429.962 443.938,431.156 443.964 C 432.336 443.990,432.682 444.648,432.358 446.250 C 432.017 447.937,432.288 447.749,433.439 445.500 L 434.975 442.500 434.496 446.000 L 434.018 449.500 435.433 446.000 C 437.020 442.075,437.379 438.997,436.250 439.005 C 435.837 439.008,434.150 440.117,432.500 441.469 M419.195 479.384 C 418.485 482.071,416.997 486.045,415.890 488.216 C 413.936 492.046,413.930 492.241,415.688 494.831 C 416.685 496.299,418.013 499.975,418.641 503.000 L 419.782 508.500 419.891 502.705 C 419.982 497.855,419.613 496.522,417.629 494.538 L 415.258 492.167 418.208 486.215 C 419.998 482.604,421.026 479.130,420.822 477.382 C 420.525 474.840,420.334 475.076,419.195 479.384 M462.584 490.641 C 462.036 492.070,462.184 492.107,463.727 490.924 C 464.702 490.177,465.688 489.439,465.917 489.283 C 466.146 489.127,465.631 489.000,464.774 489.000 C 463.916 489.000,462.931 489.739,462.584 490.641 M466.166 490.871 C 465.101 491.550,465.168 491.851,466.498 492.361 C 469.009 493.324,472.000 493.128,472.000 492.000 C 472.000 491.450,471.587 491.000,471.082 491.000 C 470.577 491.000,469.564 490.780,468.832 490.511 C 468.099 490.241,466.900 490.404,466.166 490.871 M464.574 496.667 C 464.222 497.584,464.399 498.799,464.967 499.367 C 465.678 500.078,466.000 500.025,466.000 499.200 C 466.000 498.540,466.730 498.000,467.622 498.000 C 468.951 498.000,469.020 497.729,468.000 496.500 C 466.384 494.553,465.366 494.603,464.574 496.667 M412.048 564.750 C 411.359 571.212,410.994 578.075,411.238 580.000 C 411.577 582.687,411.725 582.222,411.872 578.000 C 411.977 574.975,412.724 571.626,413.532 570.559 C 415.259 568.276,415.467 566.593,413.904 567.560 C 413.122 568.043,413.012 566.050,413.521 560.619 C 413.914 556.428,414.025 553.000,413.767 553.000 C 413.510 553.000,412.736 558.288,412.048 564.750 M410.252 587.500 C 410.263 589.700,410.468 590.482,410.707 589.238 C 410.946 587.994,410.937 586.194,410.687 585.238 C 410.437 584.282,410.241 585.300,410.252 587.500 M406.595 598.428 C 403.363 603.943,403.204 605.897,406.412 600.678 C 407.704 598.576,409.002 597.001,409.297 597.178 C 409.592 597.355,410.208 597.090,410.667 596.590 C 411.161 596.050,410.922 596.015,410.080 596.504 C 409.022 597.118,408.823 596.904,409.299 595.664 C 410.443 592.681,409.245 593.906,406.595 598.428 M402.195 610.500 C 402.215 612.150,402.439 612.704,402.693 611.731 C 402.947 610.758,402.930 609.408,402.656 608.731 C 402.382 608.054,402.175 608.850,402.195 610.500 M495.666 659.768 C 494.299 668.501,493.782 677.000,494.618 677.000 C 496.352 677.000,497.817 671.417,497.942 664.330 C 498.078 656.600,496.619 653.676,495.666 659.768 M500.509 664.250 C 502.366 681.128,502.753 683.000,504.385 683.000 C 505.648 683.000,505.931 672.597,504.701 671.368 C 504.325 670.992,504.454 670.158,504.987 669.515 C 505.618 668.755,505.562 667.151,504.827 664.923 C 504.205 663.041,503.554 660.938,503.380 660.250 C 503.205 659.563,502.358 659.000,501.497 659.000 C 500.201 659.000,500.031 659.906,500.509 664.250 M511.607 668.582 C 510.548 671.341,510.910 672.320,512.500 671.000 C 514.137 669.641,514.538 667.000,513.107 667.000 C 512.616 667.000,511.941 667.712,511.607 668.582 M510.445 675.362 C 510.119 676.661,509.998 679.248,510.176 681.112 C 510.498 684.480,510.511 684.469,512.250 679.312 C 514.369 673.031,514.370 673.000,512.519 673.000 C 511.705 673.000,510.771 674.063,510.445 675.362 M493.271 688.217 C 491.097 690.928,487.653 698.718,485.865 704.971 C 483.873 711.937,483.354 722.000,484.987 722.000 C 486.705 722.000,490.920 714.300,493.605 706.258 C 497.402 694.889,497.187 683.333,493.271 688.217 M525.000 696.000 C 525.589 697.100,526.295 698.000,526.570 698.000 C 526.845 698.000,526.589 697.100,526.000 696.000 C 525.411 694.900,524.705 694.000,524.430 694.000 C 524.155 694.000,524.411 694.900,525.000 696.000 M519.614 705.424 C 520.195 706.947,520.002 707.215,518.688 706.710 C 517.393 706.213,517.073 706.614,517.232 708.537 C 517.499 711.763,518.794 711.672,520.062 708.337 C 520.768 706.480,520.743 705.346,519.978 704.587 C 519.184 703.800,519.084 704.031,519.614 705.424 M502.512 709.169 C 500.896 710.440,500.000 712.146,500.000 713.950 C 500.000 716.999,501.259 718.407,504.750 719.262 C 507.781 720.004,507.612 718.600,504.500 717.182 C 501.071 715.619,501.024 711.283,504.428 710.429 C 505.763 710.094,507.897 710.150,509.170 710.554 C 511.171 711.189,511.312 711.081,510.209 709.752 C 508.143 707.262,505.218 707.041,502.512 709.169 M505.000 711.780 C 505.000 712.283,506.012 713.183,507.250 713.780 C 509.421 714.827,509.395 714.870,506.500 715.014 L 503.500 715.162 506.500 716.506 C 509.044 717.646,509.723 717.634,510.964 716.425 C 512.250 715.174,512.250 714.830,510.964 713.607 C 509.099 711.833,505.000 710.577,505.000 711.780 M515.370 717.250 C 515.701 718.487,515.979 719.875,515.986 720.333 C 516.021 722.437,518.320 720.100,518.575 717.702 C 518.805 715.552,518.445 715.000,516.815 715.000 C 515.179 715.000,514.888 715.453,515.370 717.250 M512.000 721.893 C 512.000 722.997,514.595 724.072,515.375 723.292 C 515.689 722.978,515.706 722.334,515.414 721.861 C 514.712 720.725,512.000 720.750,512.000 721.893 M402.309 856.034 C 399.339 857.574,399.233 857.804,400.773 859.345 C 401.829 860.401,401.989 861.000,401.214 861.000 C 400.546 861.000,400.000 860.550,400.000 860.000 C 400.000 859.450,399.325 859.000,398.500 859.000 C 396.436 859.000,396.622 860.348,398.979 862.481 C 400.821 864.148,401.003 864.155,401.608 862.579 C 401.966 861.647,402.875 861.122,403.629 861.411 C 405.562 862.153,405.334 860.964,403.251 859.442 C 401.653 858.273,401.738 858.104,404.251 857.473 C 406.888 856.811,407.831 855.527,406.250 854.749 C 405.837 854.546,404.064 855.124,402.309 856.034 M396.229 863.187 C 396.727 864.682,399.000 865.505,399.000 864.190 C 399.000 863.653,398.287 862.941,397.416 862.606 C 396.443 862.233,395.985 862.456,396.229 863.187 M383.222 866.461 C 375.833 870.002,375.068 870.559,377.250 870.811 C 377.938 870.890,380.798 871.241,383.606 871.591 C 387.701 872.101,389.127 871.872,390.805 870.435 C 391.956 869.450,392.672 868.279,392.397 867.833 C 392.121 867.387,392.609 867.297,393.481 867.631 C 394.853 868.158,394.906 867.888,393.873 865.620 C 393.216 864.179,392.176 863.000,391.561 863.000 C 390.947 863.000,387.194 864.557,383.222 866.461 M503.000 896.000 C 503.000 896.550,503.450 897.000,504.000 897.000 C 504.550 897.000,505.000 896.550,505.000 896.000 C 505.000 895.450,504.550 895.000,504.000 895.000 C 503.450 895.000,503.000 895.450,503.000 896.000 M495.826 899.008 C 494.905 900.020,493.651 901.783,493.041 902.924 C 492.132 904.622,492.220 905.000,493.524 905.000 C 494.401 905.000,494.863 904.588,494.552 904.085 C 494.241 903.581,495.155 901.781,496.582 900.085 C 499.332 896.817,498.673 895.877,495.826 899.008 M485.250 914.566 C 480.611 919.253,480.397 919.623,482.250 919.758 C 482.938 919.808,485.881 920.173,488.791 920.569 C 493.472 921.205,494.319 921.035,496.128 919.092 C 498.515 916.531,497.954 914.000,495.000 914.000 C 493.865 914.000,492.692 913.360,492.391 912.577 C 491.327 909.803,489.448 910.326,485.250 914.566 " stroke="none" fill="black" fill-rule="evenodd"/></svg>