<svg xmlns="http://www.w3.org/2000/svg" width="500" height="500"><path d="M237.733 7.062c-3.111 1.86-12.775 3.965-15.295 3.333-1.353-.339-4.229.104-6.459.997-2.21.884-5.98 1.608-8.377 1.608-2.653 0-4.844.587-5.602 1.5-.685.825-2.202 1.519-3.372 1.542-2.83.057-6.766 6.26-7.389 11.647-.37 3.19-1.672 5.575-5.462 10C180.309 44.075 177 50.61 177 55.024c0 1.572-.45 3.136-1 3.476-.55.34-1 1.72-1 3.068 0 1.347-1.35 4.313-3 6.591-2.917 4.026-3.823 6.841-2.204 6.841.438 0 3.701-1.565 7.25-3.477 7.623-4.107 12.145-4.516 14.397-1.3 2.418 3.452 1.884 5.918-2.407 11.111C183.228 88.362 179 96.254 179 100.067c0 2.221-.867 4.228-2.614 6.052-1.767 1.845-2.783 4.219-3.133 7.328-.285 2.529-.909 4.84-1.386 5.135-.477.295-.867 1.937-.867 3.648 0 1.712-.708 3.895-1.573 4.85-1.43 1.581-1.428 2.017.026 4.829.879 1.7 2.162 3.091 2.85 3.091 2.652 0 5.818-3.356 8.759-9.284 2.782-5.608 2.965-6.554 2-10.386-2.565-10.185-.785-12.33 10.233-12.33 7.41 0 7.744.106 11.172 3.533 3.556 3.557 4.381 5.825 2.533 6.967-.55.34-1 1.662-1 2.938 0 2.581 2.321 3.827 10.377 5.571 5.591 1.211 8.602 2.639 10.341 4.904 1.368 1.781 1.764 16.671.465 17.474-.449.277-1.639-.934-2.644-2.691-3.733-6.528-6.737-8.784-15.438-11.597-8.62-2.786-23.454.932-21.723 5.444.524 1.365.965 1.514 1.855.624 1.449-1.449 16.147-1.569 18.793-.153 1.633.874 1.845 1.944 1.533 7.75-.198 3.705-.406 6.927-.46 7.16-.054.234-1.176-.587-2.493-1.824l-2.394-2.249-4.106 2.095c-4.065 2.074-5.395 4.054-2.723 4.054.761 0 1.604.844 1.874 1.876.337 1.286 1.635 2.009 4.13 2.301 4.415.515 7.275-.859 3.778-1.816-1.744-.477-1.997-.852-1-1.484 2.49-1.579 4.721-.886 6.037 1.873.966 2.025 2.167 2.833 4.555 3.063 2.072.201 3.243.854 3.243 1.809 0 .823.469 1.206 1.041.853.573-.354.91-2.743.75-5.309-.261-4.182-.057-4.699 1.959-4.986 1.807-.256 2.25.162 2.25 2.128 0 1.346.695 3.024 1.544 3.729 1.29 1.07 1.789.932 3.031-.841 1.229-1.754 1.927-1.956 4.021-1.159 1.394.529 4.867.977 7.719.995 2.964.018 6.016.66 7.126 1.5 2.639 1.995 8.979 2.004 8.214.011-.46-1.199-.082-1.276 2.141-.43 3.572 1.358 6.206 3.819 6.197 5.792-.007 1.598-4.742 5.344-8.493 6.718-2.318.849-5.379 3.403-10.17 8.484-3.054 3.239-3.935 3.609-8.616 3.628-7.244.028-17.169 4.417-16.425 7.262.409 1.566.033 2.003-1.728 2.003-3.518 0-5.796-3.198-5.092-7.15 1.284-7.209-5.796-13.266-15.4-13.174-4.488.044-5.762.467-7.339 2.438-2.601 3.253-15.651 16.678-16.593 17.07-.417.174-2.474 3.115-4.571 6.536-4.592 7.49-6.312 14.798-4.067 17.278 1.935 2.139 1.916 5.964-.044 8.762-1.209 1.726-1.3 2.661-.42 4.306.906 1.693.773 2.489-.687 4.102-2.83 3.127-10.957 8.832-12.581 8.832-.807 0-3.446 1.342-5.867 2.982-2.42 1.64-5.075 2.99-5.9 3.001-.825.011-2.85 1.194-4.5 2.63s-4.575 3.795-6.5 5.243c-1.925 1.448-3.725 2.86-4 3.138-.275.278-2.525 2.064-5 3.969-2.475 1.905-4.65 3.817-4.833 4.25-.184.433-.72.787-1.193.787-.472 0-3.831 1.864-7.464 4.141-5.864 3.677-9.51 7.801-9.51 10.756 0 .548-1.523 3.607-3.385 6.799-1.862 3.192-3.924 8.504-4.582 11.804-2.012 10.092-4.094 16.31-5.664 16.912-.823.316-1.257.96-.965 1.433.292.472-.037 3.644-.732 7.049-.876 4.297-2.027 6.866-3.761 8.398-2.861 2.528-6.005 7.659-7.731 12.616-1.085 3.118-.931 3.805 1.817 8.087 3.671 5.721 3.744 7.928.429 12.938-1.46 2.206-2.89 6.2-3.304 9.228-.723 5.295-7.166 17.97-10.569 20.795-.854.709-1.553 2.347-1.553 3.64 0 1.293-.97 4.347-2.156 6.787l-2.155 4.437 6.286 7.073c3.457 3.89 9.903 9.893 14.324 13.34 4.422 3.447 8.751 7.165 9.62 8.262 3.945 4.979 10.759 10.691 13.378 11.214 1.693.339 3.317 1.545 3.95 2.933.591 1.297 1.407 2.358 1.813 2.358.406 0 3.147 1.641 6.09 3.646C116.739 465.137 135.6 475 137.598 475c3.13 0 2.676-3.163-.96-6.695-3.712-3.605-4.698-6.305-2.303-6.305.734 0 2.537 1.35 4.007 3 3.241 3.637 4.922 3.772 7.024.564 7.946-12.126 11.525-24.596 8.319-28.981-1.246-1.703-1.64-1.634-7.472 1.309-7.45 3.761-8.33 3.873-4.808.608 1.484-1.375 3.109-2.5 3.612-2.5 1.621 0 8.038-6.205 9.659-9.34 1.84-3.559 2.627-6.021 5.802-18.16 4.406-16.844 6.629-24.864 7.107-25.637.262-.424 2.282-6.947 4.489-14.495 2.208-7.548 6.892-21.406 10.411-30.796 3.519-9.389 7.813-21.122 9.543-26.072 3.756-10.747 6.983-16.692 11.804-21.75 3.642-3.821 6.446-4.726 7.81-2.521.417.676.649 5.513.514 10.75-.134 5.237.242 12.671.836 16.521.594 3.85 1.528 9.925 2.075 13.5 1.713 11.206 3.104 17.212 6.136 26.5 3.763 11.526 5.581 15.48 7.45 16.197 1.511.58 11.347-8.148 11.347-10.069 0-.52 1.8-3.33 4-6.244 2.2-2.914 4-5.567 4-5.896 0-.329 1.848-3.319 4.107-6.645 4.2-6.185 23.893-45.997 23.893-48.302 0-.265 1.174-3.083 2.608-6.261a643.33 643.33 0 004.102-9.28 1425.5 1425.5 0 012.36-5.5c.476-1.1 2.289-6.257 4.028-11.459 3.088-9.234 8.147-18.486 10.652-19.481.688-.274 1.921-.24 2.741.075 1.67.641 8.509 9.583 8.509 11.127 0 .546.623 1.51 1.384 2.142 2.18 1.809 9.718-7.213 11.954-14.308 1.871-5.933 3.883-7.596 9.196-7.596 3.212 0 2.298-2.054-1.818-4.09-3.502-1.732-4.739-4.58-2.382-5.485.815-.312 4.011.589 7.103 2.003 3.092 1.415 7.184 2.572 9.093 2.572 4.969 0 4.533 2.585-1.28 7.585-6.086 5.233-8.847 6.678-11.288 5.903-1.403-.445-1.962-.157-1.962 1.012 0 .899-1.544 3.091-3.432 4.871-3.518 3.318-5.506 8.146-3.945 9.581.482.443 2.53 1.099 4.55 1.458 3.11.552 3.77.346 4.306-1.344.42-1.324 1.879-2.221 4.327-2.663 2.032-.366 4.454-1.058 5.383-1.537 4.298-2.216 1.965 1.37-5.244 8.061-6.657 6.178-7.82 7.721-7.321 9.709.439 1.751.176 2.364-1.016 2.364-1.519 0-2.017 1.056-1.71 3.629.074.621-.773 1.367-1.882 1.657-2.559.669-2.605 2.327-.083 2.986 1.389.363 2.022 1.55 2.25 4.215l.317 3.71 3.888-7.349c2.138-4.041 5.348-8.923 7.132-10.848 15.308-16.516 22.701-21.15 36.23-22.711 2.954-.341 4.25-.117 4.25.734 0 .674-3.488 4.67-7.75 8.881-4.263 4.211-8.425 8.993-9.25 10.626-.825 1.634-3.828 5.748-6.674 9.144-5.654 6.747-7.902 10.326-6.484 10.326.502 0 1.509-.718 2.236-1.595 1.671-2.012 10.92-6.524 12.004-5.855 1.073.664-3.276 9.253-9.087 17.95-7.528 11.266-10.224 23.213-8.763 38.844.624 6.683.437 8.532-1.263 12.5-3.333 7.776-11.002 20.756-16.044 27.156-1.517 1.925-3.746 6.875-4.955 11-2.971 10.14-5.943 15.72-12.07 22.657-6.038 6.838-9.876 14.38-9.89 19.433-.006 1.975-1.366 6.303-3.022 9.619-2.903 5.808-3.351 6.201-12.25 10.752-6.132 3.136-11.255 5.003-15.238 5.552-16.623 2.292-26.56 4.377-31.936 6.701-12.204 5.274-24.07 6.562-39.564 4.294-3.575-.523-14.757-1.016-24.848-1.095-20.902-.165-20.259-.393-23.242 8.245-2.475 7.168-2.457 7.256 1.84 8.707 4.108 1.388 7.799 2.885 10.486 4.252.955.486 2.649.883 3.764.883 1.115 0 2.809.395 3.764.877 3.112 1.573 8.82 3.123 11.498 3.123 1.441 0 2.898.45 3.238 1 .34.55 2.14 1 4 1 1.86 0 3.66.45 4 1 .34.55 2.616 1 5.059 1 3.602 0 5.582 1.044 4.191 2.209 31.765 2.99 79.13 1.208 95.691-2.209 2.443 0 4.719-.45 5.059-1 .34-.55 2.14-1 4-1 1.86 0 3.66-.45 4-1 .34-.55 2.365-1 4.5-1s4.16-.45 4.5-1c.34-.55 1.498-1 2.573-1s2.736-.406 3.691-.903c.955-.496 3.761-1.474 6.236-2.173 2.475-.7 4.927-1.644 5.45-2.098.522-.454 1.711-.826 2.641-.826 2.486 0 40.28-19.334 44.815-22.926 2.135-1.691 4.267-3.08 4.738-3.087.471-.008 1.981-.92 3.356-2.029 1.375-1.108 5.313-4.032 8.75-6.498 3.438-2.465 6.25-5.169 6.25-6.007 0-2.55 3.113-6.453 5.146-6.453 2.974 0 3.372-2.758.712-4.928-2.063-1.683-2.149-2.005-.689-2.574.918-.357 2.809.097 4.201 1.009 5.157 3.379 8.267-.065 13.226-14.648 3.984-11.717 4.103-13.16 1.305-15.958-2.268-2.268-2.267-5.817.011-26.901.505-4.675 1.35-13.45 1.877-19.5.655-7.519 1.551-12.028 2.834-14.25 1.836-3.179 1.836-3.321-.003-6.5-1.884-3.258-3.12-10.177-4.153-23.25-.585-7.41-1.841-12.965-4.106-18.17-.758-1.744-1.67-4.625-2.025-6.402-.97-4.847-5.133-11.686-8.685-14.268a1376.907 1376.907 0 01-8.359-6.149l-5.209-3.858-.291-6.577c-.274-6.172-.476-6.671-3.292-8.122-1.65-.851-4.51-2.988-6.356-4.75-1.845-1.762-3.957-3.204-4.693-3.204-1.655 0-7.996-3.602-11.778-6.691-1.554-1.27-3.804-2.312-5-2.316-2.306-.007-6.885-2.652-8.939-5.163-1.43-1.75-7.313-3.917-17.234-6.349-3.85-.944-11.169-3.734-16.264-6.2-5.096-2.466-9.881-4.247-10.635-3.958-2.406.923-5.078-1.94-9.088-9.734-3.965-7.707-5.283-8.776-7.513-6.089-.685.825-1.606 1.5-2.047 1.5-.946 0-4.789-11.802-7.977-24.5-2.358-9.391-5.61-17.5-7.018-17.5-.452 0-1.803 1.379-3.003 3.064-1.2 1.684-2.751 2.845-3.446 2.578-.696-.267-1.737-.014-2.314.563-1.521 1.521-5.954.114-7.246-2.3-.882-1.647-.753-2.464.626-3.988.954-1.054 2.305-1.917 3.002-1.917.935 0 1.223-2.166 1.095-8.25-.183-8.769 1.307-14.219 4.528-16.557 1.051-.763 1.8-2.569 1.8-4.343 0-2.224.551-3.181 2.056-3.575 1.856-.485 1.992-1.045 1.399-5.785-.664-5.321.093-6.995 2.705-5.971 2.133.836 5.73 7.035 6.771 11.67 1.151 5.124 3.197 6.811 8.26 6.811 3.527 0 3.809.212 3.809 2.869 0 2.769-.179 2.874-5.098 2.985-4.34.097-5.177-.188-5.63-1.924-.395-1.51-1.212-1.959-3.153-1.734-2.548.296-2.627.517-2.913 8.149-.393 10.489.151 11.08 9.429 10.239 8.428-.764 12.093-2.371 16.281-7.141 2.963-3.374 3.718-5.206 4.304-10.443.358-3.194 2.852-3.239 4.427-.081.663 1.331 1.914 2.816 2.78 3.3 1.25.7 1.573 2.737 1.573 9.924 0 8.203.186 9.093 2 9.567 2.291.599 2.53 3.278.918 10.275-1.37 5.946-3.493 8.313-6.171 6.88-1.512-.81-2.219-.741-2.892.282-3.957 6.008-4.799 7.835-4.26 9.24.786 2.048 1.164 2.026 5.56-.33 1.994-1.069 3.866-1.703 4.159-1.41.293.294-.107 2.35-.89 4.569-1.846 5.231-1.916 5.051 1.664 4.265 2.933-.644 3.029-.569 1.92 1.505-.643 1.201-2.692 2.819-4.552 3.597-4.643 1.94-5.81 4.574-5.168 11.662.531 5.855 1.57 8.419 2.432 6.005.246-.688 1.01-1.25 1.699-1.25 1.817 0 8.275-7.507 10.163-11.812a144.078 144.078 0 013.517-7.324c2.227-4.259 2.743-19.622.728-21.637-.897-.897-.897-1.778 0-3.747.645-1.416 1.173-3.588 1.173-4.827 0-1.239.529-2.782 1.176-3.429.902-.902.802-1.591-.428-2.95-1.831-2.024-5.271-14.117-6.336-22.274-.395-3.025-1.353-6.478-2.129-7.673-.777-1.194-1.671-4.682-1.987-7.75L330.72 105h3.671c4.161 0 5.466-1.824 3.847-5.378-.645-1.414-.681-2.866-.097-3.909.962-1.72-2.329-9.713-4.001-9.713-1.462 0-2.876-4.445-2.068-6.5 1.393-3.538 1.044-11.159-.572-12.5-.825-.685-1.5-2.546-1.5-4.136 0-1.59-.4-3.673-.888-4.628-.489-.955-1.351-4.257-1.916-7.338-.625-3.405-2.272-7.366-4.2-10.102-2.79-3.958-4.217-4.89-11.834-7.731C293.681 26.547 288 23.237 288 19.571c0-2.967-1.245-3.468-7.038-2.837-3.781.412-5.031.085-7.5-1.963-4.381-3.636-11.889-6.014-21.462-6.799-4.675-.384-9.4-.983-10.5-1.332-1.1-.348-2.795-.158-3.767.422M246 21c0 .55-.45 1-1 1s-1-.45-1-1 .45-1 1-1 1 .45 1 1m-19.349 42.096c3.54 2.185 4.447 3.814 3.704 6.654-.392 1.498.255 2.223 2.818 3.159 6.614 2.416 11.992 5.486 13.931 7.951 2.923 3.715.621 4.538-8.727 3.121-7.245-1.098-7.673-1.052-9.929 1.067l-2.357 2.215-4.295-2.073c-4.112-1.984-5.753-3.416-14.786-12.9-5.474-5.748-5.266-7.936 1.022-10.762 4.432-1.991 14.182-1.17 18.619 1.568M307.5 112c-.34.55-1.266 1-2.059 1-.793 0-1.441-.45-1.441-1s.927-1 2.059-1c1.132 0 1.781.45 1.441 1m-86.729 33.813c.218.653-.317 1.187-1.188 1.187-.87 0-1.583-.713-1.583-1.583 0-1.766 2.153-1.459 2.771.396m-49.338 1.502c-.278.724-.067 2.411.468 3.75.895 2.243.977 2.139 1.036-1.315.064-3.795-.582-4.84-1.504-2.435m8.738 6.978c-.62.748-1.819 3.013-2.663 5.034-1.951 4.669-4.496 4.906-4.538.423-.023-2.427-.261-2.857-.939-1.699C170.406 160.828 174.51 174 177 174c1.409 0 4-5.515 4-8.516 0-1.439.404-3.373.898-4.3 2.48-4.65 1.074-10.264-1.727-6.891m139.435 6.243c-.897.898-3.201 2.066-5.119 2.595-3.944 1.089-4.704 3.892-1.645 6.062 1.013.719 2.103 1.982 2.421 2.807.396 1.027.604.808.658-.693.083-2.296 3.757-9.305 5.505-10.503.559-.382.745-.966.414-1.297-.331-.331-1.336.132-2.234 1.029M208.5 189c-.34.55-1.041 1-1.559 1s-.941-.45-.941-1 .702-1 1.559-1 1.281.45.941 1m121.497 3.005c-1.232 2.302-2.997 3.504-2.997 2.04 0-1.74 2.332-4.958 3.203-4.42.441.273.349 1.344-.206 2.38m-13.538 95.062c-.363.586-.454 1.272-.202 1.523.697.698 3.743-.683 3.743-1.697 0-1.252-2.743-1.117-3.541.174m-185.406 14.497c.824.993 2.148 1.352 3.623.981 3.197-.802 3.019 1.008-.876 8.906-2.911 5.904-5.256 8.426-6.592 7.09-1.241-1.241-1.423-15.577-.216-17.031 1.587-1.913 2.438-1.901 4.061.054m230.197 97.852c2.98 4.707 3.318 6.115 1.706 7.111-1.717 1.061-3.956-1.57-3.956-4.649 0-2.369-.423-2.878-2.393-2.878-2.296 0-4.117-2.157-2.871-3.402 1.805-1.805 4.972-.196 7.514 3.818m30.112 9.084c.316.825 1.216 1.5 2 1.5.783 0 1.683-.675 2-1.5.316-.825 1.294-1.5 2.173-1.5 1.153 0 1.51.765 1.281 2.75-.263 2.291-.858 2.802-3.563 3.063-2.476.239-3.392.892-3.858 2.75-.337 1.34-1.211 2.437-1.944 2.437-1.817 0-2.739-1.704-1.378-2.545.657-.406.862-1.989.505-3.891-.575-3.066-.089-4.564 1.482-4.564.399 0 .985.675 1.302 1.5"/></svg>